<svg width="279" height="310" viewBox="0 0 279 310" fill="none" xmlns="http://www.w3.org/2000/svg">
<g clip-path="url(#clip0_619_21)">
<path d="M203.043 158.626C203 158.626 202.957 158.604 202.936 158.561L200.993 155.173C200.95 155.129 200.972 155.065 201.036 155.022C201.079 155 201.144 155.022 201.187 155.065L203.13 158.453C203.151 158.518 203.151 158.583 203.087 158.604C203.087 158.604 203.065 158.626 203.043 158.626Z" fill="white"/>
<path d="M204.014 156.921H200.108C200.043 156.921 200 156.878 200 156.813C200 156.748 200.043 156.705 200.108 156.705H204.014C204.079 156.705 204.122 156.748 204.122 156.813C204.122 156.878 204.079 156.921 204.014 156.921Z" fill="white"/>
<path d="M201.08 158.604C201.058 158.604 201.037 158.604 201.015 158.583C200.95 158.561 200.95 158.475 200.972 158.431L202.914 155.043C202.936 154.978 203.022 154.978 203.065 155C203.13 155.022 203.13 155.108 203.108 155.151L201.166 158.539C201.166 158.583 201.123 158.604 201.08 158.604Z" fill="white"/>
<path d="M203.41 157.676C203.388 157.676 203.388 157.676 203.366 157.655L200.69 156.122C200.647 156.101 200.626 156.036 200.647 155.993C200.669 155.95 200.733 155.928 200.777 155.95L203.453 157.503C203.496 157.525 203.517 157.59 203.496 157.633C203.474 157.655 203.431 157.676 203.41 157.676Z" fill="white"/>
<path d="M200.733 157.676C200.712 157.676 200.669 157.655 200.647 157.633C200.626 157.59 200.647 157.525 200.69 157.503L203.366 155.95C203.41 155.928 203.474 155.95 203.496 155.993C203.517 156.036 203.496 156.101 203.453 156.122L200.777 157.655C200.755 157.676 200.733 157.676 200.733 157.676Z" fill="white"/>
<path d="M202.071 158.431C202.028 158.431 201.984 158.388 201.984 158.345V155.259C201.984 155.216 202.028 155.173 202.071 155.173C202.114 155.173 202.157 155.216 202.157 155.259V158.345C202.157 158.41 202.114 158.431 202.071 158.431Z" fill="white"/>
</g>
<g clip-path="url(#clip1_619_21)">
<path d="M159.639 242.366C159.596 242.366 159.553 242.344 159.531 242.301L157.589 238.913C157.546 238.87 157.567 238.805 157.632 238.762C157.675 238.74 157.74 238.762 157.783 238.805L159.725 242.193C159.747 242.258 159.747 242.323 159.682 242.344C159.682 242.344 159.661 242.366 159.639 242.366Z" fill="white"/>
<path d="M160.61 240.661H156.704C156.639 240.661 156.596 240.618 156.596 240.553C156.596 240.488 156.639 240.445 156.704 240.445H160.61C160.675 240.445 160.718 240.488 160.718 240.553C160.718 240.618 160.675 240.661 160.61 240.661Z" fill="white"/>
<path d="M157.676 242.344C157.654 242.344 157.632 242.344 157.611 242.323C157.546 242.301 157.546 242.215 157.568 242.172L159.51 238.783C159.532 238.719 159.618 238.719 159.661 238.74C159.726 238.762 159.726 238.848 159.704 238.891L157.762 242.28C157.762 242.323 157.719 242.344 157.676 242.344Z" fill="white"/>
<path d="M160.005 241.416C159.984 241.416 159.984 241.416 159.962 241.395L157.286 239.862C157.243 239.841 157.221 239.776 157.243 239.733C157.264 239.69 157.329 239.668 157.372 239.69L160.048 241.244C160.092 241.265 160.113 241.33 160.092 241.373C160.07 241.395 160.027 241.416 160.005 241.416Z" fill="white"/>
<path d="M157.329 241.416C157.308 241.416 157.264 241.395 157.243 241.373C157.221 241.33 157.243 241.265 157.286 241.244L159.962 239.69C160.005 239.668 160.07 239.69 160.092 239.733C160.113 239.776 160.092 239.841 160.048 239.862L157.372 241.395C157.351 241.416 157.329 241.416 157.329 241.416Z" fill="white"/>
<path d="M158.666 242.172C158.623 242.172 158.58 242.128 158.58 242.085V238.999C158.58 238.956 158.623 238.913 158.666 238.913C158.71 238.913 158.753 238.956 158.753 238.999V242.085C158.753 242.15 158.71 242.172 158.666 242.172Z" fill="white"/>
</g>
<g clip-path="url(#clip2_619_21)">
<path d="M4.0356 247.471C3.99244 247.471 3.94927 247.45 3.92769 247.407L1.98535 244.018C1.94218 243.975 1.96377 243.911 2.02851 243.867C2.07167 243.846 2.13642 243.867 2.17958 243.911L4.12193 247.299C4.14351 247.364 4.14351 247.428 4.07876 247.45C4.07876 247.45 4.05718 247.471 4.0356 247.471Z" fill="white"/>
<path d="M5.00637 245.767H1.1001C1.03535 245.767 0.992188 245.723 0.992188 245.659C0.992188 245.594 1.03535 245.551 1.1001 245.551H5.00637C5.07111 245.551 5.11428 245.594 5.11428 245.659C5.11428 245.723 5.07111 245.767 5.00637 245.767Z" fill="white"/>
<path d="M2.07199 247.45C2.05041 247.45 2.02882 247.45 2.00724 247.428C1.9425 247.407 1.9425 247.32 1.96408 247.277L3.90642 243.889C3.92801 243.824 4.01433 243.824 4.0575 243.846C4.12224 243.867 4.12224 243.954 4.10066 243.997L2.15831 247.385C2.15831 247.428 2.11515 247.45 2.07199 247.45Z" fill="white"/>
<path d="M4.40177 246.522C4.38019 246.522 4.38019 246.522 4.35861 246.5L1.68249 244.968C1.63933 244.946 1.61774 244.882 1.63933 244.839C1.66091 244.795 1.72565 244.774 1.76882 244.795L4.44494 246.349C4.4881 246.371 4.50968 246.436 4.4881 246.479C4.46652 246.5 4.42335 246.522 4.40177 246.522Z" fill="white"/>
<path d="M1.72565 246.522C1.70407 246.522 1.66091 246.5 1.63933 246.479C1.61774 246.436 1.63933 246.371 1.68249 246.349L4.35861 244.795C4.40177 244.774 4.46652 244.795 4.4881 244.839C4.50968 244.882 4.4881 244.946 4.44494 244.968L1.76882 246.5C1.74723 246.522 1.72565 246.522 1.72565 246.522Z" fill="white"/>
<path d="M3.06289 247.277C3.01973 247.277 2.97656 247.234 2.97656 247.191V244.105C2.97656 244.062 3.01973 244.018 3.06289 244.018C3.10605 244.018 3.14922 244.062 3.14922 244.105V247.191C3.14922 247.256 3.10605 247.277 3.06289 247.277Z" fill="white"/>
</g>
<g clip-path="url(#clip3_619_21)">
<path d="M226.624 89.2675C226.368 89.0497 225.891 89.086 225.561 89.086C225.085 89.1223 224.608 89.086 224.132 89.1223C224.095 88.7229 223.949 88.2872 223.839 87.8879C223.766 87.6337 223.656 87.1255 223.436 86.9439C223.362 86.8713 223.216 86.835 223.143 86.9076C222.886 87.0892 222.849 87.4885 222.739 87.7427C222.593 88.2146 222.446 88.7229 222.3 89.1949C221.823 89.1949 221.347 89.2312 220.87 89.2675C220.577 89.2675 220.064 89.2675 219.844 89.4853C219.148 90.2114 221.31 90.9739 221.677 91.1191H221.713C221.42 91.6274 221.237 92.2082 221.017 92.7528C220.87 93.0796 220.76 93.4063 220.98 93.6968C221.347 94.1324 222.739 92.898 223.326 92.3535C223.949 92.898 225.378 94.0235 225.745 93.5879C225.964 93.2974 225.818 92.9707 225.671 92.6439C225.415 92.0993 225.195 91.5547 224.865 91.0465H224.902C225.231 90.8286 227.32 89.9573 226.624 89.2675ZM224.425 89.6306C224.389 89.6306 224.352 89.6306 224.315 89.6306C224.169 89.6306 224.095 89.7032 224.059 89.7758C224.022 89.7395 223.985 89.6669 223.949 89.6306C223.985 89.6306 223.985 89.6306 224.022 89.5942C224.242 89.5942 224.499 89.5579 224.718 89.5579C224.608 89.5942 224.535 89.5942 224.425 89.6306ZM222.19 89.6669H222.153C222.116 89.6669 222.08 89.6669 222.043 89.7032C221.933 89.7032 221.86 89.7032 221.75 89.6669C221.897 89.6669 222.043 89.6669 222.19 89.6669Z" fill="#4782AC"/>
<path d="M225.929 88.3957C225.672 88.1778 225.196 88.2141 224.866 88.2141C224.39 88.2504 223.913 88.2141 223.437 88.2504C223.4 87.8511 223.253 87.4154 223.144 87.016C223.07 86.7619 222.96 86.2536 222.74 86.0721C222.667 85.9995 222.557 85.9632 222.447 86.0358C222.191 86.2173 222.154 86.6167 222.044 86.9071C221.898 87.3428 221.751 87.8511 221.604 88.323C221.128 88.323 220.651 88.3593 220.175 88.3957C219.882 88.3957 219.369 88.3957 219.149 88.6135C218.453 89.3396 220.615 90.102 220.981 90.2472H221.018C220.725 90.7555 220.542 91.3364 220.322 91.881C220.175 92.2077 220.065 92.5345 220.285 92.8249C220.651 93.2606 222.044 92.0262 222.63 91.4816C223.253 92.0262 224.683 93.1517 225.049 92.716C225.269 92.4256 225.123 92.0988 224.976 91.7721C224.719 91.2275 224.5 90.6829 224.17 90.1746H224.206C224.536 89.9568 226.625 89.0855 225.929 88.3957ZM223.73 88.7587C223.693 88.7587 223.657 88.7587 223.62 88.7587C223.473 88.7587 223.4 88.8313 223.363 88.9039C223.327 88.8676 223.29 88.795 223.253 88.7587C223.29 88.7587 223.29 88.7587 223.327 88.7224C223.547 88.7224 223.803 88.6861 224.023 88.6861C223.913 88.7224 223.84 88.7224 223.73 88.7587ZM221.494 88.795H221.458C221.421 88.795 221.384 88.795 221.348 88.8313C221.238 88.8313 221.165 88.8313 221.055 88.795C221.201 88.795 221.348 88.795 221.494 88.795Z" fill="white"/>
</g>
<g clip-path="url(#clip4_619_21)">
<path d="M152.389 128.773C152.183 128.506 151.709 128.443 151.387 128.375C150.913 128.312 150.454 128.178 149.981 128.115C150.027 127.717 149.974 127.26 149.949 126.847C149.93 126.583 149.927 126.063 149.75 125.84C149.693 125.754 149.557 125.688 149.47 125.744C149.182 125.869 149.063 126.252 148.903 126.478C148.662 126.909 148.414 127.376 148.173 127.808C147.707 127.709 147.233 127.646 146.759 127.583C146.473 127.523 145.971 127.417 145.71 127.584C144.879 128.151 146.837 129.344 147.166 129.562L147.201 129.569C146.81 130.006 146.51 130.536 146.182 131.024C145.972 131.313 145.796 131.61 145.952 131.94C146.22 132.442 147.838 131.522 148.524 131.11C149.021 131.772 150.187 133.168 150.635 132.818C150.911 132.579 150.835 132.229 150.759 131.879C150.62 131.293 150.518 130.715 150.3 130.149L150.336 130.157C150.704 130.012 152.928 129.591 152.389 128.773ZM150.163 128.673C150.127 128.666 150.091 128.658 150.055 128.651C149.912 128.62 149.825 128.676 149.774 128.74C149.746 128.696 149.725 128.618 149.696 128.575C149.732 128.582 149.732 128.582 149.776 128.554C149.991 128.6 150.249 128.617 150.464 128.663C150.349 128.676 150.278 128.66 150.163 128.673ZM147.968 128.247L147.932 128.239C147.896 128.232 147.86 128.224 147.817 128.252C147.709 128.229 147.638 128.214 147.537 128.156C147.681 128.186 147.824 128.216 147.968 128.247Z" fill="#4782AC"/>
<path d="M151.889 127.776C151.683 127.51 151.209 127.447 150.887 127.379C150.413 127.316 149.954 127.182 149.481 127.119C149.527 126.72 149.474 126.264 149.449 125.85C149.43 125.587 149.427 125.067 149.25 124.843C149.193 124.757 149.093 124.699 148.97 124.747C148.682 124.872 148.563 125.255 148.396 125.517C148.162 125.913 147.914 126.38 147.673 126.811C147.207 126.713 146.733 126.65 146.259 126.587C145.973 126.526 145.471 126.42 145.21 126.588C144.379 127.154 146.337 128.347 146.666 128.565L146.701 128.572C146.31 129.009 146.01 129.54 145.682 130.027C145.472 130.316 145.296 130.613 145.452 130.943C145.72 131.445 147.338 130.525 148.024 130.113C148.521 130.775 149.687 132.172 150.135 131.821C150.411 131.582 150.335 131.232 150.259 130.882C150.12 130.297 150.018 129.718 149.8 129.153L149.836 129.16C150.204 129.015 152.428 128.595 151.889 127.776ZM149.663 127.677C149.627 127.669 149.591 127.661 149.555 127.654C149.412 127.624 149.325 127.679 149.274 127.743C149.246 127.7 149.225 127.621 149.196 127.578C149.232 127.586 149.232 127.586 149.276 127.558C149.491 127.603 149.749 127.621 149.964 127.666C149.849 127.679 149.778 127.664 149.663 127.677ZM147.468 127.25L147.432 127.242C147.396 127.235 147.36 127.227 147.317 127.255C147.209 127.233 147.138 127.217 147.037 127.159C147.181 127.189 147.324 127.22 147.468 127.25Z" fill="white"/>
</g>
<g clip-path="url(#clip5_619_21)">
<path d="M269.389 126.773C269.183 126.506 268.709 126.443 268.387 126.375C267.913 126.312 267.454 126.178 266.981 126.115C267.027 125.717 266.974 125.26 266.949 124.847C266.93 124.583 266.927 124.063 266.75 123.84C266.693 123.754 266.557 123.688 266.47 123.744C266.182 123.869 266.063 124.252 265.903 124.478C265.662 124.909 265.414 125.376 265.173 125.808C264.707 125.709 264.233 125.646 263.759 125.583C263.473 125.523 262.971 125.417 262.71 125.584C261.879 126.151 263.837 127.344 264.166 127.562L264.201 127.569C263.81 128.006 263.51 128.536 263.182 129.024C262.972 129.313 262.796 129.61 262.952 129.94C263.22 130.442 264.838 129.522 265.524 129.11C266.021 129.772 267.187 131.168 267.635 130.818C267.911 130.579 267.835 130.229 267.759 129.879C267.62 129.293 267.518 128.715 267.3 128.149L267.336 128.157C267.704 128.012 269.928 127.591 269.389 126.773ZM267.163 126.673C267.127 126.666 267.091 126.658 267.055 126.651C266.912 126.62 266.825 126.676 266.774 126.74C266.746 126.696 266.725 126.618 266.696 126.575C266.732 126.582 266.732 126.582 266.776 126.554C266.991 126.6 267.249 126.617 267.464 126.663C267.349 126.676 267.278 126.66 267.163 126.673ZM264.968 126.247L264.932 126.239C264.896 126.232 264.86 126.224 264.817 126.252C264.709 126.229 264.638 126.214 264.537 126.156C264.681 126.186 264.824 126.216 264.968 126.247Z" fill="#4782AC"/>
<path d="M268.889 125.776C268.683 125.51 268.209 125.447 267.887 125.379C267.413 125.316 266.954 125.182 266.481 125.119C266.527 124.72 266.474 124.264 266.449 123.85C266.43 123.587 266.427 123.067 266.25 122.843C266.193 122.757 266.093 122.699 265.97 122.747C265.682 122.872 265.563 123.255 265.396 123.517C265.162 123.913 264.914 124.38 264.673 124.811C264.207 124.713 263.733 124.65 263.259 124.587C262.973 124.526 262.471 124.42 262.21 124.588C261.379 125.154 263.337 126.347 263.666 126.565L263.701 126.572C263.31 127.009 263.01 127.54 262.682 128.027C262.472 128.316 262.296 128.613 262.452 128.943C262.72 129.445 264.338 128.525 265.024 128.113C265.521 128.775 266.687 130.172 267.135 129.821C267.411 129.582 267.335 129.232 267.259 128.882C267.12 128.297 267.018 127.718 266.8 127.153L266.836 127.16C267.204 127.015 269.428 126.595 268.889 125.776ZM266.663 125.677C266.627 125.669 266.591 125.661 266.555 125.654C266.412 125.624 266.325 125.679 266.274 125.743C266.246 125.7 266.225 125.621 266.196 125.578C266.232 125.586 266.232 125.586 266.276 125.558C266.491 125.603 266.749 125.621 266.964 125.666C266.849 125.679 266.778 125.664 266.663 125.677ZM264.468 125.25L264.432 125.242C264.396 125.235 264.36 125.227 264.317 125.255C264.209 125.233 264.138 125.217 264.037 125.159C264.181 125.189 264.324 125.22 264.468 125.25Z" fill="white"/>
</g>
<g clip-path="url(#clip6_619_21)">
<path d="M254.46 1.66177C254.633 1.89917 254.805 2.15815 254.956 2.43871C254.999 2.52504 255.064 2.61136 255.107 2.69769C255.194 2.84876 255.302 3.02142 255.388 3.19407C255.539 3.45305 255.69 3.71203 255.841 3.99259C255.971 4.22999 256.122 4.48897 256.273 4.76953C256.424 5.02851 256.575 5.30907 256.726 5.56805C256.877 5.82702 257.007 6.086 257.158 6.34498C257.309 6.62554 257.46 6.90611 257.611 7.16509C257.762 7.44565 257.913 7.70463 258.043 7.94202C258.215 8.26575 258.366 8.54631 258.496 8.76212C258.647 9.0211 258.712 9.17218 258.733 9.19376C258.949 9.58223 258.819 10.057 258.474 10.316C258.453 10.3376 258.431 10.3376 258.388 10.3592C257.978 10.5966 257.438 10.4239 257.222 10.0139C257.222 10.0139 257.201 9.99228 257.179 9.92753C257.114 9.79804 256.942 9.51748 256.726 9.10743C256.597 8.87003 256.467 8.61105 256.294 8.33049C256.165 8.07151 256.014 7.81253 255.841 7.51039C255.712 7.25141 255.561 6.99243 255.41 6.73345C255.258 6.47447 255.107 6.19391 254.956 5.91335C254.805 5.65437 254.676 5.39539 254.525 5.15799C254.374 4.87743 254.223 4.59687 254.071 4.35948C253.92 4.07891 253.769 3.81994 253.64 3.60412C253.64 3.58254 253.618 3.56096 253.618 3.56096C253.489 3.32356 253.338 3.08616 253.165 2.82718C253.079 2.71927 253.014 2.58978 252.928 2.48188C252.69 2.17973 252.453 1.94233 252.215 1.81284C252.151 1.79126 252.108 1.7481 252.043 1.7481C252.021 1.72652 252 1.72652 251.978 1.72652C251.849 1.70494 251.568 1.72652 251.115 1.9855C251.072 2.00708 251.05 2.02866 251.007 2.02866C250.985 2.05024 250.964 2.07182 250.942 2.09341C250.834 2.17973 250.769 2.28764 250.748 2.41713C250.705 2.65453 250.748 2.95667 250.834 3.28039C250.856 3.34514 250.877 3.40988 250.899 3.47463C251.028 3.81994 251.201 4.16524 251.352 4.42422C251.395 4.51055 251.439 4.57529 251.482 4.64004C251.633 4.87743 251.676 5.158 251.568 5.41697C251.503 5.56805 251.395 5.71912 251.244 5.82702C250.856 6.086 250.316 5.99968 250.057 5.58963C250.036 5.54646 249.949 5.41697 249.841 5.24432C249.69 5.00692 249.518 4.64004 249.367 4.22999C249.259 3.94942 249.151 3.6257 249.108 3.30198C249.021 2.89193 249.021 2.48188 249.108 2.07182C249.151 1.92075 249.194 1.76968 249.259 1.61861C249.324 1.31647 249.496 1.07907 249.734 0.863254C249.841 0.755346 249.971 0.66902 250.122 0.582693C250.316 0.474785 250.511 0.366877 250.683 0.28055C250.985 0.151061 251.266 0.0647343 251.546 0.0215711C251.87 -0.0215922 252.172 -1.05585e-05 252.474 0.0647343C252.604 0.107898 252.733 0.151061 252.863 0.194224C253.143 0.323714 253.402 0.496367 253.64 0.712183C253.942 0.992744 254.201 1.31647 254.46 1.66177Z" fill="white"/>
<path d="M250.877 3.47464C251.007 3.81995 251.179 4.16525 251.331 4.42423L249.323 4.23C249.216 3.94944 249.108 3.62571 249.064 3.30199L250.877 3.47464Z" fill="#EBA7BE"/>
<path d="M251.547 5.3954C251.482 5.54647 251.374 5.69754 251.223 5.80545C250.835 6.06443 250.295 5.9781 250.036 5.56805C250.015 5.52489 249.928 5.3954 249.82 5.22275L251.547 5.3954Z" fill="#EBA7BE"/>
<path d="M250.941 2.0934C250.834 2.17973 250.769 2.28764 250.747 2.41713C250.704 2.65453 250.747 2.95667 250.834 3.28039L249.193 1.61861C249.323 1.31646 249.496 1.07907 249.733 0.863251L250.941 2.0934Z" fill="#EBA7BE"/>
<path d="M251.547 0.0215759L251.978 1.72652C251.849 1.70494 251.568 1.72652 251.115 1.9855L250.684 0.280555C250.964 0.151066 251.266 0.0647392 251.547 0.0215759Z" fill="#EBA7BE"/>
<path d="M253.639 0.712198L252.927 2.46031C252.69 2.17975 252.452 1.94235 252.215 1.81286L252.862 0.21582C253.143 0.34531 253.402 0.517963 253.639 0.712198Z" fill="#EBA7BE"/>
<path d="M254.459 1.66177C254.632 1.89917 254.804 2.15815 254.955 2.43871L253.639 3.60412C253.639 3.58254 253.617 3.56096 253.617 3.56096C253.488 3.32356 253.337 3.08616 253.164 2.82718L254.459 1.66177Z" fill="#EBA7BE"/>
<path d="M255.389 3.19408C255.54 3.45306 255.691 3.71204 255.842 3.9926L254.525 5.158C254.374 4.87744 254.223 4.59688 254.072 4.35948L255.389 3.19408Z" fill="#EBA7BE"/>
<path d="M256.274 4.76953C256.425 5.02851 256.576 5.30907 256.727 5.56805L255.41 6.73346C255.259 6.47448 255.108 6.19392 254.957 5.91336L256.274 4.76953Z" fill="#EBA7BE"/>
<path d="M257.137 6.34499C257.288 6.62555 257.439 6.90611 257.59 7.16509L256.274 8.3305C256.144 8.07152 255.993 7.81254 255.82 7.51039L257.137 6.34499Z" fill="#EBA7BE"/>
<path d="M258.022 7.92046C258.194 8.24418 258.345 8.52474 258.475 8.74056L257.158 9.90596C257.094 9.77647 256.921 9.49591 256.705 9.08586L258.022 7.92046Z" fill="#EBA7BE"/>
</g>
<path d="M278.105 241.783C276.62 239.03 273.543 236.793 270.831 235.589C265.274 233.126 258.795 233.243 252.934 234.079C242.438 235.578 234.065 242.982 223.973 245.71C220.607 239.48 227.018 236.556 231.538 234.852C237.62 232.56 244.756 232.59 249.1 226.746C251.763 223.163 250.438 217.964 247.02 215.648C242.757 212.758 236.614 213.547 232.291 215.869C230.236 216.975 228.376 218.576 226.356 219.593C226.852 219.344 228.576 213.003 229.803 211.799C231.681 209.956 234.205 208.767 236.66 208.032C241.264 206.663 246.376 206.645 251.12 206.293C256.672 205.877 262.928 205.785 267.97 203.079C272.776 200.503 278.75 192.483 272.163 187.663C268.879 185.259 264.529 185.091 260.67 185.358C253.364 185.863 246.057 188.454 239.559 191.85C236.631 193.382 233.631 195.163 230.85 197.255C231.221 196.594 231.602 195.94 231.992 195.293C232.066 195.174 232.237 194.893 232.282 194.816C232.443 194.561 232.604 194.309 232.768 194.054C233.147 193.464 233.537 192.882 233.928 192.299C240.413 182.683 266.266 157.936 250.867 145.163C247.484 142.356 242.578 143.251 239.323 145.767C236.379 148.045 234.466 151.584 233.006 155.026C231.411 158.793 230.278 162.783 229.212 166.746C226.814 175.658 224.231 184.517 222.342 193.573C222.285 193.838 222.234 194.103 222.181 194.37C221.54 193.272 220.873 192.189 220.18 191.121C216.653 185.688 212.514 180.353 207.202 176.755C204.982 175.251 202.328 174.247 199.662 174.483C196.297 174.782 193.735 177.135 192.121 180.088C190.091 183.813 191.46 188.057 194.369 190.752C196.722 192.934 199.837 194.209 202.765 195.261C208.873 197.455 215.694 199.428 218.648 206.196C220.709 210.915 220.343 218.422 217.343 222.627C207.772 213.005 195.35 199.176 180.858 200.242C175.791 200.616 170.098 203.74 171.061 209.914C172.109 216.628 180.021 220.856 185.195 223.491C190.835 226.361 196.941 227.965 202.758 230.359C205.176 231.354 207.724 232.377 209.894 233.891C210.41 234.252 215.114 239.914 213.863 239.807C211.963 239.646 209.976 238.358 207.897 238.083C201.645 237.267 194.941 241.796 199.213 248.864C199.192 248.815 199.169 248.766 199.142 248.72C201.883 253.646 207.056 253.168 211.39 255.357C217.952 258.674 215.604 268.463 215.775 274.376C209.685 268.784 187.905 243.948 181.71 261.951C176.61 276.762 198.532 279.54 206.943 282.948C211.969 284.985 216.545 287.702 218.1 293.442C218.911 296.434 217.626 307.306 220.87 308.791C225.278 310.806 227.282 298.15 227.843 295.682C229.534 288.242 231.502 285.988 238.371 283.646C245.516 281.209 252.512 274.999 245.767 267.128C238.057 258.122 228.988 266.049 223.589 272.978C224.046 269.545 222.555 266.149 223.941 262.835C227.493 254.333 243.72 256.821 250.783 257.049C259.899 257.339 271.062 257.546 277.354 249.445C279.474 246.727 279.342 244.076 278.105 241.783Z" fill="white"/>
<path d="M269.972 200.225C269.979 199.59 269.729 198.979 269.277 198.526C268.824 198.072 268.206 197.812 267.558 197.804C267.238 197.8 266.919 197.858 266.621 197.975C266.323 198.092 266.052 198.265 265.822 198.484C265.592 198.704 265.409 198.966 265.283 199.255C265.157 199.543 265.09 199.854 265.086 200.168L265.061 202.398C265.057 202.712 265.116 203.024 265.235 203.316C265.354 203.608 265.531 203.873 265.755 204.098C265.979 204.323 266.246 204.503 266.541 204.627C266.836 204.75 267.153 204.816 267.474 204.82C268.122 204.827 268.746 204.582 269.21 204.139C269.674 203.696 269.939 203.09 269.946 202.456L269.972 200.225Z" fill="black"/>
<path d="M278.743 212.781C278.729 214.967 278.068 217.099 276.842 218.909C275.617 220.719 273.882 222.124 271.858 222.948C269.833 223.772 267.61 223.977 265.469 223.537C263.328 223.097 261.366 222.032 259.83 220.477C258.294 218.922 257.254 216.946 256.841 214.8C256.429 212.654 256.662 210.433 257.511 208.419C258.36 206.406 259.787 204.689 261.612 203.486C263.437 202.283 265.578 201.649 267.764 201.663C270.694 201.682 273.496 202.864 275.555 204.949C277.614 207.034 278.76 209.851 278.743 212.781Z" fill="#7FB2E0"/>
<path d="M272.779 211.17C272.772 212.28 272.447 213.363 271.844 214.282C271.24 215.201 270.387 215.915 269.391 216.333C268.395 216.752 267.301 216.856 266.247 216.632C265.194 216.409 264.228 215.868 263.473 215.078C262.717 214.288 262.205 213.285 262.002 212.195C261.799 211.105 261.914 209.977 262.331 208.954C262.749 207.931 263.451 207.059 264.349 206.448C265.247 205.837 266.3 205.515 267.376 205.522C268.818 205.531 270.197 206.132 271.21 207.191C272.223 208.25 272.788 209.681 272.779 211.17Z" fill="#4782AC"/>
<path d="M267.869 201.672L266.851 201.663L266.816 209.725L267.833 209.731L267.869 201.672Z" fill="white"/>
<path d="M269.621 210.27C269.623 209.819 269.492 209.377 269.243 209.001C268.995 208.624 268.64 208.33 268.224 208.155C267.809 207.981 267.35 207.933 266.907 208.019C266.465 208.104 266.057 208.32 265.737 208.637C265.416 208.954 265.197 209.359 265.107 209.801C265.016 210.243 265.059 210.702 265.23 211.12C265.4 211.537 265.691 211.895 266.065 212.147C266.439 212.4 266.879 212.535 267.33 212.538C267.934 212.54 268.515 212.303 268.945 211.878C269.375 211.453 269.618 210.874 269.621 210.27Z" fill="white"/>
<path d="M212.794 189.326C212.799 188.882 212.638 188.453 212.347 188.136C212.056 187.818 211.658 187.636 211.242 187.631C210.825 187.626 210.424 187.797 210.126 188.108C209.828 188.418 209.658 188.842 209.653 189.286L209.637 190.849C209.632 191.293 209.793 191.72 210.084 192.038C210.375 192.355 210.773 192.536 211.189 192.542C211.605 192.547 212.006 192.375 212.304 192.065C212.602 191.755 212.772 191.331 212.778 190.886L212.794 189.326Z" fill="black"/>
<path d="M218.054 197.5C218.045 198.888 217.614 200.241 216.816 201.389C216.018 202.538 214.89 203.43 213.572 203.952C212.255 204.475 210.809 204.605 209.416 204.326C208.023 204.046 206.746 203.37 205.747 202.383C204.747 201.396 204.071 200.142 203.802 198.78C203.533 197.418 203.684 196.008 204.236 194.73C204.788 193.451 205.716 192.361 206.903 191.597C208.09 190.833 209.482 190.429 210.904 190.437C211.849 190.443 212.784 190.629 213.655 190.987C214.526 191.345 215.316 191.867 215.98 192.523C216.644 193.179 217.169 193.956 217.525 194.81C217.881 195.664 218.061 196.578 218.054 197.5Z" fill="#DE6C92"/>
<path d="M214.547 196.424C214.543 197.117 214.333 197.794 213.943 198.369C213.554 198.943 213.004 199.389 212.361 199.65C211.718 199.912 211.013 199.977 210.333 199.837C209.653 199.697 209.031 199.359 208.543 198.866C208.056 198.372 207.726 197.745 207.594 197.064C207.463 196.382 207.537 195.678 207.807 195.038C208.076 194.399 208.529 193.854 209.108 193.472C209.687 193.09 210.367 192.889 211.061 192.893C211.521 192.896 211.977 192.989 212.402 193.168C212.826 193.347 213.212 193.608 213.535 193.936C213.859 194.264 214.115 194.652 214.289 195.079C214.462 195.506 214.55 195.963 214.547 196.424Z" fill="#EBA7BE"/>
<path d="M211.038 190.442L210.699 190.437L210.688 194.995L211.027 194.998L211.038 190.442Z" fill="white"/>
<path d="M212.443 196.059C212.445 195.781 212.364 195.509 212.211 195.278C212.059 195.046 211.84 194.865 211.585 194.757C211.329 194.649 211.047 194.62 210.774 194.672C210.502 194.725 210.251 194.857 210.053 195.052C209.856 195.247 209.721 195.497 209.665 195.769C209.61 196.04 209.636 196.323 209.741 196.58C209.845 196.837 210.024 197.057 210.254 197.213C210.484 197.368 210.755 197.452 211.033 197.453C211.217 197.454 211.399 197.419 211.57 197.35C211.741 197.28 211.896 197.178 212.027 197.048C212.158 196.919 212.262 196.765 212.333 196.595C212.405 196.425 212.442 196.243 212.443 196.059Z" fill="white"/>
<path d="M243.589 234.017C243.57 233.605 243.389 233.218 243.087 232.94C242.785 232.662 242.386 232.516 241.978 232.535C241.569 232.554 241.185 232.735 240.909 233.04C240.633 233.344 240.489 233.747 240.507 234.159L240.574 235.607C240.583 235.811 240.632 236.012 240.718 236.198C240.805 236.383 240.926 236.55 241.077 236.688C241.227 236.826 241.403 236.933 241.594 237.002C241.785 237.071 241.988 237.102 242.191 237.092C242.6 237.073 242.984 236.891 243.26 236.586C243.536 236.282 243.68 235.88 243.661 235.468L243.589 234.017Z" fill="black"/>
<path d="M249.617 241.647C249.691 243.033 249.332 244.408 248.585 245.6C247.839 246.791 246.738 247.745 245.422 248.341C244.106 248.937 242.635 249.148 241.193 248.947C239.751 248.746 238.405 248.142 237.323 247.213C236.242 246.283 235.474 245.069 235.117 243.723C234.76 242.378 234.83 240.962 235.318 239.655C235.806 238.347 236.69 237.207 237.859 236.378C239.027 235.549 240.427 235.069 241.882 234.998C242.849 234.951 243.815 235.085 244.727 235.394C245.638 235.703 246.477 236.179 247.196 236.797C247.914 237.414 248.497 238.16 248.913 238.992C249.328 239.825 249.567 240.727 249.617 241.647Z" fill="#DE6C92"/>
<path d="M245.763 241.124C245.799 241.817 245.628 242.504 245.273 243.1C244.917 243.696 244.393 244.173 243.766 244.471C243.14 244.769 242.439 244.875 241.753 244.774C241.066 244.674 240.425 244.372 239.91 243.907C239.395 243.443 239.029 242.835 238.859 242.163C238.689 241.49 238.722 240.782 238.954 240.129C239.187 239.475 239.608 238.905 240.164 238.49C240.72 238.076 241.387 237.835 242.08 237.8C243.009 237.752 243.919 238.076 244.61 238.699C245.3 239.323 245.715 240.195 245.763 241.124Z" fill="#EBA7BE"/>
<path d="M242.384 235.018L241.566 235.06L241.826 240.074L242.644 240.032L242.384 235.018Z" fill="white"/>
<path d="M243.662 240.712C243.647 240.47 243.551 240.237 243.385 240.042C243.219 239.848 242.991 239.701 242.729 239.62C242.467 239.538 242.184 239.527 241.915 239.587C241.646 239.647 241.404 239.775 241.218 239.955C241.032 240.136 240.912 240.36 240.872 240.601C240.832 240.841 240.875 241.086 240.994 241.305C241.113 241.524 241.304 241.708 241.543 241.832C241.781 241.956 242.056 242.016 242.333 242.003C242.518 241.995 242.698 241.955 242.864 241.885C243.031 241.816 243.18 241.718 243.303 241.599C243.427 241.479 243.522 241.339 243.583 241.187C243.645 241.035 243.672 240.873 243.662 240.712Z" fill="white"/>
<path d="M212.191 289.669C211.942 287.613 210.971 285.658 208.83 285.017C205.614 284.054 202.333 285.366 199.17 285.899C196.744 286.309 192.25 285.996 191.112 288.809C190.429 290.498 190.713 292.447 190.713 294.217C190.708 296.611 190.902 299.01 191.392 301.355C191.735 302.998 192.075 304.831 193.532 305.862C194.955 306.87 196.776 306.482 198.387 306.316C200.686 306.08 203 306.115 205.299 306.275C207.915 306.458 210.382 306.158 210.886 303.121C211.212 301.158 211.315 299.164 211.609 297.195C211.915 295.14 212.211 293.08 212.254 291.001C212.264 290.556 212.243 290.111 212.191 289.669Z" fill="#7FB2E0"/>
<path d="M190.654 292.861C190.66 293.032 190.666 293.202 190.672 293.372C190.893 293.213 191.112 293.05 191.332 292.898C191.748 292.609 192.188 292.351 192.686 292.243C193.258 292.119 193.817 292.301 194.293 292.615C194.801 292.951 195.24 293.363 195.85 293.504C196.42 293.639 196.935 293.572 197.401 293.207C197.955 292.772 198.451 292.324 199.095 292.021C199.739 291.717 200.548 291.586 201.163 292.006C201.645 292.335 201.947 292.862 202.478 293.134C202.916 293.366 203.416 293.448 203.904 293.367C204.781 293.209 205.39 292.415 206.076 291.918C206.454 291.644 206.872 291.459 207.344 291.452C207.797 291.445 208.16 291.803 208.443 292.113C208.761 292.461 209.05 292.826 209.432 293.107C209.646 293.262 209.888 293.372 210.144 293.432C210.4 293.492 210.665 293.5 210.924 293.457C211.412 293.38 211.828 293.162 212.216 292.892C212.231 292.713 212.245 292.535 212.256 292.356C211.683 292.799 211.066 293.152 210.344 293.038C209.371 292.884 208.934 291.834 208.192 291.307C207.384 290.733 206.39 291.134 205.688 291.677C205.027 292.189 204.394 292.987 203.487 292.974C202.906 292.966 202.426 292.633 202.034 292.236C201.601 291.797 201.206 291.424 200.571 291.335C199.87 291.236 199.176 291.481 198.567 291.812C198.274 291.974 197.995 292.161 197.735 292.372C197.485 292.573 197.26 292.802 196.994 292.975C196.473 293.319 195.765 293.094 195.281 292.791C194.765 292.467 194.336 292.05 193.74 291.871C192.698 291.556 191.743 292.08 190.916 292.669L190.654 292.861Z" fill="white"/>
<path d="M209.919 296.986C209.508 296.751 209.211 296.368 208.818 296.107C208.38 295.817 207.859 295.853 207.38 296.006C206.71 296.221 206.135 296.554 205.532 296.909C204.988 297.229 204.397 297.534 203.75 297.447C202.774 297.314 202.096 296.448 201.231 296.053C200.279 295.622 199.358 295.951 198.548 296.523C197.763 297.076 197.061 297.883 196.117 298.161C195.62 298.307 195.141 298.176 194.7 297.929C194.259 297.681 193.899 297.316 193.421 297.128C192.589 296.799 191.629 297.184 190.908 297.751C190.924 297.916 190.94 298.08 190.956 298.244C191.49 297.751 192.186 297.429 192.865 297.447C193.397 297.459 193.798 297.83 194.209 298.12C194.635 298.418 195.121 298.636 195.647 298.65C196.61 298.678 197.424 297.95 198.126 297.382C198.861 296.785 199.74 296.064 200.748 296.327C201.684 296.572 202.338 297.424 203.243 297.755C204.492 298.213 205.572 297.334 206.612 296.771C207.11 296.501 207.817 296.174 208.394 296.361C208.803 296.494 209.12 296.918 209.45 297.175C210.034 297.628 210.739 297.767 211.435 297.693C211.454 297.552 211.473 297.411 211.494 297.27C210.952 297.358 210.396 297.258 209.919 296.986Z" fill="white"/>
<path d="M211.187 301.915C211.205 301.772 211.224 301.629 211.241 301.486C211.127 301.444 211.015 301.4 210.905 301.353C210.031 300.979 209.161 300.422 208.171 300.519C207.572 300.578 207.109 300.899 206.619 301.214C206.382 301.366 206.13 301.514 205.844 301.547C205.489 301.585 205.132 301.42 204.83 301.255C204.347 300.992 203.986 300.56 203.525 300.263C203.047 299.954 202.473 299.879 201.915 299.943C199.885 300.174 198.754 302.345 196.731 302.536C196.113 302.595 195.554 302.43 195.023 302.125C194.493 301.821 193.998 301.46 193.375 301.373C192.69 301.286 191.996 301.444 191.418 301.817C191.45 301.966 191.485 302.116 191.519 302.265C192.074 301.86 192.784 301.667 193.485 301.823C194.09 301.956 194.591 302.4 195.139 302.669C195.652 302.916 196.225 303.014 196.792 302.955C198.836 302.759 199.962 300.587 201.974 300.357C202.259 300.32 202.548 300.342 202.824 300.422C203.1 300.501 203.355 300.636 203.576 300.818C204.032 301.18 204.427 301.545 204.966 301.788C205.548 302.048 206.098 302.003 206.647 301.696C207.169 301.403 207.608 300.998 208.229 300.936C209.198 300.841 210.108 301.489 210.966 301.833C211.036 301.864 211.111 301.891 211.187 301.915Z" fill="white"/>
<path d="M194.125 296.069C194.378 296.245 194.609 295.802 194.358 295.628C194.074 295.431 193.857 295.136 193.599 294.901C193.371 294.694 193.044 295.054 193.273 295.262C193.563 295.528 193.807 295.849 194.125 296.069Z" fill="white"/>
<path d="M196.523 295.566C196.812 295.351 197.112 295.155 197.421 294.979C197.638 294.854 197.447 294.486 197.23 294.61C196.921 294.786 196.622 294.982 196.333 295.197C196.131 295.347 196.319 295.716 196.523 295.566Z" fill="white"/>
<path d="M200.713 294.48C200.402 294.331 200.156 294.105 199.91 293.88C199.717 293.703 199.418 293.977 199.611 294.154C199.882 294.402 200.158 294.652 200.5 294.815C200.741 294.931 200.955 294.596 200.713 294.48Z" fill="white"/>
<path d="M203.36 295.593C203.788 295.47 204.154 295.214 204.533 294.985C204.761 294.846 204.555 294.477 204.327 294.615C203.979 294.827 203.645 295.069 203.252 295.181C202.998 295.253 203.106 295.666 203.36 295.593Z" fill="white"/>
<path d="M207.83 294.136C207.519 293.95 207.274 293.668 207.027 293.385C206.834 293.165 206.535 293.508 206.729 293.729C206.998 294.039 207.275 294.35 207.617 294.555C207.858 294.699 208.072 294.281 207.83 294.136Z" fill="white"/>
<path d="M210.319 295.284L210.421 295.182C210.458 295.144 210.478 295.093 210.477 295.04C210.476 294.987 210.455 294.936 210.418 294.899C210.38 294.861 210.329 294.84 210.276 294.839C210.223 294.838 210.172 294.859 210.134 294.895C210.099 294.929 210.066 294.963 210.032 294.997C210.012 295.016 209.996 295.038 209.986 295.063C209.975 295.088 209.969 295.115 209.969 295.142C209.968 295.169 209.974 295.196 209.984 295.221C209.994 295.246 210.009 295.269 210.028 295.288C210.047 295.307 210.07 295.322 210.095 295.332C210.12 295.343 210.147 295.348 210.174 295.347C210.202 295.347 210.228 295.341 210.253 295.33C210.278 295.32 210.3 295.304 210.319 295.284Z" fill="white"/>
<path d="M194.162 300.176C193.891 300.172 193.891 300.611 194.162 300.615C194.597 300.617 195.026 300.719 195.419 300.915C195.661 301.036 195.874 300.658 195.63 300.535C195.172 300.304 194.67 300.181 194.162 300.176Z" fill="white"/>
<path d="M198.653 298.939C198.229 299.145 197.832 299.376 197.39 299.563C197.095 299.687 197.362 300.02 197.659 299.894C198.1 299.708 198.498 299.477 198.921 299.27C199.202 299.132 198.938 298.8 198.653 298.939Z" fill="white"/>
<path d="M200.887 298.172C200.648 298.041 200.431 298.388 200.67 298.519C200.957 298.675 201.271 298.776 201.579 298.89C201.837 298.986 201.947 298.597 201.693 298.503C201.416 298.412 201.146 298.301 200.887 298.172Z" fill="white"/>
<path d="M204.987 298.945C204.727 298.778 204.485 299.181 204.743 299.346C204.929 299.474 205.131 299.579 205.344 299.66C205.406 299.676 205.472 299.668 205.528 299.637C205.583 299.607 205.624 299.557 205.642 299.497C205.657 299.438 205.649 299.375 205.617 299.322C205.586 299.268 205.534 299.229 205.473 299.211C205.3 299.142 205.137 299.052 204.987 298.945Z" fill="white"/>
<path d="M209.386 298.424C208.785 298.738 208.138 298.957 207.536 299.274C207.289 299.403 207.508 299.77 207.756 299.641C208.358 299.326 209.005 299.108 209.607 298.791C209.854 298.662 209.634 298.295 209.386 298.424Z" fill="white"/>
<path d="M209.311 282.651C208.907 282.237 208.28 282.221 207.739 282.271C207.227 282.32 206.724 282.438 206.244 282.622C206.863 282.1 207.401 281.447 207.652 280.71C207.822 280.211 207.82 279.677 207.585 279.199C207.364 278.751 206.957 278.324 206.421 278.317C205.446 278.305 204.67 279.368 204.177 280.072C203.865 280.513 203.58 280.97 203.302 281.432C203.689 280.379 203.97 279.172 203.657 278.065C203.464 277.379 202.706 276.435 201.914 276.935C201.281 277.334 201.044 278.314 200.871 278.977C200.725 279.555 200.623 280.142 200.566 280.735C200.532 280.631 200.497 280.527 200.462 280.423C200.227 279.727 199.937 279.053 199.523 278.442C199.196 277.958 198.749 277.395 198.152 277.236C197.584 277.085 197 277.435 196.824 277.981C196.637 278.562 196.809 279.252 196.951 279.824C197.19 280.789 197.639 281.69 198.192 282.523C197.863 282.257 197.53 281.997 197.186 281.759C196.155 281.044 194.807 280.177 193.492 280.587C193.007 280.738 192.676 281.124 192.688 281.633C192.701 282.219 193.192 282.778 193.62 283.132C194.133 283.554 194.765 283.832 195.371 284.098C196.121 284.435 196.892 284.727 197.678 284.972C197.75 284.994 197.822 285.014 197.894 285.033C197.355 285.053 196.823 285.104 196.289 285.166C195.397 285.264 193.831 285.389 193.776 286.554C193.75 287.116 194.021 287.583 194.602 287.693C195.15 287.797 195.796 287.607 196.324 287.471C197.828 287.084 199.149 286.191 200.673 285.864C201.446 285.699 202.25 285.896 203.03 285.931C203.884 285.968 204.751 285.922 205.604 285.878C206.217 285.847 206.834 285.809 207.445 285.745C207.974 285.693 208.501 285.591 208.975 285.347C209.435 285.106 209.672 284.686 209.707 284.184C209.742 283.682 209.68 283.029 209.311 282.651ZM205.915 278.949C206.407 278.648 206.802 278.851 207.094 279.302C207.393 279.767 207.313 280.327 207.097 280.803C206.61 281.871 205.578 282.58 204.585 283.142C203.984 283.481 203.4 283.844 202.811 284.2C202.507 284.383 202.205 284.582 201.886 284.742L201.735 284.817C202.496 283.82 203.116 282.718 203.756 281.642C204.323 280.692 204.933 279.548 205.915 278.949ZM201.252 279.463C201.339 279.045 201.459 278.634 201.611 278.234C201.729 277.931 201.88 277.575 202.139 277.363C202.382 277.163 202.605 277.325 202.812 277.52C203.211 277.903 203.303 278.505 203.311 279.027C203.325 279.972 203.015 280.938 202.642 281.797C202.405 282.344 202.11 282.87 201.825 283.393C201.658 283.701 201.496 284.016 201.329 284.327C201.277 283.795 201.212 283.267 201.117 282.741C201.071 282.485 201.012 282.231 200.947 281.98C200.976 281.134 201.078 280.292 201.252 279.463ZM197.261 278.868C197.227 278.581 197.203 278.279 197.328 278.01C197.394 277.88 197.505 277.777 197.641 277.721C197.777 277.666 197.929 277.66 198.069 277.706C198.375 277.81 198.626 278.067 198.825 278.309C199.303 278.887 199.633 279.55 199.89 280.248C200.104 280.826 200.305 281.42 200.46 282.02C200.42 282.637 200.405 283.273 200.538 283.871C200.58 284.056 200.629 284.24 200.673 284.426C200.403 284.209 200.085 284.037 199.829 283.824C199.573 283.61 199.364 283.304 199.165 283.029C198.932 282.707 198.687 282.396 198.47 282.064C198.037 281.401 197.703 280.68 197.478 279.924C197.375 279.579 197.303 279.226 197.261 278.868ZM195.948 283.822C195.302 283.549 194.631 283.272 194.062 282.862C193.677 282.586 193.006 281.942 193.198 281.403C193.4 280.841 194.322 280.931 194.765 281.035C195.46 281.198 196.102 281.599 196.686 281.991C197.349 282.435 197.958 282.965 198.584 283.459C198.909 283.717 199.226 283.984 199.552 284.241C199.863 284.486 200.219 284.716 200.501 284.998C199.792 284.855 199.063 284.823 198.357 284.661C197.526 284.47 196.73 284.153 195.948 283.822ZM196.34 286.969C195.819 287.124 195.12 287.33 194.574 287.193C194.301 287.126 194.26 286.81 194.259 286.579C194.259 286.307 194.43 286.128 194.663 286.009C195.151 285.759 195.74 285.704 196.275 285.643C196.99 285.555 197.71 285.506 198.43 285.498C198.947 285.498 199.462 285.537 199.979 285.548C199.472 285.71 198.976 285.902 198.491 286.121C197.782 286.428 197.081 286.751 196.34 286.969ZM208.894 284.823C208.49 285.142 207.903 285.212 207.406 285.265C206.796 285.331 206.179 285.362 205.566 285.398C204.706 285.444 203.824 285.497 202.962 285.448C202.588 285.426 202.213 285.377 201.838 285.349C203.17 284.684 204.492 283.999 205.822 283.329C206.453 283.006 207.141 282.807 207.848 282.741C208.123 282.715 208.416 282.713 208.68 282.805C208.962 282.902 209.08 283.117 209.159 283.385C209.298 283.856 209.315 284.495 208.894 284.823Z" fill="black"/>
<path d="M276.586 280.888C276.296 277.469 274.799 274.066 271.284 272.567C265.975 270.266 260.522 271.837 255.295 272.139C251.302 272.392 243.873 270.953 242.177 275.91C241.178 278.915 241.778 282.556 241.892 285.821C242.046 290.24 242.517 294.679 243.444 299.027C244.081 302.059 244.719 305.426 247.017 307.33C249.247 309.156 252.018 308.456 254.483 308.163C258.003 307.755 261.552 307.824 265.081 308.108C269.085 308.422 272.877 307.927 273.801 302.909C274.408 299.681 274.674 296.398 275.241 293.178C275.841 289.832 276.432 286.488 276.62 283.081C276.66 282.35 276.649 281.618 276.586 280.888Z" fill="#EBA7BE"/>
<path d="M252.019 278.855C251.745 278.65 250.265 279.395 249.815 279.657C249.504 279.343 248.325 278.552 247.909 278.359C247.381 278.114 247.857 280.405 247.947 280.789C245.256 282.541 245.289 283.168 246.614 283.301C247.248 283.365 247.88 283.433 248.512 283.503C248.609 284.064 249.287 286.76 249.617 286.623C249.965 286.481 250.553 284.224 250.677 283.778C251.244 283.859 253.061 284.077 253.626 284.175C254.242 284.281 252.083 281.945 251.582 281.511C251.889 280.871 252.215 279.005 252.019 278.855Z" fill="white"/>
<path d="M270.374 297.442C270.337 297.075 268.661 296.446 268.123 296.279C268.145 295.802 267.908 294.286 267.757 293.815C267.563 293.218 266.095 295.269 265.858 295.626C262.496 294.774 262.023 295.26 262.888 296.408C263.302 296.956 263.712 297.508 264.118 298.063C263.742 298.547 262.099 301.06 262.452 301.224C262.82 301.396 265.041 300.207 265.485 299.981C265.837 300.49 266.995 302.091 267.328 302.611C267.695 303.177 267.964 299.755 267.944 299.039C268.68 298.816 270.4 297.707 270.374 297.442Z" fill="white"/>
<path d="M269.278 276.118C269.108 275.96 268.053 276.36 267.732 276.506C267.542 276.271 266.801 275.653 266.533 275.493C266.194 275.29 266.354 276.874 266.389 277.141C264.444 278.137 264.422 278.563 265.31 278.746C265.733 278.834 266.157 278.923 266.58 279.017C266.605 279.405 266.871 281.274 267.107 281.205C267.344 281.136 267.909 279.647 268.024 279.355C268.402 279.452 269.616 279.725 269.992 279.83C270.401 279.946 269.104 278.215 268.797 277.885C269.049 277.473 269.401 276.233 269.278 276.118Z" fill="white"/>
<path d="M253.017 295.972C252.846 295.814 251.792 296.214 251.465 296.36C251.277 296.126 250.536 295.508 250.268 295.347C249.928 295.144 250.089 296.729 250.123 296.995C248.179 297.991 248.156 298.418 249.044 298.601C249.468 298.688 249.891 298.778 250.314 298.871C250.339 299.259 250.604 301.128 250.842 301.06C251.08 300.991 251.643 299.502 251.759 299.21C252.137 299.307 253.35 299.579 253.725 299.685C254.136 299.8 252.839 298.07 252.531 297.74C252.787 297.33 253.14 296.085 253.017 295.972Z" fill="white"/>
<path d="M262.499 289.835C262.523 289.603 261.568 289.004 261.257 288.836C261.329 288.545 261.375 287.575 261.341 287.269C261.298 286.876 260.132 287.959 259.941 288.147C257.974 287.198 257.62 287.438 258.009 288.256C258.196 288.644 258.379 289.036 258.56 289.432C258.269 289.685 256.936 291.027 257.133 291.177C257.33 291.327 258.86 290.876 259.162 290.789C259.315 291.147 259.827 292.281 259.97 292.644C260.125 293.041 260.723 290.962 260.801 290.518C261.277 290.469 262.483 290.002 262.499 289.835Z" fill="white"/>
<path d="M266.783 286.034C266.017 286.034 266.017 287.223 266.783 287.223C267.549 287.223 267.55 286.034 266.783 286.034Z" fill="white"/>
<path d="M270.145 290.64C269.379 290.64 269.379 291.829 270.145 291.829C270.911 291.829 270.912 290.64 270.145 290.64Z" fill="white"/>
<path d="M272.299 281.295C271.533 281.295 271.533 282.484 272.299 282.484C273.065 282.484 273.066 281.295 272.299 281.295Z" fill="white"/>
<path d="M258.26 277.745C257.494 277.745 257.494 278.934 258.26 278.934C259.026 278.934 259.027 277.745 258.26 277.745Z" fill="white"/>
<path d="M247.12 287.298C246.353 287.298 246.353 288.487 247.12 288.487C247.887 288.487 247.882 287.298 247.12 287.298Z" fill="white"/>
<path d="M252.466 289.452C251.699 289.452 251.699 290.641 252.466 290.641C253.233 290.641 253.23 289.452 252.466 289.452Z" fill="white"/>
<path d="M246.448 293.538C245.681 293.538 245.681 294.727 246.448 294.727C247.215 294.727 247.218 293.538 246.448 293.538Z" fill="white"/>
<path d="M254.843 304.086C254.076 304.086 254.076 305.275 254.843 305.275C255.61 305.275 255.609 304.086 254.843 304.086Z" fill="white"/>
<path d="M257.888 296.881C257.121 296.881 257.121 298.07 257.888 298.07C258.655 298.07 258.658 296.881 257.888 296.881Z" fill="white"/>
<path d="M262.27 304.161C261.504 304.161 261.504 305.35 262.27 305.35C263.037 305.35 263.036 304.161 262.27 304.161Z" fill="white"/>
<path d="M245.735 276.304C244.968 276.304 244.968 277.493 245.735 277.493C246.502 277.493 246.502 276.304 245.735 276.304Z" fill="white"/>
<path d="M270.071 302.23C269.305 302.23 269.305 303.418 270.071 303.418C270.836 303.418 270.837 302.23 270.071 302.23Z" fill="white"/>
<path d="M275.529 267.045C275.226 265.867 274.692 264.76 273.959 263.789C272.487 261.833 270.155 260.518 267.657 260.775C265.388 261.009 263.708 262.64 262.357 264.344C261.495 265.432 260.645 266.539 259.83 267.662C259.382 268.279 258.952 268.913 258.563 269.571C258.683 269.146 258.848 268.735 259.054 268.345C259.463 267.526 259.955 266.751 260.379 265.941C260.775 265.188 261.129 264.385 261.192 263.526C261.253 262.686 260.892 261.911 260.277 261.352C259.755 260.878 258.849 260.237 258.144 260.718C257.54 261.127 257.417 261.99 257.335 262.657C257.244 263.401 257.256 264.153 257.264 264.901C257.273 265.605 257.229 266.309 257.208 267.013C256.996 266.347 256.774 265.683 256.548 265.022C256.086 263.673 255.642 262.307 255.07 261.004C254.624 259.985 254.053 258.986 253.214 258.24C251.827 257.005 249.667 256.679 248.028 257.594C246.62 258.38 245.793 259.915 245.245 261.375C244.639 262.99 244.337 264.716 244.167 266.427C244.096 267.13 244.055 267.838 244.046 268.546C244.032 269.494 244.003 270.49 244.261 271.411C244.523 272.349 245.173 273.049 245.971 273.574C247.118 274.334 248.495 274.669 249.863 274.521C251.225 274.38 252.506 273.856 253.753 273.317C254.431 273.026 255.099 272.735 255.789 272.488L256.435 272.257C256.643 272.269 256.852 272.263 257.059 272.241C256.89 272.791 256.65 273.315 256.343 273.802C255.858 274.621 255.312 275.398 254.946 276.282C254.001 278.573 255.073 281.041 255.334 283.352C255.355 283.54 255.476 283.699 255.681 283.699C255.854 283.699 256.048 283.54 256.027 283.352C255.777 281.106 254.691 278.635 255.639 276.422C256.279 274.923 257.521 273.657 257.821 272.047C257.851 272.034 257.879 272.02 257.908 272.007C258.008 272.84 258.234 273.652 258.578 274.417C259.056 275.51 259.627 276.55 259.926 277.713C260.567 280.206 260.088 282.823 260.388 285.357C260.41 285.545 260.53 285.704 260.735 285.704C260.907 285.704 261.104 285.545 261.081 285.357C260.78 282.812 261.21 280.218 260.636 277.703C260.371 276.534 259.824 275.469 259.323 274.388C258.987 273.688 258.753 272.944 258.629 272.177C258.724 272.226 258.821 272.269 258.92 272.308C259.464 272.523 260.059 272.609 260.634 272.7C261.227 272.797 261.809 272.914 262.396 273.035C265.367 273.645 268.52 273.802 271.527 273.363C272.467 273.225 273.425 272.94 274.205 272.382C274.923 271.873 275.438 271.127 275.659 270.275C275.922 269.223 275.786 268.082 275.529 267.045ZM256.314 271.563C255.719 271.507 255.114 271.313 254.597 271.147C254.059 270.975 253.531 270.776 252.994 270.602C252.52 270.449 252.033 270.338 251.553 270.205C250.638 269.952 249.668 269.645 249.001 268.933C248.26 268.142 248.236 266.948 248.594 265.982C248.944 265.032 249.854 264.042 250.929 263.998C251.865 263.96 252.665 264.838 253.214 265.488C253.862 266.255 254.385 267.126 254.888 267.992C255.16 268.476 255.399 268.977 255.604 269.492C255.828 270.029 256.073 270.559 256.477 270.985C256.61 271.123 256.761 271.242 256.926 271.339C256.724 271.415 256.518 271.49 256.31 271.563H256.314ZM257.351 270.788C256.849 270.523 256.575 269.979 256.351 269.485C256.111 268.952 255.926 268.395 255.635 267.886C255.147 267.006 254.599 266.162 253.995 265.358C253.373 264.553 252.619 263.738 251.628 263.407C250.582 263.057 249.469 263.644 248.768 264.404C247.966 265.277 247.543 266.508 247.709 267.683C247.849 268.674 248.398 269.472 249.231 270.01C250.049 270.54 251.033 270.786 251.964 271.029C252.98 271.299 253.952 271.692 254.963 271.977L255.075 272.008C254.511 272.227 253.956 272.468 253.4 272.71C252.09 273.277 250.714 273.823 249.269 273.856C248.595 273.867 247.926 273.744 247.299 273.494C246.673 273.245 246.102 272.873 245.62 272.402C244.963 271.745 244.792 270.862 244.748 269.967C244.679 268.384 244.763 266.798 245 265.231C245.249 263.559 245.649 261.853 246.442 260.349C247.11 259.088 248.166 257.925 249.642 257.77C250.605 257.671 251.573 257.914 252.376 258.455C253.28 259.067 253.864 260.063 254.32 261.031C254.91 262.282 255.325 263.619 255.774 264.925C256.033 265.677 256.284 266.432 256.529 267.189C256.769 267.938 257.036 268.697 257.208 269.466C257.313 269.934 257.375 270.407 257.52 270.861C257.461 270.841 257.403 270.817 257.347 270.79L257.351 270.788ZM257.888 267.406C257.896 266.483 257.962 265.564 257.952 264.639C257.944 263.886 257.939 263.119 258.067 262.375C258.108 262.057 258.208 261.749 258.363 261.468C258.406 261.393 258.467 261.329 258.54 261.282C258.604 261.248 258.677 261.233 258.75 261.239C259.124 261.293 259.502 261.591 259.786 261.841C260.073 262.082 260.29 262.397 260.414 262.751C260.64 263.442 260.414 264.214 260.123 264.872C259.763 265.708 259.277 266.485 258.834 267.278C258.507 267.86 258.178 268.473 257.971 269.12C257.893 268.553 257.863 267.98 257.883 267.408L257.888 267.406ZM258.857 270.993C260.871 269.77 262.567 268.03 264.761 267.115C265.553 266.782 266.625 266.492 267.379 267.092C267.935 267.537 268.024 268.28 267.721 268.915C267.236 269.925 266.057 270.498 265.031 270.772C263.771 271.109 262.431 271.05 261.139 271.005C260.495 270.982 259.85 270.956 259.205 270.981L258.857 270.993ZM274.428 271.228C273.882 271.906 273.076 272.279 272.253 272.502C270.974 272.848 269.586 272.872 268.27 272.89C266.707 272.913 265.146 272.798 263.603 272.548C262.916 272.437 262.24 272.267 261.555 272.144C260.974 272.04 260.392 271.969 259.818 271.842C259.619 271.801 259.422 271.748 259.229 271.683C259.539 271.671 259.846 271.656 260.139 271.662C261.443 271.686 262.747 271.792 264.048 271.645C265.987 271.426 268.884 270.221 268.554 267.808C268.449 267.039 267.857 266.451 267.154 266.193C266.146 265.818 265.049 266.212 264.129 266.636C262.287 267.484 260.787 268.882 259.113 270.006C259.53 269.293 259.996 268.607 260.482 267.937C261.302 266.809 262.154 265.691 263.03 264.606C263.737 263.733 264.519 262.889 265.469 262.279C266.388 261.68 267.475 261.388 268.571 261.445C271.052 261.567 273.064 263.304 274.176 265.429C274.723 266.467 275.039 267.612 275.102 268.785C275.135 269.644 274.972 270.546 274.421 271.231L274.428 271.228Z" fill="url(#paint0_radial_619_21)"/>
<path d="M192.977 282.066C192.686 278.646 191.189 275.243 187.675 273.744C182.365 271.444 176.913 273.014 171.686 273.317C167.692 273.57 160.264 272.131 158.568 277.087C157.568 280.093 158.169 283.734 158.283 286.999C158.437 291.417 158.907 295.857 159.834 300.205C160.471 303.237 161.109 306.604 163.408 308.507C165.638 310.334 168.409 309.634 170.873 309.341C174.394 308.933 177.942 309.002 181.472 309.286C185.476 309.6 189.268 309.104 190.192 304.087C190.799 300.859 191.064 297.576 191.631 294.356C192.231 291.01 192.823 287.666 193.011 284.259C193.05 283.528 193.039 282.795 192.977 282.066Z" fill="#4782AC"/>
<path d="M168.409 280.033C168.136 279.827 166.655 280.573 166.205 280.835C165.894 280.52 164.715 279.729 164.299 279.536C163.772 279.292 164.248 281.583 164.338 281.967C161.647 283.719 161.68 284.345 163.005 284.478C163.638 284.543 164.271 284.61 164.902 284.681C164.999 285.242 165.678 287.937 166.008 287.801C166.356 287.658 166.943 285.401 167.067 284.956C167.635 285.037 169.452 285.255 170.017 285.353C170.632 285.458 168.473 283.123 167.973 282.688C168.279 282.048 168.606 280.183 168.409 280.033Z" fill="white"/>
<path d="M186.764 298.62C186.728 298.252 185.051 297.623 184.514 297.456C184.535 296.979 184.299 295.464 184.148 294.993C183.954 294.396 182.486 296.447 182.248 296.804C178.887 295.952 178.414 296.437 179.279 297.585C179.692 298.134 180.102 298.686 180.509 299.24C180.133 299.725 178.489 302.237 178.842 302.402C179.211 302.574 181.432 301.385 181.876 301.159C182.228 301.668 183.386 303.269 183.718 303.788C184.086 304.355 184.355 300.932 184.335 300.217C185.071 299.994 186.791 298.885 186.764 298.62Z" fill="white"/>
<path d="M185.669 277.296C185.499 277.138 184.444 277.537 184.122 277.684C183.933 277.449 183.191 276.83 182.924 276.67C182.584 276.468 182.744 278.052 182.779 278.319C180.834 279.314 180.813 279.741 181.7 279.923C182.124 280.011 182.548 280.101 182.97 280.195C182.996 280.583 183.261 282.452 183.498 282.383C183.734 282.314 184.3 280.825 184.415 280.533C184.793 280.63 186.007 280.902 186.382 281.008C186.791 281.123 185.495 279.393 185.188 279.062C185.44 278.65 185.792 277.41 185.669 277.296Z" fill="white"/>
<path d="M169.407 297.15C169.237 296.992 168.183 297.391 167.856 297.538C167.668 297.303 166.926 296.686 166.659 296.525C166.318 296.322 166.479 297.906 166.513 298.173C164.569 299.169 164.547 299.595 165.435 299.778C165.858 299.866 166.282 299.956 166.704 300.049C166.729 300.437 166.995 302.306 167.233 302.237C167.47 302.168 168.033 300.679 168.15 300.387C168.528 300.484 169.741 300.757 170.116 300.862C170.526 300.978 169.23 299.247 168.922 298.917C169.178 298.507 169.53 297.262 169.407 297.15Z" fill="white"/>
<path d="M178.89 291.013C178.913 290.781 177.958 290.182 177.647 290.013C177.72 289.722 177.765 288.753 177.731 288.446C177.689 288.054 176.522 289.137 176.331 289.325C174.364 288.376 174.01 288.615 174.4 289.433C174.586 289.821 174.77 290.213 174.951 290.61C174.66 290.863 173.327 292.204 173.524 292.355C173.72 292.505 175.25 292.053 175.553 291.967C175.706 292.325 176.218 293.459 176.361 293.822C176.516 294.218 177.114 292.139 177.191 291.695C177.667 291.647 178.874 291.18 178.89 291.013Z" fill="white"/>
<path d="M183.174 287.211C182.408 287.211 182.408 288.401 183.174 288.401C183.94 288.401 183.941 287.211 183.174 287.211Z" fill="white"/>
<path d="M186.535 291.818C185.769 291.818 185.769 293.006 186.535 293.006C187.301 293.006 187.302 291.818 186.535 291.818Z" fill="white"/>
<path d="M188.69 282.473C187.924 282.473 187.924 283.662 188.69 283.662C189.456 283.662 189.457 282.473 188.69 282.473Z" fill="white"/>
<path d="M174.651 278.923C173.885 278.923 173.885 280.111 174.651 280.111C175.417 280.111 175.418 278.923 174.651 278.923Z" fill="white"/>
<path d="M163.511 288.476C162.744 288.476 162.744 289.664 163.511 289.664C164.278 289.664 164.273 288.476 163.511 288.476Z" fill="white"/>
<path d="M168.856 290.63C168.09 290.63 168.09 291.819 168.856 291.819C169.623 291.819 169.62 290.63 168.856 290.63Z" fill="white"/>
<path d="M162.839 294.715C162.072 294.715 162.072 295.904 162.839 295.904C163.606 295.904 163.609 294.715 162.839 294.715Z" fill="white"/>
<path d="M171.233 305.264C170.466 305.264 170.466 306.453 171.233 306.453C172 306.453 171.999 305.264 171.233 305.264Z" fill="white"/>
<path d="M174.278 298.058C173.511 298.058 173.511 299.247 174.278 299.247C175.045 299.247 175.049 298.058 174.278 298.058Z" fill="white"/>
<path d="M178.661 305.339C177.894 305.339 177.894 306.527 178.661 306.527C179.428 306.527 179.427 305.339 178.661 305.339Z" fill="white"/>
<path d="M162.126 277.482C161.359 277.482 161.359 278.671 162.126 278.671C162.893 278.671 162.893 277.482 162.126 277.482Z" fill="white"/>
<path d="M186.461 303.407C185.695 303.407 185.695 304.596 186.461 304.596C187.227 304.596 187.228 303.407 186.461 303.407Z" fill="white"/>
<path d="M191.919 268.223C191.616 267.044 191.083 265.938 190.349 264.967C188.878 263.011 186.546 261.696 184.047 261.953C181.779 262.186 180.098 263.817 178.748 265.522C177.886 266.609 177.036 267.717 176.22 268.839C175.772 269.457 175.343 270.091 174.954 270.748C175.074 270.324 175.238 269.913 175.445 269.523C175.854 268.704 176.345 267.929 176.77 267.118C177.166 266.365 177.519 265.562 177.583 264.703C177.644 263.864 177.283 263.089 176.667 262.53C176.146 262.056 175.239 261.415 174.534 261.896C173.93 262.305 173.807 263.168 173.726 263.835C173.635 264.578 173.646 265.331 173.655 266.078C173.664 266.783 173.62 267.487 173.599 268.191C173.386 267.525 173.164 266.861 172.938 266.199C172.477 264.851 172.033 263.485 171.461 262.182C171.015 261.163 170.444 260.164 169.604 259.417C168.218 258.182 166.058 257.856 164.419 258.772C163.01 259.558 162.183 261.093 161.635 262.553C161.03 264.167 160.728 265.894 160.557 267.604C160.487 268.308 160.446 269.016 160.436 269.724C160.423 270.672 160.394 271.668 160.651 272.589C160.913 273.526 161.564 274.226 162.362 274.752C163.509 275.512 164.885 275.847 166.253 275.699C167.616 275.557 168.896 275.034 170.143 274.495C170.822 274.204 171.49 273.913 172.179 273.666L172.826 273.435C173.034 273.447 173.242 273.441 173.449 273.419C173.281 273.968 173.04 274.493 172.734 274.98C172.249 275.799 171.702 276.575 171.337 277.46C170.391 279.751 171.464 282.219 171.725 284.53C171.746 284.718 171.867 284.877 172.072 284.877C172.244 284.877 172.439 284.718 172.418 284.53C172.168 282.284 171.082 279.813 172.03 277.599C172.67 276.1 173.912 274.835 174.211 273.225C174.241 273.212 174.27 273.198 174.299 273.185C174.399 274.017 174.625 274.83 174.969 275.594C175.447 276.688 176.018 277.727 176.316 278.891C176.957 281.383 176.478 284.001 176.779 286.535C176.801 286.723 176.92 286.882 177.126 286.882C177.297 286.882 177.494 286.723 177.472 286.535C177.17 283.989 177.601 281.396 177.027 278.881C176.761 277.712 176.215 276.646 175.713 275.566C175.377 274.866 175.144 274.121 175.02 273.355C175.115 273.403 175.212 273.447 175.311 273.485C175.855 273.701 176.45 273.787 177.025 273.878C177.617 273.975 178.199 274.091 178.787 274.213C181.757 274.822 184.91 274.98 187.918 274.54C188.857 274.403 189.815 274.118 190.596 273.56C191.314 273.051 191.829 272.304 192.05 271.452C192.313 270.4 192.177 269.259 191.919 268.223ZM172.705 272.741C172.109 272.685 171.504 272.491 170.988 272.325C170.45 272.152 169.921 271.954 169.385 271.78C168.911 271.627 168.423 271.515 167.943 271.383C167.029 271.129 166.059 270.822 165.392 270.11C164.651 269.319 164.627 268.126 164.984 267.159C165.334 266.21 166.245 265.22 167.32 265.176C168.256 265.138 169.055 266.016 169.604 266.666C170.253 267.433 170.775 268.303 171.279 269.17C171.55 269.654 171.79 270.155 171.995 270.67C172.219 271.207 172.463 271.736 172.868 272.163C173.001 272.301 173.152 272.42 173.317 272.517C173.114 272.592 172.909 272.667 172.701 272.741H172.705ZM173.741 271.965C173.24 271.701 172.966 271.157 172.742 270.663C172.501 270.13 172.317 269.572 172.026 269.063C171.538 268.184 170.99 267.34 170.386 266.536C169.763 265.731 169.01 264.916 168.019 264.585C166.973 264.235 165.86 264.822 165.159 265.582C164.357 266.454 163.933 267.686 164.1 268.861C164.24 269.852 164.788 270.65 165.621 271.188C166.44 271.718 167.424 271.963 168.354 272.207C169.371 272.476 170.343 272.87 171.353 273.155L171.466 273.186C170.901 273.405 170.347 273.645 169.79 273.888C168.48 274.455 167.105 275.001 165.66 275.034C164.986 275.045 164.316 274.922 163.69 274.672C163.063 274.422 162.493 274.051 162.011 273.579C161.353 272.923 161.183 272.04 161.138 271.145C161.069 269.562 161.154 267.976 161.39 266.409C161.639 264.736 162.04 263.031 162.833 261.526C163.501 260.266 164.557 259.102 166.032 258.947C166.996 258.849 167.963 259.092 168.767 259.633C169.671 260.244 170.255 261.241 170.71 262.209C171.301 263.459 171.716 264.796 172.165 266.102C172.423 266.855 172.675 267.609 172.92 268.366C173.159 269.116 173.427 269.875 173.599 270.644C173.703 271.112 173.765 271.584 173.911 272.039C173.852 272.018 173.794 271.994 173.737 271.967L173.741 271.965ZM174.278 268.583C174.287 267.66 174.353 266.741 174.342 265.816C174.335 265.064 174.33 264.297 174.458 263.552C174.498 263.234 174.599 262.927 174.753 262.646C174.797 262.571 174.858 262.507 174.931 262.46C174.995 262.425 175.068 262.41 175.14 262.416C175.514 262.47 175.893 262.768 176.177 263.018C176.464 263.26 176.681 263.574 176.805 263.929C177.031 264.62 176.805 265.392 176.514 266.05C176.153 266.886 175.668 267.662 175.225 268.455C174.898 269.037 174.568 269.651 174.362 270.298C174.283 269.73 174.254 269.158 174.273 268.585L174.278 268.583ZM175.248 272.171C177.262 270.947 178.957 269.208 181.151 268.293C181.944 267.96 183.016 267.669 183.769 268.269C184.326 268.714 184.415 269.458 184.111 270.093C183.627 271.102 182.448 271.675 181.422 271.95C180.162 272.287 178.822 272.228 177.529 272.182C176.885 272.16 176.241 272.134 175.596 272.159L175.248 272.171ZM190.819 272.405C190.273 273.084 189.466 273.456 188.644 273.679C187.364 274.025 185.977 274.05 184.66 274.067C183.098 274.09 181.536 273.976 179.994 273.726C179.306 273.614 178.631 273.445 177.946 273.322C177.364 273.218 176.783 273.147 176.209 273.02C176.009 272.978 175.813 272.925 175.619 272.861C175.929 272.848 176.237 272.834 176.53 272.84C177.834 272.864 179.138 272.97 180.439 272.822C182.378 272.603 185.275 271.399 184.944 268.986C184.84 268.217 184.247 267.628 183.544 267.371C182.537 266.995 181.439 267.39 180.519 267.814C178.677 268.662 177.177 270.06 175.504 271.184C175.921 270.47 176.387 269.785 176.873 269.115C177.693 267.986 178.544 266.868 179.421 265.783C180.128 264.911 180.91 264.066 181.859 263.457C182.779 262.857 183.865 262.565 184.962 262.623C187.443 262.745 189.455 264.481 190.567 266.607C191.114 267.645 191.43 268.79 191.493 269.962C191.526 270.821 191.363 271.724 190.812 272.408L190.819 272.405Z" fill="url(#paint1_radial_619_21)"/>
<path d="M221.299 292.007C221.085 290.235 220.248 288.551 218.404 287.999C215.634 287.169 212.808 288.299 210.083 288.759C207.993 289.112 204.123 288.843 203.142 291.265C202.554 292.72 202.799 294.399 202.799 295.924C202.794 297.986 202.962 300.053 203.384 302.072C203.679 303.488 203.972 305.067 205.227 305.955C206.453 306.823 208.021 306.488 209.409 306.345C211.389 306.142 213.382 306.172 215.363 306.31C217.616 306.468 219.741 306.21 220.175 303.594C220.456 301.902 220.545 300.185 220.798 298.488C221.062 296.719 221.317 294.944 221.354 293.153C221.363 292.77 221.344 292.387 221.299 292.007Z" fill="#DE6C92"/>
<path d="M202.748 294.755C202.753 294.903 202.758 295.049 202.763 295.196C202.954 295.059 203.142 294.919 203.332 294.787C203.691 294.538 204.069 294.316 204.499 294.223C204.991 294.117 205.472 294.273 205.882 294.544C206.32 294.833 206.698 295.188 207.224 295.31C207.715 295.425 208.158 295.368 208.56 295.053C209.037 294.679 209.464 294.293 210.019 294.032C210.574 293.77 211.27 293.657 211.8 294.019C212.215 294.303 212.475 294.757 212.933 294.991C213.31 295.19 213.741 295.261 214.162 295.192C214.917 295.056 215.441 294.371 216.032 293.943C216.357 293.708 216.718 293.548 217.124 293.542C217.514 293.536 217.827 293.844 218.071 294.111C218.345 294.411 218.594 294.725 218.923 294.968C219.107 295.101 219.315 295.196 219.536 295.247C219.756 295.299 219.985 295.306 220.208 295.269C220.628 295.202 220.987 295.015 221.321 294.783C221.334 294.629 221.346 294.475 221.356 294.32C220.862 294.702 220.33 295.006 219.709 294.908C218.87 294.775 218.494 293.871 217.854 293.417C217.158 292.923 216.303 293.268 215.698 293.735C215.129 294.177 214.583 294.865 213.802 294.853C213.302 294.846 212.888 294.559 212.551 294.218C212.177 293.839 211.837 293.518 211.291 293.441C210.687 293.356 210.088 293.567 209.564 293.852C209.311 293.992 209.072 294.153 208.847 294.334C208.632 294.508 208.438 294.705 208.209 294.854C207.76 295.15 207.15 294.956 206.733 294.695C206.289 294.416 205.92 294.057 205.406 293.903C204.508 293.632 203.686 294.083 202.974 294.59L202.748 294.755Z" fill="white"/>
<path d="M219.342 298.309C218.988 298.106 218.732 297.777 218.394 297.552C218.017 297.302 217.568 297.333 217.155 297.465C216.578 297.65 216.083 297.937 215.564 298.243C215.095 298.518 214.586 298.781 214.029 298.706C213.188 298.592 212.604 297.846 211.859 297.506C211.039 297.134 210.245 297.417 209.548 297.91C208.872 298.386 208.266 299.082 207.454 299.321C207.025 299.447 206.612 299.334 206.233 299.121C205.853 298.908 205.543 298.593 205.131 298.431C204.414 298.148 203.588 298.479 202.967 298.968C202.98 299.11 202.994 299.251 203.008 299.392C203.468 298.968 204.067 298.69 204.652 298.706C205.11 298.717 205.456 299.036 205.81 299.285C206.177 299.543 206.596 299.731 207.048 299.743C207.878 299.767 208.579 299.14 209.184 298.65C209.818 298.135 210.574 297.515 211.443 297.742C212.249 297.953 212.812 298.686 213.592 298.972C214.668 299.366 215.598 298.609 216.494 298.123C216.923 297.891 217.532 297.609 218.029 297.771C218.381 297.885 218.654 298.25 218.938 298.472C219.442 298.862 220.049 298.982 220.648 298.918C220.664 298.796 220.681 298.675 220.699 298.553C220.232 298.63 219.754 298.544 219.342 298.309Z" fill="white"/>
<path d="M220.433 302.555C220.449 302.432 220.465 302.309 220.48 302.185C220.381 302.149 220.285 302.111 220.19 302.071C219.437 301.748 218.688 301.269 217.835 301.352C217.319 301.403 216.92 301.68 216.498 301.951C216.294 302.082 216.077 302.209 215.831 302.238C215.525 302.27 215.218 302.128 214.958 301.986C214.541 301.76 214.23 301.387 213.833 301.131C213.421 300.866 212.927 300.801 212.446 300.856C210.698 301.055 209.723 302.925 207.981 303.09C207.449 303.14 206.967 302.998 206.51 302.736C206.053 302.474 205.626 302.163 205.09 302.088C204.5 302.013 203.902 302.149 203.404 302.471C203.432 302.599 203.462 302.728 203.491 302.856C203.969 302.507 204.581 302.341 205.185 302.475C205.706 302.59 206.137 302.972 206.609 303.204C207.051 303.417 207.545 303.502 208.033 303.45C209.794 303.282 210.764 301.41 212.498 301.213C212.743 301.181 212.992 301.2 213.229 301.268C213.467 301.337 213.687 301.453 213.877 301.61C214.27 301.922 214.61 302.236 215.075 302.445C215.576 302.669 216.05 302.63 216.523 302.366C216.972 302.113 217.35 301.765 217.885 301.712C218.72 301.629 219.504 302.188 220.243 302.484C220.303 302.511 220.368 302.534 220.433 302.555Z" fill="white"/>
<path d="M205.737 297.519C205.954 297.671 206.153 297.289 205.937 297.139C205.693 296.969 205.506 296.715 205.283 296.513C205.087 296.335 204.805 296.645 205.003 296.824C205.252 297.053 205.462 297.329 205.737 297.519Z" fill="white"/>
<path d="M207.803 297.086C208.052 296.9 208.31 296.732 208.577 296.58C208.764 296.473 208.599 296.155 208.412 296.262C208.146 296.414 207.888 296.583 207.639 296.768C207.465 296.897 207.627 297.215 207.803 297.086Z" fill="white"/>
<path d="M211.413 296.15C211.145 296.022 210.933 295.827 210.722 295.633C210.555 295.481 210.297 295.717 210.464 295.869C210.697 296.083 210.935 296.298 211.229 296.439C211.437 296.538 211.622 296.25 211.413 296.15Z" fill="white"/>
<path d="M213.693 297.109C214.061 297.003 214.376 296.783 214.703 296.585C214.899 296.466 214.722 296.148 214.525 296.267C214.225 296.449 213.938 296.657 213.599 296.754C213.381 296.817 213.473 297.172 213.693 297.109Z" fill="white"/>
<path d="M217.542 295.854C217.274 295.693 217.062 295.451 216.85 295.207C216.684 295.017 216.426 295.313 216.593 295.503C216.825 295.77 217.064 296.039 217.358 296.215C217.566 296.339 217.75 295.979 217.542 295.854Z" fill="white"/>
<path d="M219.687 296.843L219.774 296.755C219.806 296.722 219.823 296.678 219.823 296.632C219.822 296.587 219.804 296.543 219.771 296.511C219.739 296.478 219.695 296.46 219.65 296.46C219.604 296.459 219.56 296.476 219.527 296.508C219.497 296.537 219.468 296.566 219.439 296.596C219.422 296.612 219.409 296.631 219.399 296.652C219.39 296.674 219.385 296.697 219.385 296.72C219.384 296.744 219.389 296.767 219.398 296.788C219.406 296.81 219.42 296.83 219.436 296.846C219.453 296.863 219.472 296.876 219.494 296.884C219.515 296.893 219.539 296.898 219.562 296.897C219.585 296.897 219.608 296.892 219.63 296.883C219.651 296.873 219.67 296.86 219.687 296.843Z" fill="white"/>
<path d="M205.768 301.057C205.536 301.053 205.536 301.432 205.768 301.435C206.143 301.437 206.513 301.525 206.851 301.693C207.06 301.797 207.244 301.472 207.033 301.366C206.638 301.167 206.206 301.061 205.768 301.057Z" fill="white"/>
<path d="M209.638 299.991C209.273 300.169 208.931 300.368 208.55 300.529C208.295 300.636 208.526 300.922 208.781 300.814C209.162 300.654 209.504 300.454 209.869 300.277C210.111 300.158 209.883 299.871 209.638 299.991Z" fill="white"/>
<path d="M211.561 299.33C211.355 299.218 211.169 299.517 211.375 299.629C211.622 299.764 211.892 299.851 212.158 299.949C212.379 300.032 212.475 299.697 212.256 299.616C212.017 299.537 211.785 299.442 211.561 299.33Z" fill="white"/>
<path d="M215.094 299.996C214.87 299.853 214.662 300.199 214.884 300.342C215.044 300.452 215.218 300.543 215.402 300.612C215.455 300.626 215.512 300.619 215.56 300.593C215.608 300.566 215.643 300.523 215.658 300.472C215.672 300.421 215.664 300.367 215.637 300.321C215.61 300.275 215.565 300.241 215.513 300.226C215.364 300.166 215.223 300.089 215.094 299.996Z" fill="white"/>
<path d="M218.884 299.548C218.366 299.818 217.809 300.007 217.291 300.28C217.078 300.391 217.267 300.707 217.48 300.596C217.999 300.325 218.556 300.137 219.074 299.864C219.287 299.752 219.098 299.436 218.884 299.548Z" fill="white"/>
<path d="M218.817 285.961C218.469 285.605 217.929 285.59 217.463 285.634C217.022 285.676 216.588 285.777 216.175 285.936C216.709 285.486 217.172 284.924 217.388 284.289C217.534 283.859 217.533 283.399 217.33 282.988C217.141 282.602 216.79 282.234 216.328 282.228C215.488 282.218 214.82 283.133 214.395 283.739C214.126 284.119 213.88 284.513 213.641 284.911C213.974 284.004 214.216 282.964 213.947 282.011C213.781 281.42 213.128 280.607 212.445 281.037C211.9 281.381 211.696 282.225 211.547 282.797C211.421 283.294 211.334 283.8 211.285 284.311C211.255 284.221 211.225 284.131 211.195 284.041C210.993 283.442 210.742 282.862 210.386 282.335C210.104 281.918 209.719 281.433 209.205 281.296C208.716 281.167 208.213 281.468 208.061 281.938C207.9 282.439 208.048 283.033 208.171 283.526C208.376 284.357 208.764 285.133 209.239 285.85C208.956 285.621 208.669 285.398 208.373 285.192C207.485 284.577 206.324 283.83 205.191 284.183C204.773 284.313 204.488 284.646 204.498 285.084C204.51 285.589 204.932 286.07 205.302 286.375C205.743 286.739 206.288 286.978 206.81 287.207C207.456 287.498 208.12 287.749 208.797 287.96C208.859 287.979 208.921 287.997 208.983 288.013C208.519 288.03 208.061 288.074 207.6 288.127C206.832 288.211 205.483 288.32 205.436 289.323C205.413 289.807 205.647 290.209 206.147 290.304C206.619 290.394 207.176 290.23 207.63 290.113C208.926 289.78 210.064 289.01 211.376 288.729C212.042 288.586 212.735 288.756 213.407 288.786C214.143 288.818 214.889 288.779 215.624 288.741C216.152 288.714 216.683 288.681 217.21 288.626C217.666 288.581 218.12 288.494 218.528 288.283C218.924 288.076 219.128 287.714 219.158 287.281C219.188 286.849 219.135 286.286 218.817 285.961ZM215.892 282.772C216.316 282.512 216.656 282.688 216.907 283.076C217.165 283.477 217.096 283.959 216.91 284.369C216.491 285.289 215.602 285.9 214.746 286.383C214.229 286.676 213.726 286.988 213.218 287.295C212.956 287.453 212.696 287.624 212.422 287.762L212.292 287.827C212.947 286.968 213.481 286.019 214.032 285.092C214.52 284.273 215.046 283.288 215.892 282.772ZM211.875 283.215C211.95 282.854 212.054 282.501 212.184 282.156C212.286 281.895 212.416 281.588 212.639 281.406C212.849 281.234 213.041 281.373 213.219 281.541C213.563 281.871 213.642 282.389 213.649 282.839C213.661 283.653 213.394 284.485 213.072 285.226C212.868 285.697 212.615 286.149 212.369 286.6C212.226 286.865 212.086 287.136 211.941 287.404C211.897 286.946 211.841 286.492 211.759 286.039C211.719 285.818 211.669 285.6 211.612 285.383C211.638 284.654 211.726 283.929 211.875 283.215ZM208.438 282.703C208.408 282.455 208.388 282.195 208.496 281.963C208.552 281.851 208.648 281.763 208.765 281.715C208.882 281.667 209.013 281.662 209.134 281.702C209.397 281.791 209.613 282.013 209.785 282.22C210.196 282.719 210.481 283.29 210.702 283.891C210.887 284.389 211.06 284.9 211.194 285.417C211.159 285.949 211.145 286.497 211.26 287.012C211.296 287.171 211.339 287.33 211.376 287.49C211.144 287.303 210.87 287.155 210.649 286.971C210.429 286.787 210.249 286.524 210.077 286.287C209.877 286.01 209.666 285.742 209.479 285.455C209.106 284.884 208.819 284.263 208.624 283.612C208.536 283.315 208.474 283.01 208.438 282.703ZM207.306 286.97C206.75 286.734 206.172 286.496 205.682 286.143C205.35 285.905 204.772 285.35 204.937 284.886C205.111 284.402 205.906 284.479 206.288 284.569C206.886 284.709 207.439 285.055 207.942 285.392C208.514 285.775 209.038 286.232 209.577 286.657C209.857 286.879 210.13 287.109 210.411 287.331C210.679 287.542 210.986 287.74 211.228 287.983C210.618 287.86 209.99 287.832 209.381 287.692C208.666 287.528 207.981 287.255 207.306 286.97ZM207.645 289.68C207.195 289.814 206.593 289.992 206.123 289.873C205.888 289.816 205.853 289.544 205.852 289.345C205.852 289.11 205.999 288.956 206.2 288.854C206.62 288.638 207.128 288.59 207.588 288.538C208.204 288.462 208.824 288.42 209.445 288.413C209.89 288.413 210.334 288.447 210.779 288.456C210.342 288.596 209.914 288.761 209.497 288.95C208.887 289.214 208.283 289.493 207.645 289.68ZM218.458 287.832C218.11 288.107 217.605 288.167 217.177 288.212C216.651 288.27 216.119 288.296 215.592 288.327C214.85 288.367 214.09 288.412 213.348 288.37C213.026 288.352 212.703 288.309 212.38 288.285C213.527 287.712 214.666 287.122 215.812 286.545C216.355 286.267 216.948 286.095 217.557 286.039C217.794 286.016 218.047 286.014 218.274 286.093C218.517 286.177 218.619 286.362 218.686 286.593C218.806 286.999 218.821 287.549 218.458 287.832Z" fill="black"/>
<path d="M245.579 300.203C245.49 296.512 247.036 289.398 241.958 288.166C240.077 287.71 238.096 287.938 236.186 287.953C233.164 287.976 229.597 286.951 226.871 288.784C224.222 290.565 224.475 294.502 224.461 297.305C224.45 299.476 223.99 301.629 224.437 303.787C225.136 307.167 228.238 307.626 231.134 307.554C234.127 307.48 237.006 307.518 240.002 307.692C241.637 307.788 243.583 307.436 244.646 306.077C245.861 304.523 245.633 302.166 245.582 300.318C245.581 300.281 245.58 300.242 245.579 300.203Z" fill="#7FB2E0"/>
<path d="M243.782 275.751C241.995 273.301 240.362 276.468 239.522 278.449C238.459 280.954 237.775 283.808 236.474 286.113C237.037 283.996 237.732 281.978 237.925 279.718C238.148 277.095 238.703 273.624 237.343 271.39C236.954 270.751 236.327 270.44 235.741 270.71C235.172 270.973 234.732 271.644 234.481 272.37C233.27 275.888 234.074 280.231 234.433 283.899C234.491 284.494 234.507 285.486 234.731 285.992C234.509 285.492 234.281 284.997 234.059 284.496C233.41 283.024 232.564 281.793 231.868 280.376C231.151 278.915 230.847 276.921 229.81 275.788C229.332 275.265 228.755 275.039 228.153 275.258C227.565 275.473 227.101 276.057 226.817 276.783C226.548 277.466 226.436 278.226 226.362 278.987C226.29 279.725 226.26 280.467 226.411 281.192C226.72 282.668 227.647 283.657 228.547 284.455C229.603 285.392 230.714 286.197 231.828 286.993C232.676 287.6 233.499 288.346 234.429 288.698C236.447 289.455 238.574 287.474 240.231 286.126C241.201 285.337 242.142 284.43 242.929 283.316C243.645 282.302 244.275 281.041 244.478 279.636C244.675 278.28 244.517 276.761 243.782 275.751ZM234.78 275.33C234.807 274.866 234.864 274.404 234.95 273.946C235.12 273.053 235.623 271.218 236.553 271.877C237.361 272.449 237.356 274.343 237.343 275.4C237.299 279.089 236.57 282.348 235.684 285.792C235.653 285.912 235.624 286.032 235.595 286.153C235.55 285.849 235.5 285.547 235.451 285.246C235.376 284.783 235.302 284.324 235.251 283.853C235.251 283.834 235.247 283.816 235.245 283.798C235.072 282.166 234.939 280.523 234.844 278.879C234.779 277.707 234.704 276.507 234.78 275.33ZM234.156 287.444C233.572 287.167 233.005 286.697 232.457 286.341C231.745 285.879 231.036 285.403 230.35 284.865C229.301 284.047 228.109 283.057 227.452 281.622C226.859 280.325 227.02 277.809 227.852 276.739C228.413 276.015 229.129 276.324 229.582 277.052L229.637 277.147C229.809 277.479 229.96 277.821 230.087 278.172C230.584 279.452 231.02 280.76 231.678 281.905C232.701 283.682 233.758 285.477 234.438 287.559C234.342 287.525 234.248 287.486 234.156 287.443V287.444ZM243.775 278.65C243.726 281.96 241.319 284.023 239.452 285.452C238.776 285.97 238.084 286.446 237.389 286.914C237.214 287.032 237.047 287.144 236.882 287.248C237.288 286.561 237.63 285.793 237.938 285.031C238.233 284.301 238.499 283.549 238.776 282.807C239.097 281.946 239.421 281.093 239.763 280.251C240.087 279.452 240.436 278.679 240.79 277.906C241.144 277.133 241.655 275.914 242.428 276.008C242.964 276.073 243.506 276.947 243.662 277.584C243.745 277.933 243.783 278.291 243.775 278.65L243.775 278.65Z" fill="url(#paint2_radial_619_21)"/>
<path d="M246.01 292.965C245.926 292.661 245.628 292.529 245.334 292.585C244.102 292.815 242.813 292.394 241.601 292.22C240.864 292.114 240.115 292.087 239.372 292.049C238.629 292.011 237.88 291.984 237.134 291.968C236.585 291.956 236.037 291.954 235.488 291.942C235.492 291.891 235.496 291.839 235.5 291.788C235.561 291.085 235.662 290.386 235.733 289.685C235.798 289.106 235.822 288.523 235.803 287.941C235.802 287.796 235.744 287.658 235.641 287.556C235.539 287.454 235.4 287.395 235.254 287.393C234.964 287.393 234.692 287.641 234.705 287.941C234.762 289.27 234.503 290.583 234.393 291.903C233.792 291.877 233.191 291.849 232.59 291.82C231.071 291.746 229.553 291.669 228.033 291.614C226.849 291.571 225.664 291.545 224.479 291.544C223.77 291.544 223.77 292.631 224.479 292.632C227.52 292.632 230.556 292.814 233.592 292.955C233.838 292.967 234.086 292.976 234.334 292.985C234.298 294.15 234.334 295.318 234.259 296.482C234.066 299.461 233.843 302.454 233.815 305.44C233.809 306.021 233.815 306.601 233.815 307.181C233.815 307.882 234.913 307.882 234.913 307.181C234.913 305.732 234.926 304.286 234.992 302.838C235.061 301.341 235.165 299.847 235.25 298.351C235.335 296.877 235.412 295.408 235.426 293.932C235.426 293.628 235.433 293.324 235.44 293.02C236.334 293.041 237.227 293.056 238.121 293.086C239.525 293.133 240.926 293.188 242.309 293.439C243.406 293.639 244.519 293.843 245.628 293.635C245.921 293.579 246.084 293.232 246.01 292.965Z" fill="url(#paint3_radial_619_21)"/>
<path d="M229.202 289.62C229.118 289.479 228.891 289.396 228.744 289.503C228.493 289.699 228.225 289.874 227.944 290.026C227.561 290.22 227.898 290.787 228.281 290.591C228.562 290.439 228.83 290.264 229.082 290.068C229.227 289.961 229.302 289.787 229.202 289.62Z" fill="white"/>
<path d="M232.137 289.486C231.937 289.203 231.799 288.881 231.733 288.541C231.634 288.079 230.925 288.273 231.023 288.739C231.103 289.142 231.266 289.524 231.502 289.86C231.619 290.023 231.819 290.102 232.005 289.992C232.166 289.894 232.255 289.649 232.137 289.486Z" fill="white"/>
<path d="M229.098 293.87C228.509 293.87 228.509 294.459 229.098 294.459C229.688 294.459 229.685 293.87 229.098 293.87Z" fill="white"/>
<path d="M228.024 294.629C227.943 294.485 227.726 294.399 227.586 294.509C227.255 294.769 227.008 295.088 226.758 295.43C226.535 295.735 226.293 296.029 225.935 296.149C225.544 296.284 225.712 296.932 226.107 296.796C226.507 296.657 226.822 296.399 227.09 296.062C227.359 295.724 227.577 295.349 227.91 295.086C228.051 294.979 228.119 294.8 228.024 294.629Z" fill="white"/>
<path d="M230.38 297.783C230.195 297.506 229.98 297.257 229.795 296.98C229.698 296.836 229.545 296.76 229.395 296.86C229.27 296.944 229.193 297.172 229.29 297.318C229.475 297.595 229.69 297.844 229.875 298.121C229.972 298.265 230.125 298.341 230.275 298.24C230.4 298.157 230.477 297.928 230.38 297.783Z" fill="white"/>
<path d="M232.05 294.822C231.667 295.169 231.288 295.529 230.864 295.782C230.716 295.87 230.682 296.157 230.758 296.329C230.846 296.533 231.016 296.561 231.164 296.472C231.588 296.219 231.967 295.858 232.351 295.512C232.666 295.227 232.369 294.534 232.05 294.822Z" fill="white"/>
<path d="M232.736 300.997C232.595 300.726 232.388 300.497 232.247 300.228C232.04 299.829 231.436 300.182 231.645 300.581C231.785 300.851 231.993 301.081 232.133 301.349C232.341 301.749 232.944 301.395 232.736 300.997Z" fill="white"/>
<path d="M227.319 299.682C227.109 300.193 226.744 300.631 226.373 301.065C226.089 301.399 226.744 301.715 227.025 301.385C227.437 300.902 227.813 300.416 228.046 299.851C228.208 299.463 227.477 299.298 227.319 299.682Z" fill="white"/>
<path d="M229.317 302.907C228.828 302.769 228.354 302.578 227.87 302.423C227.479 302.3 227.313 302.965 227.701 303.089C228.185 303.244 228.658 303.435 229.148 303.573C229.543 303.684 229.71 303.017 229.317 302.907Z" fill="white"/>
<path d="M230.019 300.43C229.932 300.362 229.837 300.303 229.735 300.252C229.692 300.23 229.649 300.208 229.607 300.185L229.577 300.168C229.6 300.18 229.545 300.144 229.538 300.138C229.474 300.083 229.386 300.053 229.295 300.053C229.204 300.053 229.116 300.083 229.052 300.138C228.987 300.193 228.951 300.267 228.951 300.345C228.951 300.422 228.987 300.496 229.052 300.551C229.139 300.619 229.234 300.679 229.336 300.729C229.379 300.751 229.422 300.773 229.464 300.796C229.474 300.801 229.484 300.808 229.494 300.813C229.472 300.801 229.526 300.837 229.533 300.843C229.565 300.871 229.603 300.895 229.645 300.911C229.687 300.927 229.733 300.935 229.779 300.936C229.825 300.937 229.871 300.929 229.914 300.915C229.957 300.9 229.995 300.878 230.028 300.851C230.061 300.823 230.087 300.79 230.104 300.753C230.121 300.717 230.13 300.678 230.129 300.639C230.128 300.6 230.118 300.561 230.099 300.525C230.08 300.489 230.053 300.457 230.019 300.43Z" fill="white"/>
<path d="M231.556 304.531C231.549 304.831 231.457 305.112 231.344 305.379C231.165 305.805 231.713 306.18 231.894 305.752C232.057 305.365 232.181 304.967 232.192 304.531C232.202 304.055 231.566 304.056 231.556 304.531Z" fill="white"/>
<path d="M227.798 305.26C227.469 305.137 227.145 305.009 226.856 304.814C226.693 304.703 226.447 304.787 226.353 304.937C226.244 305.11 226.323 305.297 226.485 305.407C226.823 305.637 227.216 305.776 227.603 305.923C227.79 305.993 228.007 305.848 228.055 305.683C228.113 305.487 227.984 305.33 227.798 305.26Z" fill="white"/>
<path d="M238.632 289.674C238.557 289.447 238.406 289.402 238.279 289.511C238.11 289.651 237.925 289.724 237.738 289.722C237.405 289.729 237.405 290.639 237.738 290.632C238.016 290.628 238.29 290.514 238.54 290.297C238.666 290.188 238.699 289.875 238.632 289.674Z" fill="white"/>
<path d="M230.96 290.337H229.887C229.426 290.337 229.426 291.221 229.887 291.221H230.96C231.423 291.221 231.423 290.337 230.96 290.337Z" fill="white"/>
<path d="M242.1 289.253C241.974 289.139 241.723 289.119 241.603 289.253C241.255 289.637 240.969 290.069 240.549 290.396C240.206 290.664 240.705 291.111 241.046 290.845C241.467 290.517 241.751 290.087 242.1 289.701C242.221 289.568 242.245 289.384 242.1 289.253Z" fill="white"/>
<path d="M243.74 290.843C243.462 290.726 243.171 290.7 242.882 290.64C242.717 290.605 242.552 290.688 242.504 290.876C242.462 291.044 242.554 291.26 242.718 291.294C243.008 291.355 243.299 291.381 243.577 291.498C243.734 291.564 243.913 291.427 243.955 291.261C244.002 291.07 243.897 290.909 243.74 290.843Z" fill="white"/>
<path d="M236.605 294.833V296.146C236.605 296.644 237.194 296.644 237.194 296.146V294.833C237.194 294.334 236.605 294.334 236.605 294.833Z" fill="white"/>
<path d="M240.606 295.657C240.007 295.861 239.5 296.249 238.902 296.451C238.49 296.59 238.667 297.23 239.085 297.088C239.685 296.886 240.192 296.497 240.792 296.295C241.2 296.154 241.023 295.515 240.606 295.657Z" fill="white"/>
<path d="M243.658 296.084C243.56 295.724 243.338 295.416 243.085 295.154C242.772 294.828 242.281 295.328 242.595 295.652C242.767 295.829 242.925 296.03 242.991 296.272C243.109 296.707 243.777 296.523 243.658 296.084Z" fill="white"/>
<path d="M239.051 294.037C238.999 294.023 238.949 294.007 238.9 293.989C238.864 293.972 238.83 293.955 238.796 293.937C238.717 293.894 238.61 293.87 238.499 293.87C238.387 293.87 238.28 293.894 238.201 293.937C238.122 293.979 238.078 294.037 238.078 294.097C238.078 294.157 238.122 294.215 238.201 294.258C238.325 294.326 238.467 294.384 238.623 294.429C238.72 294.459 238.834 294.467 238.941 294.452C239.048 294.436 239.14 294.399 239.198 294.348C239.254 294.296 239.27 294.235 239.243 294.176C239.215 294.118 239.146 294.068 239.051 294.037Z" fill="white"/>
<path d="M236.312 299.531V300.28C236.312 300.762 237.196 300.762 237.196 300.28V299.531C237.196 299.049 236.312 299.049 236.312 299.531Z" fill="white"/>
<path d="M241.141 299.718C240.51 299.394 239.77 299.202 239.273 298.688C238.961 298.365 238.454 298.845 238.765 299.167C239.31 299.731 240.088 299.948 240.779 300.303C241.183 300.511 241.545 299.926 241.141 299.718Z" fill="white"/>
<path d="M242.348 297.147C242.198 297.063 242.042 297.126 241.946 297.247C241.803 297.429 241.654 297.622 241.464 297.762C241.338 297.855 241.27 298 241.359 298.144C241.432 298.263 241.633 298.338 241.76 298.244C242.037 298.04 242.245 297.794 242.453 297.529C242.547 297.409 242.474 297.219 242.348 297.147Z" fill="white"/>
<path d="M245.224 299.688C245.072 299.292 244.424 299.464 244.578 299.867C244.704 300.2 244.768 300.553 244.767 300.909C244.772 301.337 245.443 301.338 245.438 300.909C245.44 300.493 245.368 300.079 245.224 299.688Z" fill="white"/>
<path d="M242.456 302.043C242.435 301.878 242.267 301.788 242.146 301.829C242.002 301.877 241.948 302.041 241.969 302.206C242.016 302.54 241.998 302.883 241.919 303.208C241.822 303.587 242.309 303.747 242.406 303.373C242.517 302.937 242.513 302.488 242.456 302.043Z" fill="white"/>
<path d="M239.798 302.408H237.829C237.375 302.408 237.375 303.291 237.829 303.291H239.798C240.251 303.291 240.251 302.408 239.798 302.408Z" fill="white"/>
<path d="M237.427 305.523C237.258 305.33 237.174 305.106 237.036 304.902C236.943 304.763 236.674 304.727 236.501 304.801C236.307 304.883 236.268 305.049 236.361 305.187C236.501 305.389 236.582 305.616 236.752 305.809C237.02 306.115 237.698 305.832 237.427 305.523Z" fill="white"/>
<path d="M241.012 305.522C240.544 305.518 240.095 305.447 239.647 305.361C239.253 305.286 239.089 305.692 239.478 305.765C239.979 305.86 240.488 305.936 241.011 305.941C241.419 305.944 241.418 305.525 241.012 305.522Z" fill="white"/>
<path d="M244.331 303.596C244.181 303.553 243.974 303.648 243.947 303.824C243.893 304.193 243.724 304.533 243.466 304.792C243.187 305.093 243.625 305.555 243.908 305.254C244.238 304.9 244.474 304.494 244.549 303.998C244.575 303.823 244.508 303.647 244.331 303.596Z" fill="white"/>
<path d="M244.261 297.109C243.869 297.109 243.869 297.698 244.261 297.698C244.654 297.698 244.654 297.109 244.261 297.109Z" fill="white"/>
<path d="M244.996 294.459C244.407 294.459 244.407 295.048 244.996 295.048C245.585 295.048 245.585 294.459 244.996 294.459Z" fill="white"/>
<path d="M232.779 290.337C232.386 290.337 232.386 291.221 232.779 291.221C233.171 291.221 233.171 290.337 232.779 290.337Z" fill="white"/>
<defs>
<radialGradient id="paint0_radial_619_21" cx="0" cy="0" r="1" gradientUnits="userSpaceOnUse" gradientTransform="translate(259.914 271.384) scale(15.121)">
<stop offset="0.57" stop-color="#130C0E"/>
<stop offset="0.8" stop-color="#130C0E"/>
<stop offset="1" stop-color="#130C0E"/>
</radialGradient>
<radialGradient id="paint1_radial_619_21" cx="0" cy="0" r="1" gradientUnits="userSpaceOnUse" gradientTransform="translate(176.305 272.561) scale(15.121)">
<stop offset="0.57" stop-color="#130C0E"/>
<stop offset="0.8" stop-color="#130C0E"/>
<stop offset="1" stop-color="#130C0E"/>
</radialGradient>
<radialGradient id="paint2_radial_619_21" cx="0" cy="0" r="1" gradientUnits="userSpaceOnUse" gradientTransform="translate(70292 65034.1) scale(2716.23)">
<stop offset="0.57" stop-color="#130C0E"/>
<stop offset="0.8" stop-color="#130C0E"/>
<stop offset="1" stop-color="#130C0E"/>
</radialGradient>
<radialGradient id="paint3_radial_619_21" cx="0" cy="0" r="1" gradientUnits="userSpaceOnUse" gradientTransform="translate(84857.6 78348) scale(3832.03 3525.47)">
<stop offset="0.57" stop-color="#130C0E"/>
<stop offset="0.8" stop-color="#130C0E"/>
<stop offset="1" stop-color="#130C0E"/>
</radialGradient>
<clipPath id="clip0_619_21">
<rect width="4.12209" height="3.62571" fill="white" transform="translate(200 155)"/>
</clipPath>
<clipPath id="clip1_619_21">
<rect width="4.12209" height="3.62571" fill="white" transform="translate(156.596 238.74)"/>
</clipPath>
<clipPath id="clip2_619_21">
<rect width="4.12209" height="3.62571" fill="white" transform="translate(0.992188 243.846)"/>
</clipPath>
<clipPath id="clip3_619_21">
<rect width="7.76938" height="7.76938" fill="white" transform="translate(219 86)"/>
</clipPath>
<clipPath id="clip4_619_21">
<rect width="7.76938" height="7.76938" fill="white" transform="translate(145.605 124) rotate(11.9286)"/>
</clipPath>
<clipPath id="clip5_619_21">
<rect width="7.76938" height="7.76938" fill="white" transform="translate(262.605 122) rotate(11.9286)"/>
</clipPath>
<clipPath id="clip6_619_21">
<rect width="9.79805" height="10.4455" fill="white" transform="translate(249)"/>
</clipPath>
</defs>
</svg>
