<svg width="19" height="33" viewBox="0 0 19 33" fill="none" xmlns="http://www.w3.org/2000/svg">
<g clip-path="url(#clip0_537_12)">
<path fill-rule="evenodd" clip-rule="evenodd" d="M18.35 15.1901L3.66 0.500092C3.35071 0.191711 2.93176 0.0185547 2.495 0.0185547C2.05823 0.0185547 1.6393 0.191711 1.33 0.500092L0 1.83011L13.35 15.1901C13.513 15.3309 13.6437 15.5052 13.7333 15.701C13.8229 15.8969 13.8693 16.1097 13.8693 16.3251C13.8693 16.5405 13.8229 16.7533 13.7333 16.9492C13.6437 17.145 13.513 17.3193 13.35 17.4601L0 30.8901L1.33 32.2801C1.65064 32.5662 2.0653 32.7242 2.495 32.7242C2.92469 32.7242 3.33937 32.5662 3.66 32.2801L18.35 17.4401C18.513 17.2993 18.6437 17.125 18.7333 16.9292C18.8229 16.7333 18.8693 16.5205 18.8693 16.3051C18.8693 16.0897 18.8229 15.8769 18.7333 15.681C18.6437 15.4851 18.513 15.3109 18.35 15.1701V15.1901Z" fill="#727270"/>
</g>
<defs>
<clipPath id="clip0_537_12">
<rect width="18.87" height="32.73" fill="white"/>
</clipPath>
</defs>
</svg>
