<svg width="19" height="33" viewBox="0 0 19 33" fill="none" xmlns="http://www.w3.org/2000/svg">
<g clip-path="url(#clip0_537_14)">
<path fill-rule="evenodd" clip-rule="evenodd" d="M0.519135 15.1901L15.2091 0.500092C15.5184 0.191711 15.9374 0.0185547 16.3741 0.0185547C16.8109 0.0185547 17.2298 0.191711 17.5391 0.500092L18.8691 1.83011L5.51913 15.1901C5.35617 15.3309 5.22544 15.5052 5.13583 15.701C5.04623 15.8969 4.99985 16.1097 4.99985 16.3251C4.99985 16.5405 5.04623 16.7533 5.13583 16.9492C5.22544 17.145 5.35617 17.3193 5.51913 17.4601L18.8691 30.8901L17.5391 32.2801C17.2185 32.5662 16.8038 32.7242 16.3741 32.7242C15.9445 32.7242 15.5298 32.5662 15.2091 32.2801L0.519135 17.4401C0.356167 17.2993 0.225441 17.125 0.135834 16.9292C0.0462265 16.7333 -0.000152588 16.5205 -0.000152588 16.3051C-0.000152588 16.0897 0.0462265 15.8769 0.135834 15.681C0.225441 15.4851 0.356167 15.3109 0.519135 15.1701V15.1901Z" fill="#727270"/>
</g>
<defs>
<clipPath id="clip0_537_14">
<rect width="18.87" height="32.73" fill="white" transform="matrix(-1 0 0 1 18.8691 0)"/>
</clipPath>
</defs>
</svg>
