<svg width="174" height="315" viewBox="0 0 174 315" fill="none" xmlns="http://www.w3.org/2000/svg">
<path d="M172.956 115.501C171.223 112.287 167.632 109.675 164.468 108.27C157.983 105.394 150.422 105.531 143.582 106.507C131.333 108.256 121.562 116.899 109.785 120.084C105.857 112.811 113.339 109.398 118.614 107.409C125.711 104.733 134.039 104.769 139.107 97.9472C142.216 93.7643 140.669 87.6955 136.681 84.991C131.705 81.6183 124.537 82.5384 119.492 85.2498C117.094 86.5403 114.923 88.4093 112.566 89.5967C113.144 89.3058 115.157 81.9041 116.588 80.4986C118.78 78.3471 121.726 76.9585 124.591 76.1009C129.964 74.5025 135.929 74.4822 141.465 74.0712C147.944 73.5858 155.245 73.4776 161.129 70.3197C166.737 67.3124 173.709 57.9504 166.021 52.3231C162.19 49.5171 157.113 49.3209 152.61 49.6321C144.084 50.2224 135.557 53.2466 127.974 57.2113C124.557 58.9991 121.056 61.0778 117.81 63.5202C118.243 62.7489 118.688 61.9856 119.144 61.2301C119.23 61.0914 119.43 60.7632 119.482 60.6736C119.67 60.3759 119.858 60.0816 120.049 59.7839C120.491 59.0955 120.946 58.4156 121.403 57.7356C128.971 46.5097 159.141 17.6222 141.17 2.71071C137.222 -0.565552 131.497 0.479741 127.698 3.41603C124.263 6.07492 122.031 10.207 120.326 14.2241C118.465 18.6218 117.143 23.2799 115.899 27.9059C113.1 38.3098 110.086 48.6511 107.881 59.2224C107.815 59.5319 107.756 59.8414 107.694 60.1526C106.946 58.8705 106.167 57.6065 105.358 56.3605C101.243 50.0177 96.4129 43.7899 90.2141 39.5902C87.6232 37.8345 84.5263 36.6624 81.4142 36.9381C77.4882 37.2865 74.4979 40.0333 72.6144 43.4804C70.2452 47.829 71.8427 52.7832 75.2374 55.9292C77.984 58.4764 81.619 59.9649 85.0357 61.1928C92.1636 63.7536 100.124 66.0573 103.571 73.9579C105.976 79.4668 105.549 88.23 102.048 93.1385C90.8791 81.9059 76.3831 65.763 59.4705 67.0079C53.5577 67.4443 46.9138 71.091 48.0374 78.2981C49.261 86.136 58.494 91.0716 64.5321 94.1466C71.1133 97.4972 78.2395 99.3696 85.0273 102.164C87.85 103.326 90.8233 104.52 93.3549 106.288C93.9574 106.709 99.4471 113.319 97.9867 113.194C95.7698 113.006 93.4514 111.502 91.0247 111.181C83.7293 110.228 75.9059 115.516 80.8913 123.767C80.8659 123.709 80.8389 123.651 80.8084 123.597C84.0068 129.348 90.0432 128.79 95.1014 131.346C102.759 135.217 100.019 146.645 100.219 153.547C93.1113 147.02 67.6949 118.028 60.4655 139.043C54.5138 156.333 80.096 159.575 89.9112 163.554C95.7766 165.932 101.117 169.103 102.932 175.804C103.878 179.297 102.378 191.988 106.164 193.721C111.308 196.074 113.647 181.3 114.302 178.419C116.275 169.734 118.572 167.102 126.588 164.369C134.926 161.524 143.089 154.274 135.219 145.087C126.221 134.573 115.637 143.827 109.337 151.915C109.87 147.908 108.13 143.943 109.748 140.075C113.892 130.15 132.829 133.054 141.072 133.321C151.71 133.66 164.737 133.901 172.08 124.445C174.554 121.272 174.4 118.176 172.956 115.501Z" fill="#EBA7BE"/>
<path d="M155.718 67.1013C155.726 66.3616 155.438 65.6486 154.915 65.1192C154.392 64.5897 153.678 64.2871 152.93 64.2777C152.559 64.2732 152.191 64.341 151.847 64.4772C151.503 64.6133 151.189 64.8152 150.924 65.0713C150.658 65.3274 150.447 65.6327 150.301 65.9696C150.155 66.3066 150.078 66.6687 150.073 67.0352L150.044 69.6367C150.039 70.0032 150.108 70.367 150.245 70.7074C150.383 71.0478 150.587 71.358 150.846 71.6204C151.105 71.8828 151.413 72.0922 151.754 72.2366C152.095 72.381 152.461 72.4576 152.832 72.462C153.581 72.4706 154.302 72.185 154.838 71.6679C155.373 71.1508 155.679 70.4446 155.689 69.7045L155.718 67.1013Z" fill="#1E1B1B"/>
<path d="M165.805 81.6711C165.789 84.2239 165.015 86.7146 163.582 88.8284C162.149 90.9421 160.12 92.5839 157.752 93.546C155.384 94.5082 152.784 94.7476 150.28 94.2338C147.776 93.7201 145.481 92.4763 143.685 90.6599C141.889 88.8434 140.672 86.5358 140.19 84.0289C139.707 81.5221 139.979 78.9285 140.973 76.5763C141.966 74.224 143.635 72.2187 145.77 70.814C147.904 69.4094 150.408 68.6683 152.964 68.6847C156.391 68.7071 159.669 70.0877 162.077 72.5229C164.485 74.9582 165.826 78.2487 165.805 81.6711Z" fill="#7FB2E0"/>
<path d="M158.871 79.7443C158.863 81.0517 158.486 82.3274 157.787 83.4099C157.088 84.4924 156.098 85.3332 154.943 85.8259C153.788 86.3186 152.52 86.4412 151.298 86.178C150.077 85.9149 148.957 85.2779 148.081 84.3475C147.205 83.4172 146.612 82.2354 146.376 80.9514C146.141 79.6675 146.273 78.3392 146.758 77.1344C147.242 75.9296 148.056 74.9025 149.098 74.183C150.139 73.4634 151.36 73.0837 152.607 73.0919C154.279 73.1034 155.878 73.8106 157.052 75.0581C158.227 76.3055 158.881 77.9911 158.871 79.7443Z" fill="#4782AC"/>
<path d="M153.197 68.695L151.978 68.6844L151.937 78.1214L153.154 78.1284L153.197 68.695Z" fill="white"/>
<path d="M155.087 78.7716C155.09 78.2734 154.945 77.7856 154.67 77.37C154.395 76.9543 154.003 76.6294 153.543 76.4364C153.083 76.2433 152.576 76.1908 152.086 76.2855C151.597 76.3802 151.146 76.6178 150.792 76.9683C150.437 77.3187 150.195 77.7663 150.095 78.2544C149.995 78.7425 150.043 79.2492 150.231 79.7103C150.42 80.1715 150.741 80.5665 151.155 80.8452C151.568 81.124 152.055 81.274 152.554 81.2764C153.222 81.2795 153.865 81.0175 154.34 80.5478C154.815 80.0781 155.084 79.4392 155.087 78.7716Z" fill="white"/>
<path d="M88.8909 54.2708C88.8966 53.7582 88.7039 53.2644 88.3553 52.8977C88.0067 52.531 87.5305 52.3216 87.0316 52.3153C86.5327 52.3095 86.0519 52.5074 85.695 52.8655C85.338 53.2237 85.1341 53.7127 85.128 54.2253L85.1085 56.0278C85.1033 56.54 85.2962 57.0334 85.6448 57.3997C85.9934 57.766 86.4692 57.9752 86.9678 57.9814C87.4667 57.9873 87.9475 57.7894 88.3045 57.4312C88.6614 57.0731 88.8653 56.584 88.8714 56.0715L88.8909 54.2708Z" fill="#1E1B1B"/>
<path d="M95.1955 63.703C95.1841 65.3214 94.6741 66.9002 93.7299 68.2399C92.7858 69.5796 91.4498 70.62 89.8908 71.2297C88.3319 71.8394 86.62 71.9909 84.9715 71.6651C83.323 71.3393 81.812 70.5508 80.6294 69.3993C79.4468 68.2479 78.6457 66.7851 78.3274 65.1959C78.0091 63.6067 78.1879 61.9624 78.8412 60.4708C79.4944 58.9793 80.5928 57.7075 81.9975 56.8162C83.4022 55.9249 85.0502 55.4541 86.7331 55.4633C87.8515 55.4694 88.9577 55.6874 89.9884 56.1049C91.0191 56.5224 91.9542 57.1312 92.7401 57.8964C93.526 58.6617 94.1474 59.5684 94.5687 60.5647C94.99 61.561 95.203 62.6275 95.1955 63.703Z" fill="#DE6C92"/>
<path d="M90.7815 62.7302C90.7763 63.5395 90.5308 64.329 90.0762 64.999C89.6216 65.669 88.9784 66.1894 88.2277 66.4943C87.477 66.7992 86.6526 66.875 85.8588 66.712C85.065 66.5491 84.3374 66.1548 83.768 65.5789C83.1986 65.0031 82.8129 64.2715 82.6598 63.4768C82.5066 62.682 82.5929 61.8598 82.9076 61.114C83.2224 60.3682 83.7515 59.7324 84.4281 59.2869C85.1046 58.8414 85.8983 58.6062 86.7087 58.6112C87.247 58.6144 87.7793 58.7236 88.2754 58.9324C88.7714 59.1411 89.2214 59.4455 89.5996 59.828C89.9778 60.2105 90.2769 60.6637 90.4797 61.1616C90.6825 61.6596 90.7851 62.1926 90.7815 62.7302Z" fill="#EBA7BE"/>
<path d="M86.9996 55.4697L86.3897 55.4631L86.3691 61.1262L86.9791 61.1295L86.9996 55.4697Z" fill="white"/>
<path d="M88.2606 62.0837C88.2625 61.7723 88.1719 61.4674 88.0003 61.2074C87.8287 60.9475 87.5837 60.7442 87.2964 60.6233C87.009 60.5025 86.6922 60.4694 86.3861 60.5283C86.0799 60.5873 85.7982 60.7356 85.5765 60.9545C85.3547 61.1734 85.203 61.4531 85.1404 61.7581C85.0779 62.0632 85.1074 62.3799 85.2251 62.6682C85.3428 62.9565 85.5435 63.2035 85.8018 63.3779C86.0602 63.5523 86.3645 63.6462 86.6762 63.6478C86.8831 63.6491 87.0883 63.6097 87.2799 63.5318C87.4715 63.4538 87.6459 63.339 87.793 63.1937C87.9402 63.0484 88.0572 62.8756 88.1374 62.6852C88.2176 62.4947 88.2595 62.2903 88.2606 62.0837Z" fill="white"/>
<path d="M23.7726 174.061C20.8226 173.372 18.1101 174.333 15.5459 175.338C13.3557 176.197 11.1285 176.9 9.08485 178.108C7.267 179.189 15.5729 225.433 17.0908 232.111C17.5002 233.915 17.9332 235.689 17.8692 237.464C17.8052 239.239 17.0386 240.43 16.1962 241.584C14.7119 243.611 13.8763 247.597 15.6099 250.551C17.1582 253.186 19.6533 254.009 21.7559 253.737C26.0301 253.186 29.3845 250.006 30.2235 244.541C30.7289 241.236 30.392 237.626 30.1494 234.106C29.4552 223.865 30.1999 214.075 30.8334 204.209C31.0153 201.372 31.1703 198.527 31.2596 195.658C31.3995 190.95 32.006 185.638 30.6986 180.731C29.6473 176.795 26.6653 174.738 23.7726 174.061Z" fill="#7FB2E0"/>
<path d="M45.7918 174.061C48.8237 173.372 51.6098 174.333 54.2452 175.338C56.4963 176.197 58.7871 176.9 60.8875 178.108C62.7558 179.189 54.2193 225.433 52.6591 232.111C52.2384 233.915 51.7847 235.689 51.8592 237.464C51.9336 239.239 52.7111 240.43 53.5786 241.584C55.1041 243.611 55.9629 247.597 54.1812 250.551C52.5899 253.186 50.0254 254.009 47.8645 253.737C43.4715 253.186 40.024 250.006 39.1617 244.541C38.6422 241.236 38.9885 237.626 39.2379 234.106C39.9513 223.865 39.1859 214.075 38.5348 204.209C38.3478 201.372 38.1885 198.527 38.0968 195.658C37.953 190.95 37.3297 185.638 38.6734 180.731C39.7539 176.795 42.817 174.738 45.7918 174.061Z" fill="#7FB2E0"/>
<path d="M135.537 236.276C135.428 231.476 134.219 226.617 133.974 221.873C132.764 198.452 129.499 172.515 116.363 152.453C108.901 141.055 90.7887 141.56 79.179 134.642C59.3603 122.828 77.6855 97.2385 70.5325 90.4525C67.5523 87.624 56.7552 101.189 54.8833 97.5204C52.8678 93.5848 51.643 89.3909 48.9078 85.8384C47.2961 83.7474 44.762 82.6319 42.2616 84.0984C41.5667 84.5228 40.9866 85.111 40.5722 85.8114C40.1113 85.9125 39.6618 86.06 39.2308 86.2519C35.4009 87.9733 30.9188 88.3311 27.7951 91.4043C24.4855 94.6665 24.5851 100.303 24.1932 104.568C23.5174 111.946 25.6748 60.6316 21.382 66.6599C5.54531 88.8948 -12.2376 111.251 11.607 202.138C13.5312 209.474 25.4603 174.928 50.6141 194.527C57.1877 199.647 55.6689 199.866 54.3207 206.416C53.0081 212.806 55.1655 219.344 59.3147 224.258C63.5805 229.321 69.9209 233.188 76.2613 234.956C80.0186 236.004 83.9566 236.84 87.5805 238.31C79.3192 238.294 71.1035 238.31 63.0754 240.571C59.9905 241.437 56.294 243.622 57.1235 247.354C58.1371 251.888 63.7646 253.011 67.6807 253.134C72.1915 253.277 76.6347 252.71 81.0897 252.03C90.5116 250.589 100.168 250.972 109.692 251.488C112.248 251.627 114.806 251.764 117.367 251.826C123.994 251.961 131.568 251.418 134.286 244.348C135.307 241.692 135.597 238.993 135.537 236.276Z" fill="#7FB2E0"/>
<path d="M68.7014 83.9447C69.132 97.5778 60.7583 108.903 50.0008 109.242L38.5533 109.6C27.7924 109.942 18.7269 99.1716 18.298 85.5317C17.8691 71.9003 26.2411 60.5749 37.0003 60.2365L48.4478 59.8779C59.2053 59.5395 68.2741 70.3184 68.7031 83.9498L68.7014 83.9447Z" fill="#7FB2E0"/>
<path d="M72.4852 94.3522C72.9677 109.578 60.5222 122.318 44.6853 122.815C28.8484 123.312 15.6195 111.359 15.137 96.1396C14.6544 80.9202 35.9181 64.1526 51.7533 63.659C67.5885 63.1654 72.0027 79.1261 72.4852 94.3522Z" fill="#7FB2E0"/>
<path d="M55.4775 106.591C55.5892 113.37 50.7411 118.95 44.6514 119.051C38.5618 119.152 33.5293 113.739 33.416 106.96C33.3027 100.18 38.1524 94.6001 44.2421 94.4994C50.3317 94.3987 55.3659 99.8112 55.4775 106.591Z" fill="white"/>
<path d="M36.5431 60.5238L34.6738 100.794L52.9565 100.777L49.6871 60.0392C45.3013 59.7045 40.891 59.8671 36.5431 60.5238Z" fill="#4782AC"/>
<path d="M51.874 102.074C53.1639 101.354 53.4099 100.161 52.0153 98.3406C50.6706 96.6562 47.6853 94.3445 43.716 94.5061C39.7417 94.482 36.8328 96.8951 35.5446 98.631C34.2149 100.498 34.4925 101.682 35.8056 102.357C37.265 103.045 38.7427 103.868 39.996 104.592C41.2892 105.293 42.3546 105.893 43.8988 105.826C45.4413 105.839 46.4885 105.203 47.7584 104.451C48.9868 103.686 50.4379 102.814 51.874 102.074Z" fill="url(#paint0_radial_511_232)"/>
<path d="M68.4282 74.6225C68.1578 73.887 67.6387 73.2608 66.9546 72.8448C64.4328 71.2757 61.1241 71.8082 58.4224 72.5877C57.4508 72.8732 56.4954 73.2075 55.5599 73.5893C54.6087 73.9749 53.5277 74.4556 53.1143 75.4404C52.6594 76.5188 53.2354 77.7774 54.1313 78.4284C55.0826 79.1245 56.2604 79.1762 57.4054 79.1812C58.8963 79.1812 60.3855 79.2747 61.8747 79.3348C64.3671 79.4383 68.8364 79.7321 68.7136 76.1632C68.7022 75.6384 68.6059 75.1186 68.4282 74.6225Z" fill="white"/>
<path d="M59.2989 75.5466C59.5232 77.1032 60.6754 78.2518 61.8732 78.1181C63.071 77.9843 63.86 76.6026 63.6357 75.0443C63.4113 73.486 62.2592 72.3392 61.0614 72.4729C59.8635 72.6066 59.0745 73.99 59.2989 75.5466Z" fill="url(#paint1_radial_511_232)"/>
<path d="M17.8426 75.8219C18.0644 75.0174 18.5422 74.3138 19.1987 73.8245C21.6234 71.981 24.9592 72.3354 27.7078 72.994C28.6977 73.2364 29.6747 73.5321 30.6348 73.88C31.6099 74.2379 32.7218 74.6746 33.1998 75.702C33.7194 76.8259 33.231 78.2076 32.3771 78.9647C31.473 79.7719 30.2988 79.9043 29.154 79.9831C27.6645 80.0869 26.1837 80.2784 24.6994 80.4395C22.214 80.7115 17.7716 81.3165 17.6573 77.4971C17.6335 76.9321 17.696 76.3668 17.8426 75.8219Z" fill="white"/>
<path d="M27.0984 76.6836C26.9817 78.247 25.9046 79.4564 24.6917 79.3845C23.4788 79.3127 22.5873 77.987 22.7059 76.4236C22.8245 74.8602 23.8997 73.6508 25.1126 73.7244C26.3255 73.7979 27.2132 75.1202 27.0984 76.6836Z" fill="url(#paint2_radial_511_232)"/>
<path d="M29.4471 88.8294C31.439 88.7866 31.336 85.7335 29.3492 85.7747C25.3888 85.8586 21.9612 83.8178 18.3328 82.5356C17.842 83.4341 17.4041 84.3601 17.0215 85.3089C18.9868 85.9491 20.8508 86.8478 22.7845 87.5769C24.9307 88.3801 27.1383 88.8689 29.4471 88.8294Z" fill="#FE875A"/>
<path d="M29.4471 88.8294C31.439 88.7866 31.336 85.7335 29.3492 85.7747C25.3888 85.8586 21.9612 83.8178 18.3328 82.5356C17.842 83.4341 17.4041 84.3601 17.0215 85.3089C18.9868 85.9491 20.8508 86.8478 22.7845 87.5769C24.9307 88.3801 27.1383 88.8689 29.4471 88.8294Z" fill="url(#paint3_radial_511_232)"/>
<path d="M20.5977 92.0345C21.9191 92.3861 23.1845 92.8925 24.5229 93.1914C25.9869 93.4966 27.466 93.7178 28.9535 93.8542C29.8016 93.9456 30.6328 93.6028 30.855 92.6534C31.0348 91.878 30.5497 90.7739 29.6948 90.6825C28.3089 90.5348 26.9265 90.3555 25.5576 90.0812C24.1887 89.8069 22.9267 89.3252 21.6036 88.9366C20.44 88.585 19.2136 88.4092 18.1195 87.8606C17.5869 87.5899 17.0899 87.2611 16.5929 86.9429C16.2518 88.0155 15.9742 89.1088 15.7617 90.2166C16.0433 90.3924 16.3283 90.5682 16.6217 90.7299C17.8515 91.4068 19.2645 91.6776 20.5977 92.0345Z" fill="#FE875A"/>
<path d="M20.5977 92.0345C21.9191 92.3861 23.1845 92.8925 24.5229 93.1914C25.9869 93.4966 27.466 93.7178 28.9535 93.8542C29.8016 93.9456 30.6328 93.6028 30.855 92.6534C31.0348 91.878 30.5497 90.7739 29.6948 90.6825C28.3089 90.5348 26.9265 90.3555 25.5576 90.0812C24.1887 89.8069 22.9267 89.3252 21.6036 88.9366C20.44 88.585 19.2136 88.4092 18.1195 87.8606C17.5869 87.5899 17.0899 87.2611 16.5929 86.9429C16.2518 88.0155 15.9742 89.1088 15.7617 90.2166C16.0433 90.3924 16.3283 90.5682 16.6217 90.7299C17.8515 91.4068 19.2645 91.6776 20.5977 92.0345Z" fill="url(#paint4_radial_511_232)"/>
<path d="M20.0624 96.8701C22.751 97.54 25.3798 98.4077 28.1864 98.2585C30.1721 98.1578 30.0774 94.9387 28.09 95.0393C25.4878 95.1712 23.0236 94.2879 20.5227 93.6649C19.3861 93.382 18.2363 93.0835 17.2176 92.4726C16.5978 92.0995 16.0246 91.6883 15.4097 91.3499C15.2446 92.5156 15.1508 93.6911 15.1289 94.8692C15.4762 95.1105 15.8202 95.3534 16.1724 95.5513C17.3539 96.2211 18.758 96.5456 20.0624 96.8701Z" fill="#FE875A"/>
<path d="M20.0624 96.8701C22.751 97.54 25.3798 98.4077 28.1864 98.2585C30.1721 98.1578 30.0774 94.9387 28.09 95.0393C25.4878 95.1712 23.0236 94.2879 20.5227 93.6649C19.3861 93.382 18.2363 93.0835 17.2176 92.4726C16.5978 92.0995 16.0246 91.6883 15.4097 91.3499C15.2446 92.5156 15.1508 93.6911 15.1289 94.8692C15.4762 95.1105 15.8202 95.3534 16.1724 95.5513C17.3539 96.2211 18.758 96.5456 20.0624 96.8701Z" fill="url(#paint5_radial_511_232)"/>
<path d="M57.6653 88.2004C55.6511 88.2821 55.5604 85.2582 57.5662 85.1683C61.5695 85.0049 64.8979 82.7705 68.4765 81.2765C69.0293 82.136 69.5304 83.0262 69.9771 83.9424C68.035 84.7009 66.2105 85.7061 64.3071 86.5577C62.1939 87.4845 59.9984 88.1072 57.6653 88.2004Z" fill="#FE875A"/>
<path d="M57.6596 88.2004C55.6527 88.2827 55.5624 85.2385 57.561 85.148C61.5497 84.9835 66.8328 81.5279 70.4017 80.0173C70.9503 80.8812 71.1092 82.5317 71.2379 83.4861C69.303 84.2496 66.1839 85.6894 64.2874 86.5385C62.1718 87.4797 59.9843 88.1067 57.6596 88.2004Z" fill="url(#paint6_radial_511_232)"/>
<path d="M66.8583 90.3911C65.5785 90.7954 64.3622 91.3399 63.064 91.6952C61.6409 92.0666 60.1977 92.3605 58.7411 92.5755C57.9046 92.7124 57.0681 92.4451 56.7988 91.5778C56.5746 90.872 56.9862 89.8206 57.8226 89.6853C59.1844 89.4669 60.5228 89.2158 61.8612 88.8898C63.1995 88.5638 64.4057 88.0324 65.6839 87.5857C66.8098 87.1978 68.0059 86.9614 69.0499 86.3795C69.5518 86.0975 70.947 85.3802 71.4238 85.0542C71.8203 86.0208 71.5911 87.188 71.8688 88.2068C71.6011 88.3877 70.9788 88.7773 70.6977 88.9436C69.5233 89.6446 68.1565 89.9804 66.8583 90.3911Z" fill="url(#paint7_radial_511_232)"/>
<path d="M67.6484 95.1347C64.9817 95.9602 62.382 96.9739 59.5527 97.0163C57.5497 97.0451 57.4475 93.9007 59.4555 93.8702C62.0836 93.8329 64.5107 92.8142 66.9897 92.0463C68.116 91.6971 69.2558 91.3344 70.2447 90.6716C70.8448 90.2699 71.3996 89.8241 71.9963 89.4613C72.236 90.5872 72.404 91.7275 72.4991 92.8752C72.1639 93.1328 71.8286 93.3837 71.4934 93.6058C70.3302 94.3279 68.9357 94.7347 67.6484 95.1347Z" fill="#FE875A"/>
<path d="M67.6551 95.24C64.9865 96.0193 62.385 96.9763 59.5538 97.0163C57.5494 97.0435 57.4471 94.0749 59.4565 94.0461C62.0865 94.0109 64.5152 93.0492 66.9959 92.3242C68.123 91.9946 69.2636 91.6521 70.2532 91.0264C70.8537 90.6471 71.5648 89.8102 72.1636 89.4613C72.3985 90.5127 72.4085 92.0106 72.4991 93.1068C72.1636 93.35 71.8282 93.5869 71.4927 93.7965C70.3387 94.4782 68.9432 94.8623 67.6551 95.24Z" fill="url(#paint8_radial_511_232)"/>
<path d="M29.712 61.1057C32.1932 63.4688 30.3434 65.5427 27.9949 68.0374C25.6465 70.5322 23.6895 72.5034 21.2084 70.1421C18.7272 67.7808 16.2478 61.5866 18.5945 59.0935C20.9412 56.6004 27.2309 58.753 29.712 61.1057Z" fill="#7FB2E0"/>
<path d="M23.6463 60.9498C24.1128 61.9779 24.5277 63.0298 24.8892 64.1015C24.9679 64.3388 25.0532 64.5912 25.1254 64.847C24.9794 64.6787 24.8417 64.5222 24.681 64.3724C24.3301 64.0443 23.9463 63.765 23.6135 63.4133C22.9477 62.7082 22.5296 61.7979 21.8523 61.0962C21.5621 60.7983 21.057 61.2072 21.3489 61.5084C22.0261 62.2101 22.4804 63.0852 23.1117 63.8256C23.3734 64.1132 23.6593 64.3768 23.966 64.6131C24.2537 64.8724 24.5275 65.1477 24.7859 65.4376L24.6531 65.3955C23.2134 64.9412 22.0032 63.9619 20.6061 63.4284C20.2174 63.2803 19.9846 63.8945 20.3749 64.0443C21.1603 64.3438 21.8966 64.8369 22.6443 65.2222C23.3921 65.6076 24.3137 66.1629 25.1795 66.1662C26.0863 66.1662 25.8616 65.1465 25.696 64.5491C25.3099 63.2258 24.823 61.9356 24.2399 60.6906C24.0546 60.3036 23.4626 60.5644 23.6463 60.9498Z" fill="url(#paint9_radial_511_232)"/>
<path d="M55.8914 60.3348C53.5462 62.8274 55.5365 64.7665 58.0531 67.0894C60.5698 69.4122 62.6647 71.2426 65.0099 68.75C67.3551 66.2573 69.4671 59.9663 66.9419 57.6418C64.4167 55.3172 58.2383 57.8404 55.8914 60.3348Z" fill="#7FB2E0"/>
<path d="M61.4359 59.7114C60.9812 60.8692 60.5871 62.0496 60.2554 63.248C60.183 63.5136 60.0995 63.8014 60.0401 64.08C60.1942 63.8955 60.3389 63.7111 60.5097 63.5266C60.8809 63.1447 61.2985 62.8108 61.6493 62.4031C62.3528 61.5821 62.763 60.5582 63.4775 59.7428C63.7838 59.3959 64.3833 59.8073 64.0752 60.1579C63.3588 60.9733 62.9059 61.964 62.2451 62.8181C61.9691 63.1515 61.6641 63.4602 61.3338 63.7406C61.0273 64.0448 60.7374 64.365 60.4652 64.6999L60.6136 64.6445C62.208 64.0468 63.5072 62.8883 65.0496 62.2057C65.4784 62.0212 65.792 62.6724 65.354 62.8624C64.4854 63.248 63.6836 63.8383 62.8706 64.3125C62.0577 64.7866 61.0442 65.4618 60.0698 65.5338C59.0471 65.6002 59.229 64.4674 59.3738 63.8014C59.7186 62.3257 60.1797 60.8791 60.7528 59.4753C60.9199 59.0325 61.6048 59.276 61.4359 59.7114Z" fill="url(#paint10_radial_511_232)"/>
<path d="M70.6039 106.242C70.6491 107.611 70.2683 108.962 69.5097 110.125C68.751 111.287 67.6485 112.208 66.3416 112.772C65.0347 113.336 63.5821 113.517 62.1676 113.292C60.7531 113.067 59.4401 112.447 58.3947 111.509C57.3494 110.572 56.6185 109.359 56.2947 108.024C55.9709 106.69 56.0686 105.294 56.5755 104.012C57.0823 102.731 57.9756 101.622 59.1423 100.826C60.309 100.029 61.6968 99.5812 63.1301 99.5383C65.0516 99.4811 66.9182 100.155 68.3197 101.412C69.7212 102.669 70.5428 104.406 70.6039 106.242Z" fill="#EBA7BE"/>
<path d="M78.3796 106.769C75.0007 107.317 71.578 107.035 68.314 106.139C66.7479 105.71 65.1801 105.172 63.5076 105.202C61.9685 105.232 60.5089 105.766 58.9648 105.801C58.4579 105.813 58.5542 106.472 59.056 106.461C60.5207 106.428 61.9044 105.993 63.3556 105.874C65.2139 105.731 67.0875 106.516 68.8276 106.967C71.9506 107.779 75.2598 107.937 78.4708 107.427C78.9641 107.349 78.8864 106.688 78.3796 106.769Z" fill="url(#paint11_radial_511_232)"/>
<path d="M78.4243 110.652C74.9416 110.918 71.541 110.198 68.3766 108.768C66.8569 108.086 65.3509 107.267 63.6634 107.117C62.1095 106.975 60.5692 107.444 59.0101 107.313C58.4967 107.269 58.507 108.06 59.0101 108.104C60.4888 108.229 61.94 107.871 63.417 107.895C65.2995 107.927 67.0879 109.078 68.7788 109.806C71.8134 111.122 75.1235 111.684 78.4243 111.443C78.9291 111.404 78.9291 110.613 78.4243 110.652Z" fill="url(#paint12_radial_511_232)"/>
<path d="M78.9382 100.827C75.7077 102.267 72.2766 102.628 68.8489 102.151C67.2047 101.922 65.5334 101.554 63.8893 101.96C62.3743 102.326 61.0515 103.339 59.5332 103.715C59.0368 103.839 59.2799 104.682 59.773 104.559C61.2114 104.203 62.4832 103.337 63.8893 102.874C65.6932 102.279 67.7233 102.916 69.5426 103.133C72.8115 103.529 76.1173 103.03 79.1762 101.678C79.6522 101.468 79.4108 100.616 78.9382 100.827Z" fill="url(#paint13_radial_511_232)"/>
<path d="M17.6559 107.938C17.7012 109.307 18.1704 110.633 19.0043 111.747C19.8381 112.861 20.9991 113.714 22.3404 114.198C23.6817 114.682 25.1432 114.775 26.54 114.466C27.9368 114.157 29.2061 113.459 30.1876 112.46C31.1691 111.462 31.8186 110.208 32.054 108.857C32.2894 107.505 32.1002 106.118 31.5102 104.87C30.9202 103.621 29.9559 102.568 28.7393 101.843C27.5228 101.118 26.1085 100.754 24.6754 100.797C22.7533 100.855 20.934 101.64 19.6176 102.979C18.3012 104.318 17.5956 106.102 17.6559 107.938Z" fill="#EBA7BE"/>
<path d="M9.85895 109.289C13.2983 109.73 16.7036 109.174 19.912 107.892C21.4507 107.278 22.9844 106.534 24.6676 106.466C26.2148 106.401 27.7248 106.948 29.2703 106.891C29.7799 106.874 29.7323 107.669 29.2279 107.688C27.757 107.741 26.3405 107.308 24.8697 107.26C23.0014 107.199 21.1739 108.268 19.4619 108.916C16.3889 110.089 13.0801 110.49 9.81989 110.085C9.30867 110.021 9.34942 109.225 9.85895 109.289Z" fill="url(#paint14_radial_511_232)"/>
<path d="M10.4398 113.177C13.8647 113.228 17.1521 112.241 20.1558 110.516C21.6006 109.689 23.0236 108.729 24.6665 108.456C26.1767 108.204 27.7138 108.598 29.2325 108.354C29.7359 108.275 29.7711 109.114 29.2778 109.193C27.8397 109.423 26.3949 109.141 24.9517 109.264C23.1059 109.423 21.4278 110.759 19.8236 111.643C16.9349 113.236 13.7303 114.05 10.4851 114.014C9.98674 114.007 9.93639 113.168 10.4398 113.177Z" fill="url(#paint15_radial_511_232)"/>
<path d="M9.29732 103.332C12.5762 104.286 16.0073 104.384 19.3791 103.813C20.9983 103.541 22.6361 103.159 24.2891 103.381C25.8102 103.586 27.1809 104.307 28.7088 104.519C29.2074 104.588 29.0148 105.271 28.5178 105.195C27.0711 104.995 25.7629 104.385 24.3398 104.098C22.5178 103.731 20.5403 104.346 18.747 104.618C15.5274 105.11 12.2219 104.9 9.11309 104.008C8.62125 103.868 8.81393 103.19 9.29732 103.332Z" fill="url(#paint16_radial_511_232)"/>
<path d="M155.075 244.021C154.245 241.089 153.182 238.228 151.895 235.465C150.635 232.881 149.141 230.417 147.432 228.104C144.46 224.02 140.676 220.59 136.315 218.027C131.312 215.105 125.864 213.384 120.124 212.625C114.097 211.833 107.838 212.311 101.886 213.437L101.703 213.472C100.11 213.78 98.7049 214.707 97.7972 216.047C96.8896 217.387 96.5534 219.032 96.8628 220.619C97.1722 222.207 98.1018 223.606 99.447 224.511C100.792 225.415 102.443 225.75 104.036 225.442C106.42 224.978 108.829 224.654 111.25 224.471C114.667 224.311 118.091 224.538 121.457 225.146C123.841 225.698 126.161 226.495 128.379 227.527C130.322 228.561 132.154 229.792 133.846 231.199C135.586 232.815 137.153 234.608 138.521 236.547C140.221 239.23 141.614 242.095 142.674 245.088C144.185 249.815 144.995 254.741 145.348 259.692C145.491 262.933 145.264 266.179 144.67 269.368C144.002 272.229 143.025 275.01 141.755 277.662C140.259 280.469 138.461 283.107 136.393 285.527C133.762 288.385 130.818 290.939 127.614 293.141C123.476 295.809 119.034 297.976 114.382 299.597C109.326 301.231 104.09 302.25 98.7885 302.632C91.1334 302.98 83.4563 302.212 75.952 300.703C69.2017 299.241 62.5887 297.234 56.04 295.054C52.875 294.001 49.3575 295.625 48.246 298.792C47.1514 301.89 48.8373 305.511 51.9973 306.558C66.6449 311.432 81.8178 315.352 97.3889 314.806C109.11 314.396 120.81 311.359 130.949 305.391C135.878 302.492 140.505 299.018 144.383 294.811C146.454 292.566 148.396 290.219 150.06 287.656C151.713 285.086 153.126 282.37 154.282 279.543C156.506 274.07 157.636 268.217 157.608 262.313C157.572 256.179 156.789 249.914 155.075 244.021Z" fill="#7FB2E0"/>
<path d="M46.0838 124.397C43.152 125.247 40.0767 125.49 37.047 125.111C34.1243 124.719 31.5042 123.209 28.5747 122.872C26.9646 122.687 25.5636 123.105 24.4074 124.255C20.6516 127.979 22.8177 137.035 22.6341 141.768C22.2481 151.679 20.9032 161.953 24.4856 171.48C26.0158 175.568 28.7362 180.101 32.6468 182.303C41.7652 187.439 49.9654 170.777 51.9921 164.142C53.337 159.74 53.252 155.024 54.8213 150.676C57.0928 144.377 65.7607 128.5 55.9316 124.639C53.2248 123.574 48.8603 123.613 46.0838 124.397Z" fill="#4782AC"/>
<path d="M66.7335 152.054C66.5992 152.24 66.4614 152.423 66.322 152.605C66.3805 152.523 65.9569 153.062 65.8708 153.166C65.4248 153.7 64.9564 154.214 64.4725 154.715C63.9598 155.229 63.6729 155.919 63.6729 156.637C63.6729 157.355 63.9598 158.045 64.4725 158.559C65.5195 159.583 67.3621 159.635 68.4022 158.559C72.6436 154.161 75.5539 148.661 77.2535 142.874C78.1012 139.994 78.6209 137.031 78.8034 134.039C76.4166 132.582 74.5999 130.925 73.2325 129.126C73.2498 129.362 73.267 129.596 73.279 129.832C73.3514 131.169 73.3445 132.51 73.2584 133.847C73.2205 134.493 73.1585 135.138 73.0862 135.782C73.0707 135.911 73.0552 136.041 73.038 136.171C73.038 136.184 73.038 136.196 73.038 136.21C73.038 136.223 73.038 136.21 73.038 136.225C72.9829 136.614 72.9174 137.001 72.8485 137.389C72.3603 140.117 71.5829 142.788 70.5289 145.358L70.4824 145.469L70.3412 145.806C70.2069 146.108 70.0674 146.404 69.9245 146.702C69.6145 147.351 69.2804 147.99 68.9326 148.62C68.27 149.807 67.5357 150.953 66.7335 152.054Z" fill="url(#paint17_radial_511_232)"/>
<path d="M74.1563 166.808C72.808 170.701 72.2721 174.774 71.3987 178.782C71.1864 179.75 70.9545 180.717 70.7028 181.681C70.5129 182.384 70.6119 183.133 70.9785 183.765C71.3451 184.398 71.95 184.864 72.6636 185.065C74.1215 185.459 75.7291 184.594 76.1154 183.143C76.6495 181.139 77.0688 179.111 77.4655 177.076C77.857 175.067 78.1614 173.024 78.7077 171.047C79.7777 167.125 81.4758 163.405 82.8433 159.585C84.2108 155.765 85.039 151.74 85.7314 147.72C86.3091 144.382 86.744 141.016 86.9998 137.639C85.1306 137.009 83.3021 136.269 81.5245 135.422C81.4874 136.159 81.4427 136.898 81.3906 137.639C81.3175 138.628 81.2166 139.614 81.1174 140.6C81.0652 141.094 81.0061 141.589 80.9434 142.082C80.9121 142.329 80.8808 142.576 80.8477 142.824C80.8338 142.936 80.8234 143.009 80.8182 143.045C80.806 143.137 80.7921 143.231 80.7799 143.325C80.2057 147.362 79.4837 151.453 78.3441 155.376C77.2045 159.298 75.4856 162.969 74.1563 166.808Z" fill="url(#paint18_radial_511_232)"/>
<path d="M89.9813 145.802C89.9086 147.533 89.7906 149.262 89.6273 150.988C89.5893 151.383 89.5482 151.779 89.504 152.176C89.4771 152.413 89.4502 152.651 89.4218 152.889C89.4218 152.932 89.4123 152.967 89.4076 152.997C89.4028 153.027 89.3981 153.076 89.3917 153.127C89.2637 154.098 89.112 155.063 88.946 156.025C88.6978 157.469 89.3001 158.925 90.7274 159.339C91.9777 159.703 95.1106 146.366 95.196 140.779C93.4999 140.26 91.7975 139.745 90.122 139.199C90.1094 141.4 90.073 143.609 89.9813 145.802Z" fill="url(#paint19_radial_511_232)"/>
<path d="M100.348 142.911C100.348 142.948 100.36 142.979 100.363 143.004C100.422 143.479 100.457 143.957 100.482 144.435C100.561 146.215 100.491 147.998 100.274 149.766C100.259 149.905 100.241 150.045 100.224 150.187C100.209 150.299 100.186 150.488 100.177 150.545C100.115 150.972 100.048 151.397 99.9764 151.821C99.8275 152.726 99.6534 153.625 99.4744 154.515C99.1397 156.176 98.7648 157.836 98.3398 159.476C97.8679 161.287 97.3023 163.074 96.6663 164.836C96.3584 165.695 96.0304 166.545 95.6907 167.391L95.5234 167.791C95.5234 167.807 95.3661 168.163 95.341 168.221C95.1301 168.712 94.9109 169.201 94.6883 169.687C93.0967 173.159 91.2333 176.497 89.1158 179.672C88.3694 180.794 87.5885 181.89 86.773 182.96C85.8794 184.138 86.5872 185.991 87.7419 186.676C89.1275 187.492 90.5466 186.878 91.4352 185.701C96.0968 179.492 99.7454 172.575 102.244 165.21C103.39 161.861 104.202 158.408 104.876 154.94C105.546 151.51 106.048 147.971 105.88 144.467C104.04 143.664 102.16 142.956 100.248 142.347C100.286 142.536 100.316 142.726 100.348 142.911Z" fill="url(#paint20_radial_511_232)"/>
<path d="M111.573 166.225C111.434 166.587 111.29 166.947 111.145 167.306L111.039 167.563C111.013 167.62 110.856 167.995 110.817 168.084C110.179 169.554 109.477 170.995 108.713 172.407C107.967 173.788 107.157 175.133 106.283 176.441C105.875 177.054 105.439 177.655 105.006 178.247C104.951 178.323 104.892 178.399 104.837 178.475C104.783 178.551 104.697 178.657 104.669 178.702C104.408 179.032 104.142 179.356 103.87 179.674C102.603 181.178 101.2 182.562 99.6784 183.808C98.5247 184.748 111.968 178.328 114.652 172.763C117.001 167.92 118.725 162.799 119.782 157.523C118.82 155.772 117.792 154.061 116.7 152.388C116.273 151.74 115.806 151.12 115.299 150.532C115.289 150.659 115.282 150.787 115.27 150.915C115.213 151.624 115.134 152.331 115.046 153.036C115.02 153.217 114.993 153.397 114.966 153.578C114.902 154.003 114.831 154.421 114.759 154.848C114.206 157.971 113.41 161.045 112.378 164.044C112.117 164.773 111.85 165.501 111.573 166.225Z" fill="url(#paint21_radial_511_232)"/>
<path d="M120.957 170.113C120.185 171.718 119.356 173.298 118.455 174.836C117.977 175.647 117.472 176.441 116.946 177.221C116.679 177.616 116.403 178.003 116.123 178.388C116.026 178.523 115.926 178.654 115.826 178.786L115.531 179.168C114.588 180.35 114.368 181.929 115.531 183.089C116.51 184.065 118.52 184.273 119.465 183.089C121.845 180.065 123.888 176.793 125.558 173.329C125.737 172.964 125.914 172.598 126.087 172.231C125.246 169.782 124.316 167.377 123.298 165.013C122.54 166.716 121.771 168.426 120.957 170.113Z" fill="url(#paint22_radial_511_232)"/>
<path d="M127.207 177.292C126.547 178.474 125.82 179.616 125.029 180.713C124.832 180.992 124.63 181.265 124.428 181.541L124.182 181.867V181.879L124.121 181.957C123.712 182.484 123.293 183.005 122.87 183.522C121.239 185.513 109.981 198.457 111.025 199.505C112.069 200.552 119.545 195.276 121.769 193.044C123.662 191.137 125.394 189.026 127.088 186.938C127.805 186.055 128.533 185.135 129.24 184.181C128.687 181.759 128.07 179.357 127.388 176.975C127.319 177.082 127.263 177.188 127.207 177.292Z" fill="url(#paint23_radial_511_232)"/>
<path d="M129.412 194.485L129.184 194.771C129.029 194.966 128.871 195.158 128.712 195.349C128.372 195.759 128.023 196.163 127.671 196.563C126.277 198.155 124.788 199.667 123.21 201.09C122.449 201.779 121.661 202.441 120.848 203.076C120.748 203.156 120.646 203.232 120.546 203.31C120.529 203.32 120.121 203.624 120.046 203.68C119.592 204.004 119.128 204.317 118.659 204.619C117.382 205.447 116.831 207.006 117.645 208.349C118.387 209.571 120.229 210.157 121.511 209.328C125.262 206.896 128.578 203.892 131.517 200.589C131.811 200.252 132.1 199.925 132.392 199.589C132.042 197.084 131.643 194.583 131.194 192.086C130.611 192.9 130.023 193.7 129.412 194.485Z" fill="url(#paint24_radial_511_232)"/>
<path d="M130.242 210.393L130.107 210.496L130.069 210.523C129.874 210.666 129.676 210.804 129.479 210.944C127.908 212.029 126.258 213.001 124.541 213.852C123.749 214.247 122.072 214.989 122.059 214.989C121.875 215.064 118.142 217.358 118.553 218.805C118.925 220.112 129.284 217.54 132.507 215.26C132.889 214.989 133.273 214.708 133.652 214.419C133.49 212.233 133.299 210.036 133.08 207.826C132.533 208.413 131.953 208.971 131.341 209.495C130.984 209.806 130.615 210.103 130.242 210.393Z" fill="url(#paint25_radial_511_232)"/>
<path d="M12.8724 140.906C13.668 139.562 13.0888 138.125 11.9088 137.274C10.6073 136.334 9.29258 135.414 8.0061 134.456L7.81804 134.314L7.3953 133.985C7.06245 133.723 6.72959 133.455 6.39674 133.184C5.73103 132.635 5.08752 132.069 4.46619 131.487C3.84874 130.906 3.25959 130.293 2.70206 129.656C2.5839 129.521 2.46906 129.383 2.35423 129.245L2.22941 129.09C1.97977 128.761 1.74843 128.422 1.52376 128.076C1.29908 127.731 1.0977 127.382 0.904642 127.023C0.821428 126.87 0.738217 126.715 0.668318 126.559C0.635032 126.49 0.550154 126.294 0.501891 126.175C0.322199 125.7 0.174319 125.213 0.0591985 124.719C-0.0340007 127.871 -0.0190263 131.205 0.117444 134.742C2.86349 137.453 12.1834 142.06 12.8724 140.906Z" fill="url(#paint26_radial_511_232)"/>
<path d="M13.8453 154.543C14.2537 153.095 9.04608 150.089 8.36551 149.721C7.74208 149.384 7.13545 149.016 6.53891 148.633C6.23811 148.442 5.94405 148.24 5.65166 148.039C5.47521 147.917 5.30213 147.792 5.12737 147.668L4.86018 147.467C3.72021 146.584 2.63658 145.634 1.61531 144.622C1.27922 144.295 0.950425 143.957 0.628906 143.607C0.84736 146.154 1.12743 148.797 1.46911 151.536C4.17625 153.612 13.4723 155.869 13.8453 154.543Z" fill="url(#paint27_radial_511_232)"/>
<path d="M4.40931 165.317C6.80254 167.554 15.9266 169.867 16.3737 168.249C16.7419 166.911 11.3313 163.693 11.0034 163.482C10.765 163.328 10.239 162.942 10.2162 162.923C10.0409 162.782 9.86554 162.633 9.69021 162.486C9.12039 162.001 8.57336 161.489 8.02809 160.978C6.11701 159.179 4.19366 157.405 1.8916 156.199C2.24927 158.751 2.65486 161.382 3.10838 164.091C3.54495 164.5 3.9745 164.912 4.40931 165.317Z" fill="url(#paint28_radial_511_232)"/>
<path d="M22.0643 203.807C22.0643 202.365 20.785 200.941 19.2531 201.033C18.9412 201.052 18.6309 201.057 18.319 201.047C18.2092 201.047 18.0976 201.033 17.9878 201.023H17.9756C17.4232 200.923 16.8812 200.772 16.3566 200.575C16.4315 200.597 15.8337 200.346 15.71 200.282C15.4294 200.143 15.1558 199.99 14.8821 199.837C14.2722 199.494 13.6848 199.102 13.1062 198.705C12.0797 198 11.0933 197.232 10.0859 196.493C10.5507 198.309 11.03 200.152 11.5238 202.023C11.6632 202.867 11.8026 203.716 11.9455 204.565C14.1624 205.847 22.0643 205.388 22.0643 203.807Z" fill="url(#paint29_radial_511_232)"/>
<path d="M19.2331 216.632C20.7657 216.915 16.2142 209.887 14.0281 209.009C13.5545 208.817 13.081 208.633 12.6074 208.455C12.9875 210.64 13.371 212.803 13.7475 214.89C15.5287 215.603 17.3312 216.281 19.2331 216.632Z" fill="url(#paint30_radial_511_232)"/>
<path d="M22.6957 221.579C22.6887 220.896 22.4167 220.243 21.9381 219.76C21.4595 219.278 20.8124 219.003 20.1356 218.996C19.7676 218.996 19.4012 218.975 19.0332 218.945L18.8461 218.926C18.9016 218.926 18.4781 218.871 18.4099 218.86C17.6882 218.737 16.9823 218.559 16.2702 218.38C15.6785 218.22 15.0901 218.06 14.5 217.9C14.8537 219.891 15.1931 221.773 15.5072 223.482C17.0156 223.849 22.6957 222.976 22.6957 221.579Z" fill="url(#paint31_radial_511_232)"/>
<path d="M38.4561 200.9C38.525 202.133 38.6014 203.364 38.6853 204.591C38.7922 206.167 38.8997 207.742 39.0077 209.315C39.6645 209.993 40.3179 210.672 40.9557 211.366C41.316 211.757 41.6659 212.157 42.0107 212.561L42.2572 212.862C42.4089 213.053 42.5578 213.247 42.7037 213.445C43.5829 214.613 45.1172 215.168 46.5101 214.391C47.7288 213.713 48.3891 211.952 47.5082 210.778C46.2153 209.094 44.8146 207.486 43.314 205.965C42.6244 205.244 41.9193 204.529 41.2315 203.802C40.8592 203.409 40.4931 203.01 40.1334 202.606C39.9782 202.442 39.8248 202.257 39.6731 202.082C39.6059 202.005 38.9836 201.264 39.3628 201.724C39.1077 201.406 38.8017 201.128 38.4561 200.9Z" fill="url(#paint32_radial_511_232)"/>
<path d="M43.9631 226.56C44.969 227.641 46.7745 227.567 47.7887 226.56C48.8599 225.488 42.7092 217.452 39.7168 215.381C39.8392 217.761 39.9331 220.147 39.98 222.549C41.3681 223.831 42.6807 225.174 43.9631 226.56Z" fill="url(#paint33_radial_511_232)"/>
<path d="M45.0387 233.628C45.7299 232.468 45.401 230.618 44.0722 230.004C42.5698 229.312 41.3094 228.245 39.9405 227.344C39.9188 229.43 39.8487 231.529 39.7168 233.648C40.2375 233.998 40.7844 234.31 41.3528 234.579C42.6799 235.191 44.2458 234.951 45.0387 233.628Z" fill="url(#paint34_radial_511_232)"/>
<path d="M143.327 240.153C143.223 240.409 143.119 240.669 143.004 240.924C142.641 241.784 142.254 242.645 141.85 243.488C142.104 244.151 147.723 243.488 149.079 239.617C149.699 237.861 150.232 236.071 150.676 234.256C149.619 232.141 148.423 230.108 147.098 228.173C146.909 227.894 146.716 227.618 146.519 227.344C146.49 227.815 146.448 228.287 146.396 228.758V228.8C146.396 228.839 146.385 228.881 146.38 228.922C146.347 229.166 146.308 229.411 146.269 229.655C146.18 230.221 146.074 230.783 145.96 231.344C145.48 233.654 144.847 235.926 144.067 238.141C143.888 238.657 143.697 239.173 143.504 239.69C143.483 239.746 143.383 239.999 143.327 240.153Z" fill="url(#paint35_radial_511_232)"/>
<path d="M153.879 253.958C153.731 254.124 153.582 254.306 153.431 254.479C152.549 255.468 151.61 256.41 150.618 257.301C149.616 258.209 148.563 259.067 147.481 259.888L147.046 260.21C146.819 260.373 146.592 260.534 146.364 260.693C145.883 261.025 145.392 261.357 144.898 261.668C144.907 263.877 144.73 266.084 144.371 268.267C148.129 266.368 156.88 252.749 156.324 250.009C156.308 250.047 156.296 250.085 156.28 250.125C156.243 250.223 156.203 250.319 156.162 250.416C155.909 250.939 155.626 251.449 155.315 251.944C155.013 252.432 154.679 252.902 154.334 253.365C154.264 253.47 153.944 253.871 153.879 253.958Z" fill="url(#paint36_radial_511_232)"/>
<path d="M156.349 270.786C155.414 271.68 154.45 272.543 153.459 273.373L153.129 273.647C153.151 273.627 152.699 273.987 152.635 274.042C152.17 274.401 151.695 274.744 151.216 275.083C150.325 275.708 149.404 276.284 148.456 276.811C148.028 277.051 138.837 282.796 137.436 284.637C137.6 284.596 137.765 284.555 137.93 284.519C138.072 284.49 138.214 284.464 138.355 284.443H138.365C138.98 284.368 139.598 284.341 140.216 284.315C141.454 284.264 142.689 284.247 143.92 284.08C146.416 283.74 148.718 282.862 150.947 281.661C151.92 281.133 152.867 280.555 153.784 279.928L153.804 279.882C154.963 276.952 155.816 273.903 156.349 270.786Z" fill="url(#paint37_radial_511_232)"/>
<path d="M51.6954 54.8731C51.6802 53.5692 51.3158 52.2504 50.9058 51.021C50.0505 48.4644 48.76 45.903 46.4791 44.2996C44.2455 42.7309 41.1077 41.3575 38.2989 41.652C36.5377 41.8085 34.8659 42.4833 33.5027 43.588C31.1223 45.529 30.0595 48.2328 28.7791 50.9018C28.6408 51.1898 28.5007 51.4777 28.3691 51.7706L30.2704 52.631C30.2704 52.631 32.2948 49.8031 35.9708 47.2185C35.9708 47.2185 35.7346 49.1909 36.9003 50.0596C36.9003 50.0596 33.7929 50.5345 32.7503 56.0926L51.6954 54.8731Z" fill="#EBA7BE"/>
<path d="M31.8129 56.175C31.283 57.1383 31.6099 58.3437 31.7535 59.3639C31.8278 59.8854 31.8393 60.428 31.9962 60.9349C32.124 61.3375 32.3719 61.6929 32.7077 61.9551C33.733 62.6893 35.0191 62.28 36.1748 62.228C37.3833 62.1662 38.5984 62.5366 39.8069 62.2767C40.6604 62.0915 41.5239 61.8657 42.4072 61.8982C43.3267 61.9323 44.1952 62.3043 45.1213 62.2848C46.802 62.2507 48.6115 62.1516 50.2393 61.7374C51.3802 61.4466 52.9238 62.3661 53.7361 61.172C54.2743 60.3825 54.1175 59.1544 54.1752 58.2382C54.233 57.3219 54.309 56.2514 53.812 55.4164C53.0394 54.1167 51.2761 54.4871 50.033 54.4514C48.6032 54.4108 47.1999 54.1265 45.7652 54.224C45.0614 54.2932 44.3544 54.3269 43.647 54.3247C42.11 54.2694 40.7909 54.6171 39.2786 54.7649C37.9281 54.8981 36.6189 54.3637 35.2717 54.4611C34.6997 54.5055 34.1377 54.6336 33.6042 54.8413C32.9174 55.1126 32.1695 55.5252 31.8129 56.175Z" fill="#DE6C92"/>
<path d="M24.0418 54.0567C23.726 55.3602 24.2972 56.784 25.5176 57.4504C25.9895 57.673 26.4928 57.827 27.0112 57.9072C28.6503 58.2284 30.1314 57.483 31.0237 56.1468C31.2348 55.8308 31.2844 55.5268 31.3944 55.1782C31.5694 54.6059 31.5633 53.996 31.3767 53.4272C31.1902 52.8584 30.8318 52.3568 30.3478 51.9871C29.2977 51.1713 27.8094 50.7849 26.5198 51.2675L26.3992 51.3156C25.8154 51.5667 25.2991 51.9446 24.8903 52.4199C24.4815 52.8952 24.1911 53.4553 24.0418 54.0567Z" fill="#DE6C92"/>
<path d="M43.5027 103.81C43.4908 103.144 44.5908 103.149 44.6026 103.81C44.6365 105.527 44.0543 108.257 46.2035 109.059C47.7266 109.626 50.023 108.924 50.6932 107.505C50.9808 106.898 51.9285 107.426 51.6425 108.026C50.7626 109.887 48.1497 110.519 46.1798 110.126C43.083 109.513 43.545 106.013 43.5027 103.81Z" fill="url(#paint38_radial_511_232)"/>
<path d="M44.7609 103.813C44.7778 103.146 43.6787 103.145 43.6636 103.813C43.6197 105.536 44.1869 108.276 42.0377 109.068C40.5183 109.629 38.229 108.91 37.5672 107.48C37.2836 106.872 36.3364 107.396 36.6167 108C37.4845 109.869 40.0878 110.515 42.0546 110.132C45.1391 109.534 44.6985 106.021 44.7609 103.813Z" fill="url(#paint39_radial_511_232)"/>
<path d="M124.737 106.415C124.714 105.903 124.497 105.422 124.136 105.077C123.774 104.732 123.296 104.551 122.806 104.573C122.317 104.597 121.856 104.823 121.526 105.201C121.196 105.58 121.023 106.08 121.045 106.591L121.125 108.391C121.136 108.645 121.194 108.895 121.298 109.125C121.401 109.356 121.547 109.563 121.727 109.734C121.907 109.905 122.117 110.038 122.347 110.124C122.576 110.21 122.819 110.248 123.062 110.236C123.552 110.212 124.012 109.986 124.343 109.608C124.673 109.229 124.846 108.729 124.824 108.218L124.737 106.415Z" fill="#1E1B1B"/>
<path d="M131.75 115.487C131.836 117.104 131.421 118.708 130.559 120.099C129.696 121.489 128.424 122.601 126.904 123.296C125.384 123.991 123.684 124.237 122.018 124.003C120.353 123.769 118.797 123.065 117.547 121.98C116.298 120.895 115.411 119.479 114.999 117.909C114.586 116.34 114.667 114.688 115.231 113.163C115.795 111.638 116.816 110.308 118.166 109.341C119.516 108.374 121.134 107.813 122.815 107.73C123.931 107.675 125.048 107.832 126.101 108.193C127.154 108.553 128.123 109.109 128.953 109.829C129.783 110.549 130.457 111.42 130.937 112.39C131.417 113.361 131.693 114.413 131.75 115.487Z" fill="#DE6C92"/>
<path d="M127.344 114.751C127.385 115.559 127.186 116.361 126.77 117.056C126.355 117.751 125.743 118.308 125.011 118.656C124.279 119.003 123.46 119.126 122.659 119.009C121.857 118.892 121.107 118.54 120.506 117.998C119.904 117.456 119.477 116.747 119.278 115.963C119.08 115.178 119.118 114.352 119.39 113.59C119.661 112.827 120.153 112.162 120.803 111.678C121.453 111.195 122.232 110.914 123.041 110.873C124.126 110.817 125.189 111.195 125.996 111.922C126.803 112.649 127.288 113.667 127.344 114.751Z" fill="#EBA7BE"/>
<path d="M123.384 107.651L122.43 107.7L122.733 113.551L123.687 113.502L123.384 107.651Z" fill="white"/>
<path d="M124.824 114.248C124.807 113.937 124.699 113.638 124.513 113.388C124.326 113.139 124.07 112.95 123.776 112.847C123.482 112.743 123.164 112.728 122.862 112.805C122.56 112.881 122.287 113.046 122.079 113.277C121.87 113.508 121.735 113.796 121.69 114.104C121.645 114.412 121.693 114.727 121.827 115.008C121.961 115.289 122.176 115.524 122.444 115.683C122.711 115.842 123.02 115.918 123.332 115.902C123.539 115.891 123.741 115.84 123.928 115.751C124.115 115.662 124.283 115.537 124.421 115.384C124.56 115.23 124.667 115.051 124.736 114.856C124.805 114.661 124.835 114.454 124.824 114.248Z" fill="white"/>
<defs>
<radialGradient id="paint0_radial_511_232" cx="0" cy="0" r="1" gradientUnits="userSpaceOnUse" gradientTransform="translate(-45865.9 12663.9) rotate(-17.7283) scale(817.132 503.469)">
<stop offset="0.57" stop-color="#130C0E"/>
<stop offset="0.8" stop-color="#130C0E"/>
<stop offset="1" stop-color="#130C0E"/>
</radialGradient>
<radialGradient id="paint1_radial_511_232" cx="0" cy="0" r="1" gradientUnits="userSpaceOnUse" gradientTransform="translate(-9423.17 3378.07) rotate(-27.5174) scale(51.5016 92.8)">
<stop offset="0.57" stop-color="#130C0E"/>
<stop offset="0.8" stop-color="#130C0E"/>
<stop offset="1" stop-color="#130C0E"/>
</radialGradient>
<radialGradient id="paint2_radial_511_232" cx="0" cy="0" r="1" gradientUnits="userSpaceOnUse" gradientTransform="translate(-18355.2 8574.52) rotate(-155.684) scale(51.7925 91.8637)">
<stop offset="0.57" stop-color="#130C0E"/>
<stop offset="0.8" stop-color="#130C0E"/>
<stop offset="1" stop-color="#130C0E"/>
</radialGradient>
<radialGradient id="paint3_radial_511_232" cx="0" cy="0" r="1" gradientUnits="userSpaceOnUse" gradientTransform="translate(-47473.1 724.214) rotate(-1.70387) scale(490.925 222.853)">
<stop offset="0.57" stop-color="#130C0E"/>
<stop offset="0.8" stop-color="#130C0E"/>
<stop offset="1" stop-color="#130C0E"/>
</radialGradient>
<radialGradient id="paint4_radial_511_232" cx="0" cy="0" r="1" gradientUnits="userSpaceOnUse" gradientTransform="translate(-52004 1020.35) rotate(-1.78103) scale(623.376 285.313)">
<stop offset="0.57" stop-color="#130C0E"/>
<stop offset="0.8" stop-color="#130C0E"/>
<stop offset="1" stop-color="#130C0E"/>
</radialGradient>
<radialGradient id="paint5_radial_511_232" cx="0" cy="0" r="1" gradientUnits="userSpaceOnUse" gradientTransform="translate(-49884.5 1159.6) rotate(-1.79454) scale(582.609 278.244)">
<stop offset="0.57" stop-color="#130C0E"/>
<stop offset="0.8" stop-color="#130C0E"/>
<stop offset="1" stop-color="#130C0E"/>
</radialGradient>
<radialGradient id="paint6_radial_511_232" cx="0" cy="0" r="1" gradientUnits="userSpaceOnUse" gradientTransform="translate(-47614.3 406.993) rotate(178.309) scale(593.829 321.237)">
<stop offset="0.57" stop-color="#130C0E"/>
<stop offset="0.8" stop-color="#130C0E"/>
<stop offset="1" stop-color="#130C0E"/>
</radialGradient>
<radialGradient id="paint7_radial_511_232" cx="0" cy="0" r="1" gradientUnits="userSpaceOnUse" gradientTransform="translate(-47481.8 691.43) rotate(178.326) scale(641.354 320.263)">
<stop offset="0.57" stop-color="#130C0E"/>
<stop offset="0.8" stop-color="#130C0E"/>
<stop offset="1" stop-color="#130C0E"/>
</radialGradient>
<radialGradient id="paint8_radial_511_232" cx="0" cy="0" r="1" gradientUnits="userSpaceOnUse" gradientTransform="translate(-45431.2 812.54) rotate(178.36) scale(588.654 306.738)">
<stop offset="0.57" stop-color="#130C0E"/>
<stop offset="0.8" stop-color="#130C0E"/>
<stop offset="1" stop-color="#130C0E"/>
</radialGradient>
<radialGradient id="paint9_radial_511_232" cx="0" cy="0" r="1" gradientUnits="userSpaceOnUse" gradientTransform="translate(-16454 -278.335) rotate(-39.3442) scale(101.519 99.33)">
<stop offset="0.57" stop-color="#130C0E"/>
<stop offset="0.8" stop-color="#130C0E"/>
<stop offset="1" stop-color="#130C0E"/>
</radialGradient>
<radialGradient id="paint10_radial_511_232" cx="0" cy="0" r="1" gradientUnits="userSpaceOnUse" gradientTransform="translate(-22701.8 -316.226) rotate(-145.358) scale(111.281 111.57)">
<stop offset="0.57" stop-color="#130C0E"/>
<stop offset="0.8" stop-color="#130C0E"/>
<stop offset="1" stop-color="#130C0E"/>
</radialGradient>
<radialGradient id="paint11_radial_511_232" cx="0" cy="0" r="1" gradientUnits="userSpaceOnUse" gradientTransform="translate(-65614.4 -6872.88) rotate(7.37076) scale(854.012 107.304)">
<stop offset="0.57" stop-color="#130C0E"/>
<stop offset="0.8" stop-color="#130C0E"/>
<stop offset="1" stop-color="#130C0E"/>
</radialGradient>
<radialGradient id="paint12_radial_511_232" cx="0" cy="0" r="1" gradientUnits="userSpaceOnUse" gradientTransform="translate(-65275.7 -13318.2) rotate(15.0572) scale(856.578 187.219)">
<stop offset="0.57" stop-color="#130C0E"/>
<stop offset="0.8" stop-color="#130C0E"/>
<stop offset="1" stop-color="#130C0E"/>
</radialGradient>
<radialGradient id="paint13_radial_511_232" cx="0" cy="0" r="1" gradientUnits="userSpaceOnUse" gradientTransform="translate(-63870.3 3159.12) rotate(-2.48966) scale(856.957 160.403)">
<stop offset="0.57" stop-color="#130C0E"/>
<stop offset="0.8" stop-color="#130C0E"/>
<stop offset="1" stop-color="#130C0E"/>
</radialGradient>
<radialGradient id="paint14_radial_511_232" cx="0" cy="0" r="1" gradientUnits="userSpaceOnUse" gradientTransform="translate(-46220.9 8538.06) rotate(167.784) scale(858.907 160.683)">
<stop offset="0.57" stop-color="#130C0E"/>
<stop offset="0.8" stop-color="#130C0E"/>
<stop offset="1" stop-color="#130C0E"/>
</radialGradient>
<radialGradient id="paint15_radial_511_232" cx="0" cy="0" r="1" gradientUnits="userSpaceOnUse" gradientTransform="translate(-41103.6 10772.7) rotate(160.056) scale(838.823 239.291)">
<stop offset="0.57" stop-color="#130C0E"/>
<stop offset="0.8" stop-color="#130C0E"/>
<stop offset="1" stop-color="#130C0E"/>
</radialGradient>
<radialGradient id="paint16_radial_511_232" cx="0" cy="0" r="1" gradientUnits="userSpaceOnUse" gradientTransform="translate(-50924 1272.24) rotate(178.981) scale(856.926 80.2362)">
<stop offset="0.57" stop-color="#130C0E"/>
<stop offset="0.8" stop-color="#130C0E"/>
<stop offset="1" stop-color="#130C0E"/>
</radialGradient>
<radialGradient id="paint17_radial_511_232" cx="0" cy="0" r="1" gradientUnits="userSpaceOnUse" gradientTransform="translate(-51853.2 35855.3) scale(1245.24 2487.16)">
<stop offset="0.57" stop-color="#130C0E"/>
<stop offset="0.8" stop-color="#130C0E"/>
<stop offset="1" stop-color="#130C0E"/>
</radialGradient>
<radialGradient id="paint18_radial_511_232" cx="0" cy="0" r="1" gradientUnits="userSpaceOnUse" gradientTransform="translate(-55508.7 63519.6) scale(1995.16 6054.12)">
<stop offset="0.57" stop-color="#130C0E"/>
<stop offset="0.8" stop-color="#130C0E"/>
<stop offset="1" stop-color="#130C0E"/>
</radialGradient>
<radialGradient id="paint19_radial_511_232" cx="0" cy="0" r="1" gradientUnits="userSpaceOnUse" gradientTransform="translate(-20380.3 24475.3) scale(368.869 1178.81)">
<stop offset="0.57" stop-color="#130C0E"/>
<stop offset="0.8" stop-color="#130C0E"/>
<stop offset="1" stop-color="#130C0E"/>
</radialGradient>
<radialGradient id="paint20_radial_511_232" cx="0" cy="0" r="1" gradientUnits="userSpaceOnUse" gradientTransform="translate(-64359 58318.9) scale(2222.3 5082.99)">
<stop offset="0.57" stop-color="#130C0E"/>
<stop offset="0.8" stop-color="#130C0E"/>
<stop offset="1" stop-color="#130C0E"/>
</radialGradient>
<radialGradient id="paint21_radial_511_232" cx="0" cy="0" r="1" gradientUnits="userSpaceOnUse" gradientTransform="translate(-64795.9 44109.6) scale(1877.8 3105.95)">
<stop offset="0.57" stop-color="#130C0E"/>
<stop offset="0.8" stop-color="#130C0E"/>
<stop offset="1" stop-color="#130C0E"/>
</radialGradient>
<radialGradient id="paint22_radial_511_232" cx="0" cy="0" r="1" gradientUnits="userSpaceOnUse" gradientTransform="translate(-35193 25836.1) scale(689.044 1146.87)">
<stop offset="0.57" stop-color="#130C0E"/>
<stop offset="0.8" stop-color="#130C0E"/>
<stop offset="1" stop-color="#130C0E"/>
</radialGradient>
<radialGradient id="paint23_radial_511_232" cx="0" cy="0" r="1" gradientUnits="userSpaceOnUse" gradientTransform="translate(-57249.6 32741.3) scale(1472.85 1825.93)">
<stop offset="0.57" stop-color="#130C0E"/>
<stop offset="0.8" stop-color="#130C0E"/>
<stop offset="1" stop-color="#130C0E"/>
</radialGradient>
<radialGradient id="paint24_radial_511_232" cx="0" cy="0" r="1" gradientUnits="userSpaceOnUse" gradientTransform="translate(-46693.3 26895) scale(1025.55 1194.87)">
<stop offset="0.57" stop-color="#130C0E"/>
<stop offset="0.8" stop-color="#130C0E"/>
<stop offset="1" stop-color="#130C0E"/>
</radialGradient>
<radialGradient id="paint25_radial_511_232" cx="0" cy="0" r="1" gradientUnits="userSpaceOnUse" gradientTransform="translate(-46627.5 18269) scale(831.724 622.96)">
<stop offset="0.57" stop-color="#130C0E"/>
<stop offset="0.8" stop-color="#130C0E"/>
<stop offset="1" stop-color="#130C0E"/>
</radialGradient>
<radialGradient id="paint26_radial_511_232" cx="0" cy="0" r="1" gradientUnits="userSpaceOnUse" gradientTransform="translate(-50631.2 18532.9) scale(747.22 923.894)">
<stop offset="0.57" stop-color="#130C0E"/>
<stop offset="0.8" stop-color="#130C0E"/>
<stop offset="1" stop-color="#130C0E"/>
</radialGradient>
<radialGradient id="paint27_radial_511_232" cx="0" cy="0" r="1" gradientUnits="userSpaceOnUse" gradientTransform="translate(-50635.3 13965.1) scale(692.145 592.475)">
<stop offset="0.57" stop-color="#130C0E"/>
<stop offset="0.8" stop-color="#130C0E"/>
<stop offset="1" stop-color="#130C0E"/>
</radialGradient>
<radialGradient id="paint28_radial_511_232" cx="0" cy="0" r="1" gradientUnits="userSpaceOnUse" gradientTransform="translate(-55278.1 16586.3) scale(708.474 615.241)">
<stop offset="0.57" stop-color="#130C0E"/>
<stop offset="0.8" stop-color="#130C0E"/>
<stop offset="1" stop-color="#130C0E"/>
</radialGradient>
<radialGradient id="paint29_radial_511_232" cx="0" cy="0" r="1" gradientUnits="userSpaceOnUse" gradientTransform="translate(-45106.1 13666) scale(550.045 404.755)">
<stop offset="0.57" stop-color="#130C0E"/>
<stop offset="0.8" stop-color="#130C0E"/>
<stop offset="1" stop-color="#130C0E"/>
</radialGradient>
<radialGradient id="paint30_radial_511_232" cx="0" cy="0" r="1" gradientUnits="userSpaceOnUse" gradientTransform="translate(-25725.7 13287.2) scale(224.619 265.104)">
<stop offset="0.57" stop-color="#130C0E"/>
<stop offset="0.8" stop-color="#130C0E"/>
<stop offset="1" stop-color="#130C0E"/>
</radialGradient>
<radialGradient id="paint31_radial_511_232" cx="0" cy="0" r="1" gradientUnits="userSpaceOnUse" gradientTransform="translate(-30520.4 9562.24) scale(281.194 194.413)">
<stop offset="0.57" stop-color="#130C0E"/>
<stop offset="0.8" stop-color="#130C0E"/>
<stop offset="1" stop-color="#130C0E"/>
</radialGradient>
<radialGradient id="paint32_radial_511_232" cx="0" cy="0" r="1" gradientUnits="userSpaceOnUse" gradientTransform="translate(-33815.2 21994.7) scale(396.42 580.639)">
<stop offset="0.57" stop-color="#130C0E"/>
<stop offset="0.8" stop-color="#130C0E"/>
<stop offset="1" stop-color="#130C0E"/>
</radialGradient>
<radialGradient id="paint33_radial_511_232" cx="0" cy="0" r="1" gradientUnits="userSpaceOnUse" gradientTransform="translate(-29223.2 19967.8) scale(326.517 476.579)">
<stop offset="0.57" stop-color="#130C0E"/>
<stop offset="0.8" stop-color="#130C0E"/>
<stop offset="1" stop-color="#130C0E"/>
</radialGradient>
<radialGradient id="paint34_radial_511_232" cx="0" cy="0" r="1" gradientUnits="userSpaceOnUse" gradientTransform="translate(-20033.7 13138) scale(171.694 228.619)">
<stop offset="0.57" stop-color="#130C0E"/>
<stop offset="0.8" stop-color="#130C0E"/>
<stop offset="1" stop-color="#130C0E"/>
</radialGradient>
<radialGradient id="paint35_radial_511_232" cx="0" cy="0" r="1" gradientUnits="userSpaceOnUse" gradientTransform="translate(-26037.6 28648.7) scale(472.11 875.604)">
<stop offset="0.57" stop-color="#130C0E"/>
<stop offset="0.8" stop-color="#130C0E"/>
<stop offset="1" stop-color="#130C0E"/>
</radialGradient>
<radialGradient id="paint36_radial_511_232" cx="0" cy="0" r="1" gradientUnits="userSpaceOnUse" gradientTransform="translate(-35249.7 34346.3) scale(864.595 1317.88)">
<stop offset="0.57" stop-color="#130C0E"/>
<stop offset="0.8" stop-color="#130C0E"/>
<stop offset="1" stop-color="#130C0E"/>
</radialGradient>
<radialGradient id="paint37_radial_511_232" cx="0" cy="0" r="1" gradientUnits="userSpaceOnUse" gradientTransform="translate(-56396.4 27715.5) scale(1330.73 974.564)">
<stop offset="0.57" stop-color="#130C0E"/>
<stop offset="0.8" stop-color="#130C0E"/>
<stop offset="1" stop-color="#130C0E"/>
</radialGradient>
<radialGradient id="paint38_radial_511_232" cx="0" cy="0" r="1" gradientUnits="userSpaceOnUse" gradientTransform="translate(-61526.9 3830.82) rotate(180) scale(189.075 159.773)">
<stop offset="0.57" stop-color="#130C0E"/>
<stop offset="0.8" stop-color="#130C0E"/>
<stop offset="1" stop-color="#130C0E"/>
</radialGradient>
<radialGradient id="paint39_radial_511_232" cx="0" cy="0" r="1" gradientUnits="userSpaceOnUse" gradientTransform="translate(-61866.2 3831.02) rotate(180) scale(189.075 159.773)">
<stop offset="0.57" stop-color="#130C0E"/>
<stop offset="0.8" stop-color="#130C0E"/>
<stop offset="1" stop-color="#130C0E"/>
</radialGradient>
</defs>
</svg>
