<svg width="375" height="195" viewBox="0 0 375 195" fill="none" xmlns="http://www.w3.org/2000/svg">
<path d="M37.1794 45.1329C37.8741 45.2062 38.3421 45.8308 38.6373 46.3735C39.028 47.1505 39.3193 47.9708 39.5047 48.8163C39.9176 50.5592 40.1539 52.3369 40.2103 54.1242C40.3226 57.0122 40.0712 59.9028 39.4615 62.7317C38.9216 65.3491 38.1333 67.9664 36.8986 70.3708C36.3998 71.337 35.8061 72.2544 35.1258 73.1103C35.0821 73.1698 35.0259 73.2197 34.9607 73.2565C34.8956 73.2933 34.8231 73.3162 34.7481 73.3236C34.6732 73.331 34.5974 73.3229 34.526 73.2996C34.4545 73.2764 34.389 73.2386 34.3338 73.1888C34.2496 73.2045 34.1629 73.2031 34.0792 73.1849C33.9955 73.1667 33.9165 73.1319 33.8473 73.0828C33.7781 73.0337 33.72 72.9713 33.6768 72.8994C33.6335 72.8276 33.606 72.7479 33.5959 72.6653C33.4015 71.252 33.1442 69.8544 33.056 68.4288C32.9642 66.8811 32.9876 65.3299 33.0398 63.7822C33.1442 60.6955 33.2108 57.5826 33.6805 54.5256C33.8605 53.3042 34.1539 52.0827 34.3518 50.8613C34.4742 50.111 34.5876 49.359 34.746 48.6139C34.9908 47.471 35.4749 44.9532 37.1794 45.1329ZM35.8583 49.2595C35.4749 51.2033 35.1167 53.1715 34.8234 55.131C34.3824 58.0816 34.3392 61.102 34.2438 64.0805C34.197 65.5672 34.197 67.0468 34.2852 68.5404C34.3482 69.6048 34.521 70.6535 34.6812 71.7039C36.0761 69.7357 36.9616 67.4534 37.6149 65.1676C38.3708 62.5206 38.9072 59.7498 39.0116 57.0016C39.116 54.8126 38.9845 52.6191 38.6192 50.4565C38.4731 49.6137 38.2669 48.7817 38.0019 47.9666C37.8918 47.6164 37.7521 47.2756 37.5843 46.9476C37.4678 46.7162 37.3086 46.5075 37.1146 46.3316C37.0871 46.314 37.0575 46.3 37.0264 46.2897H37.0444C36.9616 46.2897 37.0444 46.2496 36.9076 46.3386C36.7345 46.5189 36.5978 46.729 36.5044 46.9581C36.1679 47.6787 36.0113 48.4848 35.8583 49.2595Z" fill="url(#paint0_radial_511_328)"/>
<path d="M25.186 46.8014C25.8493 46.5829 26.5488 46.9453 27.062 47.3217C27.764 47.8616 28.3951 48.4812 28.9416 49.1669C30.0948 50.5652 31.1038 52.0677 31.9544 53.6532C33.3458 56.204 34.4102 58.907 35.1244 61.7033C35.8022 64.2872 36.2612 66.9579 36.2088 69.6251C36.1887 70.6974 36.061 71.7654 35.8275 72.8142C35.8146 72.8857 35.7859 72.9538 35.7431 73.0137C35.7004 73.0736 35.6448 73.1239 35.5799 73.1613C35.5151 73.1987 35.4426 73.2222 35.3674 73.2302C35.2922 73.2383 35.2161 73.2306 35.1443 73.2079C35.075 73.257 34.996 73.2921 34.9121 73.3107C34.8281 73.3294 34.7411 73.3313 34.6564 73.3163C34.5717 73.3013 34.491 73.2698 34.4195 73.2238C34.348 73.1777 34.2871 73.1179 34.2406 73.0483C33.4328 71.8552 32.5743 70.7037 31.8604 69.4568C31.0851 68.1024 30.4146 66.696 29.7676 65.2826C28.4826 62.4629 27.1506 59.6344 26.2108 56.6932C25.8313 55.5088 25.5457 54.3001 25.177 53.1139C24.9511 52.389 24.718 51.6658 24.5282 50.9305C24.2463 49.7929 23.5613 47.3425 25.186 46.8014ZM25.8349 51.0536C26.3572 52.9612 26.9193 54.8689 27.5211 56.7591C28.441 59.5945 29.7531 62.3294 30.9984 65.0468C31.6201 66.4047 32.2852 67.7435 33.0298 69.0355C33.5629 69.9667 34.1864 70.839 34.8027 71.72C35.1859 69.3788 34.9672 66.9631 34.5371 64.6393C34.0401 61.9478 33.2882 59.2356 32.1532 56.721C31.2679 54.7102 30.1687 52.7924 28.873 50.9982C28.3626 50.3001 27.8035 49.6361 27.1994 49.0108C26.9429 48.7401 26.6637 48.4901 26.3644 48.2634C26.1551 48.1033 25.9177 47.9805 25.6632 47.9009C25.6302 47.8975 25.5968 47.8975 25.5638 47.9009H25.5891C25.5132 47.9321 25.5674 47.8645 25.4861 47.9998C25.4102 48.2329 25.3802 48.4775 25.3975 48.7212C25.4102 49.505 25.627 50.2906 25.8349 51.0536Z" fill="url(#paint1_radial_511_328)"/>
<path d="M14.9049 52.7718C15.3994 52.2905 16.1906 52.3313 16.82 52.4628C17.6932 52.6661 18.5385 52.9726 19.3375 53.3758C21.0022 54.1856 22.5846 55.151 24.0631 56.2586C26.4608 58.0327 28.6342 60.0847 30.5366 62.3707C32.3114 64.4755 33.928 66.7526 35.0932 69.2394C35.5606 70.2391 35.9285 71.2814 36.1919 72.3514C36.2131 72.4224 36.2183 72.4973 36.2072 72.5705C36.1962 72.6438 36.1691 72.7138 36.1278 72.7757C36.0866 72.8376 36.0322 72.8899 35.9684 72.9289C35.9046 72.9679 35.833 72.9926 35.7585 73.0015C35.7185 73.0758 35.6634 73.1411 35.5966 73.1934C35.5299 73.2458 35.453 73.284 35.3707 73.3056C35.2883 73.3273 35.2023 73.332 35.1181 73.3194C35.0339 73.3068 34.9531 73.2771 34.881 73.2324C33.6223 72.4686 32.3312 71.767 31.1264 70.9144C29.8209 69.9872 28.582 68.9694 27.3646 67.9339C24.9406 65.8663 22.4699 63.8094 20.2977 61.4843C19.4238 60.5482 18.6218 59.5518 17.7568 58.6086C17.2174 58.0331 16.6905 57.4629 16.187 56.8625C15.4156 55.9353 13.693 53.9513 14.9049 52.7718ZM17.408 56.4327C18.7369 57.9763 20.1053 59.5162 21.4971 61.0012C23.601 63.2357 26.0124 65.2144 28.3554 67.2038C29.526 68.1967 30.7272 69.1577 31.9805 70.0458C32.8796 70.6817 33.8327 71.227 34.7821 71.7812C34.0629 69.4543 32.7807 67.3122 31.3458 65.3423C29.6842 63.0634 27.7836 60.8715 25.6329 59.0224C23.9313 57.5323 22.0783 56.2198 20.1035 55.1058C19.3315 54.6742 18.5306 54.295 17.7065 53.9708C17.3569 53.8287 16.996 53.7153 16.6276 53.6316C16.3684 53.5719 16.1005 53.5581 15.8364 53.5907C15.8051 53.5999 15.7754 53.6137 15.7483 53.6316L15.7645 53.6138C15.7123 53.6742 15.7303 53.5907 15.7195 53.7488C15.7087 53.9069 15.858 54.2426 15.9659 54.4593C16.3255 55.1786 16.8793 55.8181 17.408 56.4327Z" fill="url(#paint2_radial_511_328)"/>
<path d="M52.4301 56.0212C51.9743 56.6421 51.4867 57.2365 51.0027 57.8345C50.2106 58.8134 49.4871 59.8435 48.688 60.8172C46.7043 63.2337 44.4125 65.4033 42.1754 67.5729C41.0471 68.663 39.8977 69.7354 38.6762 70.7214C37.5514 71.6298 36.3334 72.3918 35.1452 73.2138C35.0773 73.262 35.0002 73.2957 34.9188 73.313C34.8373 73.3302 34.7532 73.3305 34.6716 73.314C34.59 73.2975 34.5127 73.2644 34.4443 73.2169C34.3759 73.1693 34.3179 73.1083 34.274 73.0374C34.2007 73.0321 34.1294 73.011 34.0649 72.9755C34.0005 72.9401 33.9444 72.8912 33.9004 72.8321C33.8565 72.7731 33.8258 72.7053 33.8104 72.6332C33.795 72.5612 33.7952 72.4867 33.811 72.4148C34.0016 71.3414 34.2964 70.2892 34.6911 69.2733C35.6803 66.7474 37.1272 64.4067 38.7395 62.2283C40.4631 59.8635 42.4661 57.7165 44.7048 55.8342C46.0838 54.6601 47.5728 53.6222 49.151 52.735C49.9081 52.2929 50.7161 51.9447 51.5571 51.6979C52.1644 51.5374 52.9353 51.4544 53.4458 51.906C54.699 53.0067 53.1342 55.0616 52.4301 56.0212ZM52.5129 53.6223C52.6213 53.4011 52.6887 53.162 52.7118 52.9167C52.6907 52.758 52.7118 52.8409 52.659 52.7844C52.6643 52.7903 52.6702 52.7956 52.6766 52.8003C52.6479 52.7856 52.6178 52.7738 52.5868 52.765C52.327 52.7449 52.0658 52.7724 51.8158 52.8462C51.4589 52.9478 51.111 53.0787 50.7756 53.2377C49.9902 53.6019 49.2304 54.0192 48.5014 54.4866C46.6389 55.6929 44.9064 57.0897 43.3318 58.6547C41.3393 60.5949 39.6126 62.8686 38.1252 65.2146C36.8403 67.2395 35.7103 69.432 35.1505 71.7762C36.0447 71.1765 36.9441 70.5874 37.7908 69.9101C38.9648 68.9646 40.079 67.9521 41.165 66.9114C43.3371 64.8177 45.5655 62.7328 47.5017 60.4079C48.7795 58.8645 50.0187 57.2682 51.2262 55.6684C51.6962 55.021 52.1978 54.3596 52.5129 53.624V53.6223Z" fill="url(#paint3_radial_511_328)"/>
<path d="M57.5627 64.9962C56.8898 65.3718 56.1978 65.7073 55.5092 66.0501C54.3842 66.6081 53.2958 67.2463 52.1656 67.797C49.3558 69.1663 46.3808 70.1674 43.4423 71.1903C41.9678 71.7046 40.4864 72.1914 38.9685 72.567C37.5775 72.9116 36.1604 73.0812 34.7468 73.3183C34.6658 73.3321 34.583 73.3285 34.5035 73.3076C34.4239 73.2867 34.3493 73.249 34.2841 73.1967C34.219 73.1445 34.1648 73.0788 34.1247 73.0037C34.0847 72.9287 34.0597 72.8458 34.0513 72.7603C33.9883 72.7228 33.9339 72.6715 33.8917 72.6098C33.8495 72.5482 33.8205 72.4776 33.8068 72.4031C33.7931 72.3286 33.7949 72.2519 33.8122 72.1782C33.8295 72.1045 33.8618 72.0355 33.9069 71.9762C34.5416 71.0622 35.2597 70.2152 36.0508 69.4472C38.0174 67.5344 40.3125 65.9991 42.6842 64.6862C45.2381 63.2502 47.9474 62.1415 50.7537 61.384C52.4884 60.903 54.2631 60.5977 56.0535 60.4723C56.9179 60.3974 57.7878 60.4323 58.6442 60.5762C59.2562 60.6966 59.9778 60.961 60.2421 61.6101C60.882 63.1947 58.6025 64.4163 57.5627 64.9962ZM58.6668 62.8081C58.86 62.6492 59.0239 62.4545 59.1502 62.2337C59.1989 62.0787 59.1849 62.1644 59.1606 62.086C59.1606 62.0988 59.1606 62.1061 59.1606 62.1116C59.1424 62.0843 59.1208 62.0597 59.0963 62.0386C58.8726 61.9041 58.6275 61.8133 58.3729 61.7706C58.0104 61.7065 57.6435 61.6742 57.2758 61.6739C56.4186 61.6632 55.5618 61.7138 54.7111 61.8253C52.5303 62.1213 50.3843 62.6523 48.3073 63.4098C45.6992 64.3343 43.1797 65.68 40.8446 67.2025C38.8276 68.5172 36.8785 70.0562 35.371 71.989C36.4264 71.8285 37.4836 71.679 38.5233 71.4219C39.9769 71.0572 41.4079 70.616 42.8233 70.1236C45.6609 69.1408 48.5525 68.1926 51.2684 66.8834C53.0698 66.0155 54.8624 65.0783 56.6273 64.1264C57.3367 63.7417 58.0704 63.346 58.6668 62.8008V62.8081Z" fill="url(#paint4_radial_511_328)"/>
<path d="M120.483 84.5916C123.846 87.3519 124.595 90.7509 125.165 94.0177C125.647 96.8024 147.408 95.1873 147.263 98.0102C147.125 100.523 51.5945 121.031 40.5754 123.024C37.5979 123.563 34.6482 124.052 32.0944 125.086C29.5405 126.12 28.4004 127.568 27.3876 129.089C25.592 131.76 20.4145 134.799 14.6897 134.552C9.58539 134.329 6.39171 132.126 5.11041 129.743C2.50946 124.907 4.50554 119.626 11.8586 115.787C16.3092 113.463 21.8806 111.878 27.2377 110.231C42.8276 105.44 56.6064 99.3643 70.5769 93.3703C74.5968 91.6455 78.6464 89.9399 82.7919 88.3004C89.5906 85.6115 96.9123 82.1011 105.154 80.841C111.772 79.8298 117.179 81.8818 120.483 84.5916Z" fill="#7FB2E0"/>
<path d="M61.9931 98.3086C61.874 101.514 62.0791 104.584 63.0531 107.635C63.6187 109.401 65.9124 110.01 67.3842 109.291C69.1273 108.439 69.5341 106.519 68.9636 104.754C69.2331 105.596 68.9768 104.78 68.9371 104.622C68.8511 104.296 68.7866 103.966 68.7254 103.635C68.6061 102.97 68.5238 102.299 68.479 101.625C68.4707 101.503 68.4641 101.382 68.4575 101.261C68.4492 100.914 68.4575 100.578 68.4575 100.239C68.4575 99.5456 68.4906 98.8526 68.5187 98.1596C68.5749 96.8636 68.6427 95.5694 68.6742 94.2769C66.4692 95.2737 64.2587 96.2688 62.0427 97.2621C62.0212 97.6138 62.0063 97.9621 61.9931 98.3086Z" fill="url(#paint5_radial_511_328)"/>
<path d="M50.1564 103.084C50.4611 104.481 50.7845 105.871 51.0215 107.282C51.1383 107.971 57.7294 113.511 57.8817 111.609C58.1357 108.453 57.5092 105.38 56.832 102.327C56.595 101.26 56.3648 100.192 56.1802 99.1116C54.0978 100.028 52.0018 100.934 49.8922 101.831C49.9769 102.249 50.0633 102.667 50.1564 103.084Z" fill="url(#paint6_radial_511_328)"/>
<path d="M38.0584 114.2C38.9788 115.807 42.0129 108.154 41.8385 107.662C41.6641 107.17 41.4988 106.623 41.3472 106.097C41.3305 106.04 41.3002 105.916 41.2699 105.814C41.2107 105.577 41.1531 105.338 41.0955 105.09C41.0682 104.978 41.044 104.866 41.0182 104.752C39.1714 105.574 37.3013 106.375 35.4079 107.155C36.0251 109.638 36.8181 112.032 38.0584 114.2Z" fill="url(#paint7_radial_511_328)"/>
<path d="M0.253975 87.8683C1.13612 80.8997 4.47638 74.0659 11.7601 71.3008C22.7729 67.0465 33.7525 70.7268 44.373 71.7908C52.49 72.6501 67.7496 70.34 70.7813 80.6232C72.563 86.8533 71.0306 94.249 70.5215 100.924C69.8242 109.947 68.4957 118.987 66.2468 127.801C64.69 133.948 63.1088 140.789 58.2588 144.477C53.5622 148.024 47.973 146.356 42.9783 145.546C35.8306 144.41 28.6026 144.247 21.3886 144.529C13.2036 144.83 5.52415 143.493 4.06322 133.154C3.10089 126.504 2.84286 119.761 1.95549 113.127C1.01757 106.231 0.097084 99.3363 0.00294495 92.3572C-0.0174408 90.8569 0.0664368 89.3569 0.253975 87.8683Z" fill="#EBA7BE"/>
<path d="M50.5441 85.3088C51.1048 84.9087 54.0024 86.5709 54.8794 87.1508C55.5273 86.5304 57.948 85.0022 58.7959 84.6391C59.8695 84.1808 58.7275 88.8606 58.5156 89.6414C63.7467 93.484 63.6287 94.7725 60.9704 94.9294C59.6997 95.0069 58.4301 95.0915 57.1616 95.1832C56.924 96.3324 55.3495 101.827 54.6931 101.516C54.0093 101.192 53.0246 96.4911 52.8126 95.5657C51.6724 95.682 48.026 95.9764 46.8875 96.128C45.6464 96.2937 50.156 91.6702 51.192 90.8153C50.633 89.4722 50.1372 85.5961 50.5441 85.3088Z" fill="white"/>
<path d="M11.2672 121.891C11.3783 121.137 15 119.983 16.1599 119.69C16.1599 118.702 16.7935 115.595 17.1577 114.634C17.6184 113.417 20.5645 117.789 21.0398 118.536C28.2686 117.068 29.2337 118.111 27.289 120.409C26.3603 121.505 25.439 122.608 24.5249 123.718C25.2805 124.754 28.5563 130.077 27.7897 130.388C26.9904 130.711 22.369 128.067 21.4458 127.562C20.6519 128.583 18.0463 131.787 17.2834 132.831C16.4512 133.971 16.1799 126.88 16.2873 125.412C14.7505 124.875 11.1871 122.435 11.2672 121.891Z" fill="white"/>
<path d="M15.5214 78.4704C15.8638 78.1514 17.88 79.0922 18.495 79.4293C18.8806 78.949 20.3715 77.7055 20.9051 77.3883C21.5816 76.9895 21.1411 80.332 21.053 80.8903C24.748 83.1724 24.7563 84.0787 23.0176 84.3869C22.1866 84.5355 21.3555 84.6878 20.5244 84.8491C20.4446 85.6648 19.7731 89.6055 19.321 89.4369C18.8689 89.2683 17.8916 86.0654 17.6905 85.4382C16.9475 85.6031 14.5673 86.0799 13.831 86.2702C13.0249 86.4787 15.6843 82.9259 16.3076 82.2552C15.8571 81.3616 15.2737 78.7006 15.5214 78.4704Z" fill="white"/>
<path d="M47.0478 120.371C47.4165 120.052 49.5876 120.991 50.2498 121.328C50.6633 120.85 52.2705 119.605 52.8451 119.289C53.5717 118.89 53.0974 122.233 53.0025 122.791C56.9831 125.073 56.9921 125.978 55.1199 126.288C54.225 126.436 53.3301 126.589 52.4352 126.75C52.3493 127.566 51.6262 131.505 51.1393 131.338C50.6525 131.171 49.5983 127.966 49.3835 127.337C48.5835 127.504 46.0204 127.981 45.2257 128.171C44.3595 128.38 47.2232 124.827 47.8944 124.154C47.4093 123.261 46.7811 120.609 47.0478 120.371Z" fill="white"/>
<path d="M28.1649 106.798C28.1359 106.327 30.206 105.194 30.8767 104.877C30.7466 104.278 30.7375 102.32 30.8351 101.694C30.9617 100.901 33.33 103.196 33.7169 103.602C37.9583 101.843 38.6832 102.36 37.7883 103.985C37.3617 104.76 36.9398 105.539 36.5228 106.321C37.1212 106.859 39.8132 109.693 39.3847 109.972C38.9562 110.251 35.7689 109.216 35.1325 109.02C34.7709 109.735 33.594 111.989 33.2613 112.712C32.8998 113.503 31.815 109.244 31.6939 108.331C30.6833 108.187 28.1848 107.136 28.1649 106.798Z" fill="white"/>
<path d="M19.766 99.1129C21.3796 99.1772 21.2684 101.592 19.6619 101.528C18.0555 101.463 18.1595 99.0468 19.766 99.1129Z" fill="white"/>
<path d="M12.5238 107.976C14.1374 108.041 14.0262 110.457 12.4198 110.391C10.8133 110.325 10.9173 107.912 12.5238 107.976Z" fill="white"/>
<path d="M8.91964 89.4437C11.0681 89.508 10.9201 91.9228 8.78117 91.8585C6.64226 91.7942 6.77118 89.3776 8.91964 89.4437Z" fill="white"/>
<path d="M37.8547 82.9972C38.9305 83.0615 38.8564 85.4763 37.7854 85.4119C36.7144 85.3476 36.7837 82.9311 37.8547 82.9972Z" fill="white"/>
<path d="M59.5835 103.142C60.6548 103.206 60.5866 105.622 59.514 105.556C58.4415 105.49 58.5109 103.077 59.5835 103.142Z" fill="white"/>
<path d="M48.7367 107.17C50.3503 107.235 50.2391 109.651 48.6327 109.585C47.0262 109.519 47.1302 107.106 48.7367 107.17Z" fill="white"/>
<path d="M60.8048 116.034C62.4198 116.099 62.3086 118.513 60.7025 118.449C59.0964 118.385 59.1987 115.968 60.8048 116.034Z" fill="white"/>
<path d="M42.7214 136.984C44.8632 137.049 44.7244 139.465 42.5802 139.399C40.436 139.333 40.5771 136.918 42.7214 136.984Z" fill="white"/>
<path d="M37.05 121.676C38.1258 121.762 38.0517 124.981 36.9807 124.895C35.9097 124.809 35.979 121.579 37.05 121.676Z" fill="white"/>
<path d="M27.4259 136.179C29.5779 136.245 29.4296 138.658 27.2872 138.594C25.1449 138.53 25.2884 136.115 27.4259 136.179Z" fill="white"/>
<path d="M63.6067 81.3854C64.683 81.4498 64.6077 83.8644 63.5373 83.8001C62.4669 83.7358 62.5351 81.3176 63.6067 81.3854Z" fill="white"/>
<path d="M11.7191 131.344C13.3327 131.43 13.2216 134.65 11.6151 134.564C10.0086 134.478 10.1126 131.256 11.7191 131.344Z" fill="white"/>
<path d="M140.94 162.678C141.412 158.734 143.259 154.987 147.327 153.758C153.438 151.911 159.674 154.427 165.686 155.45C170.291 156.235 178.836 155.635 181 161.029C182.298 164.265 181.752 168.002 181.759 171.396C181.769 175.986 181.399 180.582 180.47 185.08C179.818 188.23 179.172 191.745 176.402 193.722C173.698 195.653 170.238 194.908 167.175 194.589C162.807 194.136 158.41 194.202 154.042 194.511C149.072 194.858 144.383 194.287 143.425 188.465C142.805 184.699 142.609 180.875 142.06 177.102C141.478 173.164 140.916 169.214 140.834 165.227C140.81 164.376 140.845 163.524 140.94 162.678Z" fill="#7FB2E0"/>
<path d="M181.867 168.673C181.855 168.999 181.845 169.326 181.835 169.648C181.412 169.346 180.997 169.036 180.578 168.744C179.787 168.193 178.951 167.708 178.01 167.496C176.923 167.26 175.861 167.606 174.955 168.205C173.99 168.846 173.158 169.631 171.997 169.9C170.913 170.152 169.942 170.028 169.049 169.333C167.996 168.506 167.054 167.651 165.83 167.073C164.606 166.495 163.068 166.245 161.902 167.044C160.986 167.672 160.413 168.677 159.403 169.194C158.571 169.636 157.62 169.792 156.692 169.638C155.027 169.338 153.869 167.824 152.565 166.876C151.847 166.359 151.053 166.001 150.168 165.987C149.312 165.975 148.616 166.657 148.077 167.249C147.473 167.912 146.925 168.608 146.194 169.148C145.788 169.442 145.329 169.652 144.842 169.767C144.356 169.881 143.851 169.897 143.359 169.814C142.47 169.649 141.63 169.281 140.903 168.739C140.874 168.394 140.85 168.059 140.826 167.719C141.917 168.563 143.09 169.236 144.459 169.018C146.31 168.725 147.141 166.724 148.551 165.72C150.092 164.626 151.976 165.39 153.309 166.424C154.566 167.401 155.77 168.923 157.495 168.898C158.598 168.882 159.512 168.247 160.257 167.489C161.081 166.65 161.83 165.936 163.036 165.763C164.37 165.575 165.69 166.043 166.847 166.671C167.403 166.981 167.932 167.338 168.427 167.739C168.903 168.119 169.329 168.559 169.836 168.896C170.826 169.55 172.172 169.122 173.089 168.551C174.07 167.933 174.885 167.139 176.019 166.797C177.998 166.198 179.813 167.194 181.384 168.319C181.538 168.437 181.701 168.552 181.867 168.673Z" fill="white"/>
<path d="M144.713 176.324C145.516 175.849 146.096 175.077 146.864 174.552C147.72 173.966 148.736 174.038 149.674 174.349C150.984 174.781 152.112 175.451 153.287 176.169C154.35 176.814 155.506 177.434 156.77 177.253C158.685 176.987 160.004 175.24 161.694 174.449C163.554 173.578 165.351 174.241 166.937 175.394C168.47 176.51 169.842 178.14 171.688 178.698C172.659 178.993 173.603 178.729 174.456 178.23C175.309 177.732 176.023 176.994 176.955 176.615C178.583 175.954 180.457 176.729 181.867 177.88C181.838 178.21 181.806 178.543 181.771 178.874C180.727 177.88 179.37 177.231 178.043 177.262C176.999 177.285 176.22 178.033 175.416 178.615C174.583 179.219 173.633 179.658 172.607 179.689C170.725 179.745 169.124 178.276 167.761 177.128C166.324 175.928 164.608 174.472 162.636 175.003C160.808 175.497 159.53 177.213 157.761 177.883C155.323 178.805 153.209 177.032 151.177 175.896C150.204 175.354 148.823 174.698 147.694 175.07C146.895 175.336 146.275 176.192 145.626 176.711C144.483 177.625 143.106 177.905 141.746 177.755C141.709 177.47 141.671 177.186 141.631 176.902C142.692 177.081 143.78 176.877 144.713 176.324Z" fill="white"/>
<path d="M142.54 186.314C142.503 186.011 142.469 185.71 142.436 185.408C142.654 185.319 142.869 185.219 143.082 185.124C144.743 184.334 146.408 183.155 148.298 183.362C149.44 183.487 150.323 184.165 151.259 184.83C151.711 185.151 152.192 185.461 152.736 185.526C153.414 185.607 154.094 185.259 154.671 184.912C155.593 184.357 156.282 183.445 157.161 182.827C158.072 182.175 159.168 182.018 160.234 182.151C164.104 182.64 166.266 187.222 170.122 187.631C171.3 187.755 172.374 187.406 173.38 186.763C174.387 186.121 175.336 185.363 176.525 185.177C177.831 184.995 179.155 185.327 180.258 186.115C180.195 186.428 180.133 186.743 180.066 187.063C179.538 186.622 178.93 186.311 178.282 186.15C177.635 185.989 176.963 185.981 176.313 186.129C175.153 186.413 174.205 187.347 173.159 187.916C172.18 188.435 171.088 188.644 170.006 188.518C166.106 188.105 163.957 183.519 160.118 183.036C159.575 182.958 159.023 183.005 158.498 183.172C157.972 183.339 157.484 183.624 157.064 184.008C156.198 184.766 155.441 185.543 154.41 186.055C153.301 186.604 152.253 186.509 151.208 185.865C150.214 185.247 149.376 184.395 148.191 184.264C146.342 184.061 144.607 185.429 142.969 186.159C142.827 186.201 142.685 186.259 142.54 186.314Z" fill="white"/>
<path d="M175.861 174.779C175.542 175.112 175.245 174.27 175.567 173.939C175.926 173.562 176.201 173.003 176.527 172.556C176.816 172.163 177.23 172.846 176.939 173.243C176.573 173.746 176.265 174.357 175.861 174.779Z" fill="white"/>
<path d="M170.879 173.993C170.33 173.651 169.76 173.341 169.172 173.062C168.759 172.866 169.124 172.282 169.535 172.478C170.123 172.756 170.692 173.067 171.241 173.408C171.625 173.648 171.266 174.233 170.879 173.993Z" fill="white"/>
<path d="M162.754 171.585C163.345 171.229 163.81 170.694 164.282 170.157C164.649 169.735 165.216 170.388 164.849 170.81C164.34 171.395 163.812 171.991 163.163 172.382C162.701 172.655 162.296 171.86 162.754 171.585Z" fill="white"/>
<path d="M157.996 174.029C157.084 173.739 156.322 173.128 155.521 172.582C155.039 172.253 155.474 171.376 155.956 171.705C156.686 172.206 157.396 172.78 158.224 173.051C158.761 173.223 158.533 174.201 157.996 174.029Z" fill="white"/>
<path d="M149.073 171.065C149.664 170.828 150.129 170.469 150.601 170.112C150.968 169.83 151.535 170.266 151.168 170.548C150.659 170.939 150.133 171.337 149.484 171.592C149.021 171.781 148.615 171.249 149.073 171.065Z" fill="white"/>
<path d="M144.299 173.149C144.244 173.096 144.191 173.043 144.138 172.988C144.108 172.958 144.084 172.923 144.068 172.884C144.052 172.845 144.044 172.803 144.044 172.76C144.044 172.718 144.052 172.676 144.068 172.637C144.084 172.598 144.108 172.563 144.138 172.533C144.168 172.503 144.203 172.479 144.242 172.463C144.281 172.447 144.323 172.438 144.366 172.438C144.408 172.438 144.45 172.447 144.489 172.463C144.528 172.479 144.563 172.503 144.593 172.533L144.754 172.694C144.784 172.723 144.808 172.759 144.824 172.798C144.84 172.837 144.849 172.879 144.849 172.921C144.849 172.964 144.84 173.006 144.824 173.045C144.808 173.084 144.784 173.119 144.754 173.149C144.724 173.179 144.689 173.203 144.65 173.219C144.611 173.235 144.569 173.243 144.527 173.243C144.484 173.243 144.442 173.235 144.403 173.219C144.364 173.203 144.329 173.179 144.299 173.149Z" fill="white"/>
<path d="M175.782 182.913C176.385 182.913 176.385 183.833 175.782 183.841C174.797 183.846 173.825 184.063 172.935 184.475C172.386 184.73 171.903 183.931 172.454 183.674C173.493 183.185 174.629 182.925 175.782 182.913Z" fill="white"/>
<path d="M167.105 180.549C167.678 180.876 168.218 181.242 168.818 181.537C169.218 181.736 168.857 182.262 168.453 182.063C167.855 181.768 167.315 181.402 166.741 181.073C166.357 180.855 166.718 180.327 167.105 180.549Z" fill="white"/>
<path d="M162.75 178.945C163.206 178.67 163.614 179.403 163.161 179.679C162.606 179.985 162.028 180.248 161.435 180.464C160.944 180.666 160.733 179.844 161.217 179.646C161.744 179.452 162.256 179.217 162.75 178.945Z" fill="white"/>
<path d="M154.749 180.579C155.162 180.228 155.544 181.078 155.136 181.427C154.841 181.698 154.522 181.921 154.184 182.09C154.086 182.124 153.982 182.107 153.894 182.043C153.805 181.979 153.74 181.873 153.713 181.747C153.688 181.622 153.701 181.489 153.751 181.376C153.801 181.263 153.883 181.179 153.98 181.143C154.254 180.997 154.512 180.807 154.749 180.579Z" fill="white"/>
<path d="M146.233 179.741C147.292 180.34 148.43 180.767 149.488 181.357C149.923 181.604 149.537 182.302 149.101 182.055C148.042 181.458 146.904 181.037 145.846 180.439C145.411 180.194 145.797 179.496 146.233 179.741Z" fill="white"/>
<path d="M146.424 149.02C147.184 148.228 148.374 148.196 149.395 148.294C150.363 148.388 151.313 148.613 152.221 148.963C151.05 147.963 150.034 146.712 149.56 145.298C149.39 144.831 149.314 144.334 149.335 143.837C149.357 143.34 149.477 142.852 149.687 142.401C150.103 141.54 150.873 140.723 151.885 140.71C153.73 140.686 155.191 142.725 156.128 144.074C156.717 144.921 157.257 145.796 157.781 146.684C157.049 144.665 156.518 142.344 157.108 140.227C157.474 138.911 158.907 137.102 160.404 138.056C161.608 138.818 162.048 140.7 162.376 141.972C162.651 143.08 162.843 144.207 162.952 145.343L163.148 144.744C163.567 143.404 164.164 142.126 164.923 140.945C165.541 140.017 166.386 138.937 167.516 138.633C168.037 138.506 168.587 138.583 169.053 138.849C169.52 139.114 169.867 139.548 170.025 140.061C170.369 141.175 170.053 142.499 169.785 143.596C169.334 145.448 168.483 147.173 167.44 148.772C168.06 148.256 168.691 147.765 169.341 147.307C171.29 145.93 173.838 144.274 176.325 145.061C177.241 145.35 177.872 146.094 177.843 147.065C177.819 148.189 176.892 149.261 176.081 149.94C175.113 150.75 173.91 151.282 172.765 151.792C171.347 152.439 169.891 152.999 168.406 153.47C168.27 153.512 168.133 153.55 167.997 153.586C169.011 153.624 170.02 153.722 171.032 153.835C172.717 154.023 175.674 154.264 175.78 156.497C175.83 157.576 175.318 158.472 174.221 158.683C173.19 158.881 171.962 158.511 170.965 158.256C168.122 157.516 165.626 155.801 162.746 155.175C161.283 154.858 159.763 155.235 158.294 155.3C156.68 155.371 155.041 155.283 153.427 155.199C152.269 155.139 151.103 155.066 149.95 154.949C148.948 154.849 147.951 154.655 147.057 154.18C146.163 153.705 145.74 152.913 145.672 151.942C145.603 150.971 145.727 149.749 146.424 149.02ZM152.838 141.921C151.906 141.344 151.16 141.735 150.603 142.597C150.036 143.486 150.187 144.563 150.603 145.477C151.523 147.526 153.475 148.886 155.353 149.962C156.487 150.613 157.587 151.308 158.706 151.992C159.28 152.336 159.853 152.725 160.454 153.025L160.738 153.169C159.299 151.253 158.129 149.144 156.917 147.078C155.853 145.264 154.698 143.067 152.838 141.921ZM161.652 142.907C161.487 142.105 161.261 141.317 160.975 140.55C160.752 139.97 160.47 139.287 159.976 138.879C159.517 138.5 159.095 138.806 158.71 139.182C157.955 139.915 157.781 141.075 157.766 142.07C157.74 143.883 158.325 145.736 159.031 147.385C159.48 148.433 160.037 149.44 160.578 150.446C160.894 151.036 161.2 151.64 161.517 152.236C161.615 151.219 161.737 150.205 161.917 149.196C162.005 148.704 162.115 148.218 162.238 147.734C162.182 146.112 161.988 144.497 161.657 142.907H161.652ZM169.197 141.766C169.262 141.215 169.307 140.636 169.064 140.122C168.94 139.873 168.73 139.677 168.474 139.57C168.217 139.462 167.931 139.451 167.667 139.538C167.089 139.738 166.615 140.227 166.238 140.693C165.336 141.802 164.714 143.074 164.226 144.412C163.82 145.522 163.442 146.66 163.146 147.812C163.222 148.994 163.253 150.222 163 151.36C162.923 151.716 162.828 152.069 162.744 152.426C163.251 152.011 163.856 151.68 164.339 151.27C164.822 150.861 165.219 150.275 165.594 149.747C166.034 149.13 166.498 148.533 166.909 147.896C167.725 146.624 168.356 145.242 168.782 143.792C168.98 143.13 169.12 142.452 169.202 141.766H169.197ZM171.679 151.269C172.899 150.752 174.168 150.213 175.247 149.427C175.974 148.896 177.243 147.662 176.88 146.627C176.502 145.55 174.756 145.724 173.917 145.922C172.605 146.235 171.39 147.004 170.286 147.755C169.033 148.607 167.88 149.625 166.701 150.571C166.085 151.066 165.486 151.579 164.868 152.071C164.281 152.541 163.607 152.983 163.076 153.522C164.416 153.25 165.793 153.186 167.129 152.875C168.7 152.51 170.211 151.902 171.684 151.269H171.679ZM170.936 157.303C171.923 157.6 173.245 157.991 174.274 157.731C174.79 157.6 174.867 156.998 174.871 156.555C174.871 156.039 174.548 155.695 174.109 155.462C173.188 154.982 172.079 154.875 171.062 154.76C169.711 154.589 168.352 154.497 166.991 154.483C166.013 154.483 165.039 154.557 164.069 154.577C165.027 154.889 165.966 155.256 166.881 155.676C168.215 156.265 169.54 156.879 170.941 157.303H170.936ZM147.215 153.192C147.982 153.801 149.087 153.937 150.027 154.037C151.181 154.161 152.348 154.224 153.506 154.288C155.132 154.378 156.8 154.479 158.428 154.385C159.136 154.343 159.846 154.25 160.554 154.193C158.036 152.918 155.536 151.611 153.023 150.32C151.83 149.702 150.529 149.319 149.192 149.192C148.665 149.121 148.129 149.162 147.619 149.315C147.085 149.502 146.863 149.914 146.713 150.429C146.449 151.331 146.416 152.558 147.212 153.192H147.215Z" fill="url(#paint8_radial_511_328)"/>
<path d="M280.254 129.018C263.761 119.227 262.631 108.651 261.374 103.677C256.646 84.9317 240.599 68.6163 221.379 64.4386C207.081 61.3282 193.848 64.7371 179.755 67.023C169.109 68.75 157.272 70.3555 146.749 66.8286C141.067 64.9193 136.571 61.1477 133.462 56.4961C130.001 51.3186 129.168 45.1552 125.633 40.0436C124.216 37.9921 122.591 36.1749 120.392 34.7429C118.064 33.2294 115.396 32.4865 112.646 31.9485C107.775 30.9921 102.423 31.4486 97.6508 32.5004C95.3543 33.0072 92.9428 33.6061 90.8905 34.6926C81.8983 39.464 81.5025 52.3062 79.6385 61.0228C75.4991 80.3807 74.1355 98.8917 83.3648 117.106C88.9097 128.041 98.3064 135.962 110.458 138.389C125.105 141.313 139.037 138.113 153.719 135.546C168.748 132.92 184.136 133.93 199.229 136.197C208.386 137.565 217.361 139.946 225.987 143.295C229.674 144.731 234.554 147.834 238.082 149.631C244.132 152.717 246.578 155.053 253.088 150.726C258.641 147.034 262.735 140.404 263.164 133.716C263.508 128.45 284.617 131.609 280.254 129.018Z" fill="#7FB2E0"/>
<path d="M306.807 133.144C304.491 132.978 302.148 133.212 299.827 133.318C291.864 133.667 283.891 130.241 276.573 127.509C273.169 126.239 269.655 125.118 266.544 123.2C263.433 121.283 261.009 118.333 257.029 118.454C254.708 118.527 252.342 119.391 251.229 121.538C250.25 123.432 249.957 125.583 249.61 127.661C249.187 130.166 248.632 132.645 248.039 135.113C247.43 137.62 246.818 140.195 245.877 142.597C245.157 144.425 244.321 146.198 243.841 148.106C243.382 149.939 229.798 143.867 231.035 145.374C232.395 147.031 248.727 155.185 250.639 155.832C261.778 159.604 273.862 159.516 285.354 157.673C288.063 157.259 290.749 156.705 293.401 156.012C298.131 154.733 303.061 151.991 307.742 155.023C311.436 157.416 315.66 161.73 317.831 165.592C318.677 167.096 318.548 169.1 319.016 170.744C319.304 171.74 319.815 172.658 320.512 173.427C321.209 174.195 322.072 174.794 323.036 175.178C324 175.562 325.039 175.72 326.074 175.641C327.108 175.562 328.111 175.247 329.005 174.721C332.424 172.717 333.729 167.968 332.926 164.377C332.101 160.69 330.01 157.503 327.923 154.423C323.005 147.164 319.089 135.97 309.602 133.583C308.685 133.355 307.75 133.207 306.807 133.144Z" fill="#7FB2E0"/>
<path d="M308.947 94.7811C306.645 94.6487 304.324 94.9153 302.018 95.0478C294.118 95.5009 281.8 95.5514 274.498 92.9252C271.103 91.7054 228.058 64.1069 227.741 66.1859C227.357 68.697 251.191 95.0913 250.634 97.5642C250.064 100.077 249.496 102.656 248.593 105.068C247.9 106.907 247.097 108.688 246.648 110.603C246.217 112.44 246.279 114.2 247.526 115.686C248.9 117.324 249.192 112.992 251.098 113.612C262.208 117.225 276.606 121.578 287.993 119.576C290.678 119.124 293.337 118.533 295.961 117.803C300.638 116.46 305.488 113.652 310.182 116.615C313.884 118.954 318.138 123.204 320.345 127.033C321.211 128.523 321.105 130.518 321.592 132.161C321.891 133.153 322.412 134.063 323.114 134.821C323.817 135.579 324.682 136.165 325.644 136.535C326.607 136.905 327.64 137.049 328.666 136.955C329.692 136.862 330.683 136.533 331.564 135.995C334.929 133.944 336.158 129.183 335.311 125.607C334.444 121.935 332.323 118.783 330.206 115.733C325.224 108.552 321.181 97.4247 311.736 95.1697C310.819 94.9584 309.886 94.8284 308.947 94.7811Z" fill="#7FB2E0"/>
<path d="M129.388 103.98C135.669 98.9159 140.497 92.1926 143.36 84.5262C145.496 78.7675 146.411 72.6599 146.46 66.54C144.047 65.6833 141.781 64.4381 139.746 62.851C139.756 62.9993 139.766 63.1441 139.775 63.2925C139.775 63.4129 139.787 63.535 139.793 63.6572C139.8 63.7793 139.805 63.9608 139.807 64.0376C139.82 64.5122 139.826 64.9869 139.829 65.4598C139.838 67.4069 139.747 69.353 139.554 71.29C139.37 73.1126 139.087 74.9233 138.707 76.7136C138.707 76.7328 138.707 76.7502 138.695 76.7659C138.649 76.9631 138.602 77.1621 138.553 77.3593C138.446 77.7973 138.329 78.2318 138.214 78.6681C137.955 79.6069 137.658 80.5353 137.34 81.4601C136.747 83.1534 136.048 84.8053 135.248 86.4056C135.225 86.4527 135.182 86.5382 135.14 86.6202L134.93 87.0094C134.715 87.4055 134.489 87.7929 134.262 88.1803C133.764 89.0249 133.23 89.8451 132.674 90.6495C132.156 91.3999 131.605 92.1293 131.039 92.8413C130.751 93.2025 130.456 93.5551 130.156 93.9041C130.01 94.0786 129.859 94.2531 129.709 94.4171L129.499 94.6457C128.133 96.0959 126.671 97.4474 125.125 98.6907C123.693 99.8494 123.545 102.118 124.684 103.533C125.869 104.997 127.958 105.137 129.388 103.98Z" fill="url(#paint9_radial_511_328)"/>
<path d="M151.574 67.6857C151.481 69.8701 151.253 72.0466 150.89 74.2028C150.796 74.7619 150.69 75.3209 150.576 75.8764C150.53 76.1046 150.481 76.3346 150.431 76.5628C150.407 76.6607 150.384 76.7562 150.362 76.8493C150.098 77.9267 149.784 78.9916 149.433 80.0425C149.096 81.0579 148.705 82.0538 148.271 83.0321C148.067 83.4938 147.845 83.9468 147.617 84.3943L147.512 84.5818C147.372 84.8277 147.225 85.0701 147.076 85.3125C146.078 86.9294 146.254 89.0115 147.879 90.1773C149.341 91.2264 156.864 80.2706 157.761 75.3332C158.172 73.0574 158.429 70.7566 158.53 68.4464C156.196 68.3623 153.871 68.108 151.574 67.6857Z" fill="url(#paint10_radial_511_328)"/>
<path d="M164.2 115.21C166.309 115.401 167.641 113.938 168.062 112.11C168.096 111.962 168.213 111.467 168.265 111.239C168.341 110.933 168.415 110.625 168.49 110.32C168.717 109.397 168.951 108.477 169.185 107.556C169.653 105.725 170.13 103.895 170.596 102.064C171.615 98.0537 172.576 94.0156 173.334 89.9426C174.671 82.6562 175.268 74.9774 173.645 67.6858C171.305 67.9961 168.938 68.2594 166.559 68.4355C166.82 69.5427 167.024 70.6621 167.184 71.7867C167.31 72.6846 167.398 73.5861 167.463 74.4892C167.479 74.7176 167.491 74.9443 167.506 75.171C167.506 75.1972 167.506 75.2355 167.506 75.2773C167.522 75.7725 167.529 76.2677 167.531 76.7646C167.531 78.6947 167.419 80.6266 167.234 82.548C166.854 86.4571 166.125 90.3279 165.272 94.162C165.169 94.627 165.064 95.0861 164.957 95.5394L164.801 96.2125C164.8 96.2218 164.8 96.2311 164.801 96.2404C164.561 97.2202 164.321 98.2002 164.081 99.18C163.618 101.018 163.14 102.852 162.668 104.688C162.09 106.942 161.529 109.2 161.007 111.465C160.577 113.293 162.459 115.036 164.2 115.21Z" fill="url(#paint11_radial_511_328)"/>
<path d="M177.843 67.1996L177.885 67.3325C177.923 67.4636 177.96 67.5931 177.995 67.7242C178.082 68.0486 178.157 68.373 178.244 68.6992C178.928 71.5034 179.308 74.3939 179.56 77.2723C179.684 78.6925 179.766 80.1162 179.826 81.5416C179.826 81.69 179.837 81.8384 179.842 81.9868C179.852 82.3423 179.861 82.6978 179.87 83.0533C179.886 83.7539 179.894 84.4545 179.9 85.1551C179.923 87.7678 179.876 90.3787 179.821 92.9896C179.782 94.8429 180.872 96.5099 182.693 96.6928C184.326 96.8654 186.324 81.7693 185.808 75.8659C185.519 72.5698 185.031 69.248 184.138 66.0745C182.717 66.3402 181.29 66.606 179.852 66.8545C179.187 66.9695 178.517 67.0846 177.843 67.1996Z" fill="url(#paint12_radial_511_328)"/>
<path d="M191.415 70.0745C191.456 70.205 191.528 70.4385 191.546 70.5054C191.621 70.7578 191.69 71.0101 191.76 71.2625C192.284 73.168 192.597 75.1336 192.985 77.0735C193.398 79.1678 193.793 81.2656 194.074 83.3823C194.205 84.3712 194.288 85.3651 194.409 86.3557C194.462 86.8157 194.504 87.2775 194.541 87.741C194.563 88.0174 194.581 88.2938 194.598 88.5719C194.598 88.644 194.615 88.9375 194.623 89.0732C194.685 91.1092 194.609 93.1503 194.477 95.1829C194.206 99.3236 193.641 103.438 193.258 107.571C193.195 108.453 193.473 109.326 194.03 110.001C194.588 110.677 195.381 111.101 196.24 111.183C197.099 111.266 197.955 111 198.625 110.442C199.294 109.885 199.725 109.08 199.823 108.201C200.205 104.069 200.758 99.9604 201.043 95.8129C201.322 91.3616 201.177 86.8929 200.608 82.4708C200.362 80.4468 199.982 78.44 199.592 76.44C199.196 74.4023 198.851 72.3405 198.327 70.332C197.804 68.3235 197.146 66.4025 196.487 64.4626C194.302 64.7802 192.113 65.1493 189.915 65.5459C189.978 65.7416 190.043 65.939 190.109 66.133C190.408 67.0394 190.719 67.9424 191.021 68.8454C191.154 69.2539 191.285 69.6642 191.415 70.0745Z" fill="url(#paint13_radial_511_328)"/>
<path d="M207.053 67.8672C207.724 69.3905 208.296 70.954 208.828 72.5264C208.848 72.5965 209.086 73.3169 209.142 73.4904C209.27 73.8936 209.396 74.298 209.52 74.7035C209.781 75.5536 210.033 76.4073 210.285 77.2609C211.379 81.0069 212.498 84.6932 213.011 88.5706C213.148 89.6118 213.246 90.6601 213.321 91.7083C213.339 91.9677 213.354 92.2342 213.368 92.4901C213.368 92.5444 213.377 92.6654 213.383 92.7916C213.401 93.3385 213.413 93.886 213.418 94.434C213.438 96.6392 213.337 98.8461 213.184 101.048C213.084 102.51 212.95 103.97 212.819 105.43C212.637 107.306 221.051 88.0202 218.35 79.3118C216.642 73.799 215.248 68.0933 212.6 62.9363C209.868 62.8052 207.13 62.8252 204.4 62.9959C204.526 63.1712 204.65 63.3359 204.765 63.5095C204.765 63.5375 205.177 64.1598 205.276 64.3246C205.484 64.6752 205.681 65.038 205.874 65.3991C206.301 66.2072 206.688 67.0346 207.053 67.8672Z" fill="url(#paint14_radial_511_328)"/>
<path d="M222.039 70.1341C222.625 71.4338 223.164 72.7523 223.657 74.0895C223.78 74.4241 223.898 74.7605 224.009 75.0968C224.046 75.2008 224.211 75.7115 224.248 75.8224C224.45 76.4881 224.632 77.1626 224.803 77.8389C225.521 80.8181 225.961 83.858 226.117 86.919C226.14 87.2906 226.157 87.6622 226.175 88.0355L226.196 88.4934V88.504C226.224 89.2525 226.247 90.0027 226.273 90.7529C226.336 92.5862 226.405 94.4195 226.533 96.2492C226.665 98.1389 228.84 99.3646 230.547 99.067C232.55 98.7148 233.483 96.929 233.358 95.0429C233.304 94.2768 233.261 93.5125 233.225 92.7535C233.225 92.6073 233.212 92.4594 233.205 92.3132C233.205 92.2973 233.205 92.2815 233.205 92.2621C233.191 91.8852 233.179 91.5084 233.165 91.1315C233.103 89.3282 233.045 87.5213 232.944 85.7197C232.782 82.6591 232.341 79.6198 231.628 76.6396C230.674 72.7035 229.154 68.9736 227.433 65.3317C225.138 64.889 222.846 64.4417 220.557 63.9897C220.174 63.9087 219.792 63.8347 219.411 63.7625L218.884 63.6569C219.977 65.786 221.052 67.9363 222.039 70.1341Z" fill="url(#paint15_radial_511_328)"/>
<path d="M258.458 140.692C259.678 139.293 259.093 136.997 257.669 135.994C256.052 134.856 254.09 135.376 252.877 136.768C252.619 137.062 252.359 137.352 252.096 137.64L252.079 137.661C252.039 137.7 251.823 137.927 251.748 138.002C251.225 138.527 250.692 139.027 250.141 139.519C249.049 140.488 247.884 141.375 246.656 142.174L246.377 142.344C246.091 142.515 245.802 142.67 245.506 142.828C244.877 143.169 244.229 143.475 243.572 143.762C242.983 144.018 242.381 144.246 241.773 144.456L241.447 144.567C241.099 144.666 240.761 144.759 240.416 144.846C239.166 145.152 237.896 145.373 236.615 145.505C236.291 145.539 235.966 145.567 235.641 145.588C235.51 145.599 235.151 145.616 234.967 145.626C234.371 145.638 233.773 145.626 233.175 145.617C232.165 145.588 231.156 145.512 230.15 145.402C232.902 146.84 235.789 148.546 238.095 149.703C238.792 150.07 239.517 150.444 240.245 150.817C240.696 151.052 241.127 151.278 241.545 151.488C241.63 151.467 241.719 151.448 241.801 151.426C248.503 149.743 254.004 145.798 258.458 140.692Z" fill="url(#paint16_radial_511_328)"/>
<path d="M269.209 139.612C268.34 139.301 267.38 139.335 266.536 139.705C265.691 140.076 265.028 140.754 264.688 141.596C264.53 141.975 264.361 142.35 264.183 142.721C264.081 142.926 263.978 143.131 263.874 143.335L263.726 143.611C263.238 144.478 262.713 145.325 262.166 146.157C260.745 148.323 259.154 150.378 257.406 152.302C257.335 152.38 257.15 152.576 257.019 152.716C256.887 152.857 256.703 153.037 256.543 153.197C256.094 153.642 255.631 154.064 255.157 154.489C254.3 155.246 253.389 155.941 252.43 156.57C252.354 156.615 252.276 156.662 252.198 156.705C252.093 156.766 251.986 156.821 251.878 156.879C254.763 157.718 257.709 158.34 260.691 158.74C261.401 158.063 262.067 157.376 262.697 156.709C266.156 153.051 270.961 140.259 269.209 139.612Z" fill="url(#paint17_radial_511_328)"/>
<path d="M279.49 143.442C278.628 143.367 277.771 143.649 277.105 144.228C276.439 144.806 276.016 145.635 275.926 146.537C275.861 147.193 275.763 147.844 275.632 148.489C275.601 148.618 275.572 148.745 275.541 148.874C275.428 149.329 275.303 149.782 275.174 150.234C274.634 152.094 273.977 153.913 273.206 155.681C273.023 156.104 272.831 156.524 272.633 156.941C272.532 157.159 272.424 157.374 272.318 157.59L272.249 157.719C271.917 158.342 271.565 158.952 271.19 159.546C273.749 159.546 276.311 159.406 278.859 159.154C278.935 158.98 279.012 158.822 279.086 158.657C280.701 155.104 282.076 151.113 282.444 147.174C282.517 146.27 282.248 145.373 281.696 144.675C281.143 143.977 280.351 143.534 279.49 143.442Z" fill="url(#paint18_radial_511_328)"/>
<path d="M283.788 112.603C283.788 112.563 283.812 112.493 283.831 112.419C283.894 112.165 283.962 111.91 284.033 111.66C284.203 111.064 284.407 110.479 284.642 109.905C285.338 108.211 284.377 106.235 282.65 105.598C280.884 104.948 276.9 112.325 276.387 114.746C276.368 114.836 276.347 114.916 276.328 115.014C276.328 115.014 276.195 115.556 276.154 115.692C276.015 116.213 275.847 116.728 275.661 117.235C275.522 117.619 275.359 117.995 275.181 118.365C275.218 118.273 274.913 118.825 274.833 118.953C274.703 119.152 274.557 119.342 274.409 119.53C276.879 119.871 279.37 120.048 281.865 120.062C282.365 118.757 282.765 117.417 283.062 116.054C283.328 114.907 283.537 113.75 283.788 112.603Z" fill="url(#paint19_radial_511_328)"/>
<path d="M291.382 106.376C290.469 106.299 289.563 106.583 288.857 107.167C288.152 107.752 287.705 108.589 287.611 109.5C287.405 111.877 287.078 114.242 286.632 116.586C286.588 116.811 286.541 117.035 286.492 117.258L286.407 117.61C286.249 118.233 286.068 118.851 285.88 119.463C285.815 119.663 285.747 119.861 285.676 120.062C286.529 119.981 287.37 119.868 288.196 119.724C289.876 119.431 291.563 119.103 293.232 118.718C293.893 115.908 294.245 113.015 294.515 110.152C294.595 109.237 294.31 108.328 293.724 107.621C293.138 106.914 292.296 106.467 291.382 106.376Z" fill="url(#paint20_radial_511_328)"/>
<path d="M299.412 104.754C297.704 104.594 295.63 114.943 295.333 118.45L295.721 118.342C297.933 117.706 300.182 116.748 302.438 116.217C302.576 113.669 302.61 111.118 302.54 108.564C302.485 106.654 301.467 104.949 299.412 104.754Z" fill="url(#paint21_radial_511_328)"/>
<path d="M133.987 118.003C137.07 121.057 137.499 124.503 137.758 127.8C137.977 130.61 159.738 131.027 159.329 133.817C158.959 136.301 62.1883 147.796 51.0664 148.748C48.0604 149.006 45.0804 149.218 42.4551 150.008C39.8298 150.798 38.5554 152.131 37.3992 153.544C35.3668 156.031 29.9389 158.569 24.2815 157.791C19.2395 157.097 16.2665 154.612 15.2182 152.128C13.0849 147.081 15.5659 142.022 23.2157 138.892C27.8509 136.996 33.5308 135.94 39.004 134.801C54.9296 131.491 69.1792 126.737 83.6096 122.081C87.7614 120.742 91.941 119.423 96.211 118.18C103.214 116.142 110.805 113.333 119.11 112.848C125.781 112.465 130.96 115.011 133.987 118.003Z" fill="#7FB2E0"/>
<path d="M73.1586 129.032C73.4055 130.38 73.6141 131.729 73.7676 133.102C73.826 133.624 73.8694 134.145 73.9028 134.668V134.826C73.9028 135.085 73.8928 135.343 73.8727 135.601C73.8107 136.526 74.0873 137.44 74.6432 138.147C75.1991 138.855 75.9901 139.299 76.8466 139.385C77.703 139.472 78.5568 139.193 79.2248 138.609C79.8928 138.025 80.3218 137.182 80.42 136.261C80.6335 133.534 80.1463 130.675 79.6742 128.003C79.3938 126.424 79.0701 124.846 78.688 123.285C76.6024 124.012 74.5146 124.735 72.4245 125.455C72.6981 126.64 72.94 127.834 73.1586 129.032Z" fill="url(#paint22_radial_511_328)"/>
<path d="M64.2955 139.391C66.268 139.052 66.2243 130.51 65.6178 128.12C63.3411 128.798 61.0497 129.464 58.7438 130.117C59.2848 132.248 62.4121 139.715 64.2955 139.391Z" fill="url(#paint23_radial_511_328)"/>
<path d="M52.665 142.57C54.4625 142.253 55.8477 140.412 55.4599 138.579C54.9523 136.119 54.2616 133.7 53.3934 131.343C51.1808 131.94 48.9408 132.516 46.6735 133.07C46.9215 133.672 47.1544 134.281 47.3722 134.9C47.4298 135.074 47.4857 135.231 47.5469 135.397C47.5678 135.46 47.5853 135.507 47.5975 135.546C47.7512 136.043 47.8927 136.546 48.029 137.049C48.2735 137.954 48.4866 138.865 48.684 139.782C49.0683 141.624 50.7715 142.906 52.665 142.57Z" fill="url(#paint24_radial_511_328)"/>
<path d="M266.378 83.2579C270.112 83.5348 273.872 83.7229 277.629 83.8015C276.71 83.1895 275.821 82.5438 274.962 81.8646C274.565 81.5534 274.181 81.232 273.797 80.9072L273.506 80.6525C273.442 80.5926 273.056 80.249 272.972 80.1686C271.363 78.6517 269.838 77.0538 268.405 75.3818C267.357 74.1851 266.342 72.9525 265.334 71.7216C262.056 71.4498 262.502 79.3258 266.378 83.2579Z" fill="url(#paint25_radial_511_328)"/>
<path d="M280.043 71.9552C282.571 75.0476 301.157 82.7295 304.531 82.1599L304.989 82.0803C304.869 81.5076 304.609 80.9752 304.233 80.5326C303.858 80.09 303.379 79.7515 302.842 79.5486C301.172 78.941 299.547 78.2097 297.982 77.3605L297.846 77.2863L297.237 76.9355C296.758 76.657 296.283 76.3677 295.811 76.0747C294.849 75.4743 293.908 74.8378 292.98 74.1814C291.882 73.4014 290.815 72.5791 289.778 71.7147C288.949 71.769 288.115 71.8196 287.284 71.8594C284.871 71.9486 282.457 71.9806 280.043 71.9552Z" fill="url(#paint26_radial_511_328)"/>
<path d="M309.757 78.3798C310.668 79.1333 311.597 79.8661 312.543 80.5782C315.423 79.787 318.27 78.8608 321.084 77.7996C320.724 77.5622 320.365 77.3211 320.006 77.08C317.909 75.6495 315.867 74.1248 313.883 72.506C312.318 71.2325 310.798 69.8943 309.324 68.4915C306.638 69.1904 306.758 75.9101 309.757 78.3798Z" fill="url(#paint27_radial_511_328)"/>
<path d="M330.657 61.3911L330.054 61.2395C327.144 62.6737 324.149 63.955 321.084 65.0774C326.576 67.2285 332.418 68.3218 338.279 69.2974C341.119 67.7525 331.171 61.5152 330.657 61.3911Z" fill="url(#paint28_radial_511_328)"/>
<path d="M355.924 49.7364C353.643 49.8127 341.35 53.4692 338.788 55.2829C344.239 55.8581 349.708 56.4944 355.166 56.3943C357.379 54.113 359.434 51.6939 361.32 49.1527C360.45 49.2998 359.573 49.423 358.689 49.5226C358.125 49.5854 355.938 49.7364 355.924 49.7364Z" fill="url(#paint29_radial_511_328)"/>
<path d="M372.586 25.785C372.194 25.9187 371.823 26.1079 371.482 26.3474C371.089 26.6233 370.692 26.8975 370.29 27.1646L370.04 27.3316L369.598 27.6146C368.71 28.1769 367.804 28.7077 366.886 29.2173C365.118 30.1945 354.661 38.1644 353.273 40.2892C358.699 40.1486 363.887 38.4667 368.73 35.9694C368.791 35.8428 368.851 35.7181 368.91 35.5915C370.394 32.4323 371.623 29.1524 372.586 25.785Z" fill="url(#paint30_radial_511_328)"/>
<path d="M373.219 3.43719C372.951 3.77965 372.67 4.09986 372.386 4.42349C372.246 4.58445 372.101 4.74199 371.957 4.89952L371.769 5.09128C370.414 6.47313 363.282 16.4851 362.929 18.5331C365.953 17.6632 368.789 16.0741 371.338 14.3224C372.623 13.4395 373.846 12.4728 375 11.4286C374.861 8.63182 374.318 5.86886 373.387 3.22314C373.33 3.29506 373.276 3.36698 373.219 3.43719Z" fill="url(#paint31_radial_511_328)"/>
<path d="M123.871 49.3911C116.432 60.8757 103.183 65.3657 94.276 59.4159L84.7973 53.0844C75.8902 47.1364 74.7004 33.0031 82.1389 21.5185C89.586 10.0304 102.828 5.54212 111.735 11.4937L121.214 17.8252C130.119 23.7732 131.309 37.9065 123.871 49.3928V49.3911Z" fill="#7FB2E0"/>
<path d="M121.12 60.148C112.755 73.037 95.3434 76.3978 82.2305 67.6562C69.1176 58.9145 65.2634 41.3784 73.628 28.4894C81.9926 15.6004 99.4042 12.2378 112.517 20.9795C125.63 29.7211 129.476 47.2589 121.12 60.148Z" fill="#7FB2E0"/>
<path d="M99.9515 60.3228C96.2217 66.0068 89.162 67.7777 84.1809 64.2786C79.1998 60.7794 78.1881 53.3352 81.9179 47.6512C85.6476 41.9673 92.7073 40.1981 97.6867 43.6955C102.666 47.1929 103.681 54.6389 99.9515 60.3228Z" fill="white"/>
<path d="M112.07 12.0865L86.9096 44.341L101.905 54.7932L123.122 19.2087C119.725 16.4224 116.017 14.0327 112.07 12.0865Z" fill="#4782AC"/>
<path d="M99.9552 54.7702C101.439 54.946 102.318 54.1269 102.187 51.8259C102.023 49.6673 100.847 46.0251 97.4508 43.8208C94.1557 41.4548 90.3668 41.6956 88.3144 42.3389C86.1433 43.0649 85.7105 44.1917 86.4208 45.5153C87.2446 46.9357 88.009 48.4738 88.646 49.7956C89.3232 51.1281 89.8677 52.2425 91.1958 53.0985C92.4733 54.0214 93.7037 54.1234 95.1837 54.2658C96.6375 54.3747 98.3391 54.5241 99.9552 54.7702Z" fill="url(#paint32_radial_511_328)"/>
<path d="M129.432 41.4788C129.642 40.7061 129.594 39.8831 129.295 39.1422C128.211 36.3842 125.305 34.9397 122.734 34.0546C121.807 33.7391 120.863 33.4743 119.908 33.2616C118.941 33.0421 117.815 32.8296 116.926 33.4209C115.949 34.0688 115.687 35.4495 116.014 36.5152C116.357 37.6428 117.257 38.3597 118.156 39.0183C119.324 39.8733 120.443 40.7973 121.585 41.7001C123.487 43.2083 126.831 46.0088 128.776 42.9392C129.067 42.491 129.289 41.9982 129.432 41.4788Z" fill="white"/>
<path d="M121.199 37.3042C120.394 38.769 120.602 40.3904 121.665 40.9234C122.727 41.4565 124.244 40.7035 125.047 39.2461C125.85 37.7887 125.646 36.1617 124.583 35.6269C123.521 35.092 122.006 35.8412 121.199 37.3042Z" fill="url(#paint33_radial_511_328)"/>
<path d="M86.9676 13.6691C87.6057 13.1779 88.3979 12.905 89.2175 12.8939C92.2596 12.83 94.8242 14.9658 96.7323 16.9929C97.4161 17.7288 98.0585 18.4987 98.6567 19.2996C99.268 20.1094 99.9372 21.0677 99.7545 22.1192C99.5538 23.2709 98.3673 24.0496 97.2333 24.1584C96.0288 24.2724 94.9816 23.7198 93.9887 23.1449C92.6973 22.3955 91.3625 21.717 90.0422 21.0142C87.8321 19.8401 83.8079 17.8303 85.8715 14.8466C86.1695 14.4014 86.5394 14.004 86.9676 13.6691Z" fill="white"/>
<path d="M94.116 19.5087C93.1041 20.8675 91.5771 21.3513 90.7103 20.5903C89.8435 19.8293 89.9559 18.1106 90.9678 16.7519C91.9797 15.3931 93.5066 14.9094 94.3735 15.6703C95.2403 16.4313 95.1279 18.1559 94.116 19.5087Z" fill="url(#paint34_radial_511_328)"/>
<path d="M89.3784 31.1489C91.0248 32.2786 92.7105 29.6525 91.0675 28.5298C87.7867 26.2756 86.1727 22.546 83.9541 19.3385C83.0331 19.809 82.1395 20.3337 81.2779 20.91C82.511 22.6037 83.5118 24.4528 84.6663 26.2006C85.9473 28.1282 87.4656 29.8341 89.3784 31.1489Z" fill="#7FB2E0"/>
<path d="M89.3784 31.1489C91.0248 32.2786 92.7105 29.6525 91.0675 28.5298C87.7867 26.2756 86.1727 22.546 83.9541 19.3385C83.0331 19.809 82.1395 20.3337 81.2779 20.91C82.511 22.6037 83.5118 24.4528 84.6663 26.2006C85.9473 28.1282 87.4656 29.8341 89.3784 31.1489Z" fill="url(#paint35_radial_511_328)"/>
<path d="M80.3378 27.9822C81.2656 29.0035 82.0544 30.1143 83.0261 31.1046C84.1008 32.1714 85.2371 33.1816 86.43 34.1306C87.1071 34.6835 88.013 34.8867 88.756 34.2736C89.3599 33.7741 89.5868 32.6409 88.9078 32.0863C87.8098 31.1856 86.7283 30.2642 85.7163 29.2756C84.7043 28.287 83.9046 27.1968 83.0005 26.1445C82.2026 25.2197 81.2547 24.3896 80.6435 23.3373C80.3452 22.8206 80.1109 22.2867 79.8657 21.7562C78.9508 22.3945 78.078 23.0847 77.2524 23.8229C77.3915 24.1209 77.5342 24.4171 77.6916 24.7082C78.3541 25.9396 79.399 26.9454 80.3378 27.9822Z" fill="#7FB2E0"/>
<path d="M80.3378 27.9822C81.2656 29.0035 82.0544 30.1143 83.0261 31.1046C84.1008 32.1714 85.2371 33.1816 86.43 34.1306C87.1071 34.6835 88.013 34.8867 88.756 34.2736C89.3599 33.7741 89.5868 32.6409 88.9078 32.0863C87.8098 31.1856 86.7283 30.2642 85.7163 29.2756C84.7043 28.287 83.9046 27.1968 83.0005 26.1445C82.2026 25.2197 81.2547 24.3896 80.6435 23.3373C80.3452 22.8206 80.1109 22.2867 79.8657 21.7562C78.9508 22.3945 78.078 23.0847 77.2524 23.8229C77.3915 24.1209 77.5342 24.4171 77.6916 24.7082C78.3541 25.9396 79.399 26.9454 80.3378 27.9822Z" fill="url(#paint36_radial_511_328)"/>
<path d="M76.9868 32.3395C78.8267 34.52 80.5148 36.8323 82.8979 38.4122C84.5877 39.5305 86.2949 36.8196 84.6033 35.6978C82.3892 34.2315 80.8494 32.0112 79.1388 29.984C78.3611 29.0624 77.5868 28.1209 77.0799 26.999C76.7781 26.3173 76.5333 25.6301 76.2177 24.979C75.4358 25.8409 74.7067 26.7535 74.0347 27.7114C74.1882 28.1191 74.3365 28.5267 74.5158 28.9036C75.121 30.168 76.0988 31.2862 76.9868 32.3395Z" fill="#7FB2E0"/>
<path d="M76.9868 32.3395C78.8267 34.52 80.5148 36.8323 82.8979 38.4122C84.5877 39.5305 86.2949 36.8196 84.6033 35.6978C82.3892 34.2315 80.8494 32.0112 79.1388 29.984C78.3611 29.0624 77.5868 28.1209 77.0799 26.999C76.7781 26.3173 76.5333 25.6301 76.2177 24.979C75.4358 25.8409 74.7067 26.7535 74.0347 27.7114C74.1882 28.1191 74.3365 28.5267 74.5158 28.9036C75.121 30.168 76.0988 31.2862 76.9868 32.3395Z" fill="url(#paint37_radial_511_328)"/>
<path d="M112.554 46.4032C110.859 45.3039 112.579 42.6729 114.272 43.7775C117.655 45.969 121.712 46.0058 125.537 46.8198C125.482 47.8719 125.366 48.9199 125.19 49.9584C123.147 49.4717 121.053 49.2582 118.991 48.8731C116.696 48.4267 114.526 47.6775 112.554 46.4032Z" fill="#7FB2E0"/>
<path d="M112.554 46.4032C110.859 45.3039 112.579 42.6729 114.272 43.7775C117.655 45.969 121.712 46.0058 125.537 46.8198C125.482 47.8719 125.366 48.9199 125.19 49.9584C123.147 49.4717 121.053 49.2582 118.991 48.8731C116.696 48.4267 114.526 47.6775 112.554 46.4032Z" fill="url(#paint38_radial_511_328)"/>
<path d="M118.679 53.7209C117.361 53.305 116.011 53.0499 114.706 52.5815C113.288 52.0505 111.9 51.4388 110.549 50.7493C109.767 50.3659 109.229 49.628 109.523 48.7002C109.764 47.9442 110.745 47.2677 111.527 47.653C112.799 48.2751 114.08 48.8702 115.401 49.3784C116.722 49.8866 118.054 50.1579 119.391 50.5414C120.569 50.8796 121.716 51.395 122.943 51.5126C123.539 51.5686 124.137 51.5578 124.731 51.5596C124.477 52.6561 124.159 53.736 123.778 54.7935C123.444 54.7935 123.109 54.7844 122.775 54.7645C121.365 54.6722 120.01 54.1424 118.679 53.7209Z" fill="#7FB2E0"/>
<path d="M118.679 53.7209C117.361 53.305 116.011 53.0499 114.706 52.5815C113.288 52.0505 111.9 51.4388 110.549 50.7493C109.767 50.3659 109.229 49.628 109.523 48.7002C109.764 47.9442 110.745 47.2677 111.527 47.653C112.799 48.2751 114.08 48.8702 115.401 49.3784C116.722 49.8866 118.054 50.1579 119.391 50.5414C120.569 50.8796 121.716 51.395 122.943 51.5126C123.539 51.5686 124.137 51.5578 124.731 51.5596C124.477 52.6561 124.159 53.736 123.778 54.7935C123.444 54.7935 123.109 54.7844 122.775 54.7645C121.365 54.6722 120.01 54.1424 118.679 53.7209Z" fill="url(#paint39_radial_511_328)"/>
<path d="M117.081 57.7985C114.406 56.9031 111.672 56.2011 109.319 54.5482C107.647 53.3787 109.371 50.6836 111.044 51.8619C113.235 53.3967 115.823 53.9912 118.311 54.8239C119.441 55.2036 120.591 55.5779 121.788 55.6137C122.514 55.6352 123.222 55.5975 123.927 55.6441C123.476 56.7289 122.958 57.7829 122.376 58.7996C121.952 58.8157 121.53 58.8354 121.125 58.8103C119.757 58.7226 118.372 58.2319 117.081 57.7985Z" fill="#7FB2E0"/>
<path d="M117.081 57.7985C114.406 56.9031 111.672 56.2011 109.319 54.5482C107.647 53.3787 109.371 50.6836 111.044 51.8619C113.235 53.3967 115.823 53.9912 118.311 54.8239C119.441 55.2036 120.591 55.5779 121.788 55.6137C122.514 55.6352 123.222 55.5975 123.927 55.6441C123.476 56.7289 122.958 57.7829 122.376 58.7996C121.952 58.8157 121.53 58.8354 121.125 58.8103C119.757 58.7226 118.372 58.2319 117.081 57.7985Z" fill="url(#paint40_radial_511_328)"/>
<path d="M105.315 8.38061C105.977 11.8482 103.346 12.4934 100.085 13.1949C96.8241 13.8964 94.1635 14.3889 93.5018 10.9231C92.8401 7.45737 94.3208 0.762078 97.5816 0.0605629C100.842 -0.640952 104.652 4.91302 105.315 8.38061Z" fill="#7FB2E0"/>
<path d="M102.937 7.83914C103.377 10.0769 101.623 10.5004 99.4482 10.9548C97.2734 11.4093 95.4991 11.7277 95.0602 9.48477C94.6212 7.24184 95.6043 2.91094 97.7791 2.45651C99.9539 2.00207 102.496 5.59622 102.937 7.83914Z" fill="#4782AC"/>
<path d="M127.313 22.7297C124.07 23.4146 124.546 26.0753 125.23 29.3353C125.915 32.5952 126.541 35.2251 129.793 34.5385C133.044 33.8519 138.23 29.9944 137.547 26.7344C136.864 23.4745 130.564 22.0431 127.313 22.7297Z" fill="#7FB2E0"/>
<path d="M128.921 24.2868C126.687 24.7429 127.017 26.5157 127.489 28.6894C127.962 30.8631 128.39 32.6175 130.626 32.158C132.862 31.6985 136.43 29.1305 135.954 26.9551C135.478 24.7797 131.157 23.8273 128.921 24.2868Z" fill="#4782AC"/>
<path d="M113.077 69.255C112.29 70.4532 111.166 71.3906 109.846 71.9487C108.527 72.5069 107.072 72.6608 105.665 72.391C104.258 72.1211 102.963 71.4396 101.943 70.4326C100.923 69.4257 100.224 68.1384 99.9349 66.7338C99.6455 65.3291 99.7785 63.87 100.317 62.541C100.856 61.2121 101.776 60.0729 102.961 59.2675C104.146 58.4622 105.543 58.0268 106.976 58.0165C108.408 58.0062 109.811 58.4214 111.008 59.2097C111.803 59.7329 112.487 60.408 113.021 61.1961C113.555 61.9842 113.929 62.87 114.121 63.8029C114.313 64.7358 114.32 65.6975 114.141 66.633C113.962 67.5685 113.6 68.4595 113.077 69.255Z" fill="#EBA7BE"/>
<path d="M118.887 74.1532C115.729 72.6474 113.098 70.2684 111.032 67.3566C110.037 65.9581 109.113 64.4504 107.715 63.4718C106.427 62.5597 104.861 62.2157 103.564 61.3092C103.141 61.0114 102.768 61.7458 103.189 62.0492C104.417 62.9075 105.855 63.309 107.13 64.0748C108.763 65.0553 109.762 67.0125 110.886 68.5369C112.902 71.2781 115.519 73.4625 118.511 74.9025C118.973 75.106 119.351 74.3752 118.887 74.1532Z" fill="url(#paint41_radial_511_328)"/>
<path d="M116.509 76.693C113.559 75.0318 111.231 72.6592 109.499 69.8708C108.666 68.5317 107.918 67.1038 106.647 66.0834C105.476 65.1452 103.971 64.6769 102.793 63.7403C102.407 63.4347 101.963 64.0443 102.347 64.3483C103.463 65.2356 104.836 65.7384 106.009 66.5484C107.512 67.5852 108.289 69.4189 109.233 70.8813C110.928 73.5119 113.271 75.7142 116.061 77.2993C116.492 77.5408 116.941 76.9362 116.509 76.693Z" fill="url(#paint42_radial_511_328)"/>
<path d="M122.855 69.3548C119.555 68.5658 116.626 66.8845 114.125 64.6102C112.925 63.5186 111.774 62.3135 110.259 61.6688C108.863 61.0774 107.3 61.0551 105.898 60.4654C105.438 60.2729 105.212 61.0121 105.665 61.2029C106.995 61.7599 108.445 61.8579 109.801 62.3203C111.541 62.9117 112.844 64.5139 114.19 65.6949C116.604 67.8231 119.498 69.3316 122.622 70.0906C123.104 70.2075 123.341 69.47 122.855 69.3548Z" fill="url(#paint43_radial_511_328)"/>
<path d="M68.7862 40.1542C67.9995 41.2861 67.5854 42.6132 67.5963 43.9676C67.6071 45.3221 68.0424 46.6431 68.8471 47.7636C69.6518 48.8841 70.7898 49.7538 72.1172 50.2628C73.4445 50.7717 74.9017 50.897 76.3044 50.6229C77.707 50.3488 78.9923 49.6875 79.9976 48.7226C81.0028 47.7578 81.683 46.5328 81.9521 45.2024C82.2212 43.8721 82.0671 42.4961 81.5093 41.2486C80.9515 40.001 80.015 38.9379 78.8183 38.1936C78.0236 37.6991 77.1336 37.3575 76.1992 37.1884C75.2648 37.0192 74.3043 37.0259 73.3726 37.208C72.4409 37.3901 71.5563 37.744 70.7694 38.2495C69.9824 38.755 69.3085 39.4023 68.7862 40.1542Z" fill="#EBA7BE"/>
<path d="M61.7704 35.5592C64.2876 38.0021 67.333 39.591 70.6278 40.4266C72.2073 40.8335 73.8556 41.1267 75.2424 42.076C76.5208 42.9538 77.4241 44.3209 78.7025 45.2097C79.1188 45.4993 78.6371 46.1462 78.2224 45.8566C77.018 45.0155 76.1113 43.7931 74.962 42.8713C73.4892 41.6893 71.4279 41.4987 69.6919 41.0186C66.5668 40.1607 63.6839 38.508 61.2904 36.2025C60.9256 35.8506 61.3936 35.2 61.7704 35.5592Z" fill="url(#paint44_radial_511_328)"/>
<path d="M60.1198 39.558C62.8584 41.5964 66.0402 42.7533 69.3846 43.1817C70.9883 43.3871 72.6486 43.4801 74.1188 44.2351C75.4744 44.925 76.515 46.1242 77.8655 46.8229C78.3105 47.0511 77.9014 47.7218 77.4598 47.4953C76.1745 46.8334 75.156 45.7713 73.9237 45.0251C72.3456 44.0683 70.2883 44.121 68.5203 43.8629C65.3422 43.4029 62.3204 42.1588 59.7142 40.2375C59.3137 39.9338 59.7176 39.2596 60.1198 39.558Z" fill="url(#paint45_radial_511_328)"/>
<path d="M64.2611 30.7658C66.3487 33.4989 69.128 35.5342 72.292 36.9387C73.8096 37.6142 75.4155 38.1984 76.6384 39.3409C77.766 40.3939 78.426 41.8277 79.5519 42.8892C79.9207 43.2339 79.3172 43.7422 78.9519 43.3976C77.8931 42.3912 77.1996 41.0918 76.2114 40.0216C74.9426 38.6516 72.9026 38.0846 71.2403 37.3126C68.2489 35.9306 65.6452 33.861 63.6523 31.2811C63.3576 30.8761 63.9523 30.3643 64.2611 30.7658Z" fill="url(#paint46_radial_511_328)"/>
<path d="M92.458 52.6246C92.8011 52.1204 92.0164 51.6015 91.6733 52.1039C90.7845 53.4066 89.8246 55.784 87.8919 55.3699C86.5214 55.0829 85.2384 53.4544 85.4739 52.0468C85.5761 51.4433 84.6362 51.3991 84.5358 51.9953C84.2256 53.8353 85.7695 55.5668 87.37 56.2017C89.8866 57.199 91.3174 54.2935 92.458 52.6246Z" fill="url(#paint47_radial_511_328)"/>
<path d="M91.2328 52.5764C91.5385 52.0925 92.281 52.5764 91.9754 53.0603C91.1861 54.3095 89.5023 56.0134 90.5782 57.532C91.3398 58.6097 93.224 59.1159 94.35 58.39C94.8284 58.0811 95.2135 58.8756 94.7437 59.1828C93.2706 60.1317 91.2034 59.4367 90.0567 58.2905C88.2537 56.487 90.2208 54.1757 91.2328 52.5764Z" fill="url(#paint48_radial_511_328)"/>
<path d="M112.66 7.38725C113.298 6.39525 114.212 5.55061 115.122 4.79505C117.015 3.22567 119.247 1.84988 121.793 1.65628C124.28 1.46953 127.386 1.84129 129.43 3.34213C130.724 4.25948 131.702 5.5318 132.235 6.99318C133.157 9.56313 132.688 12.1125 132.401 14.7373C132.37 15.02 132.342 15.3044 132.303 15.5939L130.412 15.3901C130.156 13.0688 129.534 10.7988 128.568 8.6585C128.568 8.6585 127.806 10.2759 126.482 10.4112C126.482 10.4112 128.673 12.1862 126.819 16.9217L112.66 7.38725Z" fill="#EBA7BE"/>
<path d="M127.949 17.5939C127.9 18.6061 127.076 19.4079 126.48 20.147C126.175 20.5245 125.908 20.9488 125.547 21.2758C125.257 21.5345 124.896 21.6993 124.512 21.7488C123.37 21.848 122.569 20.9245 121.707 20.3349C120.801 19.7157 119.687 19.4392 118.883 18.6687C118.31 18.1191 117.749 17.5348 117.052 17.1434C116.326 16.7365 115.477 16.6217 114.772 16.1712C113.488 15.3538 112.137 14.432 111.073 13.3276C110.329 12.5607 108.701 12.5607 108.639 11.2406C108.599 10.371 109.303 9.46488 109.691 8.7118C110.079 7.95873 110.533 7.0752 111.313 6.64909C112.52 5.9882 113.714 7.10652 114.69 7.6648C115.814 8.30483 117.032 8.74311 118.096 9.4927C118.614 9.86141 119.131 10.2562 119.687 10.571C120.894 11.2493 121.757 12.1467 122.852 12.9763C123.834 13.7172 125.095 13.9103 126.094 14.6216C126.515 14.926 126.888 15.2924 127.202 15.7086C127.604 16.2269 127.978 16.9121 127.949 17.5939Z" fill="#DE6C92"/>
<path d="M134.216 18.992C134.033 19.5633 133.671 20.0617 133.181 20.414C132.692 20.7664 132.102 20.9542 131.497 20.95C131.035 20.9078 130.583 20.7989 130.153 20.6266C128.763 20.1344 127.994 18.886 127.951 17.4489C127.964 17.1356 128.026 16.8261 128.132 16.5309C128.27 16.0092 128.562 15.5405 128.972 15.1853C129.381 14.8302 129.889 14.605 130.429 14.5388C131.607 14.3807 132.914 14.7561 133.661 15.7118L133.73 15.8034C134.052 16.2626 134.263 16.7888 134.347 17.3416C134.432 17.8945 134.387 18.4591 134.216 18.992Z" fill="#DE6C92"/>
<path d="M189.33 163.477C189.456 158.277 187.257 148.259 194.481 146.52C197.16 145.878 199.975 146.2 202.694 146.22C206.994 146.253 212.07 144.809 215.95 147.392C219.717 149.899 219.36 155.442 219.379 159.394C219.394 162.451 220.047 165.485 219.413 168.523C218.418 173.285 214 173.931 209.883 173.833C205.624 173.729 201.527 173.782 197.265 174.029C194.939 174.164 192.17 173.667 190.658 171.752C188.931 169.563 189.252 166.245 189.327 163.642C189.327 163.589 189.328 163.534 189.33 163.477Z" fill="#DE6C92"/>
<path d="M191.816 128.358C194.337 124.788 196.641 129.401 197.827 132.286C199.326 135.936 200.292 140.09 202.127 143.451C201.332 140.367 200.351 137.421 200.076 134.131C199.762 130.311 198.979 125.263 200.897 122.001C201.447 121.068 202.33 120.616 203.158 121.01C203.985 121.404 204.583 122.37 204.937 123.433C206.646 128.556 205.509 134.883 205.003 140.227C204.923 141.092 204.899 142.532 204.583 143.275C204.896 142.546 205.219 141.825 205.53 141.096C206.444 138.951 207.637 137.158 208.622 135.092C209.632 132.964 210.062 130.059 211.527 128.407C212.202 127.647 213.017 127.317 213.865 127.636C214.713 127.955 215.35 128.803 215.745 129.858C216.124 130.853 216.283 131.958 216.388 133.067C216.488 134.143 216.531 135.225 216.318 136.28C215.882 138.432 214.573 139.872 213.304 141.032C211.814 142.398 210.245 143.57 208.673 144.732C207.477 145.618 206.316 146.706 205.003 147.215C202.158 148.318 199.155 145.432 196.817 143.469C195.373 142.291 194.092 140.913 193.009 139.374C191.999 137.898 191.112 136.059 190.825 134.012C190.555 132.04 190.775 129.828 191.816 128.358ZM204.518 127.742C204.478 127.066 204.398 126.394 204.279 125.728C204.038 124.426 203.327 121.753 202.016 122.713C200.876 123.546 200.883 126.306 200.902 127.845C200.963 133.221 201.992 137.969 203.241 142.981C203.286 143.158 203.329 143.336 203.368 143.513C203.431 143.071 203.501 142.626 203.571 142.192C203.677 141.52 203.782 140.846 203.853 140.163C203.853 140.136 203.853 140.11 203.853 140.083C204.098 137.706 204.289 135.312 204.419 132.919C204.52 131.204 204.619 129.457 204.518 127.742ZM205.398 145.388C206.222 144.985 207.022 144.301 207.791 143.792C208.796 143.118 209.796 142.422 210.763 141.644C212.243 140.452 213.927 139.01 214.853 136.919C215.69 135.032 215.461 131.368 214.289 129.807C213.496 128.752 212.486 129.202 211.847 130.264L211.77 130.401C211.527 130.884 211.315 131.383 211.134 131.894C210.435 133.758 209.82 135.665 208.888 137.332C207.444 139.922 205.954 142.536 204.993 145.567C205.132 145.51 205.265 145.452 205.398 145.388ZM191.827 132.579C191.895 137.4 195.291 140.404 197.926 142.488C198.878 143.242 199.856 143.933 200.832 144.616C201.079 144.794 201.315 144.951 201.549 145.102C200.976 144.066 200.477 142.986 200.057 141.873C199.642 140.808 199.266 139.716 198.875 138.634C198.424 137.392 197.966 136.139 197.484 134.909C197.026 133.746 196.532 132.62 196.034 131.494C195.537 130.367 194.814 128.59 193.722 128.728C192.967 128.822 192.203 130.096 191.982 131.023C191.865 131.533 191.813 132.056 191.827 132.579Z" fill="url(#paint49_radial_511_328)"/>
<path d="M188.331 153.741C188.389 153.544 188.522 153.378 188.701 153.276C188.88 153.175 189.092 153.147 189.291 153.198C191.042 153.528 192.874 152.926 194.598 152.681C195.647 152.529 196.712 152.491 197.767 152.436C198.823 152.381 199.889 152.343 200.95 152.321C201.73 152.303 202.506 152.3 203.29 152.283C203.29 152.21 203.278 152.136 203.273 152.062C203.186 151.057 203.043 150.055 202.941 149.052C202.848 148.222 202.815 147.387 202.841 146.553C202.859 146.36 202.949 146.18 203.093 146.05C203.237 145.919 203.424 145.847 203.618 145.847C203.813 145.847 204 145.919 204.144 146.05C204.288 146.18 204.378 146.36 204.396 146.553C204.315 148.45 204.683 150.336 204.84 152.228C205.694 152.19 206.548 152.15 207.403 152.109C209.563 152.003 211.723 151.891 213.881 151.814C215.566 151.752 217.249 151.714 218.934 151.714C219.941 151.714 219.941 153.266 218.934 153.266C214.614 153.266 210.294 153.526 205.974 153.729C205.628 153.747 205.272 153.759 204.92 153.771C204.97 155.44 204.92 157.112 205.027 158.78C205.302 163.047 205.616 167.332 205.658 171.61C205.658 172.439 205.658 173.27 205.658 174.101C205.658 175.107 204.102 175.107 204.102 174.101C204.102 172.032 204.085 169.963 203.99 167.882C203.893 165.739 203.746 163.599 203.624 161.456C203.504 159.345 203.394 157.242 203.373 155.128C203.373 154.69 203.373 154.254 203.354 153.817C202.084 153.848 200.814 153.869 199.542 153.912C197.546 153.979 195.554 154.059 193.587 154.419C192.032 154.704 190.448 154.997 188.87 154.698C188.457 154.621 188.225 154.124 188.331 153.741Z" fill="url(#paint50_radial_511_328)"/>
<path d="M212.517 148.596C212.591 148.442 212.712 148.331 212.852 148.286C212.993 148.242 213.142 148.267 213.267 148.357C213.681 148.761 214.122 149.122 214.584 149.437C215.212 149.835 214.658 150.999 214.031 150.6C213.568 150.287 213.127 149.926 212.714 149.523C212.59 149.429 212.5 149.281 212.463 149.108C212.427 148.935 212.446 148.751 212.517 148.596Z" fill="white"/>
<path d="M208.491 148.313C208.766 147.925 208.955 147.484 209.045 147.017C209.181 146.379 210.154 146.65 210.02 147.288C209.909 147.84 209.685 148.364 209.362 148.825C209.292 148.938 209.181 149.02 209.052 149.054C208.924 149.087 208.787 149.069 208.671 149.004C208.556 148.936 208.473 148.825 208.439 148.696C208.405 148.566 208.424 148.428 208.491 148.313Z" fill="white"/>
<path d="M212.849 154.71C213.386 154.71 213.386 155.515 212.849 155.515C212.313 155.515 212.313 154.71 212.849 154.71Z" fill="white"/>
<path d="M214.112 155.799C214.171 155.668 214.267 155.573 214.38 155.535C214.492 155.497 214.612 155.519 214.712 155.596C215.143 156.05 215.525 156.581 215.845 157.173C216.155 157.693 216.48 158.189 216.97 158.406C217.503 158.638 217.28 159.746 216.737 159.514C216.206 159.274 215.739 158.838 215.392 158.258C215.029 157.691 214.727 157.039 214.27 156.588C214.171 156.508 214.1 156.382 214.07 156.235C214.041 156.088 214.056 155.932 214.112 155.799Z" fill="white"/>
<path d="M210.896 160.605C211.149 160.3 211.443 160.027 211.695 159.723C211.75 159.641 211.838 159.582 211.939 159.557C212.041 159.533 212.149 159.546 212.241 159.593C212.412 159.685 212.523 159.937 212.382 160.097C212.129 160.402 211.835 160.675 211.583 160.979C211.528 161.061 211.44 161.121 211.338 161.145C211.237 161.169 211.129 161.156 211.037 161.109C210.869 161.017 210.764 160.765 210.896 160.605Z" fill="white"/>
<path d="M208.41 156.384C209.092 156.718 209.815 157.01 210.572 157.259C210.695 157.309 210.784 157.389 210.82 157.482C210.855 157.575 210.835 157.674 210.763 157.758C210.688 157.839 210.57 157.898 210.432 157.922C210.295 157.946 210.149 157.933 210.025 157.887C209.268 157.637 208.545 157.344 207.863 157.012C207.289 156.755 207.83 156.123 208.41 156.384Z" fill="white"/>
<path d="M207.675 165.124C207.867 164.681 208.149 164.312 208.348 163.863C208.63 163.207 209.451 163.788 209.168 164.442C208.977 164.887 208.694 165.254 208.496 165.703C208.213 166.359 207.392 165.781 207.675 165.124Z" fill="white"/>
<path d="M215.091 163.11C215.377 163.905 215.877 164.592 216.374 165.272C216.763 165.799 215.865 166.289 215.481 165.773C214.919 165.017 214.402 164.257 214.083 163.373C213.876 162.767 214.875 162.509 215.091 163.11Z" fill="white"/>
<path d="M211.987 167.818C212.751 167.537 213.492 167.144 214.251 166.828C214.861 166.578 215.122 167.938 214.512 168.191C213.755 168.509 213.014 168.899 212.248 169.192C211.638 169.408 211.379 168.043 211.987 167.818Z" fill="white"/>
<path d="M210.957 164.273C211.079 164.148 211.212 164.037 211.354 163.943L211.532 163.819L211.574 163.788C211.542 163.811 211.618 163.744 211.628 163.733C211.718 163.631 211.84 163.574 211.967 163.574C212.094 163.574 212.216 163.631 212.306 163.733C212.396 163.834 212.446 163.972 212.446 164.116C212.446 164.259 212.396 164.397 212.306 164.498C212.185 164.625 212.052 164.736 211.909 164.829C211.85 164.87 211.791 164.91 211.74 164.952L211.698 164.984C211.728 164.961 211.654 165.028 211.643 165.04C211.553 165.136 211.432 165.188 211.308 165.186C211.183 165.183 211.065 165.127 210.977 165.027C210.889 164.928 210.838 164.794 210.836 164.653C210.834 164.513 210.881 164.377 210.966 164.274L210.957 164.273Z" fill="white"/>
<path d="M209.582 170.508C209.613 170.915 209.745 171.311 209.968 171.67C210.296 172.251 209.296 172.765 208.966 172.18C208.647 171.664 208.462 171.093 208.423 170.508C208.403 169.857 209.563 169.859 209.582 170.508Z" fill="white"/>
<path d="M214.421 171.507C214.877 171.352 215.312 171.146 215.714 170.892C215.83 170.828 215.967 170.81 216.097 170.841C216.226 170.873 216.337 170.951 216.405 171.06C216.47 171.169 216.488 171.297 216.454 171.418C216.421 171.539 216.339 171.643 216.226 171.708C215.748 172.005 215.232 172.244 214.691 172.421C214.627 172.437 214.56 172.442 214.493 172.434C214.427 172.426 214.364 172.406 214.306 172.374C214.248 172.343 214.198 172.301 214.157 172.252C214.117 172.202 214.087 172.145 214.07 172.085C214.039 171.965 214.058 171.838 214.123 171.731C214.189 171.623 214.295 171.543 214.421 171.507Z" fill="white"/>
<path d="M198.838 148.566C198.911 148.426 199.027 148.325 199.162 148.284C199.298 148.243 199.441 148.265 199.562 148.345C199.908 148.538 200.287 148.636 200.669 148.634C201.351 148.634 201.351 149.887 200.669 149.876C200.1 149.871 199.538 149.715 199.027 149.42C198.906 149.335 198.818 149.198 198.783 149.038C198.747 148.878 198.767 148.709 198.838 148.566Z" fill="white"/>
<path d="M209.703 149.876H211.169C211.799 149.876 211.799 151.488 211.169 151.488H209.703C209.068 151.488 209.068 149.876 209.703 149.876Z" fill="white"/>
<path d="M194.073 148.391C194.164 148.31 194.286 148.264 194.414 148.264C194.541 148.264 194.663 148.31 194.754 148.391C195.228 148.916 195.62 149.508 196.195 149.955C196.664 150.321 195.982 150.934 195.514 150.57C194.941 150.121 194.551 149.531 194.073 149.005C193.986 148.922 193.938 148.812 193.938 148.698C193.938 148.584 193.986 148.474 194.073 148.391Z" fill="white"/>
<path d="M191.207 150.878C191.816 150.769 192.453 150.748 193.088 150.693C193.173 150.682 193.262 150.679 193.349 150.684C193.437 150.689 193.521 150.702 193.598 150.722C193.674 150.742 193.742 150.769 193.796 150.801C193.85 150.833 193.89 150.87 193.913 150.909C193.937 150.948 193.943 150.989 193.932 151.03C193.922 151.07 193.894 151.109 193.85 151.144C193.806 151.18 193.748 151.211 193.679 151.236C193.609 151.261 193.53 151.279 193.445 151.29C192.81 151.346 192.175 151.369 191.563 151.476C191.478 151.486 191.389 151.489 191.301 151.484C191.213 151.479 191.128 151.466 191.052 151.445C190.975 151.425 190.908 151.398 190.854 151.365C190.8 151.333 190.761 151.296 190.738 151.256C190.697 151.177 190.722 151.094 190.809 151.024C190.896 150.954 191.039 150.902 191.207 150.878Z" fill="white"/>
<path d="M201.985 156.105V158.156C201.985 158.934 201.18 158.934 201.18 158.156V156.105C201.18 155.32 201.985 155.32 201.985 156.105Z" fill="white"/>
<path d="M196.116 157.161C196.942 157.496 197.63 158.132 198.447 158.465C199.01 158.694 198.767 159.745 198.199 159.512C197.374 159.179 196.686 158.55 195.868 158.209C195.304 157.979 195.547 156.93 196.116 157.161Z" fill="white"/>
<path d="M191.542 157.456C191.694 157.069 191.964 156.718 192.326 156.438C192.754 156.082 193.422 156.628 192.996 156.985C192.748 157.172 192.563 157.407 192.457 157.668C192.291 158.14 191.38 157.931 191.542 157.456Z" fill="white"/>
<path d="M198.244 154.938C198.315 154.919 198.383 154.898 198.447 154.874C198.496 154.851 198.543 154.827 198.59 154.801C198.643 154.773 198.706 154.75 198.776 154.734C198.846 154.718 198.921 154.71 198.996 154.71C199.072 154.71 199.147 154.718 199.216 154.734C199.286 154.75 199.349 154.773 199.403 154.801C199.456 154.83 199.499 154.864 199.528 154.902C199.556 154.94 199.571 154.98 199.571 155.021C199.571 155.061 199.556 155.102 199.528 155.139C199.499 155.177 199.456 155.211 199.403 155.24C199.235 155.334 199.041 155.413 198.828 155.475C198.696 155.515 198.54 155.526 198.393 155.505C198.246 155.485 198.12 155.435 198.041 155.365C197.963 155.294 197.941 155.209 197.98 155.129C198.018 155.049 198.113 154.981 198.244 154.938Z" fill="white"/>
<path d="M201.984 163.165V163.984C201.984 164.512 201.179 164.512 201.179 163.984V163.165C201.179 162.637 201.984 162.637 201.984 163.165Z" fill="white"/>
<path d="M195.765 163.518C196.537 163.076 197.43 162.813 198.032 162.11C198.41 161.667 199.025 162.323 198.65 162.766C197.989 163.538 197.045 163.835 196.206 164.32C195.708 164.604 195.271 163.804 195.765 163.518Z" fill="white"/>
<path d="M193.43 159.595C193.57 159.546 193.734 159.533 193.888 159.558C194.043 159.583 194.176 159.645 194.261 159.731C194.541 159.993 194.875 160.23 195.254 160.436C195.389 160.489 195.487 160.573 195.527 160.671C195.567 160.768 195.546 160.872 195.469 160.96C195.318 161.123 194.902 161.231 194.641 161.096C194.095 160.812 193.614 160.483 193.212 160.116C193.133 160.028 193.111 159.925 193.152 159.827C193.193 159.73 193.293 159.646 193.43 159.595Z" fill="white"/>
<path d="M189.496 163.076C189.775 162.533 190.957 162.768 190.676 163.318C190.448 163.775 190.33 164.258 190.329 164.746C190.329 165.333 189.1 165.333 189.109 164.746C189.105 164.177 189.236 163.611 189.496 163.076Z" fill="white"/>
<path d="M193.24 166.407C193.263 166.336 193.304 166.269 193.359 166.211C193.414 166.152 193.483 166.103 193.561 166.067C193.639 166.03 193.726 166.006 193.816 165.996C193.905 165.987 193.996 165.992 194.084 166.011C194.259 166.052 194.407 166.147 194.498 166.275C194.589 166.404 194.615 166.556 194.57 166.7C194.446 167.309 194.493 167.933 194.709 168.524C194.972 169.215 193.646 169.514 193.383 168.821C193.108 168.036 193.059 167.21 193.24 166.407Z" fill="white"/>
<path d="M197.571 166.797H199.963C200.514 166.797 200.514 168.409 199.963 168.409H197.571C197.019 168.409 197.019 166.797 197.571 166.797Z" fill="white"/>
<path d="M201.224 171.866C201.339 171.604 201.397 171.295 201.49 171.016C201.526 170.928 201.585 170.864 201.653 170.839C201.721 170.813 201.794 170.828 201.855 170.879C201.915 170.932 201.958 171.017 201.976 171.116C201.993 171.214 201.984 171.319 201.949 171.408C201.855 171.682 201.798 171.994 201.683 172.258C201.499 172.677 201.035 172.288 201.224 171.866Z" fill="white"/>
<path d="M195.218 171.29C195.943 171.255 196.66 171.107 197.352 170.851C197.964 170.648 198.223 171.757 197.613 171.958C196.836 172.24 196.031 172.402 195.218 172.438C194.583 172.448 194.583 171.3 195.218 171.29Z" fill="white"/>
<path d="M190.38 169.23C190.461 169.215 190.546 169.211 190.629 169.219C190.712 169.226 190.792 169.245 190.865 169.275C190.937 169.304 191.001 169.343 191.052 169.39C191.103 169.436 191.141 169.49 191.162 169.547C191.274 170.05 191.62 170.514 192.145 170.867C192.717 171.278 191.818 171.909 191.243 171.499C190.559 171.039 190.1 170.439 189.934 169.784C189.892 169.669 189.914 169.547 189.998 169.444C190.081 169.34 190.218 169.264 190.38 169.23Z" fill="white"/>
<path d="M191.121 159.546C191.658 159.546 191.658 160.351 191.121 160.351C190.584 160.351 190.584 159.546 191.121 159.546Z" fill="white"/>
<path d="M189.512 155.516C190.048 155.516 190.048 156.321 189.512 156.321C188.975 156.321 188.975 155.516 189.512 155.516Z" fill="white"/>
<path d="M207.217 149.876C207.753 149.876 207.753 151.487 207.217 151.487C206.68 151.487 206.68 149.876 207.217 149.876Z" fill="white"/>
<defs>
<radialGradient id="paint0_radial_511_328" cx="0" cy="0" r="1" gradientUnits="userSpaceOnUse" gradientTransform="translate(-30323.2 65756.1) rotate(-169.355) scale(425.082 1658.9)">
<stop offset="0.57" stop-color="#130C0E"/>
<stop offset="0.8" stop-color="#130C0E"/>
<stop offset="1" stop-color="#130C0E"/>
</radialGradient>
<radialGradient id="paint1_radial_511_328" cx="0" cy="0" r="1" gradientUnits="userSpaceOnUse" gradientTransform="translate(-41223.7 59984.2) rotate(-169.462) scale(712.917 1575.02)">
<stop offset="0.57" stop-color="#130C0E"/>
<stop offset="0.8" stop-color="#130C0E"/>
<stop offset="1" stop-color="#130C0E"/>
</radialGradient>
<radialGradient id="paint2_radial_511_328" cx="0" cy="0" r="1" gradientUnits="userSpaceOnUse" gradientTransform="translate(-61225.6 42074.4) rotate(-169.158) scale(1293.86 1248.68)">
<stop offset="0.57" stop-color="#130C0E"/>
<stop offset="0.8" stop-color="#130C0E"/>
<stop offset="1" stop-color="#130C0E"/>
</radialGradient>
<radialGradient id="paint3_radial_511_328" cx="0" cy="0" r="1" gradientUnits="userSpaceOnUse" gradientTransform="translate(-55490.1 44551.1) rotate(-169.005) scale(1190 1286.7)">
<stop offset="0.57" stop-color="#130C0E"/>
<stop offset="0.8" stop-color="#130C0E"/>
<stop offset="1" stop-color="#130C0E"/>
</radialGradient>
<radialGradient id="paint4_radial_511_328" cx="0" cy="0" r="1" gradientUnits="userSpaceOnUse" gradientTransform="translate(-64917.3 19915.5) rotate(-168.507) scale(1585.2 766.825)">
<stop offset="0.57" stop-color="#130C0E"/>
<stop offset="0.8" stop-color="#130C0E"/>
<stop offset="1" stop-color="#130C0E"/>
</radialGradient>
<radialGradient id="paint5_radial_511_328" cx="0" cy="0" r="1" gradientUnits="userSpaceOnUse" gradientTransform="translate(5208.97 44793.1) rotate(5.38657) scale(364.022 768.903)">
<stop offset="0.57" stop-color="#130C0E"/>
<stop offset="0.8" stop-color="#130C0E"/>
<stop offset="1" stop-color="#130C0E"/>
</radialGradient>
<radialGradient id="paint6_radial_511_328" cx="0" cy="0" r="1" gradientUnits="userSpaceOnUse" gradientTransform="translate(6241.89 38295.7) rotate(5.40442) scale(359.296 575.148)">
<stop offset="0.57" stop-color="#130C0E"/>
<stop offset="0.8" stop-color="#130C0E"/>
<stop offset="1" stop-color="#130C0E"/>
</radialGradient>
<radialGradient id="paint7_radial_511_328" cx="0" cy="0" r="1" gradientUnits="userSpaceOnUse" gradientTransform="translate(4884.22 29134) rotate(6.13074) scale(255.625 382.64)">
<stop offset="0.57" stop-color="#130C0E"/>
<stop offset="0.8" stop-color="#130C0E"/>
<stop offset="1" stop-color="#130C0E"/>
</radialGradient>
<radialGradient id="paint8_radial_511_328" cx="0" cy="0" r="1" gradientUnits="userSpaceOnUse" gradientTransform="translate(-50685.4 63223.5) rotate(180) scale(2541.63 1654.25)">
<stop offset="0.57" stop-color="#130C0E"/>
<stop offset="0.8" stop-color="#130C0E"/>
<stop offset="1" stop-color="#130C0E"/>
</radialGradient>
<radialGradient id="paint9_radial_511_328" cx="0" cy="0" r="1" gradientUnits="userSpaceOnUse" gradientTransform="translate(26193.2 117805) rotate(5.29494) scale(2457.03 4566.87)">
<stop offset="0.57" stop-color="#130C0E"/>
<stop offset="0.8" stop-color="#130C0E"/>
<stop offset="1" stop-color="#130C0E"/>
</radialGradient>
<radialGradient id="paint10_radial_511_328" cx="0" cy="0" r="1" gradientUnits="userSpaceOnUse" gradientTransform="translate(15163.3 62485.4) rotate(5.13346) scale(831.15 1553.58)">
<stop offset="0.57" stop-color="#130C0E"/>
<stop offset="0.8" stop-color="#130C0E"/>
<stop offset="1" stop-color="#130C0E"/>
</radialGradient>
<radialGradient id="paint11_radial_511_328" cx="0" cy="0" r="1" gradientUnits="userSpaceOnUse" gradientTransform="translate(12444.1 132706) rotate(4.983) scale(1662.83 5781.48)">
<stop offset="0.57" stop-color="#130C0E"/>
<stop offset="0.8" stop-color="#130C0E"/>
<stop offset="1" stop-color="#130C0E"/>
</radialGradient>
<radialGradient id="paint12_radial_511_328" cx="0" cy="0" r="1" gradientUnits="userSpaceOnUse" gradientTransform="translate(8107.13 83737.7) rotate(5.49484) scale(674.882 2565.01)">
<stop offset="0.57" stop-color="#130C0E"/>
<stop offset="0.8" stop-color="#130C0E"/>
<stop offset="1" stop-color="#130C0E"/>
</radialGradient>
<radialGradient id="paint13_radial_511_328" cx="0" cy="0" r="1" gradientUnits="userSpaceOnUse" gradientTransform="translate(10785 128989) rotate(5.2758) scale(1324.31 5491.34)">
<stop offset="0.57" stop-color="#130C0E"/>
<stop offset="0.8" stop-color="#130C0E"/>
<stop offset="1" stop-color="#130C0E"/>
</radialGradient>
<radialGradient id="paint14_radial_511_328" cx="0" cy="0" r="1" gradientUnits="userSpaceOnUse" gradientTransform="translate(18607 117452) rotate(4.94132) scale(1553.78 4583.93)">
<stop offset="0.57" stop-color="#130C0E"/>
<stop offset="0.8" stop-color="#130C0E"/>
<stop offset="1" stop-color="#130C0E"/>
</radialGradient>
<radialGradient id="paint15_radial_511_328" cx="0" cy="0" r="1" gradientUnits="userSpaceOnUse" gradientTransform="translate(22208.8 97432.2) rotate(5.15535) scale(1305.89 3196.27)">
<stop offset="0.57" stop-color="#130C0E"/>
<stop offset="0.8" stop-color="#130C0E"/>
<stop offset="1" stop-color="#130C0E"/>
</radialGradient>
<radialGradient id="paint16_radial_511_328" cx="0" cy="0" r="1" gradientUnits="userSpaceOnUse" gradientTransform="translate(60109.1 54689.2) rotate(5.0395) scale(2507.19 1395.17)">
<stop offset="0.57" stop-color="#130C0E"/>
<stop offset="0.8" stop-color="#130C0E"/>
<stop offset="1" stop-color="#130C0E"/>
</radialGradient>
<radialGradient id="paint17_radial_511_328" cx="0" cy="0" r="1" gradientUnits="userSpaceOnUse" gradientTransform="translate(35939.1 63134.7) rotate(5.02552) scale(1196.07 1307)">
<stop offset="0.57" stop-color="#130C0E"/>
<stop offset="0.8" stop-color="#130C0E"/>
<stop offset="1" stop-color="#130C0E"/>
</radialGradient>
<radialGradient id="paint18_radial_511_328" cx="0" cy="0" r="1" gradientUnits="userSpaceOnUse" gradientTransform="translate(23174.9 52425.7) rotate(5.38648) scale(690.846 987.453)">
<stop offset="0.57" stop-color="#130C0E"/>
<stop offset="0.8" stop-color="#130C0E"/>
<stop offset="1" stop-color="#130C0E"/>
</radialGradient>
<radialGradient id="paint19_radial_511_328" cx="0" cy="0" r="1" gradientUnits="userSpaceOnUse" gradientTransform="translate(21707.4 43675.4) rotate(5.00841) scale(485.063 672.794)">
<stop offset="0.57" stop-color="#130C0E"/>
<stop offset="0.8" stop-color="#130C0E"/>
<stop offset="1" stop-color="#130C0E"/>
</radialGradient>
<radialGradient id="paint20_radial_511_328" cx="0" cy="0" r="1" gradientUnits="userSpaceOnUse" gradientTransform="translate(18588.8 41187.6) rotate(5.14039) scale(413.632 640.1)">
<stop offset="0.57" stop-color="#130C0E"/>
<stop offset="0.8" stop-color="#130C0E"/>
<stop offset="1" stop-color="#130C0E"/>
</radialGradient>
<radialGradient id="paint21_radial_511_328" cx="0" cy="0" r="1" gradientUnits="userSpaceOnUse" gradientTransform="translate(15028 40530.3) rotate(5.17797) scale(276.633 523.162)">
<stop offset="0.57" stop-color="#130C0E"/>
<stop offset="0.8" stop-color="#130C0E"/>
<stop offset="1" stop-color="#130C0E"/>
</radialGradient>
<radialGradient id="paint22_radial_511_328" cx="0" cy="0" r="1" gradientUnits="userSpaceOnUse" gradientTransform="translate(6463.87 50063.7) rotate(5.53947) scale(390.342 780.706)">
<stop offset="0.57" stop-color="#130C0E"/>
<stop offset="0.8" stop-color="#130C0E"/>
<stop offset="1" stop-color="#130C0E"/>
</radialGradient>
<radialGradient id="paint23_radial_511_328" cx="0" cy="0" r="1" gradientUnits="userSpaceOnUse" gradientTransform="translate(5786.95 35304.8) rotate(5.00359) scale(294.152 458.373)">
<stop offset="0.57" stop-color="#130C0E"/>
<stop offset="0.8" stop-color="#130C0E"/>
<stop offset="1" stop-color="#130C0E"/>
</radialGradient>
<radialGradient id="paint24_radial_511_328" cx="0" cy="0" r="1" gradientUnits="userSpaceOnUse" gradientTransform="translate(7212.53 35780.7) rotate(5.1408) scale(379.415 483.534)">
<stop offset="0.57" stop-color="#130C0E"/>
<stop offset="0.8" stop-color="#130C0E"/>
<stop offset="1" stop-color="#130C0E"/>
</radialGradient>
<radialGradient id="paint25_radial_511_328" cx="0" cy="0" r="1" gradientUnits="userSpaceOnUse" gradientTransform="translate(31355.3 34890.4) rotate(4.94591) scale(797.18 665.599)">
<stop offset="0.57" stop-color="#130C0E"/>
<stop offset="0.8" stop-color="#130C0E"/>
<stop offset="1" stop-color="#130C0E"/>
</radialGradient>
<radialGradient id="paint26_radial_511_328" cx="0" cy="0" r="1" gradientUnits="userSpaceOnUse" gradientTransform="translate(59714.7 33133.6) rotate(5.25624) scale(1622.85 681.204)">
<stop offset="0.57" stop-color="#130C0E"/>
<stop offset="0.8" stop-color="#130C0E"/>
<stop offset="1" stop-color="#130C0E"/>
</radialGradient>
<radialGradient id="paint27_radial_511_328" cx="0" cy="0" r="1" gradientUnits="userSpaceOnUse" gradientTransform="translate(33348.3 35000.1) rotate(5.66856) scale(869.803 767.155)">
<stop offset="0.57" stop-color="#130C0E"/>
<stop offset="0.8" stop-color="#130C0E"/>
<stop offset="1" stop-color="#130C0E"/>
</radialGradient>
<radialGradient id="paint28_radial_511_328" cx="0" cy="0" r="1" gradientUnits="userSpaceOnUse" gradientTransform="translate(45789.6 24427.4) rotate(4.78263) scale(951.71 433.641)">
<stop offset="0.57" stop-color="#130C0E"/>
<stop offset="0.8" stop-color="#130C0E"/>
<stop offset="1" stop-color="#130C0E"/>
</radialGradient>
<radialGradient id="paint29_radial_511_328" cx="0" cy="0" r="1" gradientUnits="userSpaceOnUse" gradientTransform="translate(61497.3 23304.7) rotate(4.97445) scale(1619.86 521.628)">
<stop offset="0.57" stop-color="#130C0E"/>
<stop offset="0.8" stop-color="#130C0E"/>
<stop offset="1" stop-color="#130C0E"/>
</radialGradient>
<radialGradient id="paint30_radial_511_328" cx="0" cy="0" r="1" gradientUnits="userSpaceOnUse" gradientTransform="translate(52424.8 39036.8) rotate(5.31054) scale(1348.84 1012.42)">
<stop offset="0.57" stop-color="#130C0E"/>
<stop offset="0.8" stop-color="#130C0E"/>
<stop offset="1" stop-color="#130C0E"/>
</radialGradient>
<radialGradient id="paint31_radial_511_328" cx="0" cy="0" r="1" gradientUnits="userSpaceOnUse" gradientTransform="translate(31772.4 36733.1) rotate(5.06776) scale(784.774 995.594)">
<stop offset="0.57" stop-color="#130C0E"/>
<stop offset="0.8" stop-color="#130C0E"/>
<stop offset="1" stop-color="#130C0E"/>
</radialGradient>
<radialGradient id="paint32_radial_511_328" cx="0" cy="0" r="1" gradientUnits="userSpaceOnUse" gradientTransform="translate(35264.3 63214.1) rotate(18.194) scale(695.436 556.311)">
<stop offset="0.57" stop-color="#130C0E"/>
<stop offset="0.8" stop-color="#130C0E"/>
<stop offset="1" stop-color="#130C0E"/>
</radialGradient>
<radialGradient id="paint33_radial_511_328" cx="0" cy="0" r="1" gradientUnits="userSpaceOnUse" gradientTransform="translate(7960.37 28568.9) rotate(4.72934) scale(56.2309 87.4893)">
<stop offset="0.57" stop-color="#130C0E"/>
<stop offset="0.8" stop-color="#130C0E"/>
<stop offset="1" stop-color="#130C0E"/>
</radialGradient>
<radialGradient id="paint34_radial_511_328" cx="0" cy="0" r="1" gradientUnits="userSpaceOnUse" gradientTransform="translate(1503.6 21718.1) rotate(-116.159) scale(59.8353 81.6984)">
<stop offset="0.57" stop-color="#130C0E"/>
<stop offset="0.8" stop-color="#130C0E"/>
<stop offset="1" stop-color="#130C0E"/>
</radialGradient>
<radialGradient id="paint35_radial_511_328" cx="0" cy="0" r="1" gradientUnits="userSpaceOnUse" gradientTransform="translate(14977.8 41335.5) rotate(33.7982) scale(362.711 413.458)">
<stop offset="0.57" stop-color="#130C0E"/>
<stop offset="0.8" stop-color="#130C0E"/>
<stop offset="1" stop-color="#130C0E"/>
</radialGradient>
<radialGradient id="paint36_radial_511_328" cx="0" cy="0" r="1" gradientUnits="userSpaceOnUse" gradientTransform="translate(16929.6 44202.4) rotate(31.6415) scale(475.445 525.849)">
<stop offset="0.57" stop-color="#130C0E"/>
<stop offset="0.8" stop-color="#130C0E"/>
<stop offset="1" stop-color="#130C0E"/>
</radialGradient>
<radialGradient id="paint37_radial_511_328" cx="0" cy="0" r="1" gradientUnits="userSpaceOnUse" gradientTransform="translate(15197.1 46728.3) rotate(34.4054) scale(446.646 528.171)">
<stop offset="0.57" stop-color="#130C0E"/>
<stop offset="0.8" stop-color="#130C0E"/>
<stop offset="1" stop-color="#130C0E"/>
</radialGradient>
<radialGradient id="paint38_radial_511_328" cx="0" cy="0" r="1" gradientUnits="userSpaceOnUse" gradientTransform="translate(32906.7 38483.5) rotate(-146.471) scale(470.309 220.601)">
<stop offset="0.57" stop-color="#130C0E"/>
<stop offset="0.8" stop-color="#130C0E"/>
<stop offset="1" stop-color="#130C0E"/>
</radialGradient>
<radialGradient id="paint39_radial_511_328" cx="0" cy="0" r="1" gradientUnits="userSpaceOnUse" gradientTransform="translate(36956.5 43823.2) rotate(-146.082) scale(614.544 287.534)">
<stop offset="0.57" stop-color="#130C0E"/>
<stop offset="0.8" stop-color="#130C0E"/>
<stop offset="1" stop-color="#130C0E"/>
</radialGradient>
<radialGradient id="paint40_radial_511_328" cx="0" cy="0" r="1" gradientUnits="userSpaceOnUse" gradientTransform="translate(36951.6 44151.6) rotate(-145.98) scale(600.025 280.066)">
<stop offset="0.57" stop-color="#130C0E"/>
<stop offset="0.8" stop-color="#130C0E"/>
<stop offset="1" stop-color="#130C0E"/>
</radialGradient>
<radialGradient id="paint41_radial_511_328" cx="0" cy="0" r="1" gradientUnits="userSpaceOnUse" gradientTransform="translate(29061.2 59908.1) rotate(45.3039) scale(678.297 547.886)">
<stop offset="0.57" stop-color="#130C0E"/>
<stop offset="0.8" stop-color="#130C0E"/>
<stop offset="1" stop-color="#130C0E"/>
</radialGradient>
<radialGradient id="paint42_radial_511_328" cx="0" cy="0" r="1" gradientUnits="userSpaceOnUse" gradientTransform="translate(22440.2 50262.4) rotate(48.7187) scale(578.489 582.824)">
<stop offset="0.57" stop-color="#130C0E"/>
<stop offset="0.8" stop-color="#130C0E"/>
<stop offset="1" stop-color="#130C0E"/>
</radialGradient>
<radialGradient id="paint43_radial_511_328" cx="0" cy="0" r="1" gradientUnits="userSpaceOnUse" gradientTransform="translate(40318.8 53340.1) rotate(32.8081) scale(728.443 397.207)">
<stop offset="0.57" stop-color="#130C0E"/>
<stop offset="0.8" stop-color="#130C0E"/>
<stop offset="1" stop-color="#130C0E"/>
</radialGradient>
<radialGradient id="paint44_radial_511_328" cx="0" cy="0" r="1" gradientUnits="userSpaceOnUse" gradientTransform="translate(51542.3 57422.9) rotate(-155.838) scale(736.394 427.064)">
<stop offset="0.57" stop-color="#130C0E"/>
<stop offset="0.8" stop-color="#130C0E"/>
<stop offset="1" stop-color="#130C0E"/>
</radialGradient>
<radialGradient id="paint45_radial_511_328" cx="0" cy="0" r="1" gradientUnits="userSpaceOnUse" gradientTransform="translate(56623.7 45597.4) rotate(-163.191) scale(763.583 331.054)">
<stop offset="0.57" stop-color="#130C0E"/>
<stop offset="0.8" stop-color="#130C0E"/>
<stop offset="1" stop-color="#130C0E"/>
</radialGradient>
<radialGradient id="paint46_radial_511_328" cx="0" cy="0" r="1" gradientUnits="userSpaceOnUse" gradientTransform="translate(38936.7 61824.5) rotate(-146.62) scale(658.61 535.343)">
<stop offset="0.57" stop-color="#130C0E"/>
<stop offset="0.8" stop-color="#130C0E"/>
<stop offset="1" stop-color="#130C0E"/>
</radialGradient>
<radialGradient id="paint47_radial_511_328" cx="0" cy="0" r="1" gradientUnits="userSpaceOnUse" gradientTransform="translate(16886 24466.2) rotate(33.4317) scale(147.984 88.4672)">
<stop offset="0.57" stop-color="#130C0E"/>
<stop offset="0.8" stop-color="#130C0E"/>
<stop offset="1" stop-color="#130C0E"/>
</radialGradient>
<radialGradient id="paint48_radial_511_328" cx="0" cy="0" r="1" gradientUnits="userSpaceOnUse" gradientTransform="translate(6978.64 24500.7) rotate(33.047) scale(103.134 133.286)">
<stop offset="0.57" stop-color="#130C0E"/>
<stop offset="0.8" stop-color="#130C0E"/>
<stop offset="1" stop-color="#130C0E"/>
</radialGradient>
<radialGradient id="paint49_radial_511_328" cx="0" cy="0" r="1" gradientUnits="userSpaceOnUse" gradientTransform="translate(-34288.9 78088.1) rotate(180) scale(1935.45 1998.57)">
<stop offset="0.57" stop-color="#130C0E"/>
<stop offset="0.8" stop-color="#130C0E"/>
<stop offset="1" stop-color="#130C0E"/>
</radialGradient>
<radialGradient id="paint50_radial_511_328" cx="0" cy="0" r="1" gradientUnits="userSpaceOnUse" gradientTransform="translate(-41745.6 89517.4) rotate(180) scale(2750.82 2542.58)">
<stop offset="0.57" stop-color="#130C0E"/>
<stop offset="0.8" stop-color="#130C0E"/>
<stop offset="1" stop-color="#130C0E"/>
</radialGradient>
</defs>
</svg>
