<svg width="320" height="268" viewBox="0 0 320 268" fill="none" xmlns="http://www.w3.org/2000/svg">
<path d="M306.2 164.161C305.913 163.225 305.175 162.646 304.301 162.266C302.377 161.429 299.91 161.708 297.898 161.985C296.539 162.181 295.2 162.492 293.894 162.915C295.438 161.542 296.856 160.033 298.131 158.407C299.001 157.281 299.969 155.836 299.943 154.354C299.908 152.582 298.305 151.661 296.661 151.605C294.351 151.527 292.103 152.831 290.226 154.18C290.353 153.924 290.477 153.665 290.599 153.406C291.608 151.27 293.531 147.01 290.832 145.285C289.283 144.296 286.879 144.739 285.348 145.47C284.63 145.818 283.979 146.291 283.425 146.866C283.56 144.355 283.732 141.707 282.659 139.438C282.046 138.117 280.667 136.846 279.164 136.692C277.806 136.549 276.787 137.741 276.185 138.782C274.849 141.089 274.282 143.817 273.859 146.414C273.672 147.56 273.533 148.712 273.432 149.869C272.079 147.982 270.046 146.694 267.762 146.276C266.752 146.092 265.729 146.223 264.92 146.889C264.186 147.493 263.915 148.492 263.833 149.394C263.527 152.785 265.519 156.095 267.502 158.668C268.406 159.846 269.373 160.966 270.358 162.089C268.436 160.522 266.421 159.072 264.325 157.747C262.549 156.639 260.628 155.569 258.578 155.056C257.09 154.684 255.326 154.642 254.174 155.813C253.101 156.904 253.045 158.265 253.916 159.491C254.866 160.828 256.463 161.728 257.884 162.491C259.926 163.588 262.082 164.483 264.244 165.316C264.755 165.514 265.269 165.707 265.787 165.897C265.481 165.817 265.171 165.74 264.859 165.664C262.797 165.189 260.701 164.881 258.59 164.745C256.509 164.592 254.359 164.5 252.295 164.858C250.706 165.134 249.004 165.949 249.209 167.802C249.404 169.559 251.355 171.078 252.796 171.818C255.118 173.013 257.804 173.395 260.374 173.657C263.109 173.94 265.89 174.178 268.633 174.291C270.983 174.37 273.336 174.318 275.681 174.138C276.014 174.738 276.896 174.686 277.213 174.219C277.353 174.249 277.498 174.24 277.633 174.194C277.768 174.148 277.887 174.066 277.98 173.957L279.043 173.863C279.21 173.845 279.364 173.765 279.473 173.638C280.955 173.493 282.452 173.45 283.931 173.387C286.828 173.264 289.726 173.159 292.614 172.884C295.314 172.63 298.008 172.209 300.564 171.286C302.66 170.529 304.586 169.268 305.636 167.265C306.135 166.348 306.525 165.217 306.2 164.161ZM277.8 168.096C277.86 167.73 277.929 167.367 278.007 167.003C277.939 167.367 277.87 167.731 277.8 168.096ZM290.324 156.227C291.444 155.345 292.66 154.591 293.949 153.981C294.882 153.551 296.047 153.15 297.09 153.36C297.398 153.406 297.689 153.532 297.933 153.725C297.876 153.685 297.984 153.789 298.056 153.863C298.008 153.832 298.166 154.117 298.161 154.054C298.178 154.113 298.191 154.173 298.203 154.233C298.192 154.207 298.21 154.456 298.203 154.517C298.195 154.578 298.189 154.647 298.18 154.713C298.176 154.726 298.173 154.739 298.17 154.753C298.13 154.921 298.079 155.087 298.017 155.249C297.51 156.645 296.212 158.116 295.092 159.296C293.441 160.998 291.676 162.585 289.809 164.046C289.434 164.346 289.055 164.646 288.673 164.944C286.955 165.699 285.313 166.618 283.77 167.687C282.501 168.58 281.277 169.539 279.956 170.353C280.051 170.212 280.145 170.07 280.24 169.93C281.357 168.284 282.495 166.653 283.611 165.008C285.143 162.748 286.675 160.465 288.068 158.113C288.799 157.453 289.554 156.824 290.328 156.227H290.324ZM284.176 148.614C284.902 147.654 285.926 146.962 287.087 146.647C287.572 146.526 288.069 146.466 288.568 146.466C288.738 146.464 288.908 146.471 289.078 146.488C289.201 146.484 289.323 146.504 289.438 146.547C289.542 146.575 289.645 146.61 289.744 146.652C289.708 146.642 289.931 146.754 289.98 146.786C289.999 146.8 290.018 146.812 290.039 146.823C290.061 146.853 290.085 146.881 290.112 146.907C290.158 146.956 290.181 146.978 290.192 146.987C290.207 147.024 290.225 147.06 290.245 147.094C290.273 147.145 290.296 147.197 290.321 147.248V147.26C290.358 147.377 290.387 147.497 290.406 147.618C290.414 147.657 290.419 147.697 290.423 147.735C290.428 147.773 290.432 147.833 290.432 147.853C290.438 148.022 290.434 148.19 290.422 148.359C290.328 149.779 289.62 151.432 288.949 152.867C288.296 154.261 287.562 155.625 286.779 156.955C285.705 157.936 284.708 158.999 283.798 160.134C282.449 161.822 281.209 163.595 280.085 165.44C280.37 164.184 280.684 162.934 281.004 161.686C281.979 157.839 283.018 153.956 283.286 149.986C283.55 149.507 283.849 149.049 284.181 148.614H284.176ZM276.384 142.844C276.766 141.494 277.288 140.043 278.16 138.924C279.032 137.806 280.289 138.909 280.876 139.79C282.086 141.606 281.769 144.243 281.672 146.296C281.622 147.369 281.628 148.441 281.579 149.514C281.222 150.222 280.909 150.951 280.641 151.697C280.065 153.28 279.677 154.915 279.283 156.556C278.856 158.328 278.271 160.047 277.705 161.78C277.204 163.312 276.737 164.86 276.384 166.432C276.219 166.228 276.051 166.02 275.88 165.808C275.799 164.254 276.063 162.667 276.003 161.116C275.903 158.456 275.73 155.743 274.966 153.181L274.979 152.785C275.114 149.442 275.479 146.072 276.389 142.844H276.384ZM266.104 152.834C265.764 151.832 265.517 150.769 265.547 149.705C265.547 149.327 265.619 148.952 265.76 148.601C265.856 148.358 266.036 148.158 266.268 148.038C267.034 147.632 268.349 148.164 269.18 148.532C270.56 149.132 271.703 150.172 272.431 151.489C272.754 152.066 273.022 152.672 273.232 153.299C273.208 154.131 273.197 154.964 273.199 155.795C273.199 158.203 273.308 160.641 273.537 163.07C272.883 162.33 272.223 161.593 271.57 160.853C269.442 158.438 267.159 155.927 266.109 152.834H266.104ZM261.469 162.335C259.681 161.55 257.874 160.68 256.319 159.488C255.89 159.158 255.351 158.608 255.147 158.24C255.115 158.184 255.089 158.125 255.061 158.067C255.058 158.061 255.056 158.055 255.053 158.049C255.04 158.003 255.014 157.845 255.003 157.796C254.992 157.747 255.012 157.664 255.012 157.632C255.053 157.517 255.124 157.353 255.078 157.434C255.175 157.236 255.318 157.064 255.495 156.932C255.692 156.755 255.556 156.866 255.732 156.768C255.833 156.697 255.948 156.648 256.069 156.625C256.653 156.457 257.326 156.523 257.939 156.66C259.931 157.113 261.786 158.193 263.504 159.265C265.653 160.632 267.716 162.129 269.682 163.747C270.82 164.667 271.934 165.619 273.024 166.603C271.418 166.066 269.806 165.531 268.214 164.964C265.943 164.153 263.682 163.304 261.474 162.335H261.469ZM265.547 172.376C262.408 172.069 259.232 172.034 256.161 171.251C254.764 170.895 253.31 170.37 252.22 169.4C251.832 169.057 251.494 168.661 251.215 168.225C251.111 168.058 251.021 167.882 250.947 167.699C250.939 167.614 250.924 167.529 250.904 167.446C250.9 167.398 250.906 167.349 250.923 167.303C250.94 167.258 250.967 167.217 251.002 167.183C251.203 166.976 251.362 166.91 251.748 166.761C252.338 166.535 253.386 166.418 254.159 166.374C256.725 166.22 259.319 166.493 261.863 166.809C264.243 167.103 266.581 167.881 268.888 168.494C270.741 169.016 272.623 169.428 274.524 169.729C274.717 170.649 274.935 171.564 275.177 172.475C271.978 172.671 268.76 172.697 265.551 172.376H265.547ZM303.403 167.558C302.101 169.021 300.127 169.745 298.276 170.24C295.825 170.897 293.261 171.173 290.731 171.36C288.174 171.548 285.61 171.622 283.05 171.738C282.494 171.764 281.934 171.789 281.375 171.818L282.068 171.43C284.03 170.309 285.93 169.082 287.759 167.753C288.383 167.307 289.005 166.852 289.626 166.387C292.146 165.231 294.801 164.242 297.519 163.775C299.439 163.442 301.686 163.162 303.563 163.819C303.842 163.91 304.098 164.061 304.312 164.264C304.401 164.354 304.471 164.462 304.518 164.58C304.565 164.698 304.588 164.825 304.586 164.952C304.606 165.868 304.002 166.884 303.408 167.558H303.403Z" fill="url(#paint0_radial_511_472)"/>
<path d="M319.991 234.16C319.991 233.937 319.982 233.713 319.974 233.489C319.552 219.427 318.661 204.929 319.803 190.906C320.644 180.549 315.987 176.402 308.389 174.899C299.983 173.238 291.466 173.283 282.98 173.083C272.418 172.834 261.755 172.786 251.262 174.565C249.802 174.813 248.351 175.161 246.892 175.38C244.378 175.754 241.711 176.147 239.427 177.622C237.991 178.541 236.975 180.037 236.391 181.923C235.846 183.69 235.807 185.699 235.778 187.57C235.768 188.432 235.76 189.295 235.717 190.156C234.983 205.003 236.445 220.027 236.672 234.885C236.701 236.77 236.598 238.653 236.721 240.533C236.98 244.537 239.632 247.039 242.309 248.55C250.093 252.948 258.757 252.381 267.052 251.461C275.583 250.522 284.11 250.001 292.675 250.389C299.328 250.688 306.313 253.135 312.872 250.516C318.761 248.169 320.125 241.255 319.991 234.16Z" fill="#DE6C92"/>
<path d="M269.712 195.384H273.04L268.632 182.853H265.684C263.58 190.434 261.482 195.375 261.482 195.375L265.007 195.384L265.997 193.339L269.046 193.204L269.712 195.384ZM266.433 190.458C266.812 189.661 267.127 188.835 267.376 187.988L268.319 190.424L266.433 190.458Z" fill="white"/>
<path d="M277.88 182.837H273.766V195.384H277.647C277.647 195.384 277.583 190.883 277.647 190.883C280.742 190.883 283.483 189.761 283.483 187.297C283.483 184.833 280.975 182.837 277.88 182.837Z" fill="white"/>
<path d="M288.706 182.837H284.59V195.384H288.473C288.473 195.384 288.408 190.883 288.473 190.883C291.566 190.883 294.309 189.761 294.309 187.297C294.309 184.833 291.801 182.837 288.706 182.837Z" fill="white"/>
<path d="M256.983 182.859V187.274H253.422V182.859H249.861C249.861 182.859 251.32 188.86 249.861 195.377H253.422V190.248H256.983V195.384H260.777V182.867L256.983 182.859Z" fill="white"/>
<path d="M302.762 182.87C302.776 183.621 302.784 184.249 302.776 184.541C302.764 184.964 302.713 185.386 302.623 185.8C302.388 186.885 301.829 188.206 300.7 188.471C300.13 188.606 299.518 188.29 299.079 187.924C298.544 187.481 298.237 186.781 298.035 186.106C297.904 185.661 297.826 185.201 297.804 184.737C297.804 184.565 297.791 183.817 297.804 182.87H294.998C294.961 183.894 294.941 184.763 294.958 185.074C295.006 185.913 295.173 186.742 295.453 187.535C295.89 188.744 296.546 190.002 297.693 190.8C298.044 191.044 298.417 191.254 298.807 191.428C299.132 194.9 298.726 195.352 298.726 195.352H301.878V191.577C303.832 190.821 304.843 188.731 305.295 186.98C305.486 186.24 305.595 185.482 305.621 184.718C305.632 184.364 305.646 183.678 305.652 182.866L302.762 182.87Z" fill="white"/>
<path d="M250.349 198.458H255.765L260.178 207.152L261.311 198.458H266.127L265.373 218.874H261.128L255.899 207.249L255.592 218.873H250.157C250.157 218.873 251.598 203.812 250.349 198.458Z" fill="white"/>
<path d="M268.66 198.401C268.66 198.401 270.076 207.77 268.507 218.874C268.507 218.874 276.182 218.874 280.178 218.943L279.916 214.779L273.7 215.191L273.759 210.951L278.37 210.937L278.312 206.953H273.617L273.657 203.155L279.916 203.052L280.178 198.397C280.178 198.397 275.241 198.458 268.66 198.401Z" fill="white"/>
<path d="M300.001 198.458L297.99 210.937L295.307 201.694L292.033 201.616L289.081 210.937L287.856 198.458L281.573 198.495C283.432 203.011 285.876 218.859 285.876 218.859H291.316L293.632 211.175L295.88 218.859H301.32L305.359 198.458H300.001Z" fill="white"/>
<path d="M265.606 222.181C265.606 222.181 266.766 229.856 265.475 238.955C265.475 238.955 271.757 238.955 275.038 239.012L274.823 235.599L269.73 235.936L269.779 232.463L273.556 232.452L273.508 229.191H269.662L269.695 226.079L274.823 225.995L275.038 222.181C275.038 222.181 270.998 222.227 265.606 222.181Z" fill="white"/>
<path d="M299.618 229.993C299.791 229.993 301.548 229.274 301.673 229.21C303.92 228.051 303.945 225.318 302.097 223.839C300.525 222.583 298.56 222.154 296.532 222.273C296.143 222.296 292.917 222.258 292.395 222.273C292.395 222.273 293.558 231.551 292.669 238.941H296.532L296.975 231.096C296.975 231.096 301.121 233.799 301.052 238.941H304.996C304.996 238.941 302.696 230.092 299.618 229.993Z" fill="white"/>
<path d="M260.367 222.273C260.386 223.274 260.396 224.112 260.385 224.501C260.371 225.068 260.303 225.632 260.183 226.187C259.876 227.633 259.124 229.395 257.619 229.749C256.853 229.928 256.042 229.507 255.456 229.02C254.743 228.428 254.335 227.487 254.064 226.596C253.889 226.001 253.786 225.387 253.758 224.768C253.747 224.539 253.741 223.542 253.758 222.279H250.017C249.967 223.643 249.941 224.804 249.965 225.218C250.028 226.337 250.25 227.442 250.624 228.499C251.207 230.114 252.081 231.79 253.611 232.855C254.079 233.181 254.577 233.462 255.099 233.693C255.531 238.325 254.99 238.926 254.99 238.926H259.193V233.891C261.798 232.884 263.148 230.097 263.75 227.762C264.006 226.775 264.152 225.763 264.185 224.745C264.2 224.273 264.219 223.366 264.226 222.275L260.367 222.273Z" fill="white"/>
<path d="M287.233 239.01H291.677L285.799 222.297H281.861C279.055 232.411 276.256 238.999 276.256 238.999L280.963 239.01L282.282 236.283L286.351 236.102L287.233 239.01ZM282.857 232.441C283.362 231.377 283.783 230.275 284.115 229.145L285.373 232.395L282.857 232.441Z" fill="white"/>
<path d="M49.1775 168.135C50.057 163.155 53.6426 158.159 57.1898 154.935C64.4605 148.324 74.4602 145.225 83.8746 143.533C100.73 140.504 117.343 147.62 134.209 146.686C136.21 135.422 124.892 134.177 117.087 133.856C106.594 133.426 95.6625 137.094 86.0321 130.332C80.1266 126.184 79.5168 117.533 83.5804 112.241C88.6523 105.641 98.4742 103.732 106.284 105.103C109.999 105.756 113.665 107.271 117.282 107.808C116.394 107.676 110.527 98.8161 108.036 97.5918C104.219 95.7148 99.7414 95.1708 95.6043 95.2934C87.8494 95.5233 80.0178 98.0898 72.5403 99.9516C63.8062 102.132 54.1697 105.161 45.0603 103.572C36.3814 102.057 23.1485 92.7774 30.7977 82.0315C34.6131 76.6685 41.2004 74.2076 47.256 72.6585C58.719 69.7257 71.2455 69.9953 82.9369 71.9107C88.2079 72.7749 93.7119 73.9854 99.0412 75.7859C98.1371 74.9594 97.2208 74.1494 96.2923 73.3556C96.1191 73.2024 95.7131 72.8653 95.5997 72.7718C95.2227 72.4654 94.8473 72.1589 94.4673 71.8525C93.5863 71.14 92.6929 70.4412 91.7966 69.7471C76.964 58.2749 24.7299 33.4104 41.8654 5.98096C45.6303 -0.0455278 53.6089 -1.16103 59.8805 1.05006C65.55 3.05123 70.2848 7.51478 74.2733 12.0565C78.6373 17.0257 82.3944 22.5802 86.0474 28.1225C94.2559 40.5892 102.716 52.8766 110.218 65.8168C110.437 66.1968 110.65 66.5829 110.867 66.9583C111.295 64.948 111.762 62.9468 112.285 60.9548C114.936 50.8234 118.575 40.534 124.894 32.3149C127.536 28.8779 131.095 25.9896 135.304 24.9997C140.617 23.7494 145.742 26.0616 149.708 29.7789C154.715 34.4662 154.764 41.6695 151.677 47.2899C149.176 51.8347 145.047 55.3742 141.089 58.4756C132.836 64.9434 123.374 71.4342 122.28 83.3247C121.514 91.6144 131.388 110.56 138.116 115.495C147.906 95.8665 154.443 60.7235 177.215 55.005C185.183 53.0053 195.499 54.913 197.157 64.8806C198.96 75.7184 188.973 86.2253 182.372 92.8969C175.181 100.166 166.626 105.73 158.928 112.357C155.722 115.115 152.339 117.977 149.777 121.397C149.164 122.211 144.827 133.293 146.692 132.494C149.525 131.282 151.916 128.29 154.967 126.825C164.143 122.398 176.725 125.948 173.765 138.967C173.774 138.881 173.785 138.794 173.802 138.708C172.098 147.658 163.923 149.556 158.385 155.115C150.004 163.543 158.58 177.375 161.321 186.54C167.821 174.867 188.617 125.689 207.264 150.174C222.609 170.323 190.408 185.712 179.235 195.212C172.557 200.891 166.919 207.385 167.45 216.988C167.726 221.992 182.367 261.378 178.147 265.304C172.409 270.638 155.757 228.875 153.643 225.372C147.27 214.809 143.107 212.348 131.377 212.238C119.18 212.124 105.296 206.141 111.635 190.632C118.886 172.891 136.824 180.456 148.626 188.354C146.174 183.316 146.743 177.344 142.927 172.951C133.162 161.7 109.534 173.757 98.8159 177.701C84.9825 182.781 67.9618 188.758 54.1957 179.516C49.5912 176.428 48.4527 172.291 49.1775 168.135Z" fill="#EBA7BE"/>
<path d="M84.0532 178.051C84.6002 173.972 85.5592 169.958 86.9155 166.073C92.2662 150.917 105.381 139.267 121.545 137.287C133.572 135.815 145.582 139.042 157.019 142.022C165.658 144.273 175.29 146.516 184.234 144.406C189.065 143.268 193.062 140.49 195.985 136.878C199.24 132.86 200.404 127.821 203.713 123.854C205.041 122.265 206.52 120.886 208.443 119.87C210.479 118.797 212.733 118.385 215.042 118.152C219.132 117.738 223.507 118.529 227.353 119.766C229.207 120.363 231.151 121.045 232.754 122.102C237.981 125.548 238.73 132.189 239.173 137.56C240.181 149.993 241.096 160.56 240.627 173.091C240.491 176.738 237.797 207.759 236.69 211.274C232.429 224.79 225.352 206.282 210.711 209.047C201.798 210.736 192.745 211.569 183.675 211.536C174.444 211.491 165.376 209.85 156.236 208.899C144.598 207.693 132.904 208.934 121.277 209.512C113.156 209.916 104.587 210.241 96.7604 207.869C92.7045 206.643 78.373 226.002 79.9451 222.272C84.2539 212.048 82.786 201.398 83.1001 190.802C83.235 186.423 83.4694 182.214 84.0532 178.051Z" fill="#7FB2E0"/>
<path d="M193.371 118.336C196.942 130.623 207.682 138.305 217.359 135.498L227.655 132.503C237.333 129.692 242.281 117.45 238.709 105.163C235.137 92.8739 224.397 85.1925 214.721 88.0012L204.424 90.9953C194.749 93.8071 189.8 106.05 193.371 118.337V118.336Z" fill="#7FB2E0"/>
<path d="M193.126 128.938C197.132 142.728 211.903 150.543 226.116 146.406C240.33 142.269 248.606 127.752 244.6 113.969C240.595 100.186 225.824 92.3637 211.609 96.4932C197.394 100.623 189.116 115.155 193.126 128.938Z" fill="#7FB2E0"/>
<path d="M211.985 134.882C213.834 140.91 219.764 144.438 225.231 142.761C230.699 141.083 233.63 134.839 231.78 128.817C229.931 122.795 224.001 119.26 218.534 120.936C213.067 122.613 210.135 128.852 211.985 134.882Z" fill="white"/>
<path d="M214.961 88.0319L228.454 123.871L212.212 129.134L203.148 91.386C206.944 89.8189 210.908 88.6935 214.961 88.0319Z" fill="#4782AC"/>
<path d="M213.335 129.846C211.956 129.595 211.393 128.621 212.141 126.61C212.88 124.733 214.931 121.822 218.577 120.788C222.178 119.592 225.509 120.853 227.173 121.992C228.92 123.238 228.999 124.361 227.999 125.341C226.871 126.38 225.763 127.537 224.83 128.538C223.857 129.535 223.059 130.377 221.638 130.773C220.241 131.241 219.109 130.993 217.743 130.711C216.418 130.412 214.859 130.075 213.335 129.846Z" fill="url(#paint1_radial_511_472)"/>
<path d="M190.903 109.796C190.923 109.054 191.193 108.341 191.669 107.771C193.41 105.636 196.454 105.178 199.039 105.117C199.971 105.099 200.904 105.131 201.833 105.212C202.777 105.29 203.861 105.419 204.513 106.191C205.227 107.038 205.092 108.336 204.502 109.182C203.877 110.081 202.864 110.463 201.866 110.792C200.567 111.221 199.294 111.722 198.011 112.201C195.866 112.999 192.052 114.534 191.116 111.281C190.967 110.801 190.895 110.299 190.903 109.796Z" fill="white"/>
<path d="M199.089 108.394C199.355 109.822 198.768 111.133 197.779 111.318C196.789 111.503 195.767 110.495 195.499 109.066C195.23 107.636 195.817 106.329 196.809 106.143C197.8 105.958 198.821 106.959 199.089 108.394Z" fill="url(#paint2_radial_511_472)"/>
<path d="M236.216 96.6265C235.801 96.0111 235.192 95.5529 234.486 95.3256C231.873 94.4553 229.057 95.701 226.841 97.0357C226.045 97.5209 225.275 98.0477 224.534 98.6139C223.778 99.1855 222.932 99.875 222.796 100.877C222.643 101.974 223.456 102.995 224.408 103.396C225.418 103.821 226.478 103.598 227.497 103.341C228.824 103.007 230.168 102.747 231.505 102.463C233.746 101.988 237.788 101.237 236.836 97.9857C236.701 97.5031 236.492 97.0445 236.216 96.6265Z" fill="white"/>
<path d="M228.551 99.8243C229.09 101.173 230.287 101.97 231.223 101.59C232.159 101.21 232.481 99.8167 231.94 98.4667C231.399 97.1168 230.204 96.3215 229.268 96.7015C228.332 97.0815 228.01 98.4744 228.551 99.8243Z" fill="url(#paint3_radial_511_472)"/>
<path d="M229.584 111.723C227.765 112.271 226.944 109.442 228.763 108.894C232.39 107.798 234.892 104.91 237.817 102.665C238.531 103.344 239.205 104.064 239.835 104.821C238.24 105.99 236.812 107.366 235.272 108.606C233.561 109.983 231.7 111.085 229.584 111.723Z" fill="#7FB2E0"/>
<path d="M229.584 111.723C227.765 112.271 226.944 109.442 228.763 108.894C232.39 107.798 234.892 104.91 237.817 102.665C238.531 103.344 239.205 104.064 239.835 104.821C238.24 105.99 236.812 107.366 235.272 108.606C233.561 109.983 231.7 111.085 229.584 111.723Z" fill="url(#paint4_radial_511_472)"/>
<path d="M238.654 111.591C237.581 112.276 236.59 113.076 235.483 113.721C234.265 114.406 233.011 115.024 231.725 115.572C230.991 115.896 230.16 115.841 229.697 115.089C229.32 114.476 229.445 113.388 230.18 113.062C231.372 112.533 232.552 111.989 233.694 111.349C234.835 110.708 235.825 109.939 236.893 109.222C237.832 108.591 238.876 108.086 239.694 107.291C240.092 106.905 240.442 106.477 240.8 106.065C241.404 106.887 241.956 107.746 242.454 108.636C242.253 108.871 242.048 109.096 241.832 109.324C240.923 110.258 239.746 110.898 238.654 111.591Z" fill="#7FB2E0"/>
<path d="M238.654 111.591C237.581 112.276 236.59 113.076 235.483 113.721C234.265 114.406 233.011 115.024 231.725 115.572C230.991 115.896 230.16 115.841 229.697 115.089C229.32 114.476 229.445 113.388 230.18 113.062C231.372 112.533 232.552 111.989 233.694 111.349C234.835 110.708 235.825 109.939 236.893 109.222C237.832 108.591 238.876 108.086 239.694 107.291C240.092 106.905 240.442 106.477 240.8 106.065C241.404 106.887 241.956 107.746 242.454 108.636C242.253 108.871 242.048 109.096 241.832 109.324C240.923 110.258 239.746 110.898 238.654 111.591Z" fill="url(#paint5_radial_511_472)"/>
<path d="M240.37 115.903C238.118 117.282 235.969 118.814 233.384 119.517C231.546 120.015 230.727 117.187 232.563 116.687C234.964 116.033 236.953 114.542 239.048 113.258C239.999 112.676 240.96 112.077 241.714 111.244C242.174 110.737 242.575 110.21 243.038 109.734C243.518 110.699 243.935 111.694 244.288 112.712C244.041 113.019 243.798 113.338 243.533 113.613C242.644 114.54 241.458 115.238 240.37 115.903Z" fill="#7FB2E0"/>
<path d="M240.37 115.903C238.118 117.282 235.969 118.814 233.384 119.517C231.546 120.015 230.727 117.187 232.563 116.687C234.964 116.033 236.953 114.542 239.048 113.258C239.999 112.676 240.96 112.077 241.714 111.244C242.174 110.737 242.575 110.21 243.038 109.734C243.518 110.699 243.935 111.694 244.288 112.712C244.041 113.019 243.798 113.338 243.533 113.613C242.644 114.54 241.458 115.238 240.37 115.903Z" fill="url(#paint6_radial_511_472)"/>
<path d="M204.593 118.987C206.423 118.474 205.6 115.645 203.77 116.157C200.12 117.179 196.457 116.087 192.787 115.754C192.548 116.71 192.365 117.678 192.238 118.655C194.213 118.786 196.155 119.183 198.121 119.404C200.303 119.649 202.468 119.58 204.593 118.987Z" fill="#7FB2E0"/>
<path d="M204.593 118.987C206.423 118.474 205.6 115.645 203.77 116.157C200.12 117.179 196.457 116.087 192.787 115.754C192.548 116.71 192.365 117.678 192.238 118.655C194.213 118.786 196.155 119.183 198.121 119.404C200.303 119.649 202.468 119.58 204.593 118.987Z" fill="url(#paint7_radial_511_472)"/>
<path d="M196.867 123.737C198.144 123.737 199.405 123.891 200.686 123.835C202.081 123.759 203.472 123.605 204.85 123.376C205.644 123.258 206.315 122.763 206.303 121.882C206.292 121.162 205.606 120.31 204.809 120.429C203.519 120.622 202.227 120.788 200.925 120.867C199.622 120.947 198.37 120.818 197.083 120.785C195.951 120.757 194.8 120.89 193.683 120.657C193.141 120.544 192.61 120.371 192.089 120.21C192.021 121.228 192.015 122.248 192.071 123.267C192.367 123.356 192.664 123.443 192.966 123.515C194.238 123.828 195.572 123.737 196.867 123.737Z" fill="#7FB2E0"/>
<path d="M196.867 123.737C198.144 123.737 199.405 123.891 200.686 123.835C202.081 123.759 203.472 123.605 204.85 123.376C205.644 123.258 206.315 122.763 206.303 121.882C206.292 121.162 205.606 120.31 204.809 120.429C203.519 120.622 202.227 120.788 200.925 120.867C199.622 120.947 198.37 120.818 197.083 120.785C195.951 120.757 194.8 120.89 193.683 120.657C193.141 120.544 192.61 120.371 192.089 120.21C192.021 121.228 192.015 122.248 192.071 123.267C192.367 123.356 192.664 123.443 192.966 123.515C194.238 123.828 195.572 123.737 196.867 123.737Z" fill="url(#paint8_radial_511_472)"/>
<path d="M197.73 128.297C200.37 128.253 203.006 128.395 205.563 127.603C207.377 127.042 206.559 124.212 204.742 124.775C202.364 125.51 199.883 125.314 197.428 125.355C196.313 125.374 195.18 125.384 194.099 125.084C193.441 124.902 192.816 124.673 192.171 124.52C192.283 125.592 192.463 126.656 192.712 127.704C193.089 127.835 193.461 127.969 193.832 128.06C195.081 128.366 196.454 128.314 197.73 128.297Z" fill="#7FB2E0"/>
<path d="M197.73 128.297C200.37 128.253 203.006 128.395 205.563 127.603C207.377 127.042 206.559 124.212 204.742 124.775C202.364 125.51 199.883 125.314 197.428 125.355C196.313 125.374 195.18 125.384 194.099 125.084C193.441 124.902 192.816 124.673 192.171 124.52C192.283 125.592 192.463 126.656 192.712 127.704C193.089 127.835 193.461 127.969 193.832 128.06C195.081 128.366 196.454 128.314 197.73 128.297Z" fill="url(#paint9_radial_511_472)"/>
<path d="M221.601 86.5777C220.078 89.3757 222.314 90.672 225.112 92.1966C227.909 93.7213 230.213 94.895 231.736 92.0955C233.259 89.296 233.683 83.1194 230.885 81.5947C228.087 80.0701 223.133 83.7782 221.601 86.5777Z" fill="#7FB2E0"/>
<path d="M223.634 86.679C222.594 88.5897 224.12 89.4754 226.032 90.5174C227.945 91.5593 229.517 92.3561 230.557 90.4484C231.597 88.5407 231.887 84.3193 229.976 83.2742C228.066 82.2292 224.676 84.7667 223.634 86.679Z" fill="white"/>
<path d="M197.851 93.4838C200.636 95.0283 199.444 97.3145 197.9 100.108C196.355 102.901 195.039 105.121 192.253 103.574C189.467 102.026 185.798 97.0402 187.35 94.253C188.902 91.4657 195.062 91.9377 197.851 93.4838Z" fill="#7FB2E0"/>
<path d="M196.191 94.6544C198.096 95.7101 197.281 97.2777 196.225 99.1808C195.169 101.084 194.271 102.604 192.368 101.548C190.465 100.492 187.958 97.0846 189.014 95.1815C190.07 93.2784 194.288 93.5986 196.191 94.6544Z" fill="white"/>
<path d="M210.222 95.0252C209.749 93.2033 209.303 91.3784 208.791 89.5657C208.78 89.5243 208.767 89.4814 208.756 89.44C209.369 89.2577 209.992 89.0891 210.562 88.939C210.573 88.9757 210.584 89.014 210.593 89.0508C211.088 90.8007 211.54 92.5598 211.972 94.3234C212.484 96.3905 213.198 98.4039 213.579 100.503C213.671 101.006 213.471 101.511 212.941 101.666C212.489 101.796 211.868 101.531 211.779 101.027C211.416 98.9892 210.74 97.0264 210.222 95.0252Z" fill="url(#paint10_radial_511_472)"/>
<path d="M212.217 92.7176C211.836 91.4489 211.565 90.1495 211.231 88.8685C211.221 88.8363 211.214 88.8042 211.206 88.772C211.992 88.5728 212.642 88.4196 213.028 88.3307C213.028 88.3378 213.028 88.345 213.028 88.3521C213.365 89.6316 213.641 90.9264 214.012 92.1951C214.447 93.6707 214.972 95.1065 215.17 96.6388C215.236 97.1475 214.71 97.5842 214.251 97.5903C213.696 97.5903 213.364 97.172 213.299 96.6709C213.126 95.3133 212.607 94.0155 212.217 92.7176Z" fill="url(#paint11_radial_511_472)"/>
<path d="M208.078 97.3513C207.905 96.0014 207.386 94.702 206.995 93.4057C206.688 92.3852 206.452 91.3432 206.198 90.3074C206.198 90.2982 206.198 90.2875 206.19 90.2767C206.75 90.0684 207.357 89.8661 207.974 89.6746C207.985 89.7129 207.994 89.7527 208.003 89.791C208.259 90.8238 208.497 91.8611 208.797 92.8816C209.23 94.3588 209.758 95.793 209.954 97.3253C210.02 97.8325 209.494 98.2692 209.034 98.2753C208.475 98.2814 208.144 97.857 208.078 97.3513Z" fill="url(#paint12_radial_511_472)"/>
<path d="M198.059 139.028C198.43 140.309 199.173 141.451 200.194 142.31C201.215 143.169 202.467 143.705 203.793 143.852C205.119 143.999 206.458 143.749 207.642 143.134C208.826 142.519 209.801 141.567 210.443 140.398C211.085 139.228 211.366 137.895 211.251 136.566C211.135 135.237 210.628 133.973 209.793 132.932C208.958 131.892 207.834 131.122 206.562 130.721C205.289 130.32 203.927 130.305 202.646 130.679C200.932 131.179 199.485 132.339 198.625 133.904C197.765 135.47 197.561 137.312 198.059 139.028Z" fill="#EBA7BE"/>
<path d="M191.046 141.837C194.263 141.432 197.215 140.142 199.823 138.248C201.074 137.338 202.291 136.316 203.796 135.864C205.175 135.447 206.669 135.588 208.062 135.176C208.521 135.042 208.658 135.766 208.206 135.899C206.886 136.288 205.5 136.231 204.164 136.529C202.45 136.91 201.048 138.291 199.649 139.27C197.137 141.035 194.234 142.163 191.19 142.558C190.721 142.618 190.572 141.896 191.046 141.837Z" fill="url(#paint13_radial_511_472)"/>
<path d="M192.666 145.303C195.813 144.537 198.605 142.929 200.984 140.755C202.127 139.71 203.223 138.559 204.662 137.942C205.993 137.372 207.486 137.345 208.825 136.78C209.26 136.596 209.482 137.298 209.049 137.482C207.78 138.018 206.396 138.116 205.102 138.554C203.442 139.124 202.204 140.654 200.923 141.785C198.624 143.819 195.866 145.264 192.885 145.998C192.431 146.116 192.201 145.415 192.666 145.303Z" fill="url(#paint14_radial_511_472)"/>
<path d="M189.224 136.642C192.456 136.852 195.601 136.146 198.52 134.779C199.924 134.123 201.312 133.351 202.875 133.19C204.314 133.037 205.748 133.463 207.193 133.322C207.665 133.276 207.668 134.014 207.193 134.059C205.823 134.192 204.473 133.873 203.105 133.905C201.35 133.955 199.712 135.046 198.153 135.744C195.352 137.002 192.288 137.561 189.224 137.373C188.758 137.355 188.749 136.612 189.224 136.642Z" fill="url(#paint15_radial_511_472)"/>
<path d="M245.845 125.138C246.219 126.418 246.204 127.781 245.803 129.053C245.402 130.325 244.632 131.45 243.592 132.285C242.551 133.119 241.286 133.627 239.958 133.742C238.629 133.858 237.295 133.577 236.126 132.935C234.957 132.292 234.005 131.317 233.39 130.134C232.775 128.95 232.525 127.61 232.672 126.285C232.818 124.959 233.355 123.706 234.214 122.685C235.072 121.665 236.215 120.922 237.496 120.55C239.211 120.053 241.054 120.257 242.62 121.117C244.185 121.977 245.345 123.423 245.845 125.138Z" fill="#EBA7BE"/>
<path d="M253.27 123.751C250.34 125.13 247.155 125.627 243.937 125.426C242.392 125.328 240.817 125.119 239.305 125.542C237.91 125.935 236.73 126.849 235.335 127.249C234.875 127.379 235.146 128.066 235.6 127.936C236.924 127.557 238.064 126.767 239.351 126.301C241.001 125.703 242.926 126.118 244.631 126.195C247.698 126.338 250.754 125.735 253.537 124.437C253.963 124.237 253.701 123.547 253.27 123.751Z" fill="url(#paint16_radial_511_472)"/>
<path d="M253.762 127.548C250.698 128.592 247.48 128.728 244.299 128.161C242.776 127.893 241.234 127.507 239.683 127.76C238.254 127.992 236.979 128.771 235.546 129.011C235.077 129.09 235.267 129.802 235.733 129.724C237.089 129.496 238.311 128.837 239.642 128.518C241.349 128.11 243.214 128.737 244.902 129.005C247.932 129.489 251.034 129.231 253.943 128.254C254.392 128.106 254.213 127.395 253.762 127.548Z" fill="url(#paint17_radial_511_472)"/>
<path d="M252.025 118.388C249.408 120.299 246.374 121.388 243.176 121.8C241.644 121.997 240.055 122.09 238.65 122.792C237.357 123.44 236.371 124.562 235.075 125.219C234.652 125.433 235.046 126.056 235.467 125.843C236.693 125.22 237.663 124.229 238.838 123.527C240.345 122.629 242.314 122.672 244.004 122.424C247.042 121.984 249.928 120.813 252.414 119.013C252.796 118.736 252.41 118.108 252.025 118.388Z" fill="url(#paint18_radial_511_472)"/>
<path d="M221.042 130.467C220.88 129.948 221.689 129.713 221.851 130.233C222.271 131.575 222.464 133.844 224.237 134.008C225.487 134.126 227.013 133.08 227.179 131.82C227.251 131.282 228.067 131.492 227.997 132.025C227.779 133.677 226.005 134.736 224.473 134.854C222.047 135.036 221.58 132.189 221.042 130.467Z" fill="url(#paint19_radial_511_472)"/>
<path d="M221.854 130.231C221.713 129.706 220.904 129.942 221.045 130.467C221.409 131.825 222.456 133.849 221.055 134.934C220.063 135.7 218.213 135.637 217.396 134.664C217.049 134.247 216.477 134.863 216.817 135.277C217.89 136.553 219.954 136.503 221.314 135.77C223.453 134.629 222.321 131.973 221.854 130.231Z" fill="url(#paint20_radial_511_472)"/>
<path d="M112.461 238.504C112.904 236.635 113.67 234.847 114.324 233.038C116.57 226.839 115.856 219.708 115.509 213.247C115.355 210.247 115.337 207.195 114.597 204.265C113.857 201.335 112.128 198.689 113.209 195.579C113.843 193.766 115.112 192.113 117.084 191.768C118.821 191.461 120.591 191.768 122.316 192.008C124.4 192.298 126.493 192.468 128.591 192.621C130.72 192.762 132.902 192.92 135.027 192.775C136.649 192.66 138.255 192.439 139.883 192.534C141.442 192.626 142.825 193.093 143.713 194.443C144.683 195.928 144.262 198.147 144.299 199.806C144.513 209.535 141.446 219.046 137.14 227.657C136.141 229.692 135.037 231.674 133.832 233.595C131.65 237.01 128.262 240.219 129.494 244.664C130.465 248.174 132.822 252.577 135.333 255.249C136.309 256.289 137.923 256.685 139.104 257.462C139.821 257.935 140.419 258.566 140.854 259.307C141.288 260.048 141.547 260.878 141.611 261.734C141.675 262.591 141.542 263.45 141.222 264.247C140.902 265.044 140.404 265.757 139.766 266.332C137.336 268.532 133.263 268.382 130.629 266.858C127.925 265.292 125.927 262.852 124.014 260.44C119.505 254.759 111.641 248.89 112.11 240.815C112.158 240.036 112.275 239.262 112.461 238.504Z" fill="#7FB2E0"/>
<path d="M74.8181 231.338C75.6639 229.614 76.8101 228.037 77.8459 226.42C81.407 220.872 82.2895 213.75 83.379 207.38C83.8892 204.421 84.5512 201.441 84.4792 198.419C84.4072 195.398 83.3055 192.443 85.0477 189.642C86.0682 188.014 87.6694 186.684 89.669 186.783C91.4312 186.872 93.0906 187.559 94.7256 188.175C96.693 188.919 98.6958 189.554 100.709 190.157C102.755 190.77 104.846 191.405 106.956 191.731C108.565 191.978 110.174 192.119 111.745 192.572C113.246 193.006 114.491 193.767 115.053 195.28C115.666 196.942 112.428 195.39 112.094 197.025C110.15 206.559 107.393 218.784 101.29 226.223C99.8643 227.985 98.3489 229.673 96.7497 231.279C93.8644 234.126 89.8545 236.506 90.069 241.115C90.2406 244.753 91.5645 249.569 93.4216 252.728C94.1433 253.954 95.6296 254.702 96.6103 255.721C97.2041 256.341 97.648 257.089 97.9078 257.908C98.1677 258.726 98.2366 259.593 98.1094 260.443C97.9822 261.292 97.6622 262.101 97.1739 262.807C96.6856 263.513 96.042 264.099 95.2925 264.518C92.4363 266.125 88.4968 265.079 86.2658 263.008C83.9674 260.883 82.5669 258.062 81.2338 255.286C78.0941 248.747 71.7244 241.285 73.9677 233.513C74.1872 232.765 74.4718 232.037 74.8181 231.338Z" fill="#7FB2E0"/>
<path d="M217.64 194.212C220.075 192.647 222.822 192.641 225.455 192.721C227.696 192.791 240.778 172.533 240.531 174.793C235.994 217.253 241.45 237.703 242.224 244.183C242.432 245.936 242.603 247.669 243.234 249.239C243.865 250.81 244.93 251.636 246.058 252.402C248.042 253.747 250.069 257.054 249.453 260.263C248.903 263.125 246.924 264.66 244.942 265.094C240.919 265.97 236.882 264.19 234.38 259.555C232.868 256.749 232.021 253.399 231.109 250.165C228.458 240.75 220.666 217.763 219.672 215.213C218.04 211.035 215.982 205.384 215.59 200.56C215.273 196.679 215.253 195.747 217.64 194.212Z" fill="#7FB2E0"/>
<path d="M194.173 192.77C196.856 191.688 199.557 192.197 202.124 192.77C204.314 193.259 206.523 193.593 208.63 194.431C210.504 195.183 209.424 239.94 208.969 246.454C208.846 248.214 208.69 249.947 209.016 251.608C209.343 253.269 210.233 254.28 211.198 255.243C212.894 256.928 214.263 260.564 213.063 263.6C211.99 266.309 209.753 267.449 207.726 267.501C203.61 267.61 199.979 265.106 198.388 260.085C197.428 257.045 197.222 253.597 196.933 250.249C196.09 240.504 193.955 231.402 191.916 222.208C191.329 219.563 190.762 216.908 190.263 214.219C189.443 209.807 188.094 204.893 188.611 200.082C189.018 196.211 191.531 193.832 194.173 192.77Z" fill="#7FB2E0"/>
<path d="M0.608363 173.463C0.965386 171.686 1.52774 169.986 2.37203 168.486C4.70723 164.349 8.80764 161.048 13.6359 160.535C15.6753 160.318 20.64 160.625 20.9112 163.538C21.1364 165.956 17.0942 167.358 15.4961 168.302C9.78064 171.673 6.95509 178.676 9.41288 184.851C11.9871 191.325 19.2195 195.434 26.0535 195.739C40.2119 196.368 50.7969 187.005 60.6541 178.164C65.7627 173.581 71.1656 169.392 76.3662 164.925C85.4312 157.14 103.906 141.175 115.892 138.401C121.149 137.185 122.491 153.796 117.229 155.014C107.095 157.362 93.1018 164.332 85.4388 170.95C81.3967 174.436 76.9914 177.501 72.8159 180.823C68.6404 184.145 64.5262 187.663 60.2281 190.888C56.8571 193.415 53.3574 195.801 49.6125 197.741C36.3842 204.594 17.8941 207.011 6.13378 195.853C0.251331 190.278 -0.917795 181.078 0.608363 173.463Z" fill="#7FB2E0"/>
<path d="M179.759 145.189C179.364 146.847 179.008 148.516 178.703 150.192C178.541 151.079 178.397 151.968 178.263 152.86C178.23 153.08 178.199 153.303 178.167 153.525C178.167 153.565 178.147 153.678 178.133 153.779C178.069 154.262 178.012 154.745 177.957 155.229C177.541 159.032 177.34 162.856 177.353 166.683C177.347 167.419 177.052 168.123 176.531 168.643C176.011 169.164 175.307 169.459 174.571 169.465C173.055 169.465 172.496 152.293 174.039 145.255C175.945 145.37 177.856 145.348 179.759 145.189Z" fill="url(#paint21_radial_511_472)"/>
<path d="M156.813 166.359C157.164 162.716 157.475 159.084 158.192 155.48C158.896 151.999 159.874 148.579 161.117 145.252C161.358 144.599 161.608 143.953 161.862 143.308C163.673 143.732 165.513 144.124 167.366 144.448C167.035 145.271 166.716 146.099 166.41 146.933C165.797 148.599 165.246 150.285 164.758 151.99C164.27 153.694 163.856 155.42 163.517 157.166C163.348 158.019 163.203 158.877 163.071 159.737C163.037 159.954 163.005 160.174 162.974 160.391C162.974 160.413 162.974 160.434 162.965 160.451C162.956 160.468 162.965 160.501 162.955 160.532C162.887 161.053 162.83 161.574 162.775 162.097C162.427 165.403 162.124 168.727 161.883 172.043C161.634 175.476 161.53 178.938 161.929 182.369C161.929 182.379 161.929 182.387 161.929 182.396C161.951 182.53 161.969 182.664 161.991 182.799C162.041 183.12 162.1 183.437 162.161 183.754C162.282 184.367 162.435 184.98 162.607 185.593C162.78 186.296 162.672 187.04 162.305 187.665C161.939 188.29 161.343 188.747 160.644 188.94C159.946 189.133 159.2 189.045 158.565 188.696C157.93 188.347 157.456 187.764 157.244 187.071C155.328 180.384 156.157 173.181 156.813 166.359Z" fill="url(#paint22_radial_511_472)"/>
<path d="M158.217 142.411C157.868 143.248 157.509 144.08 157.144 144.91C156.806 145.687 156.465 146.464 156.131 147.243C156.087 147.344 156.044 147.446 156 147.549L155.833 147.946C155.643 148.402 155.457 148.862 155.276 149.325C154.624 150.96 154.079 152.637 153.646 154.343C153.468 155.063 153.327 155.793 153.212 156.525C153.203 156.616 153.17 156.861 153.162 156.934C153.139 157.146 153.124 157.359 153.105 157.572C153.067 158.073 153.053 158.575 153.05 159.078C153.043 159.814 152.747 160.517 152.227 161.038C151.707 161.558 151.003 161.853 150.267 161.861C148.758 161.861 151.227 144.656 152 142.88L152.506 141.717C152.59 141.523 152.675 141.329 152.757 141.135C152.767 141.113 152.786 141.067 152.808 141.014C154.211 141.373 155.607 141.735 156.994 142.1L158.217 142.411Z" fill="url(#paint23_radial_511_472)"/>
<path d="M145.682 140.923C144.841 142.061 144.106 143.273 143.487 144.546C143.321 144.88 143.166 145.221 143.016 145.562C143.016 145.567 143.016 145.572 143.016 145.577C142.94 145.764 142.863 145.952 142.792 146.141C142.486 146.907 142.232 147.685 141.988 148.468C141.501 150.021 141.116 151.603 140.762 153.191C140.408 154.778 140.117 156.392 139.887 158.011C139.858 158.234 139.831 158.459 139.804 158.681C139.757 159.076 139.714 159.472 139.673 159.867C139.582 160.739 139.51 161.611 139.446 162.484C139.198 165.915 139.152 169.358 139.15 172.796C139.15 173.534 138.857 174.242 138.335 174.764C137.813 175.286 137.106 175.579 136.368 175.579C135.63 175.579 134.922 175.286 134.4 174.764C133.878 174.242 133.585 173.534 133.585 172.796C133.585 165.72 133.876 158.638 135.398 151.705C136.121 148.41 137.083 145.198 138.496 142.134C139.118 140.775 139.876 139.482 140.761 138.277C142.76 138.639 144.745 139.059 146.727 139.514C146.381 139.992 146.03 140.456 145.682 140.923Z" fill="url(#paint24_radial_511_472)"/>
<path d="M132.898 139.227C132.694 139.659 132.495 140.093 132.302 140.53C132.219 140.713 132.14 140.897 132.06 141.081L132.035 141.139L131.962 141.339C131.302 142.937 130.742 144.574 130.286 146.242C130.07 147.037 129.886 147.84 129.725 148.648C129.637 149.089 129.561 149.532 129.489 149.976C129.477 150.059 129.466 150.143 129.452 150.226C129.438 150.309 129.391 150.686 129.378 150.791C129.163 152.745 129.081 154.712 129.132 156.677C129.162 158.194 127.843 159.459 126.349 159.459C124.817 159.459 126.631 139.575 127.825 137.01C129.835 137.01 131.844 137.122 133.847 137.316C133.52 137.943 133.203 138.58 132.898 139.227Z" fill="url(#paint25_radial_511_472)"/>
<path d="M118.544 138.038C118.446 138.217 118.352 138.397 118.262 138.579C118.217 138.672 118.173 138.764 118.132 138.858C117.968 139.268 117.825 139.691 117.703 140.114C117.562 140.589 117.448 141.07 117.346 141.556C117.287 141.83 117.238 142.108 117.192 142.387C117.174 142.499 117.156 142.612 117.14 142.725C116.866 144.936 116.878 147.18 116.987 149.401C117.202 153.762 117.923 158.07 118.374 162.408C118.527 163.918 116.995 165.19 115.591 165.19C113.956 165.19 112.965 163.915 112.808 162.408C112.349 158.007 111.632 153.638 111.413 149.215C111.259 146.084 111.322 142.793 112.061 139.698C113.3 139.194 114.575 138.784 115.876 138.472C116.789 138.222 117.715 138.004 118.654 137.817C118.616 137.897 118.582 137.968 118.544 138.038Z" fill="url(#paint26_radial_511_472)"/>
<path d="M102.695 177.069C101.775 174.191 100.55 171.419 99.5582 168.564C98.4933 165.5 97.9263 162.352 97.5371 159.142C97.1035 155.587 97.0008 152.011 96.9932 148.432C98.8518 147.114 100.723 145.853 102.574 144.69C102.543 149.362 103.121 159.305 103.161 159.614C103.161 159.651 103.173 159.705 103.184 159.768C103.22 160.002 103.164 178.51 102.695 177.069Z" fill="url(#paint27_radial_511_472)"/>
<path d="M91.3192 155.252C91.3805 155.698 91.4428 156.143 91.5062 156.587C91.7483 158.292 92.0195 159.993 92.3474 161.683C92.6753 163.373 93.0707 165.036 93.5579 166.68C93.7893 167.464 94.0513 168.24 94.3317 169.009C94.4558 169.347 94.5876 169.681 94.7225 170.017L94.891 170.417C94.983 170.622 95.0764 170.826 95.1714 171.03C95.8119 172.409 95.5713 174.018 94.1739 174.836C92.9572 175.549 91.0067 175.213 90.3662 173.839C88.8078 170.494 87.749 166.995 87.0242 163.382C86.6856 161.697 86.4113 159.993 86.1707 158.289C86.1033 157.829 86.039 157.353 85.9746 156.884C87.5866 155.569 89.2736 154.222 91.0036 152.885L91.2105 154.434C91.2258 154.556 91.2427 154.679 91.2595 154.801C91.2687 154.864 91.3101 155.178 91.3192 155.252Z" fill="url(#paint28_radial_511_472)"/>
<path d="M76.3401 165.002C77.2318 164.236 78.2171 163.39 79.2759 162.486C79.472 166.709 76.8779 177.732 75.1617 179.047C74.8959 178.622 74.7611 178.129 74.7741 177.628C74.8767 174.044 74.4201 170.492 74.0615 166.934C74.8246 166.293 75.5841 165.649 76.3401 165.002Z" fill="url(#paint29_radial_511_472)"/>
<path d="M67.8483 184.903C66.2057 186.244 64.5615 187.578 62.8959 188.887C62.2983 185.21 61.641 181.547 61.0449 177.873C62.6676 176.428 67.2139 181.147 67.8483 184.903Z" fill="url(#paint30_radial_511_472)"/>
<path d="M56.1664 193.855C54.3828 195.065 52.5517 196.208 50.6624 197.243C50.6425 193.775 50.4509 190.301 50.4724 186.835C52.4368 185.349 56.0637 189.946 56.1664 193.855Z" fill="url(#paint31_radial_511_472)"/>
<path d="M41.8315 192.466V192.489C41.8115 192.659 41.7962 192.831 41.7809 193.001C41.6667 194.546 41.6713 196.098 41.7947 197.642C41.8652 198.764 41.977 199.884 42.0919 201.004C40.3283 201.6 36.1083 197.174 36.1497 194.543C38.1178 193.946 40.0318 193.184 41.8713 192.264C41.8544 192.33 41.8422 192.399 41.8315 192.466Z" fill="url(#paint32_radial_511_472)"/>
<path d="M25.4899 203.602C23.5234 203.531 21.5664 203.295 19.6396 202.895C20.0135 202.157 20.3782 201.414 20.7337 200.667C21.0034 200.094 21.2634 199.517 21.5136 198.936C21.5979 198.733 21.6807 198.528 21.7619 198.323C21.8967 197.981 22.0254 197.638 22.1511 197.293C22.3799 196.666 22.5878 196.033 22.7747 195.393C23.8463 195.625 24.9355 195.767 26.0308 195.818C26.8475 195.853 26.6943 201.098 25.4899 203.602Z" fill="url(#paint33_radial_511_472)"/>
<path d="M9.89281 186.046C10.7483 187.725 11.8961 189.237 13.2822 190.513C11.137 192.569 8.85086 194.469 6.52178 196.316C6.38234 196.188 6.24291 196.061 6.10654 195.931C4.88377 194.771 7.73382 188.173 9.89281 186.046Z" fill="url(#paint34_radial_511_472)"/>
<path d="M10.2324 173.746C9.31299 175.392 1.74503 176.574 0.205078 175.936C0.301612 175.126 0.428789 174.324 0.585082 173.541C0.786507 172.516 1.07198 171.51 1.43858 170.532C1.68974 170.589 1.93496 170.669 2.171 170.772L2.32422 170.838L2.34875 170.849C2.55867 170.935 2.77013 171.017 2.98158 171.1C3.40143 171.263 3.82741 171.416 4.25339 171.56C5.09768 171.866 5.95116 172.144 6.80005 172.435C7.95233 172.841 9.10613 173.262 10.2324 173.746Z" fill="url(#paint35_radial_511_472)"/>
<path d="M15.2768 163.529C15.5893 164.013 15.9106 164.491 16.2406 164.962C16.3846 165.17 16.5317 165.373 16.6819 165.575C16.7416 165.658 16.8029 165.739 16.8627 165.819L16.9178 165.889C17.2457 166.298 17.59 166.692 17.9506 167.073L17.9629 167.087C17.0251 167.604 16.0751 168.025 15.4729 168.38C14.6574 168.863 13.8912 169.425 13.1852 170.057C11.2101 167.78 11.5548 160.854 13.4916 160.629C14.0724 161.602 14.6608 162.575 15.2768 163.529Z" fill="url(#paint36_radial_511_472)"/>
<path d="M92.4982 213.057C92.8813 211.663 94.4902 210.624 95.9214 211.114C97.0284 211.493 98.1572 211.804 99.3016 212.048C99.8502 212.164 100.403 212.259 100.958 212.343L101.022 212.352L101.251 212.38C101.595 212.421 101.942 212.455 102.286 212.486C104.237 212.66 106.198 212.682 108.157 212.683C107.53 214.58 106.833 216.439 106.051 218.216C102.116 218.121 92.0768 214.582 92.4982 213.057Z" fill="url(#paint37_radial_511_472)"/>
<path d="M89.5304 220.664C89.9227 219.236 91.504 218.273 92.9535 218.721C95.1171 219.387 97.273 220.088 99.4795 220.599C100.008 220.722 100.539 220.83 101.075 220.924C101.326 220.97 101.58 221.01 101.841 221.048L102.184 221.088C102.985 221.177 103.79 221.221 104.596 221.232C103.654 223.026 102.54 224.723 101.268 226.299C101.216 226.364 101.162 226.427 101.114 226.492C97.8507 226.022 94.6789 225.071 91.4841 224.087C90.0253 223.639 89.1182 222.159 89.5304 220.664Z" fill="url(#paint38_radial_511_472)"/>
<path d="M85.7942 227.968C86.9434 226.819 88.5523 227.006 89.7291 227.968L89.8471 228.065C90.0785 228.236 90.3191 228.397 90.5612 228.556C91.0209 228.863 91.4974 229.133 91.9816 229.393C92.4658 229.654 93.0006 229.909 93.5215 230.145L93.5507 230.158C93.5507 230.158 93.8479 230.282 93.9337 230.311C94.2402 230.432 94.5467 230.544 94.8531 230.654C95.4936 230.886 96.1418 231.089 96.7976 231.267L96.7194 231.345C95.2745 232.773 93.5461 234.082 92.2069 235.614C89.89 234.704 84.7998 228.962 85.7942 227.968Z" fill="url(#paint39_radial_511_472)"/>
<path d="M127.273 221.49C125.777 221.223 124.956 219.424 125.33 218.066C125.759 216.504 127.261 215.858 128.752 216.124C128.98 216.163 129.211 216.203 129.438 216.238L129.576 216.261H129.588C130.085 216.324 130.586 216.366 131.085 216.396C131.953 216.449 132.823 216.449 133.69 216.396C134.073 216.375 134.456 216.336 134.836 216.294H134.844C135.091 216.257 135.336 216.212 135.581 216.168C136.372 216.024 137.152 215.829 137.924 215.61C139.454 215.164 140.96 214.636 142.435 214.03C141.817 216.3 141.08 218.535 140.227 220.726C139.835 220.849 139.442 220.967 139.047 221.076C135.17 222.147 131.223 222.19 127.273 221.49Z" fill="url(#paint40_radial_511_472)"/>
<path d="M120.776 229.379C120.783 228.643 121.079 227.939 121.599 227.419C122.119 226.899 122.823 226.603 123.559 226.597C125.228 226.597 126.893 226.517 128.557 226.381C129.345 226.316 130.133 226.227 130.917 226.143C131.223 226.108 131.516 226.069 131.815 226.031C131.792 226.031 132.223 225.976 132.295 225.965L132.999 225.861C134.838 225.585 136.659 225.248 138.476 224.885C138.039 225.845 137.585 226.795 137.114 227.735C136.55 228.864 135.961 229.989 135.342 231.094C131.446 231.731 120.776 230.893 120.776 229.379Z" fill="url(#paint41_radial_511_472)"/>
<path d="M119.398 235.881C119.593 235.182 120.052 234.586 120.677 234.217C121.385 233.803 122.044 233.826 122.822 233.936L123.342 234.008C123.215 233.99 123.935 234.085 124.03 234.096C124.678 234.175 125.328 234.247 125.977 234.31C127.273 234.436 128.571 234.518 129.872 234.555C131 234.589 132.128 234.572 133.254 234.517C132.008 236.319 130.56 238.098 129.779 240.07C126.954 239.976 124.137 239.72 121.342 239.304C119.833 239.083 119.031 237.194 119.398 235.881Z" fill="url(#paint42_radial_511_472)"/>
<path d="M236.45 164.323C231.866 169.343 217.707 174.378 218.982 173.563C219.65 173.138 220.3 172.691 220.937 172.222L221.221 172.009L221.537 171.758C221.861 171.497 222.179 171.229 222.493 170.959C223.683 169.934 224.803 168.831 225.891 167.699C228.089 165.409 230.182 163.011 232.29 160.639C234.104 158.595 236.136 156.756 237.92 154.683C238.116 154.455 238.307 154.224 238.497 153.989L238.576 153.888C238.66 153.776 238.741 153.666 238.824 153.554C239.238 152.982 239.618 152.385 239.961 151.767C240.044 151.614 240.114 151.472 240.195 151.321C240.384 154.211 240.532 157.078 240.626 159.979C239.222 161.456 237.763 162.878 236.45 164.323Z" fill="url(#paint43_radial_511_472)"/>
<path d="M215.644 190.435C217.019 189.624 218.362 188.765 219.675 187.859C220.345 187.399 221.004 186.92 221.655 186.432L222.127 186.075L222.211 186.009C222.527 185.763 222.839 185.511 223.15 185.26C225.6 183.257 227.923 181.103 230.105 178.812C232.251 176.578 234.281 174.228 236.235 171.827C237.252 170.579 238.248 169.315 239.236 168.043L239.291 167.973L239.664 167.487L240.409 166.514L240.715 166.102C240.715 168.4 240.678 170.759 240.588 173.183C240.576 173.523 240.54 174.102 240.487 174.868C240.474 175.038 240.462 175.219 240.448 175.408C238.397 177.934 236.274 180.4 234.022 182.753C229.407 187.575 224.191 191.852 218.436 195.245C217.798 195.617 217.039 195.721 216.325 195.534C215.611 195.347 215 194.884 214.628 194.247C214.255 193.61 214.151 192.851 214.338 192.137C214.525 191.422 214.988 190.812 215.625 190.439L215.644 190.435Z" fill="url(#paint44_radial_511_472)"/>
<path d="M235.137 188.041C236.231 187.292 237.304 186.509 238.364 185.717C238.606 185.533 238.848 185.348 239.089 185.164L239.633 184.736L239.702 184.681C239.559 186.301 239.406 188.003 239.242 189.737C239.193 190.514 239.152 191.28 239.11 192.036C236.603 193.838 233.976 195.468 231.247 196.913C229.907 197.612 232.98 189.517 235.137 188.041Z" fill="url(#paint45_radial_511_472)"/>
<path d="M231.596 216.404C231.939 216.218 232.271 216.021 232.598 215.808C232.76 215.702 232.92 215.59 233.077 215.478C233.163 215.419 233.246 215.356 233.329 215.293C234.035 214.734 234.708 214.128 235.373 213.526C236.456 212.556 237.562 211.579 238.765 210.751C238.812 213.218 238.894 215.544 239.012 217.728C237.579 219.009 236.101 220.291 234.404 221.209C233.07 221.931 231.383 221.551 230.598 220.212C229.85 218.935 230.264 217.124 231.596 216.404Z" fill="url(#paint46_radial_511_472)"/>
<path d="M231.525 231.526C230.73 230.17 237.002 224.478 239.363 223.069C239.542 225.325 239.749 227.401 239.968 229.303C238.418 230.375 236.904 231.5 235.333 232.52C234.06 233.353 232.264 232.786 231.525 231.526Z" fill="url(#paint47_radial_511_472)"/>
<path d="M235.677 236.622C237.333 235.844 238.95 234.984 240.603 234.206C240.923 236.434 241.239 238.334 241.51 239.926C240.505 240.432 239.505 240.948 238.486 241.428C237.107 242.073 235.496 241.824 234.679 240.429C233.965 239.21 234.304 237.267 235.677 236.622Z" fill="url(#paint48_radial_511_472)"/>
<path d="M198.491 226.518C197.657 227.939 196.075 228.121 194.683 227.516C194.057 227.243 193.448 226.94 192.845 226.615C192.525 225.17 192.204 223.724 191.881 222.279C191.639 221.193 191.403 220.104 191.173 219.013C193.217 220.363 199.188 225.326 198.491 226.518Z" fill="url(#paint49_radial_511_472)"/>
<path d="M200.274 233.284C201.653 233.913 201.981 235.888 201.271 237.091C200.448 238.496 198.844 238.719 197.465 238.089C196.961 237.859 196.457 237.633 195.951 237.412C195.66 237.284 195.37 237.159 195.079 237.035L195.015 237.007C194.607 234.827 194.161 232.663 193.7 230.505C195.91 231.387 198.109 232.295 200.274 233.284Z" fill="url(#paint50_radial_511_472)"/>
<path d="M195.534 239.897C197.01 240.465 202.344 243.435 201.925 244.954C201.541 246.354 199.933 247.381 198.502 246.896C197.819 246.668 197.142 246.425 196.464 246.175C196.204 244.062 195.888 241.97 195.534 239.897Z" fill="url(#paint51_radial_511_472)"/>
<path d="M201.162 87.324C200.855 86.2928 200.819 85.1696 200.837 84.1062C200.877 81.889 201.251 79.566 202.624 77.7595C203.967 75.9927 206.057 74.1662 208.293 73.7295C209.69 73.4318 211.143 73.5632 212.464 74.1065C214.773 75.0688 216.25 76.9427 217.882 78.7401C218.058 78.9347 218.236 79.1278 218.408 79.327L217.151 80.4563C215.405 79.2035 213.477 78.2244 211.436 77.5526C211.436 77.5526 212.096 79.0496 211.407 80.0042C211.407 80.0042 213.921 79.6396 216.076 83.766L201.162 87.324Z" fill="#EBA7BE"/>
<path d="M215.069 82.6276C214.597 82.5911 214.122 82.6246 213.659 82.7272C212.573 82.9769 211.667 83.7231 210.573 83.953C209.347 84.2012 208.216 84.2441 207.018 84.6609C206.461 84.8348 205.894 84.9801 205.322 85.0961C204.167 85.3704 203.129 85.9373 202.011 86.3219C201.039 86.6513 199.559 86.7816 199.268 88.0074C199.083 88.7981 199.403 89.6301 199.679 90.3595C199.954 91.0889 200.138 92.1017 200.751 92.6043C201.689 93.3704 202.679 92.2519 203.652 92.2059C205.04 92.1431 206.493 91.7815 207.826 91.3999C208.561 91.19 209.154 90.6797 209.871 90.43C210.561 90.1894 211.298 90.1603 212.017 90.1021C213.026 90.0178 213.894 89.4248 214.862 89.1827C215.781 88.9498 216.9 88.959 217.527 88.1208C217.725 87.8282 217.832 87.483 217.833 87.1294C217.833 86.6851 217.707 86.2484 217.635 85.8117C217.498 84.9597 217.456 83.9132 216.8 83.2696C216.362 82.8283 215.668 82.6751 215.069 82.6276Z" fill="#DE6C92"/>
<path d="M219.475 78.3126L219.375 78.3034C218.316 78.2299 217.314 78.8597 216.733 79.7162C216.464 80.1061 216.319 80.5676 216.315 81.0412C216.31 81.5148 216.448 81.9787 216.71 82.3732C216.844 82.6139 217.012 82.8333 217.21 83.0244C218.177 83.835 219.439 84.0664 220.567 83.4504C220.929 83.2729 221.263 83.0426 221.557 82.767C221.91 82.3766 222.129 81.8833 222.182 81.3593C222.234 80.8353 222.117 80.3083 221.848 79.8557C221.597 79.4338 221.253 79.0753 220.841 78.8078C220.429 78.5402 219.962 78.3708 219.475 78.3126Z" fill="#DE6C92"/>
<path d="M129.709 67.9422C129.423 67.4474 129.345 66.8594 129.491 66.307C129.638 65.7547 129.998 65.2831 130.492 64.9956C130.987 64.7091 131.575 64.6306 132.127 64.7774C132.68 64.9243 133.151 65.2843 133.438 65.7786L134.445 67.5192C134.587 67.764 134.68 68.0344 134.717 68.3149C134.755 68.5954 134.736 68.8805 134.664 69.154C134.591 69.4275 134.465 69.684 134.293 69.9088C134.121 70.1336 133.907 70.3224 133.662 70.4643C133.168 70.7506 132.579 70.8288 132.027 70.6816C131.475 70.5345 131.004 70.1742 130.717 69.6798L129.709 67.9422Z" fill="#1E1B1B"/>
<path d="M128.568 81.6928C129.549 83.4054 131.015 84.7888 132.782 85.6679C134.549 86.547 136.537 86.8825 138.495 86.6318C140.452 86.3811 142.291 85.5556 143.78 84.2597C145.268 82.9637 146.339 81.2555 146.856 79.351C147.374 77.4466 147.315 75.4314 146.687 73.5604C146.06 71.6894 144.891 70.0465 143.33 68.8396C141.768 67.6327 139.884 66.9159 137.915 66.7798C135.946 66.6438 133.981 67.0947 132.269 68.0754C129.972 69.3905 128.292 71.564 127.598 74.1177C126.904 76.6715 127.253 79.3963 128.568 81.6928Z" fill="#DE6C92"/>
<path d="M132.14 77.9019C132.631 78.7592 133.365 79.4517 134.25 79.8918C135.134 80.3319 136.129 80.4999 137.109 80.3744C138.089 80.2489 139.01 79.8356 139.755 79.1868C140.5 78.5381 141.036 77.6829 141.295 76.7295C141.554 75.7761 141.525 74.7673 141.211 73.8307C140.896 72.894 140.311 72.0716 139.53 71.4674C138.748 70.8632 137.805 70.5043 136.819 70.4362C135.833 70.3681 134.85 70.5938 133.992 71.0847C133.423 71.4107 132.924 71.8456 132.523 72.3646C132.121 72.8837 131.826 73.4766 131.654 74.1096C131.482 74.7427 131.437 75.4034 131.52 76.0541C131.603 76.7047 131.814 77.3326 132.14 77.9019Z" fill="#EBA7BE"/>
<path d="M131.775 68.3588L132.771 67.7888L136.268 73.9026L135.271 74.4711L131.775 68.3588Z" fill="white"/>
<path d="M134.477 75.8426C134.287 75.5086 134.199 75.1256 134.227 74.742C134.254 74.3585 134.394 73.9916 134.629 73.6877C134.865 73.3839 135.185 73.1567 135.55 73.0348C135.915 72.913 136.308 72.9021 136.678 73.0034C137.049 73.1047 137.382 73.3137 137.634 73.604C137.886 73.8942 138.047 74.2527 138.095 74.6342C138.144 75.0156 138.078 75.4029 137.906 75.747C137.735 76.0911 137.465 76.3765 137.131 76.5673C136.909 76.6941 136.665 76.776 136.411 76.8081C136.158 76.8403 135.9 76.8223 135.654 76.755C135.407 76.6876 135.177 76.5724 134.975 76.4159C134.773 76.2593 134.604 76.0645 134.477 75.8426Z" fill="white"/>
<path d="M62.7507 102.32C62.6919 101.752 62.8613 101.183 63.2216 100.739C63.5819 100.295 64.1036 100.013 64.6722 99.953C65.2408 99.8947 65.8094 100.065 66.2529 100.425C66.6965 100.786 66.9789 101.307 67.038 101.876L67.2433 103.868C67.302 104.437 67.1326 105.005 66.7723 105.449C66.412 105.892 65.8903 106.175 65.3219 106.234C65.0403 106.263 64.7558 106.236 64.4846 106.155C64.2134 106.074 63.9608 105.941 63.7413 105.762C63.5217 105.584 63.3395 105.364 63.205 105.115C63.0705 104.865 62.9864 104.592 62.9575 104.311L62.7507 102.32Z" fill="#1E1B1B"/>
<path d="M56.0735 114.39C56.2653 116.354 57.0351 118.217 58.2857 119.743C59.5363 121.27 61.2114 122.391 63.0992 122.965C64.987 123.54 67.0027 123.541 68.8914 122.97C70.7801 122.399 72.457 121.28 73.71 119.756C74.963 118.232 75.7359 116.37 75.9309 114.406C76.1258 112.443 75.7342 110.465 74.8054 108.725C73.8766 106.984 72.4523 105.557 70.7128 104.626C68.9733 103.694 66.9967 103.299 65.0328 103.491C62.3996 103.749 59.9765 105.042 58.2964 107.086C56.6163 109.13 55.8167 111.757 56.0735 114.39Z" fill="#DE6C92"/>
<path d="M60.8852 112.398C60.9814 113.382 61.3671 114.314 61.9934 115.078C62.6196 115.843 63.4584 116.404 64.4037 116.691C65.3489 116.979 66.3582 116.979 67.3038 116.693C68.2494 116.407 69.0889 115.847 69.7161 115.083C70.3434 114.32 70.7302 113.388 70.8277 112.405C70.9251 111.421 70.7288 110.431 70.2636 109.56C69.7985 108.688 69.0853 107.974 68.2142 107.508C67.3432 107.042 66.3535 106.844 65.3702 106.94C64.7173 107.004 64.0833 107.196 63.5045 107.505C62.9257 107.813 62.4134 108.233 61.9969 108.74C61.5804 109.247 61.2678 109.831 61.0771 110.459C60.8863 111.086 60.8211 111.745 60.8852 112.398Z" fill="#EBA7BE"/>
<path d="M64.4658 103.543L65.6074 103.431L66.2892 110.442L65.1477 110.552L64.4658 103.543Z" fill="white"/>
<path d="M63.8614 111.477C63.8248 111.095 63.9023 110.71 64.0841 110.372C64.266 110.034 64.544 109.757 64.8832 109.577C65.2223 109.396 65.6072 109.32 65.9894 109.359C66.3716 109.397 66.7338 109.548 67.0303 109.792C67.3269 110.036 67.5444 110.363 67.6555 110.73C67.7665 111.098 67.7661 111.49 67.6542 111.858C67.5424 112.225 67.3241 112.551 67.0271 112.795C66.73 113.038 66.3674 113.188 65.9851 113.226C65.4717 113.275 64.9596 113.119 64.5614 112.791C64.1632 112.463 63.9114 111.991 63.8614 111.477Z" fill="white"/>
<path d="M42.9846 49.4534C41.8393 51.0602 41.1961 52.9704 41.1364 54.9427C41.0767 56.9149 41.6032 58.8606 42.6493 60.5336C43.6953 62.2066 45.214 63.5319 47.0133 64.3419C48.8125 65.1518 50.8115 65.4101 52.7575 65.0839C54.7035 64.7578 56.5091 63.862 57.946 62.5097C59.3829 61.1574 60.3866 59.4094 60.83 57.4868C61.2735 55.5641 61.1369 53.5531 60.4375 51.7081C59.7381 49.8631 58.5073 48.2669 56.9008 47.1213C55.8339 46.3606 54.6277 45.8175 53.3509 45.523C52.0742 45.2285 50.7519 45.1883 49.4596 45.4049C48.1673 45.6215 46.9304 46.0905 45.8194 46.7851C44.7084 47.4798 43.7451 48.3865 42.9846 49.4534Z" fill="#7FB2E0"/>
<path d="M47.9175 51.113C47.3442 51.9174 47.0223 52.8739 46.9925 53.8613C46.9627 54.8487 47.2263 55.8228 47.7501 56.6604C48.2738 57.498 49.0342 58.1615 49.935 58.567C50.8358 58.9725 51.8366 59.1018 52.8109 58.9386C53.7852 58.7753 54.6892 58.3269 55.4086 57.6499C56.1281 56.9729 56.6307 56.0978 56.8528 55.1353C57.0749 54.1727 57.0067 53.1659 56.6567 52.2421C56.3067 51.3183 55.6906 50.519 54.8864 49.9454C54.3522 49.5643 53.7481 49.2922 53.1088 49.1447C52.4694 48.9971 51.8072 48.977 51.1601 49.0854C50.5129 49.1938 49.8934 49.4287 49.3371 49.7766C48.7807 50.1245 48.2983 50.5786 47.9175 51.113Z" fill="#EBA7BE"/>
<path d="M56.4379 46.7904L57.3711 47.4569L53.2783 53.1892L52.3467 52.5212L56.4379 46.7904Z" fill="white"/>
<path d="M50.7679 52.374C50.9915 52.0616 51.3027 51.8226 51.6622 51.687C52.0217 51.5515 52.4133 51.5256 52.7875 51.6126C53.1617 51.6996 53.5017 51.8955 53.7646 52.1757C54.0274 52.4559 54.2013 52.8077 54.2643 53.1867C54.3272 53.5657 54.2764 53.9548 54.1183 54.305C53.9601 54.6551 53.7017 54.9504 53.3757 55.1537C53.0497 55.357 52.6708 55.4591 52.2868 55.4471C51.9028 55.435 51.531 55.3094 51.2184 55.0861C50.7991 54.7861 50.516 54.3319 50.4316 53.8233C50.3471 53.3147 50.4681 52.7934 50.7679 52.374Z" fill="white"/>
<defs>
<radialGradient id="paint0_radial_511_472" cx="0" cy="0" r="1" gradientUnits="userSpaceOnUse" gradientTransform="translate(181838 93922.4) scale(9036.84 5995.23)">
<stop offset="0.57" stop-color="#130C0E"/>
<stop offset="0.8" stop-color="#130C0E"/>
<stop offset="1" stop-color="#130C0E"/>
</radialGradient>
<radialGradient id="paint1_radial_511_472" cx="0" cy="0" r="1" gradientUnits="userSpaceOnUse" gradientTransform="translate(218.789 125.437) rotate(179.427) scale(7.07339)">
<stop offset="0.57" stop-color="#130C0E"/>
<stop offset="0.8" stop-color="#130C0E"/>
<stop offset="1" stop-color="#130C0E"/>
</radialGradient>
<radialGradient id="paint2_radial_511_472" cx="0" cy="0" r="1" gradientUnits="userSpaceOnUse" gradientTransform="translate(-2369.25 13456.7) rotate(-167.829) scale(46.2619 86.001)">
<stop offset="0.57" stop-color="#130C0E"/>
<stop offset="0.8" stop-color="#130C0E"/>
<stop offset="1" stop-color="#130C0E"/>
</radialGradient>
<radialGradient id="paint3_radial_511_472" cx="0" cy="0" r="1" gradientUnits="userSpaceOnUse" gradientTransform="translate(6319.32 10031.6) rotate(-44.6104) scale(48.5034 83.5761)">
<stop offset="0.57" stop-color="#130C0E"/>
<stop offset="0.8" stop-color="#130C0E"/>
<stop offset="1" stop-color="#130C0E"/>
</radialGradient>
<radialGradient id="paint4_radial_511_472" cx="0" cy="0" r="1" gradientUnits="userSpaceOnUse" gradientTransform="translate(2196.23 11585.6) rotate(163.74) scale(443.212 334.525)">
<stop offset="0.57" stop-color="#130C0E"/>
<stop offset="0.8" stop-color="#130C0E"/>
<stop offset="1" stop-color="#130C0E"/>
</radialGradient>
<radialGradient id="paint5_radial_511_472" cx="0" cy="0" r="1" gradientUnits="userSpaceOnUse" gradientTransform="translate(2553.46 12492) rotate(163.74) scale(552.891 413.481)">
<stop offset="0.57" stop-color="#130C0E"/>
<stop offset="0.8" stop-color="#130C0E"/>
<stop offset="1" stop-color="#130C0E"/>
</radialGradient>
<radialGradient id="paint6_radial_511_472" cx="0" cy="0" r="1" gradientUnits="userSpaceOnUse" gradientTransform="translate(2755.14 12929.2) rotate(163.74) scale(530.766 409.435)">
<stop offset="0.57" stop-color="#130C0E"/>
<stop offset="0.8" stop-color="#130C0E"/>
<stop offset="1" stop-color="#130C0E"/>
</radialGradient>
<radialGradient id="paint7_radial_511_472" cx="0" cy="0" r="1" gradientUnits="userSpaceOnUse" gradientTransform="translate(-2740.81 5950.2) rotate(-16.21) scale(490.478 138.643)">
<stop offset="0.57" stop-color="#130C0E"/>
<stop offset="0.8" stop-color="#130C0E"/>
<stop offset="1" stop-color="#130C0E"/>
</radialGradient>
<radialGradient id="paint8_radial_511_472" cx="0" cy="0" r="1" gradientUnits="userSpaceOnUse" gradientTransform="translate(-3242.27 6003.61) rotate(-16.21) scale(608.753 155.171)">
<stop offset="0.57" stop-color="#130C0E"/>
<stop offset="0.8" stop-color="#130C0E"/>
<stop offset="1" stop-color="#130C0E"/>
</radialGradient>
<radialGradient id="paint9_radial_511_472" cx="0" cy="0" r="1" gradientUnits="userSpaceOnUse" gradientTransform="translate(-3273.73 6337.88) rotate(-16.21) scale(599.48 157.714)">
<stop offset="0.57" stop-color="#130C0E"/>
<stop offset="0.8" stop-color="#130C0E"/>
<stop offset="1" stop-color="#130C0E"/>
</radialGradient>
<radialGradient id="paint10_radial_511_472" cx="0" cy="0" r="1" gradientUnits="userSpaceOnUse" gradientTransform="translate(10680 40966.5) rotate(163.74) scale(12751.4 33581.8)">
<stop offset="0.57" stop-color="#130C0E"/>
<stop offset="0.8" stop-color="#130C0E"/>
<stop offset="1" stop-color="#130C0E"/>
</radialGradient>
<radialGradient id="paint11_radial_511_472" cx="0" cy="0" r="1" gradientUnits="userSpaceOnUse" gradientTransform="translate(6093.27 24409.6) rotate(163.74) scale(7562.81 17641)">
<stop offset="0.57" stop-color="#130C0E"/>
<stop offset="0.8" stop-color="#130C0E"/>
<stop offset="1" stop-color="#130C0E"/>
</radialGradient>
<radialGradient id="paint12_radial_511_472" cx="0" cy="0" r="1" gradientUnits="userSpaceOnUse" gradientTransform="translate(5198.46 21656.9) rotate(163.74) scale(6595.37 15050.8)">
<stop offset="0.57" stop-color="#130C0E"/>
<stop offset="0.8" stop-color="#130C0E"/>
<stop offset="1" stop-color="#130C0E"/>
</radialGradient>
<radialGradient id="paint13_radial_511_472" cx="0" cy="0" r="1" gradientUnits="userSpaceOnUse" gradientTransform="translate(-2619.71 12527.4) rotate(153.178) scale(777.732 324.751)">
<stop offset="0.57" stop-color="#130C0E"/>
<stop offset="0.8" stop-color="#130C0E"/>
<stop offset="1" stop-color="#130C0E"/>
</radialGradient>
<radialGradient id="paint14_radial_511_472" cx="0" cy="0" r="1" gradientUnits="userSpaceOnUse" gradientTransform="translate(-572.283 14401.4) rotate(146.785) scale(745.208 409.082)">
<stop offset="0.57" stop-color="#130C0E"/>
<stop offset="0.8" stop-color="#130C0E"/>
<stop offset="1" stop-color="#130C0E"/>
</radialGradient>
<radialGradient id="paint15_radial_511_472" cx="0" cy="0" r="1" gradientUnits="userSpaceOnUse" gradientTransform="translate(-4498.35 7914.94) rotate(164.291) scale(819.342 186.546)">
<stop offset="0.57" stop-color="#130C0E"/>
<stop offset="0.8" stop-color="#130C0E"/>
<stop offset="1" stop-color="#130C0E"/>
</radialGradient>
<radialGradient id="paint16_radial_511_472" cx="0" cy="0" r="1" gradientUnits="userSpaceOnUse" gradientTransform="translate(-14877.2 8270.87) rotate(-5.72001) scale(820.711 186.443)">
<stop offset="0.57" stop-color="#130C0E"/>
<stop offset="0.8" stop-color="#130C0E"/>
<stop offset="1" stop-color="#130C0E"/>
</radialGradient>
<radialGradient id="paint17_radial_511_472" cx="0" cy="0" r="1" gradientUnits="userSpaceOnUse" gradientTransform="translate(-14472.6 3459.73) rotate(0.709998) scale(832.627 96.9239)">
<stop offset="0.57" stop-color="#130C0E"/>
<stop offset="0.8" stop-color="#130C0E"/>
<stop offset="1" stop-color="#130C0E"/>
</radialGradient>
<radialGradient id="paint18_radial_511_472" cx="0" cy="0" r="1" gradientUnits="userSpaceOnUse" gradientTransform="translate(-13054.1 15620.6) rotate(-16.62) scale(777.648 332.953)">
<stop offset="0.57" stop-color="#130C0E"/>
<stop offset="0.8" stop-color="#130C0E"/>
<stop offset="1" stop-color="#130C0E"/>
</radialGradient>
<radialGradient id="paint19_radial_511_472" cx="0" cy="0" r="1" gradientUnits="userSpaceOnUse" gradientTransform="translate(536.997 7238.88) rotate(163.74) scale(136.265 96.0639)">
<stop offset="0.57" stop-color="#130C0E"/>
<stop offset="0.8" stop-color="#130C0E"/>
<stop offset="1" stop-color="#130C0E"/>
</radialGradient>
<radialGradient id="paint20_radial_511_472" cx="0" cy="0" r="1" gradientUnits="userSpaceOnUse" gradientTransform="translate(1092.76 9178.98) rotate(163.74) scale(114.399 123.962)">
<stop offset="0.57" stop-color="#130C0E"/>
<stop offset="0.8" stop-color="#130C0E"/>
<stop offset="1" stop-color="#130C0E"/>
</radialGradient>
<radialGradient id="paint21_radial_511_472" cx="0" cy="0" r="1" gradientUnits="userSpaceOnUse" gradientTransform="translate(1619.87 32276.5) rotate(180) scale(444.001 1624.07)">
<stop offset="0.57" stop-color="#130C0E"/>
<stop offset="0.8" stop-color="#130C0E"/>
<stop offset="1" stop-color="#130C0E"/>
</radialGradient>
<radialGradient id="paint22_radial_511_472" cx="0" cy="0" r="1" gradientUnits="userSpaceOnUse" gradientTransform="translate(1960.73 63139.2) rotate(180) scale(1369.89 5540.48)">
<stop offset="0.57" stop-color="#130C0E"/>
<stop offset="0.8" stop-color="#130C0E"/>
<stop offset="1" stop-color="#130C0E"/>
</radialGradient>
<radialGradient id="paint23_radial_511_472" cx="0" cy="0" r="1" gradientUnits="userSpaceOnUse" gradientTransform="translate(956.566 26874.7) rotate(180) scale(530.087 1311.05)">
<stop offset="0.57" stop-color="#130C0E"/>
<stop offset="0.8" stop-color="#130C0E"/>
<stop offset="1" stop-color="#130C0E"/>
</radialGradient>
<radialGradient id="paint24_radial_511_472" cx="0" cy="0" r="1" gradientUnits="userSpaceOnUse" gradientTransform="translate(522.261 49285.1) rotate(180) scale(1358.66 3856.28)">
<stop offset="0.57" stop-color="#130C0E"/>
<stop offset="0.8" stop-color="#130C0E"/>
<stop offset="1" stop-color="#130C0E"/>
</radialGradient>
<radialGradient id="paint25_radial_511_472" cx="0" cy="0" r="1" gradientUnits="userSpaceOnUse" gradientTransform="translate(-359.38 28478.9) rotate(180) scale(526.489 1461.91)">
<stop offset="0.57" stop-color="#130C0E"/>
<stop offset="0.8" stop-color="#130C0E"/>
<stop offset="1" stop-color="#130C0E"/>
</radialGradient>
<radialGradient id="paint26_radial_511_472" cx="0" cy="0" r="1" gradientUnits="userSpaceOnUse" gradientTransform="translate(-1049.4 35324.4) rotate(180) scale(543.675 2035.99)">
<stop offset="0.57" stop-color="#130C0E"/>
<stop offset="0.8" stop-color="#130C0E"/>
<stop offset="1" stop-color="#130C0E"/>
</radialGradient>
<radialGradient id="paint27_radial_511_472" cx="0" cy="0" r="1" gradientUnits="userSpaceOnUse" gradientTransform="translate(-1524.16 43588.2) rotate(180) scale(564.97 2957.97)">
<stop offset="0.57" stop-color="#130C0E"/>
<stop offset="0.8" stop-color="#130C0E"/>
<stop offset="1" stop-color="#130C0E"/>
</radialGradient>
<radialGradient id="paint28_radial_511_472" cx="0" cy="0" r="1" gradientUnits="userSpaceOnUse" gradientTransform="translate(-2796.85 30701.1) rotate(180) scale(608.541 1424.38)">
<stop offset="0.57" stop-color="#130C0E"/>
<stop offset="0.8" stop-color="#130C0E"/>
<stop offset="1" stop-color="#130C0E"/>
</radialGradient>
<radialGradient id="paint29_radial_511_472" cx="0" cy="0" r="1" gradientUnits="userSpaceOnUse" gradientTransform="translate(-2105.18 23565.4) rotate(180) scale(280.994 890.648)">
<stop offset="0.57" stop-color="#130C0E"/>
<stop offset="0.8" stop-color="#130C0E"/>
<stop offset="1" stop-color="#130C0E"/>
</radialGradient>
<radialGradient id="paint30_radial_511_472" cx="0" cy="0" r="1" gradientUnits="userSpaceOnUse" gradientTransform="translate(-3185.14 17241) rotate(180) scale(338.468 561.227)">
<stop offset="0.57" stop-color="#130C0E"/>
<stop offset="0.8" stop-color="#130C0E"/>
<stop offset="1" stop-color="#130C0E"/>
</radialGradient>
<radialGradient id="paint31_radial_511_472" cx="0" cy="0" r="1" gradientUnits="userSpaceOnUse" gradientTransform="translate(-3109.51 16856.8) rotate(180) scale(231.245 434.155)">
<stop offset="0.57" stop-color="#130C0E"/>
<stop offset="0.8" stop-color="#130C0E"/>
<stop offset="1" stop-color="#130C0E"/>
</radialGradient>
<radialGradient id="paint32_radial_511_472" cx="0" cy="0" r="1" gradientUnits="userSpaceOnUse" gradientTransform="translate(-3761.14 14220.8) rotate(180) scale(308.773 456.975)">
<stop offset="0.57" stop-color="#130C0E"/>
<stop offset="0.8" stop-color="#130C0E"/>
<stop offset="1" stop-color="#130C0E"/>
</radialGradient>
<radialGradient id="paint33_radial_511_472" cx="0" cy="0" r="1" gradientUnits="userSpaceOnUse" gradientTransform="translate(-5064.74 13330) rotate(180) scale(352.781 419.616)">
<stop offset="0.57" stop-color="#130C0E"/>
<stop offset="0.8" stop-color="#130C0E"/>
<stop offset="1" stop-color="#130C0E"/>
</radialGradient>
<radialGradient id="paint34_radial_511_472" cx="0" cy="0" r="1" gradientUnits="userSpaceOnUse" gradientTransform="translate(-6097.3 16127.8) rotate(180) scale(406.652 559.066)">
<stop offset="0.57" stop-color="#130C0E"/>
<stop offset="0.8" stop-color="#130C0E"/>
<stop offset="1" stop-color="#130C0E"/>
</radialGradient>
<radialGradient id="paint35_radial_511_472" cx="0" cy="0" r="1" gradientUnits="userSpaceOnUse" gradientTransform="translate(-8384.73 8217.9) rotate(180) scale(378.129 210.423)">
<stop offset="0.57" stop-color="#130C0E"/>
<stop offset="0.8" stop-color="#130C0E"/>
<stop offset="1" stop-color="#130C0E"/>
</radialGradient>
<radialGradient id="paint36_radial_511_472" cx="0" cy="0" r="1" gradientUnits="userSpaceOnUse" gradientTransform="translate(-4802.7 13222.7) rotate(180) scale(246.868 381.464)">
<stop offset="0.57" stop-color="#130C0E"/>
<stop offset="0.8" stop-color="#130C0E"/>
<stop offset="1" stop-color="#130C0E"/>
</radialGradient>
<radialGradient id="paint37_radial_511_472" cx="0" cy="0" r="1" gradientUnits="userSpaceOnUse" gradientTransform="translate(-3231.74 12568.3) rotate(180) scale(760.372 350.577)">
<stop offset="0.57" stop-color="#130C0E"/>
<stop offset="0.8" stop-color="#130C0E"/>
<stop offset="1" stop-color="#130C0E"/>
</radialGradient>
<radialGradient id="paint38_radial_511_472" cx="0" cy="0" r="1" gradientUnits="userSpaceOnUse" gradientTransform="translate(-3456.69 14115.2) rotate(180) scale(733.235 381.113)">
<stop offset="0.57" stop-color="#130C0E"/>
<stop offset="0.8" stop-color="#130C0E"/>
<stop offset="1" stop-color="#130C0E"/>
</radialGradient>
<radialGradient id="paint39_radial_511_472" cx="0" cy="0" r="1" gradientUnits="userSpaceOnUse" gradientTransform="translate(-2919.01 15643.1) rotate(180) scale(531.374 402.9)">
<stop offset="0.57" stop-color="#130C0E"/>
<stop offset="0.8" stop-color="#130C0E"/>
<stop offset="1" stop-color="#130C0E"/>
</radialGradient>
<radialGradient id="paint40_radial_511_472" cx="0" cy="0" r="1" gradientUnits="userSpaceOnUse" gradientTransform="translate(470.561 13886.9) rotate(180) scale(1107.51 510.621)">
<stop offset="0.57" stop-color="#130C0E"/>
<stop offset="0.8" stop-color="#130C0E"/>
<stop offset="1" stop-color="#130C0E"/>
</radialGradient>
<radialGradient id="paint41_radial_511_472" cx="0" cy="0" r="1" gradientUnits="userSpaceOnUse" gradientTransform="translate(-29.3059 11757.6) rotate(180) scale(1094.71 397.338)">
<stop offset="0.57" stop-color="#130C0E"/>
<stop offset="0.8" stop-color="#130C0E"/>
<stop offset="1" stop-color="#130C0E"/>
</radialGradient>
<radialGradient id="paint42_radial_511_472" cx="0" cy="0" r="1" gradientUnits="userSpaceOnUse" gradientTransform="translate(-425.764 11746.7) rotate(180) scale(708.24 315.032)">
<stop offset="0.57" stop-color="#130C0E"/>
<stop offset="0.8" stop-color="#130C0E"/>
<stop offset="1" stop-color="#130C0E"/>
</radialGradient>
<radialGradient id="paint43_radial_511_472" cx="0" cy="0" r="1" gradientUnits="userSpaceOnUse" gradientTransform="translate(13946.8 30442.5) rotate(180) scale(1903.49 1956.42)">
<stop offset="0.57" stop-color="#130C0E"/>
<stop offset="0.8" stop-color="#130C0E"/>
<stop offset="1" stop-color="#130C0E"/>
</radialGradient>
<radialGradient id="paint44_radial_511_472" cx="0" cy="0" r="1" gradientUnits="userSpaceOnUse" gradientTransform="translate(16761.1 43869.4) rotate(180) scale(2820.69 3146.3)">
<stop offset="0.57" stop-color="#130C0E"/>
<stop offset="0.8" stop-color="#130C0E"/>
<stop offset="1" stop-color="#130C0E"/>
</radialGradient>
<radialGradient id="paint45_radial_511_472" cx="0" cy="0" r="1" gradientUnits="userSpaceOnUse" gradientTransform="translate(5686.91 19191.9) rotate(180) scale(392.812 549.056)">
<stop offset="0.57" stop-color="#130C0E"/>
<stop offset="0.8" stop-color="#130C0E"/>
<stop offset="1" stop-color="#130C0E"/>
</radialGradient>
<radialGradient id="paint46_radial_511_472" cx="0" cy="0" r="1" gradientUnits="userSpaceOnUse" gradientTransform="translate(5675.5 18778) rotate(180) scale(375.051 461.912)">
<stop offset="0.57" stop-color="#130C0E"/>
<stop offset="0.8" stop-color="#130C0E"/>
<stop offset="1" stop-color="#130C0E"/>
</radialGradient>
<radialGradient id="paint47_radial_511_472" cx="0" cy="0" r="1" gradientUnits="userSpaceOnUse" gradientTransform="translate(5561.47 17864.6) rotate(180) scale(359.978 416.274)">
<stop offset="0.57" stop-color="#130C0E"/>
<stop offset="0.8" stop-color="#130C0E"/>
<stop offset="1" stop-color="#130C0E"/>
</radialGradient>
<radialGradient id="paint48_radial_511_472" cx="0" cy="0" r="1" gradientUnits="userSpaceOnUse" gradientTransform="translate(4758.48 14274.7) rotate(180) scale(274.557 288.487)">
<stop offset="0.57" stop-color="#130C0E"/>
<stop offset="0.8" stop-color="#130C0E"/>
<stop offset="1" stop-color="#130C0E"/>
</radialGradient>
<radialGradient id="paint49_radial_511_472" cx="0" cy="0" r="1" gradientUnits="userSpaceOnUse" gradientTransform="translate(2489.55 15731.3) rotate(180) scale(353.238 422.929)">
<stop offset="0.57" stop-color="#130C0E"/>
<stop offset="0.8" stop-color="#130C0E"/>
<stop offset="1" stop-color="#130C0E"/>
</radialGradient>
<radialGradient id="paint50_radial_511_472" cx="0" cy="0" r="1" gradientUnits="userSpaceOnUse" gradientTransform="translate(2781.93 14713.4) rotate(180) scale(407.59 406.712)">
<stop offset="0.57" stop-color="#130C0E"/>
<stop offset="0.8" stop-color="#130C0E"/>
<stop offset="1" stop-color="#130C0E"/>
</radialGradient>
<radialGradient id="paint51_radial_511_472" cx="0" cy="0" r="1" gradientUnits="userSpaceOnUse" gradientTransform="translate(2209.57 13692) rotate(180) scale(313.348 347.863)">
<stop offset="0.57" stop-color="#130C0E"/>
<stop offset="0.8" stop-color="#130C0E"/>
<stop offset="1" stop-color="#130C0E"/>
</radialGradient>
</defs>
</svg>
