<svg width="83" height="101" viewBox="0 0 83 101" fill="none" xmlns="http://www.w3.org/2000/svg">
<path d="M70.7921 37.5148C68.6832 31.8315 64.5867 26.9325 58.0584 26.5661C48.2531 26.0174 39.8104 31.9854 31.1724 35.6594C24.549 38.4783 11.5501 40.6504 10.2273 49.4297C9.43382 54.7 11.5713 60.0521 12.7776 65.0893C14.3939 71.9057 16.5826 78.5992 19.5741 84.9373C21.6695 89.3788 23.885 94.3636 28.7348 96.3044C33.4703 98.2021 38.3854 95.8567 42.8582 94.2861C49.2371 92.0494 55.8457 90.5716 62.4979 89.4601C70.0664 88.1996 76.8799 85.6655 76.2458 76.68C75.8343 70.8703 74.7707 65.1261 74.263 59.3234C73.7351 53.2696 73.1747 47.2055 71.8787 41.2592C71.6053 39.9869 71.2422 38.7356 70.7921 37.5148Z" fill="#DE6C92"/>
<path d="M11.6851 61.2701C11.8168 61.753 11.9519 62.2331 12.0826 62.7122C12.6051 62.1109 13.1167 61.4982 13.639 60.9131C14.6266 59.8071 15.7021 58.7749 17.0466 58.1281C18.5889 57.3855 20.3016 57.5221 21.8713 58.0924C23.5462 58.7 25.0744 59.5748 26.9078 59.5614C28.6222 59.5543 30.0401 59.0131 31.1185 57.6573C32.398 56.0436 33.5032 54.4314 35.13 53.1279C36.7568 51.8244 38.9685 50.9014 41.0047 51.6767C42.5996 52.2853 43.8187 53.579 45.5148 53.9899C46.9176 54.352 48.3986 54.2439 49.7324 53.682C52.1194 52.6363 53.3092 49.9607 54.924 48.0791C55.8121 47.0434 56.8757 46.2298 58.2133 45.8894C59.4976 45.5616 60.7739 46.3313 61.7922 47.0215C62.9348 47.7949 64.0054 48.636 65.285 49.1769C65.9974 49.4703 66.7602 49.6193 67.5295 49.6155C68.2989 49.6116 69.0595 49.455 69.7676 49.1545C71.1028 48.6028 72.1393 47.7009 73.0581 46.6679C72.9805 46.1485 72.8972 45.6305 72.8083 45.1138C71.4778 46.7659 69.9622 48.19 67.8324 48.357C64.9577 48.5815 62.9993 45.8932 60.5273 44.8994C57.8373 43.8167 55.284 45.6345 53.6566 47.6564C52.1245 49.5646 50.8672 52.2684 48.2763 52.8485C46.6193 53.2211 45.0254 52.6001 43.6411 51.7393C42.1075 50.7832 40.7296 49.9914 38.8636 50.17C36.8013 50.3673 34.9924 51.5388 33.4845 52.8945C32.7617 53.5555 32.0973 54.2783 31.4988 55.0546C30.924 55.7975 30.442 56.6008 29.801 57.2769C28.5542 58.6083 26.3852 58.4519 24.8024 57.9191C23.1124 57.3494 21.6095 56.4544 19.7904 56.3514C16.6109 56.1666 14.2509 58.3053 12.3005 60.5457L11.6851 61.2701Z" fill="white"/>
<path d="M69.3126 59.8824C67.9824 59.4923 66.8766 58.6053 65.5818 58.1309C64.137 57.6025 62.6805 58.0611 61.42 58.8241C59.6603 59.8903 58.2518 61.2296 56.7781 62.6525C55.4484 63.9311 53.9745 65.2043 52.0748 65.3957C49.2075 65.6831 46.6873 63.6816 43.9568 63.1477C40.9531 62.5675 38.5563 64.1316 36.6422 66.3107C34.7869 68.4198 33.3374 71.1963 30.8415 72.6284C29.5253 73.3828 28.0731 73.3373 26.6502 72.9334C25.2274 72.5296 23.9536 71.7367 22.4658 71.526C19.8744 71.1585 17.4066 72.9073 15.741 75.0129C15.8969 75.4706 16.0544 75.9266 16.2135 76.3809C17.3951 74.6168 19.1562 73.2249 21.1009 72.8151C22.6224 72.4867 24.0167 73.2686 25.3854 73.8112C26.7999 74.3708 28.3324 74.6605 29.8364 74.3423C32.5967 73.7651 34.4158 71.1397 36.0261 69.0433C37.7127 66.8428 39.7207 64.1941 42.7692 64.2565C45.5984 64.3156 48.0391 66.2923 50.8412 66.6194C54.7074 67.0709 57.1819 63.8334 59.7571 61.5219C60.9912 60.416 62.7787 59.0017 64.5476 59.143C65.8022 59.2419 66.9923 60.2325 68.1065 60.7402C70.0784 61.6294 72.1786 61.5456 74.1088 60.8598C74.0652 60.4458 74.0247 60.0309 73.9874 59.6153C72.5063 60.2371 70.857 60.3313 69.3126 59.8824Z" fill="white"/>
<path d="M76.2745 73.0441C76.2308 72.6251 76.1851 72.2059 76.1372 71.7866C75.7832 71.7446 75.4341 71.6949 75.0899 71.6372C72.3473 71.1676 69.4939 70.1763 66.7411 71.1256C65.0784 71.7019 63.9789 72.9315 62.7987 74.1624C62.2285 74.7552 61.6115 75.3471 60.821 75.6364C59.8384 75.9858 58.71 75.7598 57.7385 75.4963C56.1837 75.0783 54.8616 74.0944 53.3483 73.5625C51.7776 73.0103 50.0923 73.1879 48.5477 73.7498C42.93 75.7893 41.1915 82.74 35.5658 84.6614C33.8472 85.249 32.1428 85.1609 30.4256 84.6558C28.7083 84.1507 27.0544 83.4624 25.2232 83.6389C23.215 83.8586 21.3481 84.7795 19.9577 86.2363C20.151 86.6381 20.3525 87.04 20.5496 87.441C21.8523 85.9106 23.7411 84.8761 25.8433 84.8429C27.656 84.8089 29.3824 85.732 31.1253 86.1249C32.7531 86.476 34.4501 86.3669 36.0231 85.8103C41.7068 83.861 43.4315 76.9117 49.0002 74.8879C49.7849 74.5891 50.6229 74.4543 51.4611 74.4922C52.2994 74.5302 53.1197 74.7399 53.8702 75.1082C55.4164 75.8283 56.7884 76.5981 58.4879 76.9194C60.3207 77.2648 61.8551 76.7613 63.209 75.5127C64.4922 74.3231 65.4662 72.8735 67.1921 72.2741C69.8841 71.3413 72.9149 72.5662 75.5912 72.9617C75.811 73.0011 76.0439 73.0274 76.2745 73.0441Z" fill="white"/>
<path d="M23.7483 68.0337C24.587 68.3631 24.942 66.9452 24.1086 66.6193C23.1675 66.2517 22.3487 65.5607 21.4538 65.0688C20.6663 64.6355 19.9793 65.8823 20.7741 66.3187C21.7786 66.8784 22.6908 67.6241 23.7483 68.0337Z" fill="white"/>
<path d="M30.2273 64.9697C30.9025 64.1602 31.6217 63.3979 32.3813 62.6869C32.9151 62.1843 32.1196 61.2667 31.587 61.7669C30.8277 62.4783 30.1085 63.2406 29.4331 64.0498C28.9599 64.6124 29.7479 65.5359 30.2273 64.9697Z" fill="white"/>
<path d="M41.4116 59.0232C40.4235 58.8115 39.5718 58.3365 38.7182 57.862C38.0487 57.4898 37.383 58.4746 38.0544 58.8463C38.9931 59.3682 39.9478 59.8898 41.0326 60.1223C41.798 60.2867 42.1789 59.1872 41.4116 59.0232Z" fill="white"/>
<path d="M49.7015 60.386C50.8357 59.746 51.7002 58.7681 52.6247 57.8562C53.1775 57.3072 52.3411 56.3983 51.7861 56.9459C50.9386 57.7849 50.1539 58.7015 49.1131 59.2889C48.4405 59.6674 49.028 60.7687 49.7015 60.386Z" fill="white"/>
<path d="M61.4259 53.1953C60.4124 52.8774 59.5228 52.2438 58.6283 51.6068C57.9292 51.1107 57.3122 52.2904 58.0138 52.7883C58.9924 53.4852 59.9914 54.1841 61.1041 54.5332C61.8891 54.7799 62.2133 53.4438 61.4259 53.1953Z" fill="white"/>
<path d="M69.2924 54.7663L69.5129 54.4069C69.5908 54.2727 69.6132 54.1134 69.5752 53.9629C69.5372 53.8125 69.4419 53.6828 69.3097 53.6017C69.1774 53.5206 69.0187 53.4943 68.8674 53.5286C68.7161 53.5629 68.5842 53.655 68.4998 53.7853C68.4249 53.9047 68.3519 54.0238 68.2792 54.1446C68.2361 54.2112 68.2068 54.2857 68.1929 54.3638C68.179 54.4418 68.1809 54.5219 68.1984 54.5992C68.216 54.6766 68.2488 54.7496 68.2949 54.8141C68.3411 54.8785 68.3997 54.9331 68.4673 54.9745C68.5349 55.016 68.6101 55.0435 68.6885 55.0555C68.7669 55.0675 68.8469 55.0637 68.9237 55.0443C69.0006 55.0249 69.0728 54.9902 69.1361 54.9425C69.1994 54.8948 69.2526 54.8348 69.2924 54.7663Z" fill="white"/>
<path d="M26.6468 79.6959C25.8754 79.8682 26.1747 81.1181 26.9461 80.9458C28.1851 80.6547 29.4761 80.6533 30.7274 80.9413C31.5 81.1209 31.8484 79.9003 31.0692 79.7181C29.6077 79.3721 28.0977 79.3645 26.6468 79.6959Z" fill="white"/>
<path d="M38.586 73.114C37.5223 73.9899 36.5489 74.9185 35.4195 75.7503C34.6627 76.3065 35.6502 77.0697 36.4085 76.5096C37.5383 75.6794 38.5117 74.7508 39.5755 73.8749C40.2805 73.2913 39.3021 72.5241 38.586 73.114Z" fill="white"/>
<path d="M44.4198 69.4098C43.6501 69.2019 43.2708 70.3368 44.0404 70.5447C44.9635 70.7936 45.9257 70.8682 46.8793 70.9828C47.677 71.0798 47.7278 69.8985 46.9405 69.8029C46.089 69.7325 45.2464 69.6011 44.4198 69.4098Z" fill="white"/>
<path d="M56.61 68.8167C55.7573 68.5193 55.3442 69.8293 56.1894 70.124C56.8066 70.3611 57.4531 70.5233 58.1142 70.607C58.301 70.6101 58.4829 70.5422 58.6207 70.4179C58.7584 70.2935 58.841 70.1227 58.8505 69.9423C58.8548 69.7625 58.7869 69.5893 58.661 69.459C58.535 69.3287 58.3609 69.2515 58.175 69.2434C57.6362 69.1633 57.1107 69.0199 56.61 68.8167Z" fill="white"/>
<path d="M68.7772 64.3364C67.2788 65.6407 65.5888 66.7024 64.0922 68.0143C63.4754 68.5506 64.3506 69.4448 64.9674 68.9085C66.4658 67.6042 68.1577 66.542 69.6543 65.2301C70.2692 64.6942 69.394 63.8 68.7772 64.3364Z" fill="white"/>
<path d="M57.8135 19.5068C56.382 18.6056 54.5867 18.9855 53.0825 19.4977C51.6579 19.9848 50.3068 20.663 49.0673 21.5132C50.4746 19.6062 51.5588 17.3826 51.7712 15.1136C51.9139 13.5774 51.5468 12.0613 50.5504 10.8619C49.6186 9.73699 48.168 8.79833 46.6382 9.14467C43.8554 9.77506 42.3719 13.3264 41.4489 15.6655C40.8625 17.1339 40.3617 18.6299 39.8851 20.134C40.269 16.8721 40.2459 13.2475 38.6026 10.311C37.5852 8.49059 34.7843 6.32126 32.8715 8.28334C31.3421 9.84962 31.3372 12.7988 31.2949 14.805C31.2733 16.5478 31.3841 18.2889 31.6264 20.0137C31.4571 19.7409 31.2871 19.4683 31.1165 19.1958C29.9759 17.3769 28.6888 15.6571 27.0955 14.1986C25.8345 13.0445 24.1785 11.7471 22.3725 11.7016C20.6548 11.6609 19.2298 13.0542 19.1016 14.7269C18.9648 16.5077 19.9255 18.3537 20.7198 19.8855C22.0554 22.4677 23.9492 24.7242 26.088 26.7181C24.9718 26.1854 23.8466 25.6748 22.7048 25.2302C19.2842 23.8993 14.8592 22.3509 11.3964 24.4142C10.1196 25.174 9.44151 26.4964 9.82061 27.9356C10.2585 29.5948 12.0344 30.8516 13.496 31.5656C15.2423 32.4194 17.2309 32.7792 19.1362 33.121C21.5006 33.5707 23.8914 33.8771 26.2952 34.0386C26.5152 34.0519 26.7338 34.0596 26.9515 34.0634C25.4322 34.4873 23.9533 34.9954 22.4739 35.5357C20.0035 36.4213 15.6321 37.8462 16.2705 41.1973C16.579 42.8155 17.6692 43.9584 19.3961 43.8769C21.0266 43.7985 22.7366 42.817 24.1445 42.0718C28.1616 39.9458 31.3105 36.5037 35.4244 34.5365C37.5113 33.5387 39.9352 33.5503 42.1763 33.1196C44.6328 32.6414 47.0681 31.9222 49.466 31.216C51.1885 30.7095 52.9174 30.1795 54.6124 29.5836C56.0827 29.0735 57.5137 28.4248 58.6941 27.4061C59.8389 26.4079 60.2271 25.0509 59.9847 23.5989C59.7424 22.1469 59.1208 20.3298 57.8135 19.5068ZM45.6275 11.2867C46.825 10.094 48.0865 10.4039 49.2233 11.4877C50.3931 12.6076 50.5465 14.2549 50.2557 15.7566C49.5978 19.1262 47.1441 21.8498 44.7 24.1231C43.2237 25.4967 41.8078 26.9278 40.374 28.3432C39.6348 29.0722 38.9099 29.8438 38.1127 30.5167L37.7346 30.8332C39.2205 27.4773 40.2323 23.9189 41.3193 20.4206C42.2854 17.3312 43.2443 13.6615 45.6275 11.2867ZM32.7101 15.9261C32.6731 14.6771 32.7347 13.4266 32.8943 12.1859C33.0231 11.2431 33.2115 10.126 33.8028 9.34634C34.3586 8.61322 35.1049 8.9205 35.8263 9.33575C37.2216 10.1536 37.8941 11.8027 38.2726 13.282C38.957 15.9622 38.7337 18.9217 38.256 21.6222C37.9543 23.3405 37.4747 25.0353 37.0207 26.7181C36.7552 27.7077 36.5081 28.7149 36.243 29.7144C35.7331 28.2365 35.1894 26.7786 34.5609 25.3471C34.2539 24.6486 33.9146 23.9678 33.5571 23.2954C33.0652 20.8682 32.7818 18.403 32.7101 15.9261ZM20.9499 16.9543C20.656 16.1587 20.3833 15.316 20.5567 14.4664C20.6544 14.0508 20.9006 13.6833 21.25 13.4316C21.5993 13.18 22.0282 13.0612 22.4575 13.0972C23.3981 13.184 24.2882 13.7448 25.0198 14.2957C26.7725 15.616 28.1653 17.2785 29.3706 19.0879C30.374 20.5876 31.3495 22.1401 32.2012 23.7422C32.5066 25.5251 32.896 27.3458 33.6826 28.9555C33.9278 29.4548 34.1932 29.9453 34.4441 30.4432C33.53 30.0101 32.5063 29.7372 31.6327 29.3044C30.7592 28.8715 29.9568 28.1437 29.2021 27.4964C28.3218 26.7392 27.4123 26.021 26.5669 25.2234C24.8848 23.6317 23.4433 21.8089 22.2863 19.8104C21.7596 18.8979 21.3125 17.9425 20.9499 16.9543ZM20.5889 31.945C18.5651 31.6077 16.4658 31.2764 14.5695 30.4985C13.285 29.974 10.9361 28.6005 11.1149 26.9357C11.3065 25.1977 13.9933 24.8263 15.3248 24.8195C17.4133 24.8094 19.513 25.5146 21.4411 26.2308C23.6311 27.0424 25.7248 28.1371 27.8415 29.1162C28.9423 29.6266 30.0269 30.1709 31.1297 30.6809C32.1821 31.1669 33.3525 31.5786 34.3455 32.1888C32.2304 32.2653 30.1349 32.6691 28.0143 32.689C25.5221 32.7138 23.0411 32.3538 20.5889 31.945ZM23.85 40.6303C22.4709 41.4286 20.6224 42.4912 18.9765 42.4714C18.1551 42.468 17.8231 41.5975 17.6616 40.9402C17.4764 40.1665 17.8408 39.5393 18.4232 39.0438C19.6421 37.9999 21.2807 37.4395 22.7609 36.903C24.7349 36.164 26.7492 35.5361 28.7939 35.0223C30.2636 34.6703 31.7581 34.4304 33.2351 34.1087C31.9038 34.9158 30.6208 35.7987 29.3927 36.7529C27.5838 38.1081 25.8096 39.507 23.85 40.6303ZM58.1077 25.9725C57.175 27.1538 55.5535 27.7521 54.1756 28.2421C52.4849 28.847 50.7485 29.3548 49.0312 29.874C46.614 30.5929 44.1396 31.3434 41.6534 31.7908C40.5754 31.9849 39.4746 32.1006 38.3878 32.2748C41.7251 29.4756 45.0199 26.6266 48.3478 23.8136C49.9233 22.4659 51.745 21.4293 53.7132 20.7607C54.4773 20.4997 55.3109 20.2921 56.1245 20.3732C56.994 20.459 57.4757 20.9897 57.8824 21.6984C58.5983 22.9449 59.0835 24.7508 58.1077 25.9725Z" fill="black"/>
</svg>
