<svg width="300" height="321" viewBox="0 0 300 321" fill="none" xmlns="http://www.w3.org/2000/svg">
<path d="M298.956 120.812C297.223 117.599 293.632 114.987 290.468 113.582C283.983 110.706 276.422 110.843 269.582 111.819C257.333 113.568 247.562 122.211 235.785 125.396C231.857 118.123 239.339 114.71 244.614 112.721C251.711 110.045 260.039 110.08 265.107 103.259C268.216 99.0761 266.669 93.0073 262.681 90.3027C257.705 86.9301 250.537 87.8502 245.492 90.5615C243.094 91.8521 240.923 93.7211 238.566 94.9085C239.144 94.6175 241.157 87.2159 242.588 85.8104C244.78 83.6589 247.726 82.2702 250.591 81.4127C255.964 79.8143 261.929 79.794 267.465 79.383C273.944 78.8976 281.245 78.7893 287.129 75.6315C292.737 72.6241 299.709 63.2622 292.021 57.6349C288.19 54.8288 283.113 54.6326 278.61 54.9438C270.084 55.5341 261.557 58.5584 253.974 62.523C250.557 64.3109 247.056 66.3896 243.81 68.832C244.243 68.0607 244.688 67.2973 245.144 66.5418C245.23 66.4031 245.43 66.075 245.482 65.9854C245.67 65.6877 245.858 65.3934 246.049 65.0957C246.491 64.4073 246.946 63.7273 247.403 63.0474C254.971 51.8215 285.141 22.9339 267.17 8.02247C263.222 4.74622 257.497 5.79151 253.698 8.72779C250.263 11.3867 248.031 15.5188 246.326 19.5359C244.465 23.9336 243.143 28.5917 241.899 33.2177C239.1 43.6215 236.086 53.9628 233.881 64.5341C233.815 64.8437 233.756 65.1532 233.694 65.4644C232.946 64.1823 232.167 62.9183 231.358 61.6723C227.243 55.3295 222.413 49.1017 216.214 44.9019C213.623 43.1463 210.526 41.9741 207.414 42.2498C203.488 42.5983 200.498 45.3451 198.614 48.7922C196.245 53.1408 197.843 58.0949 201.237 61.241C203.984 63.7882 207.619 65.2767 211.036 66.5046C218.164 69.0654 226.124 71.3691 229.571 79.2697C231.976 84.7786 231.549 93.5418 228.048 98.4503C216.879 87.2176 202.383 71.0748 185.47 72.3197C179.558 72.7561 172.914 76.4027 174.037 83.6098C175.261 91.4478 184.494 96.3834 190.532 99.4583C197.113 102.809 204.24 104.681 211.027 107.476C213.85 108.638 216.823 109.832 219.355 111.599C219.957 112.02 225.447 118.63 223.987 118.505C221.77 118.318 219.451 116.814 217.025 116.493C209.729 115.54 201.906 120.828 206.891 129.078C206.866 129.021 206.839 128.963 206.808 128.909C210.007 134.66 216.043 134.102 221.101 136.658C228.759 140.529 226.019 151.956 226.219 158.859C219.111 152.332 193.695 123.339 186.466 144.355C180.514 161.645 206.096 164.887 215.911 168.865C221.777 171.243 227.117 174.415 228.932 181.116C229.878 184.609 228.378 197.3 232.164 199.033C237.308 201.386 239.647 186.612 240.302 183.731C242.275 175.046 244.572 172.414 252.588 169.681C260.926 166.836 269.089 159.586 261.219 150.398C252.221 139.885 241.637 149.138 235.337 157.227C235.87 153.22 234.13 149.255 235.748 145.387C239.892 135.462 258.829 138.366 267.072 138.633C277.71 138.971 290.737 139.213 298.08 129.757C300.554 126.583 300.4 123.488 298.956 120.812Z" fill="#EBA7BE"/>
<path d="M281.719 72.4131C281.727 71.6733 281.439 70.9604 280.916 70.4309C280.393 69.9015 279.679 69.5988 278.931 69.5894C278.56 69.585 278.192 69.6527 277.848 69.7889C277.504 69.9251 277.19 70.127 276.925 70.3831C276.659 70.6392 276.448 70.9444 276.302 71.2814C276.156 71.6184 276.079 71.9805 276.074 72.347L276.045 74.9484C276.04 75.315 276.109 75.6788 276.246 76.0192C276.384 76.3595 276.588 76.6698 276.847 76.9322C277.106 77.1946 277.414 77.4039 277.755 77.5483C278.096 77.6928 278.462 77.7694 278.833 77.7738C279.582 77.7824 280.303 77.4967 280.839 76.9796C281.374 76.4625 281.68 75.7563 281.69 75.0163L281.719 72.4131Z" fill="#1E1B1B"/>
<path d="M291.805 86.9828C291.789 89.5356 291.015 92.0264 289.582 94.1401C288.149 96.2539 286.12 97.8956 283.752 98.8578C281.384 99.82 278.784 100.059 276.28 99.5456C273.776 99.0319 271.481 97.7881 269.685 95.9716C267.889 94.1552 266.672 91.8476 266.19 89.3407C265.707 86.8338 265.979 84.2403 266.973 81.888C267.966 79.5358 269.635 77.5305 271.77 76.1258C273.904 74.7211 276.408 73.9801 278.964 73.9965C282.391 74.0189 285.669 75.3995 288.077 77.8347C290.485 80.2699 291.826 83.5605 291.805 86.9828Z" fill="#7FB2E0"/>
<path d="M284.872 85.0561C284.864 86.3635 284.487 87.6391 283.788 88.7217C283.089 89.8042 282.099 90.645 280.944 91.1377C279.789 91.6304 278.521 91.7529 277.299 91.4898C276.078 91.2267 274.958 90.5896 274.082 89.6593C273.206 88.729 272.613 87.5471 272.377 86.2632C272.142 84.9793 272.274 83.6509 272.759 82.4462C273.243 81.2414 274.057 80.2143 275.099 79.4947C276.14 78.7752 277.361 78.3955 278.608 78.4037C280.28 78.4152 281.879 79.1224 283.053 80.3698C284.228 81.6173 284.882 83.3029 284.872 85.0561Z" fill="#4782AC"/>
<path d="M279.196 74.0067L277.977 73.9962L277.936 83.4331L279.153 83.4402L279.196 74.0067Z" fill="white"/>
<path d="M281.088 84.0833C281.091 83.5852 280.946 83.0974 280.671 82.6818C280.396 82.2661 280.004 81.9412 279.544 81.7482C279.084 81.5551 278.577 81.5026 278.087 81.5973C277.598 81.692 277.147 81.9296 276.793 82.28C276.438 82.6305 276.196 83.0781 276.096 83.5662C275.996 84.0543 276.044 84.561 276.232 85.0221C276.421 85.4833 276.742 85.8782 277.156 86.157C277.569 86.4357 278.056 86.5858 278.555 86.5881C279.223 86.5913 279.866 86.3292 280.341 85.8595C280.816 85.3898 281.085 84.751 281.088 84.0833Z" fill="white"/>
<path d="M214.89 59.5825C214.896 59.07 214.703 58.5761 214.354 58.2095C214.006 57.8428 213.53 57.6333 213.031 57.6271C212.532 57.6212 212.051 57.8192 211.694 58.1773C211.337 58.5354 211.133 59.0245 211.127 59.537L211.108 61.3396C211.102 61.8518 211.295 62.3452 211.644 62.7114C211.992 63.0777 212.468 63.2869 212.967 63.2932C213.466 63.299 213.947 63.1011 214.303 62.743C214.66 62.3848 214.864 61.8958 214.87 61.3832L214.89 59.5825Z" fill="#1E1B1B"/>
<path d="M221.195 69.0148C221.184 70.6331 220.674 72.212 219.73 73.5517C218.786 74.8914 217.45 75.9318 215.891 76.5415C214.332 77.1511 212.62 77.3026 210.971 76.9768C209.323 76.6511 207.812 75.8626 206.629 74.7111C205.447 73.5596 204.646 72.0968 204.327 70.5076C204.009 68.9184 204.188 67.2741 204.841 65.7826C205.494 64.2911 206.593 63.0193 207.998 62.128C209.402 61.2367 211.05 60.7658 212.733 60.775C213.851 60.7811 214.958 60.9992 215.988 61.4167C217.019 61.8342 217.954 62.4429 218.74 63.2082C219.526 63.9734 220.147 64.8801 220.569 65.8765C220.99 66.8728 221.203 67.9392 221.195 69.0148Z" fill="#DE6C92"/>
<path d="M216.782 68.0419C216.776 68.8512 216.531 69.6408 216.076 70.3108C215.622 70.9808 214.978 71.5011 214.228 71.8061C213.477 72.111 212.653 72.1867 211.859 72.0238C211.065 71.8609 210.337 71.4666 209.768 70.8907C209.199 70.3148 208.813 69.5833 208.66 68.7885C208.507 67.9938 208.593 67.1716 208.908 66.4258C209.222 65.68 209.751 65.0442 210.428 64.5987C211.105 64.1532 211.898 63.918 212.709 63.9229C213.247 63.9262 213.779 64.0353 214.275 64.2441C214.771 64.4529 215.221 64.7573 215.6 65.1398C215.978 65.5223 216.277 65.9755 216.48 66.4734C216.682 66.9714 216.785 67.5044 216.782 68.0419Z" fill="#EBA7BE"/>
<path d="M213 60.7814L212.39 60.7749L212.369 66.438L212.979 66.4413L213 60.7814Z" fill="white"/>
<path d="M214.26 67.3955C214.262 67.0841 214.171 66.7792 213.999 66.5192C213.828 66.2593 213.583 66.056 213.295 65.9351C213.008 65.8142 212.691 65.7812 212.385 65.8401C212.079 65.8991 211.797 66.0474 211.575 66.2663C211.354 66.4852 211.202 66.7648 211.139 67.0699C211.077 67.3749 211.106 67.6917 211.224 67.98C211.342 68.2683 211.543 68.5153 211.801 68.6896C212.059 68.864 212.363 68.958 212.675 68.9596C212.882 68.9609 213.087 68.9215 213.279 68.8435C213.471 68.7656 213.645 68.6507 213.792 68.5055C213.939 68.3602 214.056 68.1874 214.136 67.9969C214.217 67.8065 214.259 67.6021 214.26 67.3955Z" fill="white"/>
<path d="M149.773 179.373C146.823 178.683 144.11 179.645 141.546 180.65C139.356 181.509 137.128 182.212 135.085 183.42C133.267 184.501 141.573 230.745 143.091 237.423C143.5 239.227 143.933 241.001 143.869 242.776C143.805 244.551 143.039 245.742 142.196 246.896C140.712 248.922 139.876 252.909 141.61 255.863C143.158 258.498 145.653 259.321 147.756 259.049C152.03 258.498 155.384 255.317 156.223 249.853C156.729 246.548 156.392 242.938 156.149 239.418C155.455 229.177 156.2 219.387 156.833 209.521C157.015 206.683 157.17 203.839 157.26 200.969C157.399 196.262 158.006 190.95 156.699 186.043C155.647 182.107 152.665 180.05 149.773 179.373Z" fill="#7FB2E0"/>
<path d="M171.791 179.373C174.823 178.683 177.609 179.645 180.244 180.65C182.495 181.509 184.786 182.212 186.887 183.42C188.755 184.501 180.218 230.745 178.658 237.423C178.237 239.227 177.784 241.001 177.858 242.776C177.933 244.551 178.71 245.742 179.578 246.896C181.103 248.922 181.962 252.909 180.18 255.863C178.589 258.498 176.024 259.321 173.863 259.049C169.471 258.498 166.023 255.317 165.161 249.853C164.641 246.548 164.988 242.938 165.237 239.418C165.95 229.177 165.185 219.387 164.534 209.521C164.347 206.683 164.188 203.839 164.096 200.969C163.952 196.262 163.329 190.95 164.672 186.043C165.753 182.107 168.816 180.05 171.791 179.373Z" fill="#7FB2E0"/>
<path d="M261.537 241.588C261.428 236.788 260.219 231.929 259.974 227.185C258.764 203.764 255.499 177.826 242.363 157.765C234.901 146.367 216.789 146.871 205.179 139.954C185.36 128.14 203.686 102.55 196.532 95.7642C193.552 92.9357 182.755 106.501 180.883 102.832C178.868 98.8965 177.643 94.7027 174.908 91.1502C173.296 89.0592 170.762 87.9436 168.262 89.4102C167.567 89.8346 166.987 90.4227 166.572 91.1232C166.111 91.2242 165.662 91.3718 165.231 91.5637C161.401 93.2851 156.919 93.6429 153.795 96.7161C150.485 99.9783 150.585 105.615 150.193 109.88C149.517 117.258 151.675 65.9434 147.382 71.9717C131.545 94.2065 113.762 116.563 137.607 207.45C139.531 214.786 151.46 180.24 176.614 199.838C183.188 204.959 181.669 205.178 180.321 211.728C179.008 218.117 181.165 224.655 185.315 229.57C189.58 234.633 195.921 238.499 202.261 240.268C206.019 241.316 209.957 242.151 213.58 243.621C205.319 243.606 197.104 243.621 189.075 245.883C185.99 246.749 182.294 248.934 183.123 252.665C184.137 257.2 189.765 258.322 193.681 258.446C198.191 258.589 202.635 258.022 207.09 257.342C216.512 255.901 226.168 256.284 235.692 256.8C238.248 256.939 240.806 257.075 243.367 257.138C249.994 257.273 257.568 256.729 260.286 249.66C261.307 247.003 261.597 244.305 261.537 241.588Z" fill="#7FB2E0"/>
<path d="M194.702 89.2565C195.133 102.89 186.759 114.215 176.002 114.553L164.554 114.912C153.793 115.254 144.728 104.483 144.299 90.8435C143.87 77.2121 152.242 65.8867 163.001 65.5483L174.449 65.1896C185.206 64.8513 194.275 75.6302 194.704 89.2616L194.702 89.2565Z" fill="#7FB2E0"/>
<path d="M198.485 99.664C198.968 114.89 186.522 127.63 170.685 128.127C154.848 128.624 141.62 116.671 141.137 101.451C140.654 86.232 161.918 69.4644 177.753 68.9708C193.589 68.4771 198.003 84.4378 198.485 99.664Z" fill="#7FB2E0"/>
<path d="M181.478 111.903C181.589 118.682 176.741 124.262 170.651 124.363C164.562 124.463 159.529 119.051 159.416 112.271C159.303 105.492 164.152 99.9119 170.242 99.8112C176.332 99.7105 181.366 105.123 181.478 111.903Z" fill="white"/>
<path d="M162.543 65.8356L160.674 106.106L178.957 106.089L175.687 65.351C171.301 65.0162 166.891 65.1788 162.543 65.8356Z" fill="#4782AC"/>
<path d="M177.874 107.385C179.164 106.665 179.41 105.472 178.015 103.652C176.671 101.968 173.685 99.6563 169.716 99.8178C165.742 99.7938 162.833 102.207 161.545 103.943C160.215 105.809 160.492 106.994 161.806 107.669C163.265 108.357 164.743 109.18 165.996 109.903C167.289 110.605 168.355 111.204 169.899 111.137C171.441 111.151 172.489 110.515 173.758 109.762C174.987 108.998 176.438 108.126 177.874 107.385Z" fill="url(#paint0_radial_614_17)"/>
<path d="M194.428 79.9343C194.158 79.1988 193.639 78.5725 192.955 78.1565C190.433 76.5874 187.124 77.1199 184.422 77.8995C183.451 78.185 182.495 78.5193 181.56 78.901C180.609 79.2866 179.528 79.7674 179.114 80.7522C178.659 81.8305 179.235 83.0892 180.131 83.7402C181.083 84.4362 182.26 84.488 183.405 84.493C184.896 84.493 186.386 84.5865 187.875 84.6466C190.367 84.7501 194.836 85.0439 194.714 81.475C194.702 80.9502 194.606 80.4304 194.428 79.9343Z" fill="white"/>
<path d="M185.298 80.8584C185.522 82.415 186.674 83.5635 187.872 83.4298C189.07 83.2961 189.859 81.9144 189.635 80.3561C189.41 78.7978 188.258 77.6509 187.06 77.7846C185.863 77.9184 185.074 79.3018 185.298 80.8584Z" fill="url(#paint1_radial_614_17)"/>
<path d="M143.843 81.1336C144.064 80.3292 144.542 79.6255 145.199 79.1363C147.623 77.2928 150.959 77.6472 153.708 78.3058C154.698 78.5482 155.675 78.8439 156.635 79.1918C157.61 79.5497 158.722 79.9864 159.2 81.0137C159.719 82.1377 159.231 83.5194 158.377 84.2765C157.473 85.0837 156.299 85.2161 155.154 85.2948C153.664 85.3987 152.184 85.5902 150.699 85.7512C148.214 86.0233 143.772 86.6282 143.657 82.8089C143.633 82.2439 143.696 81.6785 143.843 81.1336Z" fill="white"/>
<path d="M153.098 81.9954C152.982 83.5588 151.905 84.7681 150.692 84.6963C149.479 84.6244 148.587 83.2988 148.706 81.7354C148.825 80.1719 149.9 78.9626 151.113 79.0361C152.326 79.1097 153.213 80.4319 153.098 81.9954Z" fill="url(#paint2_radial_614_17)"/>
<path d="M155.447 94.1411C157.439 94.0984 157.336 91.0453 155.349 91.0864C151.389 91.1704 147.961 89.1295 144.333 87.8474C143.842 88.7459 143.404 89.6719 143.021 90.6207C144.987 91.2609 146.851 92.1595 148.784 92.8887C150.931 93.6918 153.138 94.1806 155.447 94.1411Z" fill="#FE875A"/>
<path d="M155.447 94.1411C157.439 94.0984 157.336 91.0453 155.349 91.0864C151.389 91.1704 147.961 89.1295 144.333 87.8474C143.842 88.7459 143.404 89.6719 143.021 90.6207C144.987 91.2609 146.851 92.1595 148.784 92.8887C150.931 93.6918 153.138 94.1806 155.447 94.1411Z" fill="url(#paint3_radial_614_17)"/>
<path d="M146.598 97.3463C147.919 97.6979 149.185 98.2042 150.523 98.5031C151.987 98.8083 153.466 99.0296 154.953 99.166C155.802 99.2574 156.633 98.9145 156.855 97.9651C157.035 97.1898 156.55 96.0857 155.695 95.9942C154.309 95.8466 152.926 95.6672 151.558 95.393C150.189 95.1187 148.927 94.6369 147.604 94.2484C146.44 93.8968 145.214 93.7209 144.12 93.1724C143.587 92.9016 143.09 92.5729 142.593 92.2546C142.252 93.3273 141.974 94.4206 141.762 95.5283C142.043 95.7041 142.328 95.88 142.622 96.0417C143.852 96.7186 145.264 96.9894 146.598 97.3463Z" fill="#FE875A"/>
<path d="M146.598 97.3463C147.919 97.6979 149.185 98.2042 150.523 98.5031C151.987 98.8083 153.466 99.0296 154.953 99.166C155.802 99.2574 156.633 98.9145 156.855 97.9651C157.035 97.1898 156.55 96.0857 155.695 95.9942C154.309 95.8466 152.926 95.6672 151.558 95.393C150.189 95.1187 148.927 94.6369 147.604 94.2484C146.44 93.8968 145.214 93.7209 144.12 93.1724C143.587 92.9016 143.09 92.5729 142.593 92.2546C142.252 93.3273 141.974 94.4206 141.762 95.5283C142.043 95.7041 142.328 95.88 142.622 96.0417C143.852 96.7186 145.264 96.9894 146.598 97.3463Z" fill="url(#paint4_radial_614_17)"/>
<path d="M146.062 102.182C148.751 102.852 151.38 103.719 154.186 103.57C156.172 103.47 156.077 100.25 154.09 100.351C151.488 100.483 149.024 99.5997 146.523 98.9766C145.386 98.6938 144.236 98.3953 143.218 97.7844C142.598 97.4113 142.025 97 141.41 96.6616C141.245 97.8273 141.151 99.0028 141.129 100.181C141.476 100.422 141.82 100.665 142.172 100.863C143.354 101.533 144.758 101.857 146.062 102.182Z" fill="#FE875A"/>
<path d="M146.062 102.182C148.751 102.852 151.38 103.719 154.186 103.57C156.172 103.47 156.077 100.25 154.09 100.351C151.488 100.483 149.024 99.5997 146.523 98.9766C145.386 98.6938 144.236 98.3953 143.218 97.7844C142.598 97.4113 142.025 97 141.41 96.6616C141.245 97.8273 141.151 99.0028 141.129 100.181C141.476 100.422 141.82 100.665 142.172 100.863C143.354 101.533 144.758 101.857 146.062 102.182Z" fill="url(#paint5_radial_614_17)"/>
<path d="M183.665 93.5122C181.651 93.5939 181.56 90.57 183.566 90.4801C187.569 90.3167 190.898 88.0822 194.476 86.5883C195.029 87.4478 195.53 88.338 195.977 89.2542C194.035 90.0126 192.211 91.0179 190.307 91.8695C188.194 92.7963 185.998 93.419 183.665 93.5122Z" fill="#FE875A"/>
<path d="M183.66 93.5122C181.653 93.5945 181.562 90.5503 183.561 90.4598C187.55 90.2952 192.833 86.8397 196.402 85.3291C196.95 86.193 197.109 87.8434 197.238 88.7978C195.303 89.5614 192.184 91.0012 190.287 91.8503C188.172 92.7915 185.984 93.4184 183.66 93.5122Z" fill="url(#paint6_radial_614_17)"/>
<path d="M192.858 95.7029C191.578 96.1072 190.362 96.6516 189.064 97.007C187.641 97.3784 186.198 97.6723 184.741 97.8872C183.905 98.0242 183.068 97.7568 182.799 96.8896C182.575 96.1838 182.986 95.1324 183.823 94.9971C185.184 94.7786 186.523 94.5276 187.861 94.2016C189.2 93.8756 190.406 93.3442 191.684 92.8975C192.81 92.5095 194.006 92.2732 195.05 91.6912C195.552 91.4092 196.947 90.692 197.424 90.366C197.82 91.3326 197.591 92.4998 197.869 93.5186C197.601 93.6995 196.979 94.0891 196.698 94.2554C195.523 94.9563 194.157 95.2921 192.858 95.7029Z" fill="url(#paint7_radial_614_17)"/>
<path d="M193.647 100.446C190.981 101.272 188.381 102.286 185.552 102.328C183.549 102.357 183.446 99.2125 185.454 99.182C188.083 99.1447 190.51 98.1259 192.989 97.3581C194.115 97.0089 195.255 96.6461 196.244 95.9834C196.844 95.5816 197.399 95.1358 197.995 94.7731C198.235 95.899 198.403 97.0393 198.498 98.187C198.163 98.4446 197.828 98.6955 197.492 98.9175C196.329 99.6396 194.935 100.046 193.647 100.446Z" fill="#FE875A"/>
<path d="M193.654 100.552C190.986 101.331 188.384 102.288 185.553 102.328C183.548 102.355 183.446 99.3867 185.456 99.3579C188.085 99.3227 190.514 98.3609 192.995 97.636C194.122 97.3063 195.263 96.9639 196.252 96.3382C196.853 95.9589 197.564 95.1219 198.163 94.7731C198.397 95.8245 198.408 97.3223 198.498 98.4185C198.163 98.6618 197.827 98.8986 197.492 99.1083C196.338 99.79 194.942 100.174 193.654 100.552Z" fill="url(#paint8_radial_614_17)"/>
<path d="M155.712 66.4175C158.193 68.7806 156.343 70.8544 153.995 73.3492C151.647 75.844 149.69 77.8152 147.208 75.4539C144.727 73.0925 142.248 66.8983 144.594 64.4052C146.941 61.9122 153.231 64.0647 155.712 66.4175Z" fill="#7FB2E0"/>
<path d="M149.646 66.2615C150.113 67.2896 150.528 68.3416 150.889 69.4133C150.968 69.6506 151.053 69.903 151.125 70.1587C150.979 69.9905 150.842 69.834 150.681 69.6842C150.33 69.3561 149.946 69.0767 149.613 68.7251C148.948 68.02 148.53 67.1096 147.852 66.4079C147.562 66.1101 147.057 66.519 147.349 66.8202C148.026 67.5219 148.48 68.3969 149.112 69.1373C149.373 69.425 149.659 69.6885 149.966 69.9248C150.254 70.1842 150.527 70.4594 150.786 70.7494L150.653 70.7073C149.213 70.253 148.003 69.2736 146.606 68.7402C146.217 68.5921 145.985 69.2063 146.375 69.3561C147.16 69.6556 147.897 70.1486 148.644 70.534C149.392 70.9193 150.314 71.4746 151.179 71.478C152.086 71.478 151.862 70.4583 151.696 69.8609C151.31 68.5376 150.823 67.2474 150.24 66.0024C150.055 65.6154 149.463 65.8762 149.646 66.2615Z" fill="url(#paint9_radial_614_17)"/>
<path d="M181.892 65.6465C179.547 68.1392 181.537 70.0783 184.054 72.4011C186.571 74.724 188.666 76.5544 191.011 74.0618C193.356 71.5691 195.468 65.2781 192.943 62.9535C190.418 60.629 184.239 63.1522 181.892 65.6465Z" fill="#7FB2E0"/>
<path d="M187.435 65.0232C186.98 66.181 186.586 67.3614 186.254 68.5598C186.182 68.8254 186.099 69.1132 186.039 69.3918C186.193 69.2073 186.338 69.0228 186.509 68.8383C186.88 68.4564 187.298 68.1225 187.648 67.7148C188.352 66.8939 188.762 65.87 189.477 65.0545C189.783 64.7077 190.382 65.1191 190.074 65.4696C189.358 66.2851 188.905 67.2757 188.244 68.1299C187.968 68.4633 187.663 68.772 187.333 69.0523C187.026 69.3566 186.736 69.6768 186.464 70.0117L186.613 69.9563C188.207 69.3586 189.506 68.2 191.049 67.5174C191.477 67.3329 191.791 67.9842 191.353 68.1742C190.484 68.5598 189.683 69.1501 188.87 69.6242C188.057 70.0984 187.043 70.7736 186.069 70.8455C185.046 70.9119 185.228 69.7792 185.373 69.1132C185.718 67.6374 186.179 66.1909 186.752 64.787C186.919 64.3443 187.604 64.5878 187.435 65.0232Z" fill="url(#paint10_radial_614_17)"/>
<path d="M196.604 111.554C196.649 112.923 196.268 114.274 195.51 115.436C194.751 116.599 193.648 117.52 192.342 118.084C191.035 118.648 189.582 118.829 188.168 118.604C186.753 118.379 185.44 117.759 184.395 116.821C183.349 115.883 182.619 114.671 182.295 113.336C181.971 112.002 182.069 110.606 182.575 109.324C183.082 108.043 183.976 106.934 185.142 106.137C186.309 105.341 187.697 104.893 189.13 104.85C191.052 104.793 192.918 105.467 194.32 106.724C195.721 107.981 196.543 109.718 196.604 111.554Z" fill="#EBA7BE"/>
<path d="M204.38 112.081C201.001 112.629 197.578 112.347 194.314 111.451C192.748 111.022 191.18 110.484 189.508 110.514C187.969 110.544 186.509 111.078 184.965 111.113C184.458 111.125 184.554 111.784 185.056 111.772C186.521 111.74 187.904 111.305 189.356 111.186C191.214 111.043 193.087 111.828 194.828 112.279C197.951 113.09 201.26 113.248 204.471 112.739C204.964 112.66 204.886 112 204.38 112.081Z" fill="url(#paint11_radial_614_17)"/>
<path d="M204.424 115.964C200.942 116.23 197.541 115.51 194.377 114.079C192.857 113.397 191.351 112.579 189.663 112.429C188.109 112.287 186.569 112.756 185.01 112.625C184.497 112.581 184.507 113.372 185.01 113.416C186.489 113.541 187.94 113.182 189.417 113.206C191.3 113.239 193.088 114.39 194.779 115.118C197.813 116.434 201.124 116.995 204.424 116.755C204.929 116.715 204.929 115.924 204.424 115.964Z" fill="url(#paint12_radial_614_17)"/>
<path d="M204.937 106.139C201.707 107.579 198.276 107.939 194.848 107.463C193.204 107.234 191.532 106.866 189.888 107.272C188.373 107.638 187.051 108.651 185.532 109.026C185.036 109.15 185.279 109.993 185.772 109.871C187.21 109.515 188.482 108.649 189.888 108.185C191.692 107.59 193.722 108.227 195.542 108.445C198.81 108.841 202.116 108.342 205.175 106.99C205.651 106.78 205.41 105.928 204.937 106.139Z" fill="url(#paint13_radial_614_17)"/>
<path d="M143.656 113.25C143.701 114.619 144.17 115.944 145.004 117.059C145.838 118.173 146.999 119.026 148.34 119.51C149.682 119.994 151.143 120.087 152.54 119.778C153.937 119.468 155.206 118.77 156.188 117.772C157.169 116.773 157.819 115.519 158.054 114.168C158.289 112.817 158.1 111.43 157.51 110.181C156.92 108.933 155.956 107.88 154.739 107.155C153.523 106.43 152.108 106.066 150.675 106.109C148.753 106.167 146.934 106.952 145.618 108.291C144.301 109.63 143.596 111.414 143.656 113.25Z" fill="#EBA7BE"/>
<path d="M135.858 114.6C139.297 115.042 142.703 114.486 145.911 113.204C147.45 112.589 148.983 111.846 150.667 111.778C152.214 111.712 153.724 112.26 155.269 112.203C155.779 112.186 155.731 112.981 155.227 112.999C153.756 113.053 152.34 112.62 150.869 112.572C149 112.51 147.173 113.579 145.461 114.228C142.388 115.401 139.079 115.802 135.819 115.397C135.308 115.333 135.348 114.537 135.858 114.6Z" fill="url(#paint14_radial_614_17)"/>
<path d="M136.44 118.489C139.865 118.54 143.152 117.553 146.156 115.828C147.601 115 149.024 114.04 150.666 113.767C152.177 113.516 153.714 113.91 155.232 113.666C155.736 113.587 155.771 114.425 155.278 114.505C153.84 114.735 152.395 114.453 150.952 114.575C149.106 114.735 147.428 116.07 145.824 116.954C142.935 118.548 139.73 119.362 136.485 119.326C135.987 119.319 135.936 118.48 136.44 118.489Z" fill="url(#paint15_radial_614_17)"/>
<path d="M135.297 108.643C138.576 109.598 142.007 109.696 145.379 109.124C146.998 108.852 148.636 108.471 150.289 108.693C151.81 108.897 153.181 109.619 154.709 109.831C155.207 109.9 155.015 110.582 154.518 110.507C153.071 110.307 151.763 109.697 150.34 109.41C148.518 109.043 146.54 109.658 144.747 109.93C141.527 110.421 138.222 110.212 135.113 109.32C134.621 109.18 134.814 108.502 135.297 108.643Z" fill="url(#paint16_radial_614_17)"/>
<path d="M281.075 249.332C280.245 246.401 279.182 243.539 277.895 240.776C276.635 238.193 275.141 235.729 273.432 233.416C270.46 229.332 266.676 225.901 262.315 223.339C257.312 220.416 251.864 218.696 246.124 217.936C240.097 217.145 233.838 217.622 227.886 218.748L227.703 218.784C226.11 219.092 224.705 220.018 223.797 221.359C222.89 222.699 222.553 224.344 222.863 225.931C223.172 227.518 224.102 228.918 225.447 229.822C226.792 230.727 228.443 231.062 230.036 230.753C232.42 230.29 234.829 229.966 237.25 229.783C240.667 229.623 244.091 229.85 247.457 230.458C249.841 231.009 252.161 231.807 254.379 232.838C256.322 233.873 258.154 235.104 259.846 236.51C261.586 238.127 263.153 239.92 264.521 241.859C266.221 244.542 267.614 247.407 268.674 250.399C270.185 255.126 270.995 260.053 271.348 265.004C271.491 268.244 271.264 271.49 270.67 274.679C270.002 277.541 269.025 280.322 267.755 282.974C266.259 285.781 264.461 288.418 262.393 290.839C259.762 293.697 256.818 296.251 253.614 298.453C249.476 301.12 245.034 303.288 240.382 304.909C235.326 306.543 230.09 307.562 224.788 307.944C217.133 308.292 209.456 307.524 201.952 306.015C195.202 304.553 188.589 302.545 182.04 300.366C178.875 299.312 175.357 300.936 174.246 304.104C173.151 307.201 174.837 310.823 177.997 311.869C192.645 316.743 207.818 320.663 223.389 320.118C235.11 319.708 246.81 316.671 256.949 310.703C261.878 307.804 266.505 304.33 270.383 300.123C272.454 297.877 274.396 295.531 276.06 292.968C277.713 290.398 279.126 287.682 280.282 284.854C282.506 279.382 283.636 273.529 283.608 267.624C283.572 261.491 282.789 255.226 281.075 249.332Z" fill="#7FB2E0"/>
<path d="M172.085 129.709C169.153 130.558 166.078 130.801 163.048 130.423C160.125 130.03 157.505 128.521 154.576 128.184C152.966 127.999 151.565 128.417 150.408 129.567C146.653 133.291 148.819 142.347 148.635 147.08C148.249 156.991 146.904 167.265 150.487 176.792C152.017 180.88 154.737 185.413 158.648 187.615C167.766 192.751 175.966 176.089 177.993 169.453C179.338 165.052 179.253 160.336 180.822 155.987C183.094 149.689 191.762 133.812 181.933 129.951C179.226 128.886 174.861 128.925 172.085 129.709Z" fill="#4782AC"/>
<path d="M192.733 157.366C192.598 157.551 192.46 157.735 192.321 157.917C192.38 157.834 191.956 158.373 191.87 158.478C191.424 159.012 190.955 159.525 190.472 160.027C189.959 160.541 189.672 161.231 189.672 161.949C189.672 162.667 189.959 163.357 190.472 163.871C191.519 164.895 193.361 164.947 194.401 163.871C198.643 159.473 201.553 153.973 203.253 148.186C204.1 145.305 204.62 142.342 204.802 139.35C202.416 137.894 200.599 136.236 199.232 134.438C199.249 134.673 199.266 134.908 199.278 135.143C199.35 136.481 199.343 137.822 199.257 139.158C199.22 139.805 199.158 140.45 199.085 141.094C199.07 141.223 199.054 141.353 199.037 141.483C199.037 141.496 199.037 141.508 199.037 141.521C199.037 141.535 199.037 141.521 199.037 141.536C198.982 141.926 198.916 142.313 198.848 142.7C198.359 145.428 197.582 148.099 196.528 150.67L196.481 150.781L196.34 151.118C196.206 151.419 196.066 151.716 195.924 152.014C195.614 152.662 195.279 153.302 194.932 153.932C194.269 155.119 193.535 156.265 192.733 157.366Z" fill="url(#paint17_radial_614_17)"/>
<path d="M200.155 172.119C198.807 176.013 198.271 180.086 197.398 184.093C197.185 185.062 196.953 186.029 196.702 186.993C196.512 187.696 196.611 188.444 196.977 189.077C197.344 189.71 197.949 190.176 198.663 190.376C200.121 190.77 201.728 189.906 202.114 188.454C202.649 186.45 203.068 184.423 203.465 182.388C203.856 180.379 204.16 178.336 204.707 176.359C205.777 172.437 207.475 168.717 208.842 164.897C210.21 161.076 211.038 157.051 211.73 153.032C212.308 149.694 212.743 146.327 212.999 142.951C211.13 142.321 209.301 141.581 207.524 140.734C207.486 141.47 207.442 142.209 207.39 142.951C207.317 143.94 207.216 144.926 207.116 145.911C207.064 146.406 207.005 146.901 206.942 147.393C206.911 147.641 206.88 147.888 206.847 148.135C206.833 148.248 206.822 148.321 206.817 148.357C206.805 148.449 206.791 148.543 206.779 148.637C206.205 152.674 205.483 156.765 204.343 160.688C203.204 164.61 201.485 168.28 200.155 172.119Z" fill="url(#paint18_radial_614_17)"/>
<path d="M215.982 151.114C215.91 152.845 215.792 154.573 215.628 156.3C215.59 156.695 215.549 157.091 215.505 157.487C215.478 157.724 215.451 157.963 215.423 158.2C215.423 158.244 215.413 158.279 215.409 158.309C215.404 158.339 215.399 158.387 215.393 158.439C215.265 159.409 215.113 160.374 214.947 161.336C214.699 162.781 215.301 164.237 216.728 164.651C217.979 165.015 221.112 151.678 221.197 146.091C219.501 145.571 217.798 145.057 216.123 144.511C216.11 146.712 216.074 148.921 215.982 151.114Z" fill="url(#paint19_radial_614_17)"/>
<path d="M226.348 148.223C226.348 148.26 226.36 148.29 226.363 148.316C226.422 148.791 226.457 149.269 226.482 149.747C226.561 151.526 226.491 153.31 226.274 155.077C226.259 155.217 226.241 155.357 226.224 155.498C226.209 155.611 226.186 155.8 226.177 155.857C226.115 156.284 226.048 156.709 225.976 157.133C225.827 158.037 225.653 158.936 225.474 159.827C225.14 161.487 224.765 163.147 224.34 164.787C223.868 166.599 223.302 168.385 222.666 170.148C222.358 171.007 222.03 171.857 221.691 172.702L221.523 173.103C221.523 173.118 221.366 173.475 221.341 173.533C221.13 174.024 220.911 174.512 220.688 174.999C219.097 178.47 217.233 181.809 215.116 184.983C214.369 186.106 213.589 187.202 212.773 188.272C211.879 189.45 212.587 191.302 213.742 191.988C215.127 192.804 216.547 192.19 217.435 191.013C222.097 184.803 225.745 177.886 228.244 170.522C229.39 167.173 230.202 163.72 230.876 160.251C231.546 156.822 232.048 153.283 231.88 149.779C230.04 148.975 228.16 148.268 226.248 147.659C226.286 147.848 226.316 148.038 226.348 148.223Z" fill="url(#paint20_radial_614_17)"/>
<path d="M237.574 171.536C237.435 171.899 237.291 172.258 237.146 172.618L237.04 172.874C237.014 172.932 236.857 173.306 236.818 173.396C236.18 174.866 235.478 176.307 234.714 177.719C233.968 179.1 233.158 180.445 232.284 181.753C231.876 182.366 231.44 182.966 231.007 183.559C230.952 183.635 230.893 183.711 230.838 183.786C230.784 183.862 230.698 183.969 230.67 184.014C230.409 184.344 230.143 184.668 229.87 184.986C228.604 186.49 227.201 187.874 225.679 189.12C224.526 190.06 237.969 183.64 240.653 178.075C243.002 173.232 244.726 168.111 245.783 162.835C244.821 161.084 243.793 159.373 242.7 157.7C242.274 157.052 241.807 156.432 241.3 155.844C241.29 155.97 241.283 156.099 241.271 156.227C241.214 156.936 241.135 157.643 241.047 158.348C241.021 158.528 240.994 158.709 240.967 158.89C240.903 159.315 240.832 159.733 240.76 160.16C240.207 163.283 239.411 166.357 238.379 169.356C238.117 170.085 237.851 170.812 237.574 171.536Z" fill="url(#paint21_radial_614_17)"/>
<path d="M246.958 175.425C246.186 177.03 245.357 178.609 244.456 180.147C243.978 180.959 243.473 181.752 242.947 182.533C242.68 182.928 242.404 183.314 242.124 183.699C242.027 183.835 241.927 183.966 241.827 184.098L241.532 184.48C240.589 185.662 240.369 187.241 241.532 188.401C242.511 189.377 244.521 189.585 245.466 188.401C247.845 185.377 249.889 182.104 251.559 178.64C251.738 178.276 251.915 177.91 252.088 177.542C251.247 175.094 250.317 172.688 249.299 170.325C248.541 172.028 247.772 173.738 246.958 175.425Z" fill="url(#paint22_radial_614_17)"/>
<path d="M253.207 182.603C252.547 183.785 251.82 184.928 251.029 186.024C250.832 186.303 250.63 186.577 250.428 186.853L250.182 187.179V187.191L250.121 187.269C249.712 187.796 249.293 188.317 248.87 188.833C247.239 190.824 235.981 203.769 237.025 204.817C238.069 205.864 245.545 200.588 247.769 198.355C249.662 196.449 251.394 194.337 253.088 192.249C253.805 191.367 254.533 190.447 255.24 189.493C254.687 187.071 254.07 184.669 253.388 182.287C253.319 182.394 253.263 182.5 253.207 182.603Z" fill="url(#paint23_radial_614_17)"/>
<path d="M255.412 199.797L255.184 200.082C255.029 200.277 254.871 200.47 254.712 200.66C254.372 201.071 254.023 201.475 253.671 201.875C252.277 203.467 250.788 204.978 249.21 206.401C248.449 207.091 247.661 207.753 246.848 208.388C246.748 208.468 246.646 208.544 246.546 208.621C246.529 208.632 246.121 208.936 246.046 208.991C245.592 209.316 245.128 209.628 244.659 209.931C243.382 210.759 242.831 212.318 243.645 213.661C244.387 214.883 246.229 215.469 247.511 214.639C251.262 212.208 254.578 209.204 257.517 205.901C257.811 205.563 258.1 205.237 258.392 204.901C258.042 202.396 257.643 199.895 257.194 197.398C256.611 198.212 256.023 199.011 255.412 199.797Z" fill="url(#paint24_radial_614_17)"/>
<path d="M256.242 215.705L256.107 215.807L256.069 215.835C255.874 215.978 255.676 216.116 255.479 216.256C253.908 217.341 252.258 218.313 250.541 219.164C249.749 219.559 248.072 220.301 248.059 220.301C247.875 220.375 244.142 222.67 244.553 224.117C244.925 225.424 255.284 222.852 258.507 220.572C258.889 220.301 259.273 220.02 259.652 219.731C259.49 217.545 259.299 215.347 259.08 213.138C258.533 213.725 257.953 214.283 257.341 214.807C256.984 215.117 256.615 215.415 256.242 215.705Z" fill="url(#paint25_radial_614_17)"/>
<path d="M138.872 146.218C139.668 144.873 139.089 143.436 137.909 142.585C136.607 141.646 135.293 140.726 134.006 139.768L133.818 139.626L133.395 139.297C133.062 139.035 132.73 138.767 132.397 138.495C131.731 137.947 131.088 137.381 130.466 136.798C129.849 136.217 129.26 135.605 128.702 134.968C128.584 134.833 128.469 134.695 128.354 134.557L128.229 134.402C127.98 134.073 127.748 133.734 127.524 133.388C127.299 133.042 127.098 132.693 126.905 132.335C126.821 132.182 126.738 132.027 126.668 131.871C126.635 131.801 126.55 131.606 126.502 131.487C126.322 131.012 126.174 130.525 126.059 130.03C125.966 133.182 125.981 136.517 126.117 140.054C128.863 142.765 138.183 147.372 138.872 146.218Z" fill="url(#paint26_radial_614_17)"/>
<path d="M139.845 159.855C140.254 158.407 135.046 155.401 134.366 155.033C133.742 154.696 133.135 154.328 132.539 153.945C132.238 153.753 131.944 153.552 131.652 153.351C131.475 153.228 131.302 153.104 131.127 152.98L130.86 152.779C129.72 151.895 128.637 150.946 127.615 149.934C127.279 149.607 126.95 149.268 126.629 148.918C126.847 151.466 127.127 154.109 127.469 156.848C130.176 158.924 139.472 161.181 139.845 159.855Z" fill="url(#paint27_radial_614_17)"/>
<path d="M130.41 170.629C132.804 172.866 141.928 175.179 142.375 173.561C142.743 172.223 137.332 169.005 137.004 168.794C136.766 168.64 136.24 168.254 136.217 168.235C136.042 168.093 135.867 167.945 135.691 167.798C135.121 167.313 134.574 166.801 134.029 166.29C132.118 164.491 130.195 162.717 127.893 161.51C128.25 164.063 128.656 166.694 129.109 169.403C129.546 169.812 129.975 170.224 130.41 170.629Z" fill="url(#paint28_radial_614_17)"/>
<path d="M148.064 209.119C148.064 207.677 146.785 206.252 145.253 206.345C144.941 206.364 144.631 206.369 144.319 206.359C144.209 206.359 144.098 206.345 143.988 206.335H143.976C143.423 206.234 142.881 206.084 142.357 205.886C142.432 205.909 141.834 205.658 141.71 205.594C141.429 205.455 141.156 205.302 140.882 205.149C140.272 204.805 139.685 204.414 139.106 204.017C138.08 203.312 137.093 202.544 136.086 201.805C136.551 203.621 137.03 205.464 137.524 207.335C137.663 208.179 137.803 209.028 137.946 209.877C140.162 211.159 148.064 210.7 148.064 209.119Z" fill="url(#paint29_radial_614_17)"/>
<path d="M145.233 221.944C146.766 222.227 142.214 215.199 140.028 214.321C139.555 214.129 139.081 213.945 138.607 213.767C138.987 215.951 139.371 218.115 139.748 220.202C141.529 220.915 143.331 221.593 145.233 221.944Z" fill="url(#paint30_radial_614_17)"/>
<path d="M148.696 226.891C148.689 226.208 148.417 225.555 147.938 225.072C147.46 224.589 146.812 224.315 146.136 224.308C145.768 224.308 145.401 224.287 145.033 224.257L144.846 224.237C144.902 224.237 144.478 224.183 144.41 224.172C143.688 224.048 142.982 223.871 142.27 223.692C141.679 223.532 141.09 223.371 140.5 223.211C140.854 225.202 141.193 227.085 141.507 228.794C143.016 229.161 148.696 228.288 148.696 226.891Z" fill="url(#paint31_radial_614_17)"/>
<path d="M164.457 206.212C164.526 207.445 164.602 208.676 164.686 209.903C164.793 211.479 164.901 213.053 165.009 214.627C165.665 215.305 166.319 215.984 166.957 216.678C167.317 217.069 167.667 217.468 168.012 217.873L168.258 218.174C168.41 218.365 168.559 218.559 168.705 218.757C169.584 219.925 171.118 220.48 172.511 219.703C173.73 219.025 174.39 217.264 173.509 216.09C172.216 214.406 170.816 212.798 169.315 211.276C168.625 210.556 167.92 209.841 167.232 209.114C166.86 208.72 166.494 208.321 166.134 207.918C165.979 207.754 165.826 207.569 165.674 207.394C165.607 207.317 164.985 206.576 165.364 207.035C165.109 206.718 164.803 206.44 164.457 206.212Z" fill="url(#paint32_radial_614_17)"/>
<path d="M169.963 231.872C170.969 232.953 172.774 232.879 173.789 231.872C174.86 230.799 168.709 222.764 165.717 220.693C165.839 223.073 165.933 225.459 165.98 227.861C167.368 229.143 168.681 230.486 169.963 231.872Z" fill="url(#paint33_radial_614_17)"/>
<path d="M171.039 238.94C171.73 237.78 171.401 235.93 170.072 235.316C168.57 234.623 167.309 233.557 165.94 232.655C165.919 234.742 165.849 236.841 165.717 238.96C166.237 239.31 166.784 239.621 167.353 239.891C168.68 240.503 170.246 240.263 171.039 238.94Z" fill="url(#paint34_radial_614_17)"/>
<path d="M269.327 245.464C269.223 245.721 269.119 245.981 269.004 246.235C268.641 247.096 268.254 247.957 267.85 248.8C268.104 249.463 273.723 248.8 275.079 244.929C275.699 243.173 276.232 241.383 276.676 239.568C275.619 237.453 274.423 235.42 273.098 233.485C272.909 233.206 272.716 232.93 272.519 232.655C272.49 233.127 272.448 233.599 272.396 234.07V234.112C272.396 234.151 272.385 234.192 272.38 234.234C272.347 234.478 272.308 234.723 272.269 234.967C272.18 235.533 272.074 236.094 271.96 236.655C271.48 238.966 270.847 241.237 270.067 243.452C269.888 243.969 269.697 244.485 269.504 245.001C269.483 245.058 269.383 245.311 269.327 245.464Z" fill="url(#paint35_radial_614_17)"/>
<path d="M279.879 259.269C279.731 259.435 279.582 259.618 279.431 259.791C278.549 260.779 277.61 261.721 276.618 262.612C275.616 263.52 274.563 264.378 273.481 265.2L273.046 265.522C272.819 265.685 272.592 265.846 272.364 266.005C271.883 266.337 271.392 266.669 270.898 266.979C270.907 269.189 270.73 271.396 270.371 273.579C274.129 271.68 282.88 258.061 282.324 255.321C282.308 255.359 282.296 255.397 282.28 255.437C282.243 255.535 282.203 255.631 282.162 255.727C281.909 256.251 281.626 256.761 281.315 257.256C281.013 257.744 280.679 258.214 280.334 258.677C280.264 258.781 279.944 259.183 279.879 259.269Z" fill="url(#paint36_radial_614_17)"/>
<path d="M282.349 276.097C281.414 276.992 280.45 277.855 279.459 278.685L279.129 278.959C279.151 278.938 278.699 279.299 278.635 279.353C278.17 279.712 277.695 280.056 277.216 280.395C276.325 281.019 275.404 281.596 274.456 282.123C274.028 282.363 264.837 288.108 263.436 289.949C263.6 289.908 263.765 289.867 263.93 289.831C264.072 289.802 264.214 289.776 264.355 289.755H264.365C264.98 289.68 265.598 289.653 266.216 289.627C267.454 289.576 268.689 289.559 269.92 289.392C272.416 289.052 274.718 288.174 276.947 286.973C277.92 286.445 278.867 285.866 279.784 285.24L279.804 285.194C280.963 282.264 281.816 279.214 282.349 276.097Z" fill="url(#paint37_radial_614_17)"/>
<path d="M177.695 60.1849C177.68 58.881 177.316 57.5622 176.906 56.3327C176.051 53.7762 174.76 51.2147 172.479 49.6113C170.246 48.0427 167.108 46.6693 164.299 46.9638C162.538 47.1202 160.866 47.7951 159.503 48.8998C157.122 50.8408 156.06 53.5446 154.779 56.2136C154.641 56.5015 154.501 56.7894 154.369 57.0823L156.27 57.9428C156.27 57.9428 158.295 55.1149 161.971 52.5302C161.971 52.5302 161.735 54.5026 162.9 55.3714C162.9 55.3714 159.793 55.8463 158.75 61.4044L177.695 60.1849Z" fill="#EBA7BE"/>
<path d="M157.813 61.4868C157.283 62.4501 157.61 63.6555 157.753 64.6757C157.828 65.1972 157.839 65.7398 157.996 66.2466C158.124 66.6492 158.372 67.0047 158.708 67.2668C159.733 68.0011 161.019 67.5917 162.175 67.5397C163.383 67.478 164.598 67.8484 165.807 67.5885C166.66 67.4033 167.524 67.1775 168.407 67.21C169.327 67.2441 170.195 67.6161 171.121 67.5966C172.802 67.5625 174.611 67.4634 176.239 67.0491C177.38 66.7584 178.924 67.6778 179.736 66.4838C180.274 65.6943 180.117 64.4662 180.175 63.5499C180.233 62.6337 180.309 61.5631 179.812 60.7281C179.039 59.4285 177.276 59.7989 176.033 59.7632C174.603 59.7225 173.2 59.4383 171.765 59.5357C171.061 59.605 170.354 59.6386 169.647 59.6365C168.11 59.5812 166.791 59.9289 165.279 60.0767C163.928 60.2099 162.619 59.6754 161.272 59.7729C160.7 59.8172 160.138 59.9454 159.604 60.153C158.917 60.4243 158.17 60.837 157.813 61.4868Z" fill="#DE6C92"/>
<path d="M150.041 59.3684C149.725 60.672 150.296 62.0958 151.517 62.7621C151.989 62.9848 152.492 63.1387 153.01 63.219C154.649 63.5402 156.13 62.7948 157.023 61.4586C157.234 61.1426 157.283 60.8386 157.393 60.4899C157.568 59.9177 157.562 59.3078 157.376 58.739C157.189 58.1701 156.831 57.6685 156.347 57.2989C155.297 56.4831 153.808 56.0966 152.519 56.5793L152.398 56.6273C151.814 56.8785 151.298 57.2563 150.889 57.7317C150.481 58.207 150.19 58.767 150.041 59.3684Z" fill="#DE6C92"/>
<path d="M169.503 109.121C169.491 108.456 170.591 108.461 170.603 109.121C170.636 110.838 170.054 113.569 172.204 114.371C173.727 114.938 176.023 114.236 176.693 112.817C176.981 112.21 177.929 112.738 177.643 113.338C176.763 115.199 174.15 115.831 172.18 115.438C169.083 114.825 169.545 111.325 169.503 109.121Z" fill="url(#paint38_radial_614_17)"/>
<path d="M170.76 109.125C170.777 108.458 169.678 108.456 169.663 109.125C169.619 110.848 170.186 113.588 168.037 114.38C166.517 114.941 164.228 114.221 163.566 112.792C163.283 112.184 162.335 112.708 162.616 113.311C163.483 115.181 166.087 115.827 168.054 115.444C171.138 114.845 170.697 111.332 170.76 109.125Z" fill="url(#paint39_radial_614_17)"/>
<path d="M250.737 111.726C250.714 111.215 250.497 110.734 250.136 110.389C249.774 110.044 249.296 109.862 248.806 109.885C248.317 109.909 247.856 110.135 247.526 110.513C247.196 110.891 247.023 111.391 247.045 111.903L247.125 113.702C247.136 113.957 247.194 114.206 247.298 114.437C247.401 114.667 247.547 114.874 247.727 115.046C247.907 115.217 248.117 115.35 248.347 115.436C248.576 115.522 248.819 115.56 249.062 115.547C249.552 115.524 250.012 115.298 250.343 114.92C250.673 114.541 250.846 114.041 250.824 113.53L250.737 111.726Z" fill="#1E1B1B"/>
<path d="M257.751 120.799C257.837 122.415 257.422 124.02 256.56 125.41C255.697 126.8 254.425 127.913 252.905 128.608C251.385 129.303 249.685 129.549 248.019 129.315C246.354 129.08 244.798 128.376 243.548 127.292C242.299 126.207 241.412 124.791 241 123.221C240.587 121.652 240.668 120 241.232 118.475C241.796 116.95 242.817 115.619 244.167 114.652C245.517 113.685 247.135 113.125 248.816 113.042C249.932 112.987 251.049 113.144 252.102 113.504C253.155 113.864 254.124 114.42 254.954 115.141C255.784 115.861 256.458 116.731 256.938 117.702C257.418 118.673 257.694 119.725 257.751 120.799Z" fill="#DE6C92"/>
<path d="M253.343 120.062C253.384 120.871 253.185 121.673 252.769 122.368C252.354 123.063 251.742 123.62 251.01 123.967C250.278 124.315 249.459 124.438 248.658 124.321C247.856 124.204 247.106 123.852 246.505 123.31C245.903 122.767 245.476 122.059 245.277 121.275C245.079 120.49 245.118 119.664 245.389 118.901C245.66 118.139 246.152 117.473 246.802 116.99C247.452 116.506 248.231 116.226 249.04 116.185C250.125 116.129 251.188 116.507 251.995 117.234C252.802 117.961 253.287 118.978 253.343 120.062Z" fill="#EBA7BE"/>
<path d="M249.384 112.963L248.43 113.012L248.733 118.863L249.687 118.813L249.384 112.963Z" fill="white"/>
<path d="M250.824 119.559C250.807 119.249 250.699 118.95 250.513 118.7C250.326 118.451 250.07 118.262 249.776 118.158C249.482 118.054 249.164 118.04 248.862 118.117C248.56 118.193 248.287 118.357 248.079 118.589C247.87 118.82 247.735 119.108 247.69 119.416C247.645 119.724 247.693 120.038 247.827 120.319C247.961 120.6 248.176 120.835 248.444 120.995C248.711 121.154 249.02 121.23 249.332 121.214C249.539 121.203 249.741 121.152 249.928 121.063C250.115 120.974 250.283 120.849 250.421 120.695C250.56 120.542 250.667 120.362 250.736 120.167C250.805 119.973 250.835 119.766 250.824 119.559Z" fill="white"/>
<g clip-path="url(#clip0_614_17)">
<path d="M7.00032 39.232C6.99593 35.8724 7.87667 32.5496 9.58513 29.4805C11.2936 26.4113 13.7914 23.6645 16.9158 21.4192C20.0402 19.1739 23.721 17.4804 27.7184 16.4491C31.7158 15.4179 35.94 15.072 40.1157 15.434C43.1925 10.2016 48.2965 5.90228 54.6701 3.17406C61.0436 0.445845 68.347 -0.565814 75.4963 0.289211C82.6456 1.14424 89.2597 3.82038 94.357 7.92045C99.4542 12.0205 102.763 17.326 103.792 23.0493C105.732 22.5829 107.748 22.3477 109.774 22.3513C113.419 22.3476 117.002 23.0996 120.175 24.534C123.348 25.9683 126.003 28.036 127.879 30.5353C129.755 33.0347 130.79 35.8804 130.882 38.7949C130.973 41.7093 130.119 44.593 128.402 47.1647C130.666 48.8228 132.251 50.9892 132.949 53.3801C133.647 55.7709 133.425 58.2747 132.314 60.5632C131.202 62.8518 129.252 64.8183 126.72 66.2052C124.187 67.5921 121.19 68.3346 118.12 68.3355C116.856 68.3346 115.597 68.2023 114.375 67.942C109.758 75.4051 99.2062 80.6343 86.9089 80.6343C79.3232 80.6936 71.9573 78.5977 66.1225 74.7197C63.0434 78.3592 58.5861 81.1126 53.4055 82.5753C48.2249 84.038 42.5943 84.1328 37.3414 82.8459C32.0884 81.5589 27.49 78.958 24.2222 75.4254C20.9543 71.8929 19.1894 67.615 19.1866 63.2205C19.1826 61.7656 19.3741 60.3146 19.7578 58.8924C15.8047 56.6829 12.5795 53.7404 10.3578 50.3166C8.13615 46.8928 6.98412 43.0895 7.00032 39.232Z" fill="#4782AC"/>
<path d="M114.2 80.8627C114.2 85.0131 119.262 88.3766 125.498 88.3766C131.733 88.3766 136.779 85.0131 136.779 80.8627C136.779 76.7123 131.733 73.3362 125.498 73.3362C119.262 73.3362 114.2 76.7123 114.2 80.8627Z" fill="#4782AC"/>
<path d="M131.512 95.3192C131.512 97.35 134.082 98.9873 137.256 98.9873C140.429 98.9873 143 97.35 143 95.3192C143 93.2884 140.429 91.6384 137.256 91.6384C134.082 91.6384 131.512 93.2884 131.512 95.3192Z" fill="#4782AC"/>
<path d="M0.000320435 39.232C-0.00406647 35.8724 0.876671 32.5496 2.58513 29.4805C4.29359 26.4113 6.79144 23.6645 9.91583 21.4192C13.0402 19.1739 16.721 17.4804 20.7184 16.4491C24.7158 15.4179 28.94 15.072 33.1157 15.434C36.1925 10.2016 41.2965 5.90228 47.6701 3.17406C54.0436 0.445845 61.347 -0.565814 68.4963 0.289211C75.6456 1.14424 82.2597 3.82038 87.357 7.92045C92.4542 12.0205 95.7628 17.326 96.7918 23.0493C98.7322 22.5829 100.748 22.3477 102.774 22.3513C106.419 22.3476 110.002 23.0996 113.175 24.534C116.348 25.9683 119.003 28.036 120.879 30.5353C122.755 33.0347 123.79 35.8804 123.882 38.7949C123.973 41.7093 123.119 44.593 121.402 47.1647C123.666 48.8228 125.251 50.9892 125.949 53.3801C126.647 55.7709 126.425 58.2747 125.314 60.5632C124.202 62.8518 122.252 64.8183 119.72 66.2052C117.187 67.5921 114.19 68.3346 111.12 68.3355C109.856 68.3346 108.597 68.2023 107.375 67.942C102.758 75.4051 92.2062 80.6343 79.9089 80.6343C72.3232 80.6936 64.9573 78.5977 59.1225 74.7197C56.0434 78.3592 51.5861 81.1126 46.4055 82.5753C41.2249 84.038 35.5943 84.1328 30.3414 82.8459C25.0884 81.5589 20.49 78.958 17.2222 75.4254C13.9543 71.8929 12.1894 67.615 12.1866 63.2205C12.1826 61.7656 12.3741 60.3146 12.7578 58.8924C8.80473 56.6829 5.57949 53.7404 3.35782 50.3166C1.13615 46.8928 -0.0158768 43.0895 0.000320435 39.232Z" fill="white"/>
<path d="M107.2 80.8627C107.2 85.0131 112.262 88.3766 118.498 88.3766C124.733 88.3766 129.779 85.0131 129.779 80.8627C129.779 76.7123 124.733 73.3362 118.498 73.3362C112.262 73.3362 107.2 76.7123 107.2 80.8627Z" fill="white"/>
<path d="M124.512 95.3192C124.512 97.35 127.082 98.9873 130.256 98.9873C133.429 98.9873 136 97.35 136 95.3192C136 93.2884 133.429 91.6384 130.256 91.6384C127.082 91.6384 124.512 93.2884 124.512 95.3192Z" fill="white"/>
<path d="M21.6947 46.0901C22.5346 45.9734 23.2778 46.1487 23.9243 46.6162C24.5708 47.0836 24.953 47.7413 25.0708 48.5891C25.1887 49.437 25.0003 50.1739 24.5058 50.8C24.0113 51.426 23.3441 51.7974 22.5041 51.9141L21.3988 52.0678L21.7457 54.5638L19.6181 54.8595L18.4617 46.5394L21.6947 46.0901ZM22.2233 49.8935C22.461 49.8605 22.6476 49.7498 22.7829 49.5613C22.9262 49.3718 22.9796 49.1463 22.9433 48.8848C22.9069 48.6233 22.7946 48.4249 22.6061 48.2896C22.4245 48.1452 22.2149 48.0895 21.9772 48.1226L20.8718 48.2762L21.1179 50.0472L22.2233 49.8935ZM28.5021 51.5893L31.7231 51.1416L32.0007 53.1384L26.6521 53.8818L25.4957 45.5618L30.7849 44.8267L31.0607 46.8116L27.8991 47.251L28.0594 48.4039L30.9238 48.0058L31.1964 49.967L28.3319 50.3651L28.5021 51.5893ZM39.9065 52.0396L37.5294 52.37L34.6233 48.9818L35.1404 52.7021L33.0128 52.9978L31.8564 44.6777L33.984 44.382L34.4697 47.8764L36.2542 44.0665L38.6313 43.7361L36.5543 48.144L39.9065 52.0396ZM46.8438 49.985C46.1195 50.9338 45.1472 51.493 43.927 51.6626C42.7067 51.8322 41.6148 51.5599 40.6513 50.8457C39.6947 50.1225 39.1315 49.1508 38.9619 47.9305C38.7923 46.7103 39.0697 45.6258 39.794 44.677C40.5251 43.7192 41.5008 43.1556 42.721 42.986C43.9413 42.8164 45.0298 43.0931 45.9864 43.8163C46.9499 44.5305 47.5165 45.4977 47.6861 46.718C47.8557 47.9383 47.5749 49.0273 46.8438 49.985ZM41.9458 49.1756C42.432 49.5361 42.9961 49.6718 43.6379 49.5825C44.2797 49.4933 44.7854 49.209 45.1549 48.7296C45.5233 48.2422 45.6618 47.6697 45.5704 47.012C45.479 46.3544 45.1902 45.8453 44.7039 45.4848C44.2166 45.1164 43.652 44.9768 43.0101 45.066C42.3683 45.1552 41.8632 45.4435 41.4948 45.9308C41.1252 46.4102 40.9862 46.9788 41.0776 47.6365C41.169 48.2942 41.4584 48.8072 41.9458 49.1756ZM56.5813 41.2413L57.7377 49.5613L55.622 49.8554L54.9992 45.3744L53.4428 48.9952L53.2289 49.0249L50.7577 45.9761L51.3788 50.4451L49.2512 50.7408L48.0949 42.4208L50.2224 42.1251L52.832 45.3849L54.4656 41.5353L56.5813 41.2413ZM60.9093 47.0851L64.1304 46.6374L64.4079 48.6342L59.0593 49.3776L57.9029 41.0576L63.1921 40.3225L63.468 42.3074L60.3064 42.7468L60.4666 43.8997L63.3311 43.5016L63.6036 45.4627L60.7392 45.8609L60.9093 47.0851ZM68.7327 39.5524L70.8484 39.2583L72.0047 47.5784L69.8891 47.8724L69.4447 44.6751L67.1032 45.0006L67.5476 48.1978L65.42 48.4935L64.2637 40.1735L66.3912 39.8778L66.8191 42.9562L69.1606 42.6308L68.7327 39.5524ZM79.7423 44.407L80.6337 44.2831L81.1409 47.932L79.0252 48.226L78.8039 46.6334L74.9172 47.1736L75.1386 48.7662L73.011 49.0619L72.5039 45.413L73.3834 45.2908C73.679 44.6278 73.7469 43.7218 73.5872 42.5728L73.0833 38.9477L78.8717 38.1432L79.7423 44.407ZM75.5942 44.9835L77.6266 44.701L77.0303 40.4103L75.4732 40.6267L75.7062 42.3026C75.8603 43.4119 75.823 44.3055 75.5942 44.9835ZM84.846 37.3128L87.0211 37.0105L85.4213 43.1088C85.1665 44.065 84.7593 44.796 84.1996 45.3019C83.6479 45.8066 82.9176 46.102 82.0087 46.1879L81.7329 44.203C82.4944 44.1618 83.021 43.8826 83.3126 43.3655L79.7945 38.0149L81.9815 37.711L83.9872 40.8972L84.846 37.3128ZM90.7514 42.9374L93.9724 42.4897L94.2499 44.4865L88.9014 45.2299L87.745 36.9099L93.0341 36.1748L93.31 38.1597L90.1484 38.5991L90.3086 39.752L93.1731 39.3539L93.4457 41.3151L90.5812 41.7132L90.7514 42.9374ZM102.592 34.8463L103.749 43.1663L101.633 43.4604L101.01 38.9795L99.4537 42.6002L99.2397 42.6299L96.7685 39.5811L97.3896 44.0502L95.2621 44.3459L94.1057 36.0258L96.2333 35.7301L98.8429 38.9899L100.476 35.1404L102.592 34.8463ZM104.922 39.9138L104.125 37.0563L103.795 34.6792L106.22 34.3421L106.55 36.7193L106.562 39.6858L104.922 39.9138ZM107.005 42.5199C106.8 42.7907 106.527 42.9497 106.187 42.9971C105.846 43.0444 105.536 42.9663 105.258 42.7627C104.987 42.5581 104.827 42.2814 104.779 41.9328C104.731 41.592 104.81 41.2863 105.015 41.0155C105.226 40.7358 105.502 40.5722 105.843 40.5248C106.184 40.4775 106.49 40.5601 106.762 40.7727C107.041 40.9763 107.204 41.2484 107.251 41.5892C107.3 41.9378 107.217 42.2481 107.005 42.5199Z" fill="black"/>
</g>
<defs>
<radialGradient id="paint0_radial_614_17" cx="0" cy="0" r="1" gradientUnits="userSpaceOnUse" gradientTransform="translate(-45739.9 12669.2) rotate(-17.7283) scale(817.132 503.469)">
<stop offset="0.57" stop-color="#130C0E"/>
<stop offset="0.8" stop-color="#130C0E"/>
<stop offset="1" stop-color="#130C0E"/>
</radialGradient>
<radialGradient id="paint1_radial_614_17" cx="0" cy="0" r="1" gradientUnits="userSpaceOnUse" gradientTransform="translate(-9297.17 3383.38) rotate(-27.5174) scale(51.5016 92.8)">
<stop offset="0.57" stop-color="#130C0E"/>
<stop offset="0.8" stop-color="#130C0E"/>
<stop offset="1" stop-color="#130C0E"/>
</radialGradient>
<radialGradient id="paint2_radial_614_17" cx="0" cy="0" r="1" gradientUnits="userSpaceOnUse" gradientTransform="translate(-18229.2 8579.84) rotate(-155.684) scale(51.7925 91.8637)">
<stop offset="0.57" stop-color="#130C0E"/>
<stop offset="0.8" stop-color="#130C0E"/>
<stop offset="1" stop-color="#130C0E"/>
</radialGradient>
<radialGradient id="paint3_radial_614_17" cx="0" cy="0" r="1" gradientUnits="userSpaceOnUse" gradientTransform="translate(-47347.1 729.525) rotate(-1.70387) scale(490.925 222.853)">
<stop offset="0.57" stop-color="#130C0E"/>
<stop offset="0.8" stop-color="#130C0E"/>
<stop offset="1" stop-color="#130C0E"/>
</radialGradient>
<radialGradient id="paint4_radial_614_17" cx="0" cy="0" r="1" gradientUnits="userSpaceOnUse" gradientTransform="translate(-51878 1025.66) rotate(-1.78103) scale(623.376 285.313)">
<stop offset="0.57" stop-color="#130C0E"/>
<stop offset="0.8" stop-color="#130C0E"/>
<stop offset="1" stop-color="#130C0E"/>
</radialGradient>
<radialGradient id="paint5_radial_614_17" cx="0" cy="0" r="1" gradientUnits="userSpaceOnUse" gradientTransform="translate(-49758.5 1164.92) rotate(-1.79454) scale(582.609 278.244)">
<stop offset="0.57" stop-color="#130C0E"/>
<stop offset="0.8" stop-color="#130C0E"/>
<stop offset="1" stop-color="#130C0E"/>
</radialGradient>
<radialGradient id="paint6_radial_614_17" cx="0" cy="0" r="1" gradientUnits="userSpaceOnUse" gradientTransform="translate(-47488.3 412.304) rotate(178.309) scale(593.829 321.237)">
<stop offset="0.57" stop-color="#130C0E"/>
<stop offset="0.8" stop-color="#130C0E"/>
<stop offset="1" stop-color="#130C0E"/>
</radialGradient>
<radialGradient id="paint7_radial_614_17" cx="0" cy="0" r="1" gradientUnits="userSpaceOnUse" gradientTransform="translate(-47355.8 696.741) rotate(178.326) scale(641.354 320.263)">
<stop offset="0.57" stop-color="#130C0E"/>
<stop offset="0.8" stop-color="#130C0E"/>
<stop offset="1" stop-color="#130C0E"/>
</radialGradient>
<radialGradient id="paint8_radial_614_17" cx="0" cy="0" r="1" gradientUnits="userSpaceOnUse" gradientTransform="translate(-45305.2 817.851) rotate(178.36) scale(588.654 306.738)">
<stop offset="0.57" stop-color="#130C0E"/>
<stop offset="0.8" stop-color="#130C0E"/>
<stop offset="1" stop-color="#130C0E"/>
</radialGradient>
<radialGradient id="paint9_radial_614_17" cx="0" cy="0" r="1" gradientUnits="userSpaceOnUse" gradientTransform="translate(-16328 -273.024) rotate(-39.3442) scale(101.519 99.33)">
<stop offset="0.57" stop-color="#130C0E"/>
<stop offset="0.8" stop-color="#130C0E"/>
<stop offset="1" stop-color="#130C0E"/>
</radialGradient>
<radialGradient id="paint10_radial_614_17" cx="0" cy="0" r="1" gradientUnits="userSpaceOnUse" gradientTransform="translate(-22575.8 -310.914) rotate(-145.358) scale(111.281 111.57)">
<stop offset="0.57" stop-color="#130C0E"/>
<stop offset="0.8" stop-color="#130C0E"/>
<stop offset="1" stop-color="#130C0E"/>
</radialGradient>
<radialGradient id="paint11_radial_614_17" cx="0" cy="0" r="1" gradientUnits="userSpaceOnUse" gradientTransform="translate(-65488.4 -6867.57) rotate(7.37076) scale(854.012 107.304)">
<stop offset="0.57" stop-color="#130C0E"/>
<stop offset="0.8" stop-color="#130C0E"/>
<stop offset="1" stop-color="#130C0E"/>
</radialGradient>
<radialGradient id="paint12_radial_614_17" cx="0" cy="0" r="1" gradientUnits="userSpaceOnUse" gradientTransform="translate(-65149.7 -13312.9) rotate(15.0572) scale(856.578 187.219)">
<stop offset="0.57" stop-color="#130C0E"/>
<stop offset="0.8" stop-color="#130C0E"/>
<stop offset="1" stop-color="#130C0E"/>
</radialGradient>
<radialGradient id="paint13_radial_614_17" cx="0" cy="0" r="1" gradientUnits="userSpaceOnUse" gradientTransform="translate(-63744.3 3164.43) rotate(-2.48966) scale(856.957 160.403)">
<stop offset="0.57" stop-color="#130C0E"/>
<stop offset="0.8" stop-color="#130C0E"/>
<stop offset="1" stop-color="#130C0E"/>
</radialGradient>
<radialGradient id="paint14_radial_614_17" cx="0" cy="0" r="1" gradientUnits="userSpaceOnUse" gradientTransform="translate(-46094.9 8543.37) rotate(167.784) scale(858.907 160.683)">
<stop offset="0.57" stop-color="#130C0E"/>
<stop offset="0.8" stop-color="#130C0E"/>
<stop offset="1" stop-color="#130C0E"/>
</radialGradient>
<radialGradient id="paint15_radial_614_17" cx="0" cy="0" r="1" gradientUnits="userSpaceOnUse" gradientTransform="translate(-40977.6 10778.1) rotate(160.056) scale(838.823 239.291)">
<stop offset="0.57" stop-color="#130C0E"/>
<stop offset="0.8" stop-color="#130C0E"/>
<stop offset="1" stop-color="#130C0E"/>
</radialGradient>
<radialGradient id="paint16_radial_614_17" cx="0" cy="0" r="1" gradientUnits="userSpaceOnUse" gradientTransform="translate(-50798 1277.55) rotate(178.981) scale(856.926 80.2362)">
<stop offset="0.57" stop-color="#130C0E"/>
<stop offset="0.8" stop-color="#130C0E"/>
<stop offset="1" stop-color="#130C0E"/>
</radialGradient>
<radialGradient id="paint17_radial_614_17" cx="0" cy="0" r="1" gradientUnits="userSpaceOnUse" gradientTransform="translate(-51727.2 35860.6) scale(1245.24 2487.16)">
<stop offset="0.57" stop-color="#130C0E"/>
<stop offset="0.8" stop-color="#130C0E"/>
<stop offset="1" stop-color="#130C0E"/>
</radialGradient>
<radialGradient id="paint18_radial_614_17" cx="0" cy="0" r="1" gradientUnits="userSpaceOnUse" gradientTransform="translate(-55382.7 63525) scale(1995.16 6054.12)">
<stop offset="0.57" stop-color="#130C0E"/>
<stop offset="0.8" stop-color="#130C0E"/>
<stop offset="1" stop-color="#130C0E"/>
</radialGradient>
<radialGradient id="paint19_radial_614_17" cx="0" cy="0" r="1" gradientUnits="userSpaceOnUse" gradientTransform="translate(-20254.3 24480.6) scale(368.869 1178.81)">
<stop offset="0.57" stop-color="#130C0E"/>
<stop offset="0.8" stop-color="#130C0E"/>
<stop offset="1" stop-color="#130C0E"/>
</radialGradient>
<radialGradient id="paint20_radial_614_17" cx="0" cy="0" r="1" gradientUnits="userSpaceOnUse" gradientTransform="translate(-64233 58324.2) scale(2222.3 5082.99)">
<stop offset="0.57" stop-color="#130C0E"/>
<stop offset="0.8" stop-color="#130C0E"/>
<stop offset="1" stop-color="#130C0E"/>
</radialGradient>
<radialGradient id="paint21_radial_614_17" cx="0" cy="0" r="1" gradientUnits="userSpaceOnUse" gradientTransform="translate(-64669.9 44114.9) scale(1877.8 3105.95)">
<stop offset="0.57" stop-color="#130C0E"/>
<stop offset="0.8" stop-color="#130C0E"/>
<stop offset="1" stop-color="#130C0E"/>
</radialGradient>
<radialGradient id="paint22_radial_614_17" cx="0" cy="0" r="1" gradientUnits="userSpaceOnUse" gradientTransform="translate(-35067 25841.4) scale(689.044 1146.87)">
<stop offset="0.57" stop-color="#130C0E"/>
<stop offset="0.8" stop-color="#130C0E"/>
<stop offset="1" stop-color="#130C0E"/>
</radialGradient>
<radialGradient id="paint23_radial_614_17" cx="0" cy="0" r="1" gradientUnits="userSpaceOnUse" gradientTransform="translate(-57123.6 32746.7) scale(1472.85 1825.93)">
<stop offset="0.57" stop-color="#130C0E"/>
<stop offset="0.8" stop-color="#130C0E"/>
<stop offset="1" stop-color="#130C0E"/>
</radialGradient>
<radialGradient id="paint24_radial_614_17" cx="0" cy="0" r="1" gradientUnits="userSpaceOnUse" gradientTransform="translate(-46567.3 26900.3) scale(1025.55 1194.87)">
<stop offset="0.57" stop-color="#130C0E"/>
<stop offset="0.8" stop-color="#130C0E"/>
<stop offset="1" stop-color="#130C0E"/>
</radialGradient>
<radialGradient id="paint25_radial_614_17" cx="0" cy="0" r="1" gradientUnits="userSpaceOnUse" gradientTransform="translate(-46501.5 18274.3) scale(831.724 622.96)">
<stop offset="0.57" stop-color="#130C0E"/>
<stop offset="0.8" stop-color="#130C0E"/>
<stop offset="1" stop-color="#130C0E"/>
</radialGradient>
<radialGradient id="paint26_radial_614_17" cx="0" cy="0" r="1" gradientUnits="userSpaceOnUse" gradientTransform="translate(-50505.2 18538.2) scale(747.22 923.894)">
<stop offset="0.57" stop-color="#130C0E"/>
<stop offset="0.8" stop-color="#130C0E"/>
<stop offset="1" stop-color="#130C0E"/>
</radialGradient>
<radialGradient id="paint27_radial_614_17" cx="0" cy="0" r="1" gradientUnits="userSpaceOnUse" gradientTransform="translate(-50509.3 13970.4) scale(692.145 592.475)">
<stop offset="0.57" stop-color="#130C0E"/>
<stop offset="0.8" stop-color="#130C0E"/>
<stop offset="1" stop-color="#130C0E"/>
</radialGradient>
<radialGradient id="paint28_radial_614_17" cx="0" cy="0" r="1" gradientUnits="userSpaceOnUse" gradientTransform="translate(-55152.1 16591.6) scale(708.474 615.241)">
<stop offset="0.57" stop-color="#130C0E"/>
<stop offset="0.8" stop-color="#130C0E"/>
<stop offset="1" stop-color="#130C0E"/>
</radialGradient>
<radialGradient id="paint29_radial_614_17" cx="0" cy="0" r="1" gradientUnits="userSpaceOnUse" gradientTransform="translate(-44980.1 13671.3) scale(550.045 404.755)">
<stop offset="0.57" stop-color="#130C0E"/>
<stop offset="0.8" stop-color="#130C0E"/>
<stop offset="1" stop-color="#130C0E"/>
</radialGradient>
<radialGradient id="paint30_radial_614_17" cx="0" cy="0" r="1" gradientUnits="userSpaceOnUse" gradientTransform="translate(-25599.7 13292.5) scale(224.619 265.104)">
<stop offset="0.57" stop-color="#130C0E"/>
<stop offset="0.8" stop-color="#130C0E"/>
<stop offset="1" stop-color="#130C0E"/>
</radialGradient>
<radialGradient id="paint31_radial_614_17" cx="0" cy="0" r="1" gradientUnits="userSpaceOnUse" gradientTransform="translate(-30394.4 9567.55) scale(281.194 194.413)">
<stop offset="0.57" stop-color="#130C0E"/>
<stop offset="0.8" stop-color="#130C0E"/>
<stop offset="1" stop-color="#130C0E"/>
</radialGradient>
<radialGradient id="paint32_radial_614_17" cx="0" cy="0" r="1" gradientUnits="userSpaceOnUse" gradientTransform="translate(-33689.2 22000) scale(396.42 580.639)">
<stop offset="0.57" stop-color="#130C0E"/>
<stop offset="0.8" stop-color="#130C0E"/>
<stop offset="1" stop-color="#130C0E"/>
</radialGradient>
<radialGradient id="paint33_radial_614_17" cx="0" cy="0" r="1" gradientUnits="userSpaceOnUse" gradientTransform="translate(-29097.2 19973.1) scale(326.517 476.579)">
<stop offset="0.57" stop-color="#130C0E"/>
<stop offset="0.8" stop-color="#130C0E"/>
<stop offset="1" stop-color="#130C0E"/>
</radialGradient>
<radialGradient id="paint34_radial_614_17" cx="0" cy="0" r="1" gradientUnits="userSpaceOnUse" gradientTransform="translate(-19907.7 13143.3) scale(171.694 228.619)">
<stop offset="0.57" stop-color="#130C0E"/>
<stop offset="0.8" stop-color="#130C0E"/>
<stop offset="1" stop-color="#130C0E"/>
</radialGradient>
<radialGradient id="paint35_radial_614_17" cx="0" cy="0" r="1" gradientUnits="userSpaceOnUse" gradientTransform="translate(-25911.6 28654) scale(472.11 875.604)">
<stop offset="0.57" stop-color="#130C0E"/>
<stop offset="0.8" stop-color="#130C0E"/>
<stop offset="1" stop-color="#130C0E"/>
</radialGradient>
<radialGradient id="paint36_radial_614_17" cx="0" cy="0" r="1" gradientUnits="userSpaceOnUse" gradientTransform="translate(-35123.7 34351.6) scale(864.595 1317.88)">
<stop offset="0.57" stop-color="#130C0E"/>
<stop offset="0.8" stop-color="#130C0E"/>
<stop offset="1" stop-color="#130C0E"/>
</radialGradient>
<radialGradient id="paint37_radial_614_17" cx="0" cy="0" r="1" gradientUnits="userSpaceOnUse" gradientTransform="translate(-56270.4 27720.8) scale(1330.73 974.564)">
<stop offset="0.57" stop-color="#130C0E"/>
<stop offset="0.8" stop-color="#130C0E"/>
<stop offset="1" stop-color="#130C0E"/>
</radialGradient>
<radialGradient id="paint38_radial_614_17" cx="0" cy="0" r="1" gradientUnits="userSpaceOnUse" gradientTransform="translate(-61400.9 3836.13) rotate(180) scale(189.075 159.773)">
<stop offset="0.57" stop-color="#130C0E"/>
<stop offset="0.8" stop-color="#130C0E"/>
<stop offset="1" stop-color="#130C0E"/>
</radialGradient>
<radialGradient id="paint39_radial_614_17" cx="0" cy="0" r="1" gradientUnits="userSpaceOnUse" gradientTransform="translate(-61740.2 3836.33) rotate(180) scale(189.075 159.773)">
<stop offset="0.57" stop-color="#130C0E"/>
<stop offset="0.8" stop-color="#130C0E"/>
<stop offset="1" stop-color="#130C0E"/>
</radialGradient>
<clipPath id="clip0_614_17">
<rect width="136" height="99" fill="white" transform="matrix(-1 0 0 1 136 0)"/>
</clipPath>
</defs>
</svg>
