<svg width="1044" height="991" viewBox="0 0 1044 991" fill="none" xmlns="http://www.w3.org/2000/svg">
<g clip-path="url(#clip0_606_8)">
<path d="M793.1 791.8C792.9 791.8 792.7 791.7 792.6 791.5L783.6 775.8C783.4 775.6 783.5 775.3 783.8 775.1C784 775 784.3 775.1 784.5 775.3L793.5 791C793.6 791.3 793.6 791.6 793.3 791.7C793.3 791.7 793.2 791.8 793.1 791.8Z" fill="white"/>
<path d="M797.6 783.9H779.5C779.2 783.9 779 783.7 779 783.4C779 783.1 779.2 782.9 779.5 782.9H797.6C797.9 782.9 798.1 783.1 798.1 783.4C798.1 783.7 797.9 783.9 797.6 783.9Z" fill="white"/>
<path d="M783.999 791.7C783.899 791.7 783.799 791.7 783.699 791.6C783.399 791.5 783.399 791.1 783.499 790.9L792.499 775.2C792.599 774.9 792.999 774.9 793.199 775C793.499 775.1 793.499 775.5 793.399 775.7L784.399 791.4C784.399 791.6 784.199 791.7 783.999 791.7Z" fill="white"/>
<path d="M794.8 787.4C794.7 787.4 794.7 787.4 794.6 787.3L782.2 780.2C782 780.1 781.9 779.8 782 779.6C782.1 779.4 782.4 779.3 782.6 779.4L795 786.6C795.2 786.7 795.3 787 795.2 787.2C795.1 787.3 794.9 787.4 794.8 787.4Z" fill="white"/>
<path d="M782.4 787.4C782.3 787.4 782.1 787.3 782 787.2C781.9 787 782 786.7 782.2 786.6L794.6 779.4C794.8 779.3 795.1 779.4 795.2 779.6C795.3 779.8 795.2 780.1 795 780.2L782.6 787.3C782.5 787.4 782.4 787.4 782.4 787.4Z" fill="white"/>
<path d="M788.599 790.9C788.399 790.9 788.199 790.7 788.199 790.5V776.2C788.199 776 788.399 775.8 788.599 775.8C788.799 775.8 788.999 776 788.999 776.2V790.5C788.999 790.8 788.799 790.9 788.599 790.9Z" fill="white"/>
</g>
<g clip-path="url(#clip1_606_8)">
<path d="M999.1 499.8C998.9 499.8 998.7 499.7 998.6 499.5L989.6 483.8C989.4 483.6 989.5 483.3 989.8 483.1C990 483 990.3 483.1 990.5 483.3L999.5 499C999.6 499.3 999.6 499.6 999.3 499.7C999.3 499.7 999.2 499.8 999.1 499.8Z" fill="white"/>
<path d="M1003.6 491.9H985.5C985.2 491.9 985 491.7 985 491.4C985 491.1 985.2 490.9 985.5 490.9H1003.6C1003.9 490.9 1004.1 491.1 1004.1 491.4C1004.1 491.7 1003.9 491.9 1003.6 491.9Z" fill="white"/>
<path d="M989.999 499.7C989.899 499.7 989.799 499.7 989.699 499.6C989.399 499.5 989.399 499.1 989.499 498.9L998.499 483.2C998.599 482.9 998.999 482.9 999.199 483C999.499 483.1 999.499 483.5 999.399 483.7L990.399 499.4C990.399 499.6 990.199 499.7 989.999 499.7Z" fill="white"/>
<path d="M1000.8 495.4C1000.7 495.4 1000.7 495.4 1000.6 495.3L988.2 488.2C988 488.1 987.9 487.8 988 487.6C988.1 487.4 988.4 487.3 988.6 487.4L1001 494.6C1001.2 494.7 1001.3 495 1001.2 495.2C1001.1 495.3 1000.9 495.4 1000.8 495.4Z" fill="white"/>
<path d="M988.4 495.4C988.3 495.4 988.1 495.3 988 495.2C987.9 495 988 494.7 988.2 494.6L1000.6 487.4C1000.8 487.3 1001.1 487.4 1001.2 487.6C1001.3 487.8 1001.2 488.1 1001 488.2L988.6 495.3C988.5 495.4 988.4 495.4 988.4 495.4Z" fill="white"/>
<path d="M994.599 498.9C994.399 498.9 994.199 498.7 994.199 498.5V484.2C994.199 484 994.399 483.8 994.599 483.8C994.799 483.8 994.999 484 994.999 484.2V498.5C994.999 498.8 994.799 498.9 994.599 498.9Z" fill="white"/>
</g>
<g clip-path="url(#clip2_606_8)">
<path d="M739.9 985C736 985 736 991 739.9 991C743.8 991 743.8 985 739.9 985Z" fill="white"/>
</g>
<g clip-path="url(#clip3_606_8)">
<path d="M945.9 693C942 693 942 699 945.9 699C949.8 699 949.8 693 945.9 693Z" fill="white"/>
</g>
<g clip-path="url(#clip4_606_8)">
<path d="M14.1001 16.8C13.9001 16.8 13.7001 16.7 13.6001 16.5L4.60015 0.799999C4.40015 0.599999 4.50015 0.299999 4.80015 0.0999986C5.00015 -1.38953e-06 5.30015 0.0999986 5.50015 0.299999L14.5001 16C14.6001 16.3 14.6001 16.6 14.3001 16.7C14.3001 16.7 14.2001 16.8 14.1001 16.8Z" fill="white"/>
<path d="M18.6 8.9H0.5C0.2 8.9 0 8.7 0 8.4C0 8.1 0.2 7.9 0.5 7.9H18.6C18.9 7.9 19.1 8.1 19.1 8.4C19.1 8.7 18.9 8.9 18.6 8.9Z" fill="white"/>
<path d="M4.99926 16.7C4.89926 16.7 4.79926 16.7 4.69926 16.6C4.39926 16.5 4.39926 16.1 4.49926 15.9L13.4993 0.200001C13.5993 -0.0999992 13.9993 -0.0999992 14.1993 8.00937e-07C14.4993 0.100001 14.4993 0.500001 14.3993 0.700001L5.39926 16.4C5.39926 16.6 5.19926 16.7 4.99926 16.7Z" fill="white"/>
<path d="M15.8002 12.4C15.7002 12.4 15.7002 12.4 15.6002 12.3L3.20017 5.2C3.00017 5.1 2.90017 4.8 3.00017 4.6C3.10017 4.4 3.40017 4.3 3.60017 4.4L16.0002 11.6C16.2002 11.7 16.3002 12 16.2002 12.2C16.1002 12.3 15.9002 12.4 15.8002 12.4Z" fill="white"/>
<path d="M3.40017 12.4C3.30017 12.4 3.10017 12.3 3.00017 12.2C2.90017 12 3.00017 11.7 3.20017 11.6L15.6002 4.4C15.8002 4.3 16.1002 4.4 16.2002 4.6C16.3002 4.8 16.2002 5.1 16.0002 5.2L3.60017 12.3C3.50017 12.4 3.40017 12.4 3.40017 12.4Z" fill="white"/>
<path d="M9.59922 15.9C9.39922 15.9 9.19922 15.7 9.19922 15.5V1.2C9.19922 1 9.39922 0.800003 9.59922 0.800003C9.79922 0.800003 9.99922 1 9.99922 1.2V15.5C9.99922 15.8 9.79922 15.9 9.59922 15.9Z" fill="white"/>
</g>
<g clip-path="url(#clip5_606_8)">
<path d="M870.1 629.8C869.9 629.8 869.7 629.7 869.6 629.5L860.6 613.8C860.4 613.6 860.5 613.3 860.8 613.1C861 613 861.3 613.1 861.5 613.3L870.5 629C870.6 629.3 870.6 629.6 870.3 629.7C870.3 629.7 870.2 629.8 870.1 629.8Z" fill="white"/>
<path d="M874.6 621.9H856.5C856.2 621.9 856 621.7 856 621.4C856 621.1 856.2 620.9 856.5 620.9H874.6C874.9 620.9 875.1 621.1 875.1 621.4C875.1 621.7 874.9 621.9 874.6 621.9Z" fill="white"/>
<path d="M860.999 629.7C860.899 629.7 860.799 629.7 860.699 629.6C860.399 629.5 860.399 629.1 860.499 628.9L869.499 613.2C869.599 612.9 869.999 612.9 870.199 613C870.499 613.1 870.499 613.5 870.399 613.7L861.399 629.4C861.399 629.6 861.199 629.7 860.999 629.7Z" fill="white"/>
<path d="M871.8 625.4C871.7 625.4 871.7 625.4 871.6 625.3L859.2 618.2C859 618.1 858.9 617.8 859 617.6C859.1 617.4 859.4 617.3 859.6 617.4L872 624.6C872.2 624.7 872.3 625 872.2 625.2C872.1 625.3 871.9 625.4 871.8 625.4Z" fill="white"/>
<path d="M859.4 625.4C859.3 625.4 859.1 625.3 859 625.2C858.9 625 859 624.7 859.2 624.6L871.6 617.4C871.8 617.3 872.1 617.4 872.2 617.6C872.3 617.8 872.2 618.1 872 618.2L859.6 625.3C859.5 625.4 859.4 625.4 859.4 625.4Z" fill="white"/>
<path d="M865.599 628.9C865.399 628.9 865.199 628.7 865.199 628.5V614.2C865.199 614 865.399 613.8 865.599 613.8C865.799 613.8 865.999 614 865.999 614.2V628.5C865.999 628.8 865.799 628.9 865.599 628.9Z" fill="white"/>
</g>
<g clip-path="url(#clip6_606_8)">
<path d="M833.869 920.114C832.915 918.881 830.72 918.589 829.225 918.273C827.03 917.981 824.905 917.36 822.711 917.069C822.927 915.223 822.68 913.108 822.564 911.192C822.475 909.969 822.463 907.56 821.64 906.526C821.377 906.127 820.747 905.822 820.346 906.081C819.009 906.658 818.46 908.434 817.718 909.48C816.602 911.48 815.45 913.644 814.334 915.643C812.174 915.187 809.979 914.895 807.785 914.603C806.455 914.322 804.129 913.831 802.924 914.608C799.072 917.233 808.144 922.76 809.666 923.77L809.833 923.805C808.017 925.828 806.63 928.286 805.111 930.544C804.134 931.885 803.322 933.261 804.041 934.789C805.285 937.115 812.781 932.852 815.961 930.945C818.264 934.011 823.665 940.482 825.744 938.858C827.019 937.752 826.668 936.13 826.316 934.508C825.674 931.794 825.199 929.114 824.191 926.494L824.357 926.529C826.061 925.857 836.365 923.908 833.869 920.114ZM823.553 919.654C823.387 919.619 823.221 919.584 823.054 919.548C822.39 919.408 821.988 919.667 821.752 919.961C821.621 919.761 821.524 919.397 821.393 919.197C821.559 919.233 821.559 919.233 821.76 919.103C822.757 919.314 823.955 919.395 824.952 919.605C824.418 919.665 824.086 919.594 823.553 919.654ZM813.383 917.677L813.217 917.642C813.051 917.607 812.885 917.572 812.684 917.702C812.186 917.596 811.853 917.526 811.39 917.256C812.054 917.397 812.719 917.537 813.383 917.677Z" fill="#4782AC"/>
<path d="M831.547 915.497C830.593 914.263 828.398 913.972 826.903 913.656C824.708 913.364 822.583 912.743 820.388 912.452C820.605 910.606 820.357 908.491 820.241 906.575C820.152 905.352 820.141 902.943 819.318 901.909C819.055 901.51 818.591 901.24 818.023 901.464C816.687 902.041 816.138 903.817 815.361 905.028C814.279 906.863 813.128 909.027 812.012 911.026C809.852 910.57 807.657 910.278 805.462 909.986C804.133 909.705 801.807 909.214 800.602 909.991C796.75 912.616 805.822 918.143 807.344 919.153L807.51 919.188C805.694 921.211 804.307 923.669 802.789 925.927C801.811 927.268 801 928.644 801.719 930.172C802.963 932.498 810.459 928.235 813.639 926.328C815.941 929.394 821.343 935.865 823.422 934.241C824.697 933.135 824.345 931.513 823.994 929.891C823.352 927.177 822.877 924.497 821.868 921.877L822.034 921.912C823.738 921.24 834.043 919.291 831.547 915.497ZM821.231 915.037C821.065 915.002 820.898 914.966 820.732 914.931C820.068 914.791 819.666 915.05 819.43 915.344C819.299 915.144 819.202 914.78 819.071 914.58C819.237 914.615 819.237 914.615 819.438 914.486C820.435 914.697 821.632 914.778 822.629 914.988C822.096 915.048 821.764 914.977 821.231 915.037ZM811.061 913.06L810.895 913.025C810.729 912.99 810.563 912.955 810.362 913.084C809.863 912.979 809.531 912.909 809.067 912.639C809.732 912.779 810.397 912.92 811.061 913.06Z" fill="white"/>
</g>
<g clip-path="url(#clip7_606_8)">
<path d="M1039.87 628.114C1038.91 626.881 1036.72 626.589 1035.22 626.273C1033.03 625.981 1030.91 625.36 1028.71 625.069C1028.93 623.223 1028.68 621.108 1028.56 619.192C1028.47 617.969 1028.46 615.56 1027.64 614.526C1027.38 614.127 1026.75 613.822 1026.35 614.081C1025.01 614.658 1024.46 616.434 1023.72 617.48C1022.6 619.48 1021.45 621.644 1020.33 623.643C1018.17 623.187 1015.98 622.895 1013.78 622.603C1012.46 622.322 1010.13 621.831 1008.92 622.608C1005.07 625.233 1014.14 630.76 1015.67 631.77L1015.83 631.805C1014.02 633.828 1012.63 636.286 1011.11 638.544C1010.13 639.885 1009.32 641.261 1010.04 642.789C1011.29 645.115 1018.78 640.852 1021.96 638.945C1024.26 642.011 1029.67 648.482 1031.74 646.858C1033.02 645.752 1032.67 644.13 1032.32 642.508C1031.67 639.794 1031.2 637.114 1030.19 634.494L1030.36 634.529C1032.06 633.857 1042.37 631.908 1039.87 628.114ZM1029.55 627.654C1029.39 627.619 1029.22 627.584 1029.05 627.548C1028.39 627.408 1027.99 627.667 1027.75 627.961C1027.62 627.761 1027.52 627.397 1027.39 627.197C1027.56 627.233 1027.56 627.233 1027.76 627.103C1028.76 627.314 1029.95 627.395 1030.95 627.605C1030.42 627.665 1030.09 627.594 1029.55 627.654ZM1019.38 625.677L1019.22 625.642C1019.05 625.607 1018.88 625.572 1018.68 625.702C1018.19 625.596 1017.85 625.526 1017.39 625.256C1018.05 625.397 1018.72 625.537 1019.38 625.677Z" fill="#4782AC"/>
<path d="M1037.55 623.497C1036.59 622.263 1034.4 621.972 1032.9 621.656C1030.71 621.364 1028.58 620.743 1026.39 620.452C1026.6 618.606 1026.36 616.491 1026.24 614.575C1026.15 613.352 1026.14 610.943 1025.32 609.909C1025.06 609.51 1024.59 609.24 1024.02 609.464C1022.69 610.041 1022.14 611.817 1021.36 613.028C1020.28 614.863 1019.13 617.027 1018.01 619.026C1015.85 618.57 1013.66 618.278 1011.46 617.986C1010.13 617.705 1007.81 617.214 1006.6 617.991C1002.75 620.616 1011.82 626.143 1013.34 627.153L1013.51 627.188C1011.69 629.211 1010.31 631.669 1008.79 633.927C1007.81 635.268 1007 636.644 1007.72 638.172C1008.96 640.498 1016.46 636.235 1019.64 634.328C1021.94 637.394 1027.34 643.865 1029.42 642.241C1030.7 641.135 1030.35 639.513 1029.99 637.891C1029.35 635.177 1028.88 632.497 1027.87 629.877L1028.03 629.912C1029.74 629.24 1040.04 627.291 1037.55 623.497ZM1027.23 623.037C1027.06 623.002 1026.9 622.966 1026.73 622.931C1026.07 622.791 1025.67 623.05 1025.43 623.344C1025.3 623.144 1025.2 622.78 1025.07 622.58C1025.24 622.615 1025.24 622.615 1025.44 622.486C1026.43 622.697 1027.63 622.778 1028.63 622.988C1028.1 623.048 1027.76 622.977 1027.23 623.037ZM1017.06 621.06L1016.89 621.025C1016.73 620.99 1016.56 620.955 1016.36 621.084C1015.86 620.979 1015.53 620.909 1015.07 620.639C1015.73 620.779 1016.4 620.92 1017.06 621.06Z" fill="white"/>
</g>
<defs>
<clipPath id="clip0_606_8">
<rect width="19.1" height="16.8" fill="white" transform="translate(779 775)"/>
</clipPath>
<clipPath id="clip1_606_8">
<rect width="19.1" height="16.8" fill="white" transform="translate(985 483)"/>
</clipPath>
<clipPath id="clip2_606_8">
<rect width="5.8" height="6" fill="white" transform="translate(737 985)"/>
</clipPath>
<clipPath id="clip3_606_8">
<rect width="5.8" height="6" fill="white" transform="translate(943 693)"/>
</clipPath>
<clipPath id="clip4_606_8">
<rect width="19.1" height="16.8" fill="white"/>
</clipPath>
<clipPath id="clip5_606_8">
<rect width="19.1" height="16.8" fill="white" transform="translate(856 613)"/>
</clipPath>
<clipPath id="clip6_606_8">
<rect width="36" height="36" fill="white" transform="translate(802.441 898) rotate(11.9286)"/>
</clipPath>
<clipPath id="clip7_606_8">
<rect width="36" height="36" fill="white" transform="translate(1008.44 606) rotate(11.9286)"/>
</clipPath>
</defs>
</svg>
