<svg width="228" height="585" viewBox="0 0 228 585" fill="none" xmlns="http://www.w3.org/2000/svg">
<g clip-path="url(#clip0_606_7)">
<path d="M129.9 579C126 579 126 585 129.9 585C133.8 585 133.8 579 129.9 579Z" fill="white"/>
</g>
<g clip-path="url(#clip1_606_7)">
<path d="M183.1 385.8C182.9 385.8 182.7 385.7 182.6 385.5L173.6 369.8C173.4 369.6 173.5 369.3 173.8 369.1C174 369 174.3 369.1 174.5 369.3L183.5 385C183.6 385.3 183.6 385.6 183.3 385.7C183.3 385.7 183.2 385.8 183.1 385.8Z" fill="white"/>
<path d="M187.6 377.9H169.5C169.2 377.9 169 377.7 169 377.4C169 377.1 169.2 376.9 169.5 376.9H187.6C187.9 376.9 188.1 377.1 188.1 377.4C188.1 377.7 187.9 377.9 187.6 377.9Z" fill="white"/>
<path d="M173.999 385.7C173.899 385.7 173.799 385.7 173.699 385.6C173.399 385.5 173.399 385.1 173.499 384.9L182.499 369.2C182.599 368.9 182.999 368.9 183.199 369C183.499 369.1 183.499 369.5 183.399 369.7L174.399 385.4C174.399 385.6 174.199 385.7 173.999 385.7Z" fill="white"/>
<path d="M184.8 381.4C184.7 381.4 184.7 381.4 184.6 381.3L172.2 374.2C172 374.1 171.9 373.8 172 373.6C172.1 373.4 172.4 373.3 172.6 373.4L185 380.6C185.2 380.7 185.3 381 185.2 381.2C185.1 381.3 184.9 381.4 184.8 381.4Z" fill="white"/>
<path d="M172.4 381.4C172.3 381.4 172.1 381.3 172 381.2C171.9 381 172 380.7 172.2 380.6L184.6 373.4C184.8 373.3 185.1 373.4 185.2 373.6C185.3 373.8 185.2 374.1 185 374.2L172.6 381.3C172.5 381.4 172.4 381.4 172.4 381.4Z" fill="white"/>
<path d="M178.599 384.9C178.399 384.9 178.199 384.7 178.199 384.5V370.2C178.199 370 178.399 369.8 178.599 369.8C178.799 369.8 178.999 370 178.999 370.2V384.5C178.999 384.8 178.799 384.9 178.599 384.9Z" fill="white"/>
</g>
<g clip-path="url(#clip2_606_7)">
<path d="M223.869 514.114C222.915 512.881 220.72 512.589 219.225 512.273C217.03 511.981 214.905 511.36 212.711 511.069C212.927 509.223 212.68 507.108 212.564 505.192C212.475 503.969 212.463 501.56 211.64 500.526C211.377 500.127 210.747 499.822 210.346 500.081C209.009 500.658 208.46 502.434 207.718 503.48C206.602 505.48 205.45 507.644 204.334 509.643C202.174 509.187 199.979 508.895 197.785 508.603C196.455 508.322 194.129 507.831 192.924 508.608C189.072 511.233 198.144 516.76 199.666 517.77L199.833 517.805C198.017 519.828 196.63 522.286 195.111 524.544C194.134 525.885 193.322 527.261 194.041 528.789C195.285 531.115 202.781 526.852 205.961 524.945C208.264 528.011 213.665 534.482 215.744 532.858C217.019 531.752 216.668 530.13 216.316 528.508C215.674 525.794 215.199 523.114 214.191 520.494L214.357 520.529C216.061 519.857 226.365 517.908 223.869 514.114ZM213.553 513.654C213.387 513.619 213.221 513.584 213.054 513.548C212.39 513.408 211.988 513.667 211.752 513.961C211.621 513.761 211.524 513.397 211.393 513.197C211.559 513.233 211.559 513.233 211.76 513.103C212.757 513.314 213.955 513.395 214.952 513.605C214.418 513.665 214.086 513.594 213.553 513.654ZM203.383 511.677L203.217 511.642C203.051 511.607 202.885 511.572 202.684 511.702C202.186 511.596 201.853 511.526 201.39 511.256C202.054 511.397 202.719 511.537 203.383 511.677Z" fill="#4782AC"/>
<path d="M221.547 509.497C220.593 508.263 218.398 507.972 216.903 507.656C214.708 507.364 212.583 506.743 210.388 506.452C210.605 504.606 210.357 502.491 210.241 500.575C210.152 499.352 210.141 496.943 209.318 495.909C209.055 495.51 208.591 495.24 208.023 495.464C206.687 496.041 206.138 497.817 205.361 499.028C204.279 500.863 203.128 503.027 202.012 505.026C199.852 504.57 197.657 504.278 195.462 503.986C194.133 503.705 191.807 503.214 190.602 503.991C186.75 506.616 195.822 512.143 197.344 513.153L197.51 513.188C195.694 515.211 194.307 517.669 192.789 519.927C191.811 521.268 191 522.644 191.719 524.172C192.963 526.498 200.459 522.235 203.639 520.328C205.941 523.394 211.343 529.865 213.422 528.241C214.697 527.135 214.345 525.513 213.994 523.891C213.352 521.177 212.877 518.497 211.868 515.877L212.034 515.912C213.738 515.24 224.043 513.291 221.547 509.497ZM211.231 509.037C211.065 509.002 210.898 508.966 210.732 508.931C210.068 508.791 209.666 509.05 209.43 509.344C209.299 509.144 209.202 508.78 209.071 508.58C209.237 508.615 209.237 508.615 209.438 508.486C210.435 508.697 211.632 508.778 212.629 508.988C212.096 509.048 211.764 508.977 211.231 509.037ZM201.061 507.06L200.895 507.025C200.729 506.99 200.563 506.955 200.362 507.084C199.863 506.979 199.531 506.909 199.067 506.639C199.732 506.779 200.397 506.92 201.061 507.06Z" fill="white"/>
</g>
<g clip-path="url(#clip3_606_7)">
<path d="M143.1 16.8C142.9 16.8 142.7 16.7 142.6 16.5L133.6 0.800022C133.4 0.600022 133.5 0.300021 133.8 0.100022C134 2.14987e-05 134.3 0.100022 134.5 0.300022L143.5 16C143.6 16.3 143.6 16.6 143.3 16.7C143.3 16.7 143.2 16.8 143.1 16.8Z" fill="white"/>
<path d="M147.6 8.89996H129.5C129.2 8.89996 129 8.69996 129 8.39996C129 8.09996 129.2 7.89996 129.5 7.89996H147.6C147.9 7.89996 148.1 8.09996 148.1 8.39996C148.1 8.69996 147.9 8.89996 147.6 8.89996Z" fill="white"/>
<path d="M133.999 16.7C133.899 16.7 133.799 16.7 133.699 16.6C133.399 16.5 133.399 16.1 133.499 15.9L142.499 0.199993C142.599 -0.100007 142.999 -0.100007 143.199 -6.82846e-06C143.499 0.0999932 143.499 0.499993 143.399 0.699993L134.399 16.4C134.399 16.6 134.199 16.7 133.999 16.7Z" fill="white"/>
<path d="M144.8 12.4C144.7 12.4 144.7 12.4 144.6 12.3L132.2 5.20001C132 5.10001 131.9 4.80001 132 4.60001C132.1 4.40001 132.4 4.30001 132.6 4.40001L145 11.6C145.2 11.7 145.3 12 145.2 12.2C145.1 12.3 144.9 12.4 144.8 12.4Z" fill="white"/>
<path d="M132.4 12.4C132.3 12.4 132.1 12.3 132 12.2C131.9 12 132 11.7 132.2 11.6L144.6 4.40001C144.8 4.30001 145.1 4.40001 145.2 4.60001C145.3 4.80001 145.2 5.10001 145 5.20001L132.6 12.3C132.5 12.4 132.4 12.4 132.4 12.4Z" fill="white"/>
<path d="M138.599 15.9C138.399 15.9 138.199 15.7 138.199 15.5V1.19999C138.199 0.999988 138.399 0.799988 138.599 0.799988C138.799 0.799988 138.999 0.999988 138.999 1.19999V15.5C138.999 15.8 138.799 15.9 138.599 15.9Z" fill="white"/>
</g>
<g clip-path="url(#clip4_606_7)">
<path d="M14.1001 146.8C13.9001 146.8 13.7001 146.7 13.6001 146.5L4.60015 130.8C4.40015 130.6 4.50015 130.3 4.80015 130.1C5.00015 130 5.30015 130.1 5.50015 130.3L14.5001 146C14.6001 146.3 14.6001 146.6 14.3001 146.7C14.3001 146.7 14.2001 146.8 14.1001 146.8Z" fill="white"/>
<path d="M18.6 138.9H0.5C0.2 138.9 0 138.7 0 138.4C0 138.1 0.2 137.9 0.5 137.9H18.6C18.9 137.9 19.1 138.1 19.1 138.4C19.1 138.7 18.9 138.9 18.6 138.9Z" fill="white"/>
<path d="M5.00024 146.7C4.90024 146.7 4.80024 146.7 4.70024 146.6C4.40024 146.5 4.40024 146.1 4.50024 145.9L13.5002 130.2C13.6002 129.9 14.0002 129.9 14.2002 130C14.5002 130.1 14.5002 130.5 14.4002 130.7L5.40024 146.4C5.40024 146.6 5.20024 146.7 5.00024 146.7Z" fill="white"/>
<path d="M15.8002 142.4C15.7002 142.4 15.7002 142.4 15.6002 142.3L3.20017 135.2C3.00017 135.1 2.90017 134.8 3.00017 134.6C3.10017 134.4 3.40017 134.3 3.60017 134.4L16.0002 141.6C16.2002 141.7 16.3002 142 16.2002 142.2C16.1002 142.3 15.9002 142.4 15.8002 142.4Z" fill="white"/>
<path d="M3.40017 142.4C3.30017 142.4 3.10017 142.3 3.00017 142.2C2.90017 142 3.00017 141.7 3.20017 141.6L15.6002 134.4C15.8002 134.3 16.1002 134.4 16.2002 134.6C16.3002 134.8 16.2002 135.1 16.0002 135.2L3.60017 142.3C3.50017 142.4 3.40017 142.4 3.40017 142.4Z" fill="white"/>
<path d="M9.6002 145.9C9.4002 145.9 9.2002 145.7 9.2002 145.5V131.2C9.2002 131 9.4002 130.8 9.6002 130.8C9.8002 130.8 10.0002 131 10.0002 131.2V145.5C10.0002 145.8 9.8002 145.9 9.6002 145.9Z" fill="white"/>
</g>
<g clip-path="url(#clip5_606_7)">
<path d="M89.8996 210C85.9996 210 85.9996 216 89.8996 216C93.7996 216 93.7996 210 89.8996 210Z" fill="white"/>
</g>
<g clip-path="url(#clip6_606_7)">
<path d="M54.1001 515.8C53.9001 515.8 53.7001 515.7 53.6001 515.5L44.6001 499.8C44.4001 499.6 44.5001 499.3 44.8001 499.1C45.0001 499 45.3001 499.1 45.5001 499.3L54.5001 515C54.6001 515.3 54.6001 515.6 54.3001 515.7C54.3001 515.7 54.2001 515.8 54.1001 515.8Z" fill="white"/>
<path d="M58.6 507.9H40.5C40.2 507.9 40 507.7 40 507.4C40 507.1 40.2 506.9 40.5 506.9H58.6C58.9 506.9 59.1 507.1 59.1 507.4C59.1 507.7 58.9 507.9 58.6 507.9Z" fill="white"/>
<path d="M45.0002 515.7C44.9002 515.7 44.8002 515.7 44.7002 515.6C44.4002 515.5 44.4002 515.1 44.5002 514.9L53.5002 499.2C53.6002 498.9 54.0002 498.9 54.2002 499C54.5002 499.1 54.5002 499.5 54.4002 499.7L45.4002 515.4C45.4002 515.6 45.2002 515.7 45.0002 515.7Z" fill="white"/>
<path d="M55.8002 511.4C55.7002 511.4 55.7002 511.4 55.6002 511.3L43.2002 504.2C43.0002 504.1 42.9002 503.8 43.0002 503.6C43.1002 503.4 43.4002 503.3 43.6002 503.4L56.0002 510.6C56.2002 510.7 56.3002 511 56.2002 511.2C56.1002 511.3 55.9002 511.4 55.8002 511.4Z" fill="white"/>
<path d="M43.4002 511.4C43.3002 511.4 43.1002 511.3 43.0002 511.2C42.9002 511 43.0002 510.7 43.2002 510.6L55.6002 503.4C55.8002 503.3 56.1002 503.4 56.2002 503.6C56.3002 503.8 56.2002 504.1 56.0002 504.2L43.6002 511.3C43.5002 511.4 43.4002 511.4 43.4002 511.4Z" fill="white"/>
<path d="M49.6002 514.9C49.4002 514.9 49.2002 514.7 49.2002 514.5V500.2C49.2002 500 49.4002 499.8 49.6002 499.8C49.8002 499.8 50.0002 500 50.0002 500.2V514.5C50.0002 514.8 49.8002 514.9 49.6002 514.9Z" fill="white"/>
</g>
<g clip-path="url(#clip7_606_7)">
<path d="M183.869 145.114C182.915 143.881 180.72 143.589 179.225 143.273C177.03 142.981 174.905 142.36 172.711 142.069C172.927 140.223 172.68 138.108 172.564 136.192C172.475 134.969 172.463 132.56 171.64 131.526C171.377 131.127 170.747 130.822 170.346 131.081C169.009 131.658 168.46 133.434 167.718 134.48C166.602 136.48 165.45 138.644 164.334 140.643C162.174 140.187 159.979 139.895 157.785 139.603C156.455 139.322 154.129 138.831 152.924 139.608C149.072 142.233 158.144 147.76 159.666 148.77L159.833 148.805C158.017 150.828 156.63 153.286 155.111 155.544C154.134 156.885 153.322 158.261 154.041 159.789C155.285 162.115 162.781 157.852 165.961 155.945C168.264 159.011 173.665 165.482 175.744 163.858C177.019 162.752 176.668 161.13 176.316 159.508C175.674 156.794 175.199 154.114 174.191 151.494L174.357 151.529C176.061 150.857 186.365 148.908 183.869 145.114ZM173.553 144.654C173.387 144.619 173.221 144.584 173.054 144.548C172.39 144.408 171.988 144.667 171.752 144.961C171.621 144.761 171.524 144.397 171.393 144.197C171.559 144.233 171.559 144.233 171.76 144.103C172.757 144.314 173.955 144.395 174.952 144.605C174.418 144.665 174.086 144.594 173.553 144.654ZM163.383 142.677L163.217 142.642C163.051 142.607 162.885 142.572 162.684 142.702C162.186 142.596 161.853 142.526 161.39 142.256C162.054 142.397 162.719 142.537 163.383 142.677Z" fill="#4782AC"/>
<path d="M181.547 140.497C180.593 139.263 178.398 138.972 176.903 138.656C174.708 138.364 172.583 137.743 170.388 137.452C170.605 135.606 170.357 133.491 170.241 131.575C170.152 130.352 170.141 127.943 169.318 126.909C169.055 126.51 168.591 126.24 168.023 126.464C166.687 127.041 166.138 128.817 165.361 130.028C164.279 131.863 163.128 134.027 162.012 136.026C159.852 135.57 157.657 135.278 155.462 134.986C154.133 134.705 151.807 134.214 150.602 134.991C146.75 137.616 155.822 143.143 157.344 144.153L157.51 144.188C155.694 146.211 154.307 148.669 152.789 150.927C151.811 152.268 151 153.644 151.719 155.172C152.963 157.498 160.459 153.235 163.639 151.328C165.941 154.394 171.343 160.865 173.422 159.241C174.697 158.135 174.345 156.513 173.994 154.891C173.352 152.177 172.877 149.497 171.868 146.877L172.034 146.912C173.738 146.24 184.043 144.291 181.547 140.497ZM171.231 140.037C171.065 140.002 170.898 139.966 170.732 139.931C170.068 139.791 169.666 140.05 169.43 140.344C169.299 140.144 169.202 139.78 169.071 139.58C169.237 139.615 169.237 139.615 169.438 139.486C170.435 139.697 171.632 139.778 172.629 139.988C172.096 140.048 171.764 139.977 171.231 140.037ZM161.061 138.06L160.895 138.025C160.729 137.99 160.563 137.955 160.362 138.084C159.863 137.979 159.531 137.909 159.067 137.639C159.732 137.779 160.397 137.92 161.061 138.06Z" fill="white"/>
</g>
<g clip-path="url(#clip8_606_7)">
<path d="M53.3002 328.7C54.1002 329.8 54.9002 331 55.6002 332.3C55.8002 332.7 56.1002 333.1 56.3002 333.5C56.7002 334.2 57.2002 335 57.6002 335.8C58.3002 337 59.0002 338.2 59.7002 339.5C60.3002 340.6 61.0002 341.8 61.7002 343.1C62.4002 344.3 63.1002 345.6 63.8002 346.8C64.5002 348 65.1002 349.2 65.8002 350.4C66.5002 351.7 67.2002 353 67.9002 354.2C68.6002 355.5 69.3002 356.7 69.9002 357.8C70.7002 359.3 71.4002 360.6 72.0002 361.6C72.7002 362.8 73.0002 363.5 73.1002 363.6C74.1002 365.4 73.5002 367.6 71.9002 368.8C71.8002 368.9 71.7002 368.9 71.5002 369C69.6002 370.1 67.1002 369.3 66.1002 367.4C66.1002 367.4 66.0002 367.3 65.9002 367C65.6002 366.4 64.8002 365.1 63.8002 363.2C63.2002 362.1 62.6002 360.9 61.8002 359.6C61.2002 358.4 60.5002 357.2 59.7002 355.8C59.1002 354.6 58.4002 353.4 57.7002 352.2C57.0002 351 56.3002 349.7 55.6002 348.4C54.9002 347.2 54.3002 346 53.6002 344.9C52.9002 343.6 52.2002 342.3 51.5002 341.2C50.8002 339.9 50.1002 338.7 49.5002 337.7C49.5002 337.6 49.4002 337.5 49.4002 337.5C48.8002 336.4 48.1002 335.3 47.3002 334.1C46.9002 333.6 46.6002 333 46.2002 332.5C45.1002 331.1 44.0002 330 42.9002 329.4C42.6002 329.3 42.4002 329.1 42.1002 329.1C42.0002 329 41.9002 329 41.8002 329C41.2002 328.9 39.9002 329 37.8002 330.2C37.6002 330.3 37.5002 330.4 37.3002 330.4C37.2002 330.5 37.1002 330.6 37.0002 330.7C36.5002 331.1 36.2002 331.6 36.1002 332.2C35.9002 333.3 36.1002 334.7 36.5002 336.2C36.6002 336.5 36.7002 336.8 36.8002 337.1C37.4002 338.7 38.2002 340.3 38.9002 341.5C39.1002 341.9 39.3002 342.2 39.5002 342.5C40.2002 343.6 40.4002 344.9 39.9002 346.1C39.6002 346.8 39.1002 347.5 38.4002 348C36.6002 349.2 34.1002 348.8 32.9002 346.9C32.8002 346.7 32.4002 346.1 31.9002 345.3C31.2002 344.2 30.4002 342.5 29.7002 340.6C29.2002 339.3 28.7002 337.8 28.5002 336.3C28.1002 334.4 28.1002 332.5 28.5002 330.6C28.7002 329.9 28.9002 329.2 29.2002 328.5C29.5002 327.1 30.3002 326 31.4002 325C31.9002 324.5 32.5002 324.1 33.2002 323.7C34.1002 323.2 35.0002 322.7 35.8002 322.3C37.2002 321.7 38.5002 321.3 39.8002 321.1C41.3002 320.9 42.7002 321 44.1002 321.3C44.7002 321.5 45.3002 321.7 45.9002 321.9C47.2002 322.5 48.4002 323.3 49.5002 324.3C50.9002 325.6 52.1002 327.1 53.3002 328.7Z" fill="white"/>
<path d="M36.6998 337.1C37.2998 338.7 38.0998 340.3 38.7998 341.5L29.4998 340.6C28.9998 339.3 28.4998 337.8 28.2998 336.3L36.6998 337.1Z" fill="#DE6C92"/>
<path d="M39.7998 346C39.4998 346.7 38.9998 347.4 38.2998 347.9C36.4998 349.1 33.9998 348.7 32.7998 346.8C32.6998 346.6 32.2998 346 31.7998 345.2L39.7998 346Z" fill="#DE6C92"/>
<path d="M36.9994 330.7C36.4994 331.1 36.1994 331.6 36.0994 332.2C35.8994 333.3 36.0994 334.7 36.4994 336.2L28.8994 328.5C29.4994 327.1 30.2994 326 31.3994 325L36.9994 330.7Z" fill="#DE6C92"/>
<path d="M39.7998 321.1L41.7998 329C41.1998 328.9 39.8998 329 37.7998 330.2L35.7998 322.3C37.0998 321.7 38.4998 321.3 39.7998 321.1Z" fill="#DE6C92"/>
<path d="M49.4994 324.3L46.1994 332.4C45.0994 331.1 43.9994 330 42.8994 329.4L45.8994 322C47.1994 322.6 48.3994 323.4 49.4994 324.3Z" fill="#DE6C92"/>
<path d="M53.2998 328.7C54.0998 329.8 54.8998 331 55.5998 332.3L49.4998 337.7C49.4998 337.6 49.3998 337.5 49.3998 337.5C48.7998 336.4 48.0998 335.3 47.2998 334.1L53.2998 328.7Z" fill="#DE6C92"/>
<path d="M57.6 335.8C58.3 337 59 338.2 59.7 339.5L53.6 344.9C52.9 343.6 52.2 342.3 51.5 341.2L57.6 335.8Z" fill="#DE6C92"/>
<path d="M61.6996 343.1C62.3996 344.3 63.0996 345.6 63.7996 346.8L57.6996 352.2C56.9996 351 56.2996 349.7 55.5996 348.4L61.6996 343.1Z" fill="#DE6C92"/>
<path d="M65.6996 350.4C66.3996 351.7 67.0996 353 67.7996 354.2L61.6996 359.6C61.0996 358.4 60.3996 357.2 59.5996 355.8L65.6996 350.4Z" fill="#DE6C92"/>
<path d="M69.8002 357.7C70.6002 359.2 71.3002 360.5 71.9002 361.5L65.8002 366.9C65.5002 366.3 64.7002 365 63.7002 363.1L69.8002 357.7Z" fill="#DE6C92"/>
</g>
<defs>
<clipPath id="clip0_606_7">
<rect width="5.8" height="6" fill="white" transform="translate(127 579)"/>
</clipPath>
<clipPath id="clip1_606_7">
<rect width="19.1" height="16.8" fill="white" transform="translate(169 369)"/>
</clipPath>
<clipPath id="clip2_606_7">
<rect width="36" height="36" fill="white" transform="translate(192.441 492) rotate(11.9286)"/>
</clipPath>
<clipPath id="clip3_606_7">
<rect width="19.1" height="16.8" fill="white" transform="translate(129)"/>
</clipPath>
<clipPath id="clip4_606_7">
<rect width="19.1" height="16.8" fill="white" transform="translate(0 130)"/>
</clipPath>
<clipPath id="clip5_606_7">
<rect width="5.8" height="6" fill="white" transform="translate(87 210)"/>
</clipPath>
<clipPath id="clip6_606_7">
<rect width="19.1" height="16.8" fill="white" transform="translate(40 499)"/>
</clipPath>
<clipPath id="clip7_606_7">
<rect width="36" height="36" fill="white" transform="translate(152.441 123) rotate(11.9286)"/>
</clipPath>
<clipPath id="clip8_606_7">
<rect width="45.4" height="48.4" fill="white" transform="translate(28 321)"/>
</clipPath>
</defs>
</svg>
