<svg width="266" height="435" viewBox="0 0 266 435" fill="none" xmlns="http://www.w3.org/2000/svg">
<g clip-path="url(#clip0_601_3)">
<path d="M67.3213 414.14C66.1326 413.131 63.9251 413.299 62.3968 413.299C60.1892 413.467 57.9817 413.299 55.7741 413.467C55.6043 411.617 54.9251 409.598 54.4157 407.748C54.076 406.57 53.5666 404.215 52.5477 403.374C52.2081 403.037 51.5289 402.869 51.1892 403.206C50.0006 404.047 49.8307 405.897 49.3213 407.075C48.6421 409.262 47.9628 411.617 47.2836 413.804C45.076 413.804 42.8685 413.972 40.6609 414.14C39.3024 414.14 36.9251 414.14 35.9062 415.15C32.6798 418.514 42.6987 422.047 44.3968 422.72H44.5666C43.2081 425.075 42.359 427.766 41.3402 430.29C40.6609 431.804 40.1515 433.318 41.1704 434.664C42.8685 436.682 49.3213 430.963 52.0383 428.439C54.9251 430.963 61.5477 436.178 63.2458 434.159C64.2647 432.813 63.5855 431.299 62.9062 429.785C61.7175 427.262 60.6987 424.738 59.1704 422.383H59.3402C60.8685 421.374 70.5477 417.336 67.3213 414.14ZM57.1326 415.822C56.9628 415.822 56.793 415.822 56.6232 415.822C55.944 415.822 55.6043 416.159 55.4345 416.495C55.2647 416.327 55.0949 415.991 54.9251 415.822C55.0949 415.822 55.0949 415.822 55.2647 415.654C56.2836 415.654 57.4723 415.486 58.4911 415.486C57.9817 415.654 57.6421 415.654 57.1326 415.822ZM46.7741 415.991H46.6043C46.4345 415.991 46.2647 415.991 46.0949 416.159C45.5855 416.159 45.2458 416.159 44.7364 415.991C45.4157 415.991 46.0949 415.991 46.7741 415.991Z" fill="#4782AC"/>
<path d="M64.0947 410.103C62.9061 409.093 60.6985 409.262 59.1702 409.262C56.9627 409.43 54.7551 409.262 52.5476 409.43C52.3778 407.579 51.6985 405.561 51.1891 403.71C50.8495 402.533 50.34 400.178 49.3212 399.336C48.9815 399 48.4721 398.832 47.9627 399.168C46.774 400.009 46.6042 401.86 46.0947 403.206C45.4155 405.224 44.7363 407.579 44.057 409.766C41.8495 409.766 39.6419 409.935 37.4344 410.103C36.0759 410.103 33.6985 410.103 32.6797 411.112C29.4532 414.477 39.4721 418.009 41.1702 418.682H41.34C39.9815 421.037 39.1325 423.729 38.1136 426.252C37.4344 427.766 36.9249 429.28 37.9438 430.626C39.6419 432.645 46.0947 426.925 48.8117 424.402C51.6985 426.925 58.3212 432.14 60.0193 430.121C61.0381 428.776 60.3589 427.262 59.6796 425.748C58.491 423.224 57.4721 420.701 55.9438 418.346H56.1136C57.6419 417.336 67.3212 413.299 64.0947 410.103ZM53.9061 411.785C53.7363 411.785 53.5664 411.785 53.3966 411.785C52.7174 411.785 52.3778 412.121 52.208 412.458C52.0381 412.29 51.8683 411.953 51.6985 411.785C51.8683 411.785 51.8683 411.785 52.0381 411.617C53.057 411.617 54.2457 411.449 55.2646 411.449C54.7551 411.617 54.4155 411.617 53.9061 411.785ZM43.5476 411.953H43.3778C43.208 411.953 43.0381 411.953 42.8683 412.121C42.3589 412.121 42.0193 412.121 41.5098 411.953C42.1891 411.953 42.8683 411.953 43.5476 411.953Z" fill="white"/>
</g>
<g clip-path="url(#clip1_601_3)">
<path d="M261.869 176.114C260.915 174.881 258.72 174.589 257.225 174.273C255.03 173.981 252.905 173.36 250.711 173.069C250.927 171.223 250.68 169.108 250.564 167.192C250.475 165.969 250.463 163.56 249.64 162.526C249.377 162.127 248.747 161.822 248.346 162.081C247.009 162.658 246.46 164.434 245.718 165.48C244.602 167.48 243.45 169.644 242.334 171.643C240.174 171.187 237.979 170.895 235.785 170.603C234.455 170.322 232.129 169.831 230.924 170.608C227.072 173.233 236.144 178.76 237.666 179.77L237.833 179.805C236.017 181.828 234.63 184.286 233.111 186.544C232.134 187.885 231.322 189.261 232.041 190.789C233.285 193.115 240.781 188.852 243.961 186.945C246.264 190.011 251.665 196.482 253.744 194.858C255.019 193.752 254.668 192.13 254.316 190.508C253.674 187.794 253.199 185.114 252.191 182.494L252.357 182.529C254.061 181.857 264.365 179.908 261.869 176.114ZM251.553 175.654C251.387 175.619 251.221 175.584 251.054 175.548C250.39 175.408 249.988 175.667 249.752 175.961C249.621 175.761 249.524 175.397 249.393 175.197C249.559 175.233 249.559 175.233 249.76 175.103C250.757 175.314 251.955 175.395 252.952 175.605C252.418 175.665 252.086 175.594 251.553 175.654ZM241.383 173.677L241.217 173.642C241.051 173.607 240.885 173.572 240.684 173.702C240.186 173.596 239.853 173.526 239.39 173.256C240.054 173.397 240.719 173.537 241.383 173.677Z" fill="#4782AC"/>
<path d="M259.547 171.497C258.593 170.263 256.398 169.972 254.903 169.656C252.708 169.364 250.583 168.743 248.388 168.452C248.605 166.606 248.357 164.491 248.241 162.575C248.152 161.352 248.141 158.943 247.318 157.909C247.055 157.51 246.591 157.24 246.023 157.464C244.687 158.041 244.138 159.817 243.361 161.028C242.279 162.863 241.128 165.027 240.012 167.026C237.852 166.57 235.657 166.278 233.462 165.986C232.133 165.705 229.807 165.214 228.602 165.991C224.75 168.616 233.822 174.143 235.344 175.153L235.51 175.188C233.694 177.211 232.307 179.669 230.789 181.927C229.811 183.268 229 184.644 229.719 186.172C230.963 188.498 238.459 184.235 241.639 182.328C243.941 185.394 249.343 191.865 251.422 190.241C252.697 189.135 252.345 187.513 251.994 185.891C251.352 183.177 250.877 180.497 249.868 177.877L250.034 177.912C251.738 177.24 262.043 175.291 259.547 171.497ZM249.231 171.037C249.065 171.002 248.898 170.966 248.732 170.931C248.068 170.791 247.666 171.05 247.43 171.344C247.299 171.144 247.202 170.78 247.071 170.58C247.237 170.616 247.237 170.616 247.438 170.486C248.435 170.697 249.632 170.778 250.629 170.988C250.096 171.048 249.764 170.977 249.231 171.037ZM239.061 169.06L238.895 169.025C238.729 168.99 238.563 168.955 238.362 169.084C237.863 168.979 237.531 168.909 237.067 168.639C237.732 168.779 238.397 168.92 239.061 169.06Z" fill="white"/>
</g>
<g clip-path="url(#clip2_601_3)">
<path d="M98.6233 202.596C98.166 202.005 97.1145 201.865 96.398 201.714C95.3465 201.574 94.3283 201.276 93.2767 201.137C93.3804 200.252 93.2619 199.239 93.2063 198.321C93.1637 197.735 93.1581 196.581 92.7638 196.085C92.6379 195.894 92.3362 195.748 92.1436 195.872C91.5031 196.148 91.2402 196.999 90.8848 197.501C90.3498 198.459 89.7981 199.495 89.2631 200.453C88.2282 200.235 87.1767 200.095 86.1251 199.955C85.4883 199.821 84.3738 199.585 83.7962 199.958C81.9505 201.215 86.2974 203.864 87.0268 204.347L87.1064 204.364C86.2363 205.334 85.5718 206.511 84.8442 207.593C84.3759 208.236 83.9871 208.895 84.3315 209.627C84.9276 210.741 88.5191 208.699 90.0427 207.785C91.1461 209.254 93.7342 212.355 94.7302 211.577C95.3411 211.047 95.1727 210.27 95.0042 209.492C94.6968 208.192 94.4691 206.908 93.9859 205.653L94.0655 205.669C94.8819 205.348 99.8193 204.413 98.6233 202.596ZM93.6803 202.375C93.6007 202.358 93.5211 202.342 93.4415 202.325C93.1231 202.257 92.9306 202.382 92.8176 202.522C92.7547 202.427 92.7084 202.252 92.6455 202.157C92.7251 202.173 92.7251 202.173 92.8213 202.111C93.299 202.212 93.8729 202.251 94.3505 202.352C94.095 202.38 93.9358 202.347 93.6803 202.375ZM88.8077 201.428L88.7281 201.411C88.6485 201.395 88.5689 201.378 88.4726 201.44C88.2338 201.389 88.0746 201.356 87.8524 201.226C88.1709 201.294 88.4893 201.361 88.8077 201.428Z" fill="#4782AC"/>
<path d="M97.511 200.383C97.0537 199.792 96.0022 199.653 95.2857 199.501C94.2342 199.362 93.216 199.064 92.1644 198.924C92.2681 198.04 92.1496 197.026 92.094 196.108C92.0514 195.523 92.0458 194.368 91.6515 193.873C91.5256 193.682 91.3035 193.552 91.0313 193.66C90.3908 193.936 90.1279 194.787 89.7558 195.367C89.2375 196.246 88.6858 197.283 88.1508 198.241C87.1159 198.023 86.0644 197.883 85.0128 197.743C84.376 197.609 83.2615 197.373 82.6839 197.745C80.8382 199.003 85.1851 201.651 85.9145 202.135L85.9941 202.152C85.124 203.121 84.4594 204.299 83.7319 205.381C83.2635 206.024 82.8748 206.683 83.2191 207.415C83.8153 208.529 87.4068 206.487 88.9304 205.573C90.0338 207.042 92.6219 210.142 93.6179 209.364C94.2288 208.834 94.0604 208.057 93.8919 207.28C93.5845 205.98 93.3568 204.696 92.8736 203.44L92.9532 203.457C93.7696 203.135 98.707 202.201 97.511 200.383ZM92.568 200.163C92.4884 200.146 92.4088 200.129 92.3292 200.112C92.0108 200.045 91.8183 200.169 91.7053 200.31C91.6424 200.215 91.5961 200.04 91.5332 199.944C91.6128 199.961 91.6128 199.961 91.709 199.899C92.1867 200 92.7606 200.039 93.2382 200.14C92.9827 200.168 92.8235 200.135 92.568 200.163ZM87.6954 199.216L87.6158 199.199C87.5362 199.182 87.4566 199.165 87.3603 199.228C87.1215 199.177 86.9623 199.143 86.7401 199.014C87.0586 199.081 87.377 199.149 87.6954 199.216Z" fill="white"/>
</g>
<g clip-path="url(#clip3_601_3)">
<path d="M25.3002 7.69999C26.1002 8.79999 26.9002 9.99999 27.6002 11.3C27.8002 11.7 28.1002 12.1 28.3002 12.5C28.7002 13.2 29.2002 14 29.6002 14.8C30.3002 16 31.0002 17.2 31.7002 18.5C32.3002 19.6 33.0002 20.8 33.7002 22.1C34.4002 23.3 35.1002 24.6 35.8002 25.8C36.5002 27 37.1002 28.2 37.8002 29.4C38.5002 30.7 39.2002 32 39.9002 33.2C40.6002 34.5 41.3002 35.7 41.9002 36.8C42.7002 38.3 43.4002 39.6 44.0002 40.6C44.7002 41.8 45.0002 42.5 45.1002 42.6C46.1002 44.4 45.5002 46.6 43.9002 47.8C43.8002 47.9 43.7002 47.9 43.5002 48C41.6002 49.1 39.1002 48.3 38.1002 46.4C38.1002 46.4 38.0002 46.3 37.9002 46C37.6002 45.4 36.8002 44.1 35.8002 42.2C35.2002 41.1 34.6002 39.9 33.8002 38.6C33.2002 37.4 32.5002 36.2 31.7002 34.8C31.1002 33.6 30.4002 32.4 29.7002 31.2C29.0002 30 28.3002 28.7 27.6002 27.4C26.9002 26.2 26.3002 25 25.6002 23.9C24.9002 22.6 24.2002 21.3 23.5002 20.2C22.8002 18.9 22.1002 17.7 21.5002 16.7C21.5002 16.6 21.4002 16.5 21.4002 16.5C20.8002 15.4 20.1002 14.3 19.3002 13.1C18.9002 12.6 18.6002 12 18.2002 11.5C17.1002 10.1 16.0002 8.99999 14.9002 8.39999C14.6002 8.29999 14.4002 8.09999 14.1002 8.09999C14.0002 7.99999 13.9002 7.99999 13.8002 7.99999C13.2002 7.89999 11.9002 7.99999 9.8002 9.19999C9.6002 9.29999 9.5002 9.39999 9.3002 9.39999C9.2002 9.49999 9.1002 9.59999 9.0002 9.69999C8.5002 10.1 8.2002 10.6 8.1002 11.2C7.9002 12.3 8.1002 13.7 8.5002 15.2C8.6002 15.5 8.7002 15.8 8.8002 16.1C9.4002 17.7 10.2002 19.3 10.9002 20.5C11.1002 20.9 11.3002 21.2 11.5002 21.5C12.2002 22.6 12.4002 23.9 11.9002 25.1C11.6002 25.8 11.1002 26.5 10.4002 27C8.60019 28.2 6.1002 27.8 4.9002 25.9C4.8002 25.7 4.4002 25.1 3.9002 24.3C3.2002 23.2 2.4002 21.5 1.7002 19.6C1.2002 18.3 0.700195 16.8 0.500195 15.3C0.100195 13.4 0.100195 11.5 0.500195 9.59999C0.700195 8.89999 0.900195 8.19999 1.2002 7.49999C1.5002 6.09999 2.3002 4.99999 3.4002 3.99999C3.9002 3.49999 4.5002 3.09999 5.2002 2.69999C6.1002 2.19999 7.0002 1.69999 7.8002 1.29999C9.2002 0.699993 10.5002 0.299993 11.8002 0.099993C13.3002 -0.100007 14.7002 -7.00355e-06 16.1002 0.299993C16.7002 0.499993 17.3002 0.699993 17.9002 0.899993C19.2002 1.49999 20.4002 2.29999 21.5002 3.29999C22.9002 4.59999 24.1002 6.09999 25.3002 7.69999Z" fill="white"/>
<path d="M8.6998 16.1C9.2998 17.7 10.0998 19.3 10.7998 20.5L1.4998 19.6C0.999805 18.3 0.499805 16.8 0.299805 15.3L8.6998 16.1Z" fill="#DE6C92"/>
<path d="M11.7998 25C11.4998 25.7 10.9998 26.4 10.2998 26.9C8.4998 28.1 5.9998 27.7 4.7998 25.8C4.6998 25.6 4.2998 25 3.7998 24.2L11.7998 25Z" fill="#DE6C92"/>
<path d="M8.99941 9.69998C8.49941 10.1 8.19941 10.6 8.09941 11.2C7.89941 12.3 8.09941 13.7 8.49941 15.2L0.899414 7.49998C1.49941 6.09998 2.29941 4.99998 3.39941 3.99998L8.99941 9.69998Z" fill="#DE6C92"/>
<path d="M11.7998 0.0999908L13.7998 7.99999C13.1998 7.89999 11.8998 7.99999 9.7998 9.19999L7.7998 1.29999C9.0998 0.699991 10.4998 0.299991 11.7998 0.0999908Z" fill="#DE6C92"/>
<path d="M21.4994 3.29998L18.1994 11.4C17.0994 10.1 15.9994 8.99998 14.8994 8.39998L17.8994 0.999985C19.1994 1.59998 20.3994 2.39998 21.4994 3.29998Z" fill="#DE6C92"/>
<path d="M25.2998 7.7C26.0998 8.8 26.8998 10 27.5998 11.3L21.4998 16.7C21.4998 16.6 21.3998 16.5 21.3998 16.5C20.7998 15.4 20.0998 14.3 19.2998 13.1L25.2998 7.7Z" fill="#DE6C92"/>
<path d="M29.6 14.8C30.3 16 31 17.2 31.7 18.5L25.6 23.9C24.9 22.6 24.2 21.3 23.5 20.2L29.6 14.8Z" fill="#DE6C92"/>
<path d="M33.6996 22.1C34.3996 23.3 35.0996 24.6 35.7996 25.8L29.6996 31.2C28.9996 30 28.2996 28.7 27.5996 27.4L33.6996 22.1Z" fill="#DE6C92"/>
<path d="M37.6996 29.4C38.3996 30.7 39.0996 32 39.7996 33.2L33.6996 38.6C33.0996 37.4 32.3996 36.2 31.5996 34.8L37.6996 29.4Z" fill="#DE6C92"/>
<path d="M41.8002 36.7C42.6002 38.2 43.3002 39.5 43.9002 40.5L37.8002 45.9C37.5002 45.3 36.7002 44 35.7002 42.1L41.8002 36.7Z" fill="#DE6C92"/>
</g>
<defs>
<clipPath id="clip0_601_3">
<rect width="36" height="36" fill="white" transform="translate(32 399)"/>
</clipPath>
<clipPath id="clip1_601_3">
<rect width="36" height="36" fill="white" transform="translate(230.44 154) rotate(11.9286)"/>
</clipPath>
<clipPath id="clip2_601_3">
<rect width="17.249" height="17.249" fill="white" transform="translate(83.5654 192) rotate(11.9286)"/>
</clipPath>
<clipPath id="clip3_601_3">
<rect width="45.4" height="48.4" fill="white"/>
</clipPath>
</defs>
</svg>
