<svg width="617" height="565" viewBox="0 0 617 565" fill="none" xmlns="http://www.w3.org/2000/svg">
<path d="M613.963 334.077C608.919 324.726 598.467 317.127 589.256 313.037C570.381 304.67 548.373 305.069 528.463 307.909C492.811 312.998 464.371 338.147 430.093 347.414C418.66 326.251 440.437 316.32 455.79 310.532C476.448 302.746 500.688 302.849 515.44 283C524.488 270.829 519.986 253.171 508.377 245.301C493.895 235.487 473.03 238.165 458.347 246.054C451.367 249.809 445.047 255.248 438.186 258.703C439.87 257.856 445.727 236.319 449.894 232.229C456.273 225.969 464.848 221.928 473.188 219.433C488.827 214.782 506.19 214.723 522.301 213.527C541.162 212.115 562.411 211.8 579.538 202.611C595.861 193.86 616.155 166.619 593.778 150.245C582.626 142.08 567.849 141.509 554.742 142.415C529.926 144.133 505.106 152.932 483.034 164.469C473.089 169.671 462.898 175.719 453.45 182.826C454.711 180.582 456.005 178.361 457.332 176.162C457.583 175.759 458.164 174.804 458.317 174.543C458.864 173.677 459.41 172.821 459.967 171.954C461.253 169.951 462.578 167.973 463.908 165.994C485.935 133.33 573.75 49.2737 521.444 5.88492C509.953 -3.64821 493.289 -0.60666 482.231 7.93723C472.232 15.674 465.735 27.6974 460.775 39.3862C455.357 52.1824 451.51 65.7365 447.889 79.197C439.742 109.47 430.97 139.56 424.551 170.32C424.359 171.221 424.187 172.122 424.005 173.027C421.828 169.297 419.562 165.619 417.207 161.993C405.228 143.537 391.17 125.416 373.127 113.195C365.586 108.087 356.572 104.676 347.514 105.478C336.086 106.492 327.383 114.485 321.9 124.515C315.004 137.169 319.654 151.584 329.535 160.738C337.53 168.15 348.11 172.481 358.055 176.054C378.802 183.505 401.972 190.209 412.006 213.197C419.005 229.227 417.764 254.726 407.573 269.008C375.063 236.324 332.87 189.352 283.643 192.975C266.432 194.244 247.094 204.855 250.365 225.826C253.926 248.633 280.801 262.994 298.375 271.942C317.531 281.691 338.273 287.139 358.03 295.27C366.246 298.651 374.901 302.126 382.269 307.269C384.023 308.494 400.002 327.728 395.751 327.364C389.298 326.817 382.55 322.442 375.487 321.507C354.252 318.736 331.481 334.121 345.992 358.129C345.918 357.961 345.839 357.794 345.75 357.636C355.06 374.37 372.63 372.746 387.353 380.182C409.641 391.448 401.667 424.698 402.248 444.783C381.56 425.791 307.581 341.43 286.539 402.581C269.215 452.889 343.677 462.324 372.246 473.899C389.318 480.819 404.864 490.047 410.144 509.547C412.897 519.71 408.533 556.636 419.552 561.681C434.526 568.527 441.333 525.537 443.239 517.155C448.983 491.883 455.667 484.225 479 476.272C503.269 467.993 527.03 446.899 504.121 420.165C477.931 389.573 447.126 416.499 428.788 440.034C430.339 428.375 425.276 416.838 429.984 405.583C442.047 376.703 497.166 385.153 521.159 385.931C552.121 386.915 590.039 387.619 611.412 360.102C618.613 350.869 618.165 341.863 613.963 334.077Z" fill="white"/>
<path d="M586.338 192.914C586.363 190.76 585.514 188.684 583.977 187.143C582.44 185.601 580.341 184.72 578.141 184.692V184.692C577.051 184.679 575.969 184.877 574.957 185.273C573.945 185.67 573.022 186.258 572.242 187.003C571.462 187.749 570.84 188.638 570.411 189.619C569.982 190.6 569.755 191.654 569.743 192.721L569.657 200.296C569.643 201.363 569.844 202.422 570.248 203.414C570.653 204.405 571.253 205.308 572.014 206.072C572.775 206.836 573.683 207.446 574.685 207.866C575.687 208.286 576.763 208.51 577.853 208.522V208.522C580.055 208.547 582.176 207.716 583.751 206.21C585.326 204.705 586.225 202.648 586.252 200.493L586.338 192.914Z" fill="#1E1B1B"/>
<path d="M616.127 235.565C616.081 242.989 613.835 250.233 609.672 256.38C605.509 262.527 599.617 267.301 592.741 270.099C585.864 272.897 578.312 273.593 571.04 272.099C563.768 270.605 557.103 266.988 551.886 261.706C546.67 256.423 543.137 249.713 541.735 242.422C540.333 235.132 541.124 227.59 544.009 220.749C546.893 213.909 551.742 208.077 557.941 203.992C564.14 199.907 571.411 197.752 578.835 197.8C588.787 197.865 598.306 201.88 605.3 208.962C612.293 216.044 616.187 225.613 616.127 235.565Z" fill="#7FB2E0"/>
<path d="M595.871 230.091C595.848 233.862 594.742 237.541 592.693 240.663C590.645 243.785 587.745 246.209 584.362 247.63C580.978 249.051 577.263 249.405 573.685 248.646C570.107 247.887 566.827 246.05 564.26 243.367C561.694 240.684 559.955 237.276 559.265 233.573C558.575 229.87 558.964 226.039 560.383 222.565C561.802 219.09 564.188 216.128 567.238 214.053C570.287 211.978 573.865 210.883 577.518 210.906C582.416 210.94 587.1 212.979 590.542 216.577C593.984 220.174 595.9 225.035 595.871 230.091V230.091Z" fill="#4782AC"/>
<path d="M579.19 197.829L575.734 197.799L575.615 225.184L579.068 225.205L579.19 197.829Z" fill="white"/>
<path d="M585.146 227.034C585.155 225.502 584.708 224.002 583.864 222.723C583.02 221.445 581.815 220.446 580.403 219.852C578.99 219.258 577.434 219.097 575.929 219.388C574.425 219.679 573.041 220.41 571.953 221.488C570.864 222.566 570.119 223.942 569.813 225.443C569.506 226.945 569.652 228.503 570.231 229.921C570.811 231.339 571.798 232.554 573.067 233.411C574.337 234.269 575.833 234.73 577.365 234.737C579.418 234.747 581.391 233.941 582.85 232.496C584.309 231.052 585.135 229.087 585.146 227.034Z" fill="white"/>
<path d="M392.114 155.894C392.13 154.385 391.584 152.931 390.596 151.851C389.607 150.772 388.258 150.155 386.843 150.137V150.137C385.429 150.12 384.066 150.702 383.054 151.757C382.042 152.811 381.463 154.251 381.446 155.76L381.391 161.066C381.376 162.574 381.923 164.027 382.911 165.105C383.9 166.184 385.249 166.8 386.662 166.818V166.818C388.077 166.835 389.44 166.253 390.452 165.198C391.464 164.144 392.042 162.704 392.059 161.195L392.114 155.894Z" fill="#1E1B1B"/>
<path d="M409.987 183.661C409.955 188.373 408.491 192.97 405.781 196.871C403.071 200.771 399.237 203.801 394.762 205.576C390.288 207.351 385.375 207.792 380.644 206.844C375.912 205.895 371.576 203.599 368.181 200.247C364.787 196.894 362.488 192.635 361.575 188.007C360.661 183.38 361.174 178.593 363.049 174.25C364.924 169.907 368.076 166.204 372.108 163.609C376.14 161.014 380.869 159.643 385.699 159.669C388.909 159.687 392.084 160.322 395.042 161.538C398.001 162.753 400.684 164.526 402.94 166.754C405.196 168.982 406.979 171.622 408.188 174.523C409.398 177.424 410.009 180.529 409.987 183.661Z" fill="#DE6C92"/>
<path d="M398.071 180.003C398.056 182.36 397.342 184.659 396.02 186.609C394.698 188.56 392.828 190.075 390.645 190.963C388.462 191.851 386.065 192.072 383.757 191.597C381.449 191.123 379.333 189.975 377.677 188.298C376.022 186.621 374.9 184.491 374.455 182.177C374.01 179.863 374.26 177.469 375.176 175.298C376.091 173.126 377.629 171.275 379.597 169.978C381.564 168.681 383.872 167.996 386.228 168.01C387.793 168.02 389.341 168.337 390.784 168.945C392.226 169.553 393.535 170.439 394.634 171.553C395.734 172.667 396.604 173.986 397.193 175.436C397.783 176.886 398.081 178.438 398.071 180.003V180.003Z" fill="#EBA7BE"/>
<path d="M386.156 159.687L385.004 159.669L384.965 175.15L386.118 175.159L386.156 159.687Z" fill="white"/>
<path d="M390.923 178.764C390.929 177.821 390.655 176.897 390.136 176.11C389.617 175.323 388.876 174.708 388.007 174.342C387.138 173.976 386.18 173.875 385.254 174.054C384.329 174.232 383.477 174.682 382.806 175.344C382.136 176.007 381.677 176.854 381.488 177.778C381.298 178.702 381.387 179.661 381.743 180.534C382.1 181.407 382.707 182.155 383.488 182.683C384.269 183.211 385.189 183.495 386.132 183.5C386.758 183.504 387.378 183.385 387.957 183.149C388.537 182.913 389.064 182.565 389.509 182.125C389.954 181.685 390.308 181.162 390.551 180.585C390.793 180.008 390.92 179.389 390.923 178.764V178.764Z" fill="white"/>
<path d="M496.72 307.695C496.655 306.297 496.042 304.982 495.016 304.038C493.99 303.094 492.635 302.599 491.247 302.661V302.661C489.86 302.726 488.554 303.343 487.618 304.378C486.681 305.412 486.19 306.779 486.253 308.177L486.48 313.097C486.511 313.792 486.677 314.474 486.97 315.104C487.263 315.735 487.676 316.3 488.187 316.769C488.697 317.238 489.294 317.6 489.944 317.835C490.594 318.071 491.283 318.174 491.973 318.14V318.14C493.361 318.076 494.666 317.458 495.603 316.424C496.539 315.39 497.03 314.023 496.967 312.624L496.72 307.695Z" fill="#1E1B1B"/>
<path d="M517.196 333.613C517.448 338.32 516.229 342.993 513.693 347.04C511.157 351.087 507.418 354.328 502.949 356.351C498.479 358.375 493.48 359.091 488.583 358.408C483.687 357.726 479.112 355.676 475.439 352.518C471.765 349.36 469.157 345.236 467.945 340.666C466.733 336.096 466.97 331.287 468.628 326.846C470.286 322.405 473.289 318.532 477.258 315.717C481.226 312.901 485.983 311.269 490.925 311.028C494.207 310.868 497.49 311.325 500.587 312.374C503.683 313.422 506.533 315.041 508.972 317.138C511.412 319.235 513.393 321.77 514.804 324.597C516.215 327.423 517.028 330.487 517.196 333.613V333.613Z" fill="#DE6C92"/>
<path d="M504.105 331.836C504.225 334.189 503.645 336.526 502.438 338.55C501.23 340.574 499.45 342.194 497.322 343.206C495.194 344.218 492.813 344.576 490.481 344.236C488.15 343.895 485.971 342.87 484.222 341.291C482.472 339.712 481.23 337.65 480.652 335.365C480.075 333.081 480.188 330.676 480.977 328.455C481.766 326.235 483.196 324.298 485.085 322.89C486.975 321.482 489.24 320.666 491.593 320.545C494.749 320.384 497.84 321.483 500.186 323.6C502.532 325.718 503.942 328.68 504.105 331.836V331.836Z" fill="#EBA7BE"/>
<path d="M492.633 311.097L489.854 311.24L490.736 328.27L493.514 328.126L492.633 311.097Z" fill="white"/>
<path d="M496.965 330.439C496.916 329.615 496.588 328.823 496.024 328.162C495.46 327.501 494.685 327.002 493.796 326.727C492.908 326.451 491.946 326.413 491.033 326.616C490.119 326.819 489.295 327.254 488.664 327.867C488.033 328.48 487.624 329.243 487.489 330.059C487.353 330.875 487.498 331.708 487.903 332.452C488.309 333.197 488.957 333.819 489.767 334.241C490.577 334.663 491.512 334.866 492.453 334.823C493.078 334.794 493.691 334.658 494.256 334.423C494.822 334.187 495.328 333.856 495.747 333.449C496.166 333.042 496.49 332.566 496.699 332.05C496.908 331.533 496.998 330.986 496.965 330.439V330.439Z" fill="white"/>
<path d="M390.067 496.731C389.223 489.745 385.922 483.106 378.651 480.927C367.729 477.657 356.584 482.112 345.838 483.925C337.598 485.317 322.335 484.255 318.468 493.809C316.147 499.544 317.114 506.165 317.114 512.178C317.095 520.311 317.757 528.459 319.421 536.424C320.586 542.005 321.739 548.232 326.69 551.734C331.523 555.157 337.706 553.838 343.181 553.274C350.987 552.473 358.848 552.591 366.659 553.135C375.544 553.758 383.922 552.739 385.635 542.423C386.742 535.753 387.094 528.98 388.089 522.291C389.13 515.314 390.137 508.316 390.281 501.252C390.317 499.742 390.245 498.231 390.067 496.731V496.731Z" fill="#7FB2E0"/>
<path d="M316.914 507.571C316.932 508.152 316.955 508.73 316.973 509.307C317.725 508.769 318.469 508.215 319.216 507.696C320.63 506.714 322.124 505.84 323.817 505.473C325.759 505.052 327.655 505.669 329.273 506.737C331 507.876 332.489 509.277 334.562 509.757C336.5 510.213 338.247 509.985 339.831 508.746C341.712 507.27 343.396 505.749 345.585 504.717C347.774 503.685 350.52 503.241 352.61 504.667C354.246 505.785 355.272 507.575 357.076 508.498C358.562 509.286 360.263 509.564 361.921 509.291C364.899 508.755 366.965 506.056 369.297 504.369C370.58 503.439 372.001 502.808 373.603 502.786C375.141 502.763 376.374 503.977 377.337 505.031C378.418 506.213 379.399 507.452 380.698 508.409C381.423 508.933 382.244 509.307 383.113 509.511C383.983 509.715 384.884 509.744 385.765 509.596C387.421 509.334 388.835 508.596 390.152 507.678C390.205 507.071 390.251 506.463 390.29 505.856C388.341 507.361 386.245 508.559 383.796 508.172C380.489 507.648 379.005 504.084 376.483 502.294C373.739 500.344 370.364 501.706 367.98 503.549C365.735 505.289 363.584 508.001 360.502 507.956C358.531 507.929 356.899 506.797 355.569 505.45C354.096 503.956 352.755 502.69 350.6 502.387C348.218 502.052 345.859 502.886 343.79 504.009C342.795 504.56 341.85 505.196 340.964 505.911C340.114 506.594 339.353 507.371 338.446 507.96C336.679 509.127 334.272 508.364 332.629 507.334C330.875 506.234 329.421 504.817 327.395 504.209C323.855 503.141 320.612 504.917 317.805 506.92L316.914 507.571Z" fill="white"/>
<path d="M382.349 521.584C380.953 520.784 379.944 519.484 378.611 518.598C377.123 517.611 375.354 517.735 373.725 518.256C371.45 518.984 369.498 520.115 367.449 521.323C365.602 522.407 363.594 523.446 361.397 523.148C358.082 522.698 355.778 519.757 352.84 518.416C349.606 516.948 346.477 518.066 343.727 520.009C341.062 521.889 338.675 524.631 335.469 525.573C333.78 526.069 332.152 525.625 330.655 524.785C329.158 523.944 327.934 522.704 326.311 522.064C323.485 520.949 320.226 522.256 317.776 524.183C317.829 524.742 317.883 525.299 317.94 525.855C319.751 524.183 322.116 523.088 324.422 523.151C326.228 523.191 327.591 524.451 328.99 525.434C330.435 526.448 332.087 527.189 333.871 527.237C337.144 527.331 339.907 524.859 342.292 522.928C344.791 520.899 347.774 518.452 351.199 519.346C354.377 520.178 356.599 523.07 359.674 524.196C363.917 525.751 367.586 522.765 371.118 520.852C372.81 519.937 375.211 518.824 377.17 519.461C378.559 519.912 379.635 521.352 380.756 522.227C382.742 523.764 385.135 524.237 387.5 523.985C387.563 523.505 387.629 523.026 387.699 522.547C385.859 522.848 383.972 522.509 382.349 521.584Z" fill="white"/>
<path d="M386.652 538.326C386.716 537.841 386.778 537.356 386.837 536.869C386.449 536.726 386.068 536.576 385.695 536.418C382.726 535.146 379.772 533.255 376.408 533.583C374.375 533.784 372.801 534.875 371.136 535.946C370.332 536.461 369.475 536.962 368.504 537.075C367.301 537.204 366.088 536.644 365.062 536.083C363.42 535.191 362.193 533.723 360.628 532.713C359.004 531.665 357.054 531.41 355.158 531.627C348.264 532.411 344.422 539.788 337.551 540.436C335.452 540.635 333.552 540.075 331.749 539.04C329.947 538.006 328.266 536.781 326.151 536.485C323.824 536.191 321.468 536.726 319.504 537.994C319.614 538.5 319.732 539.008 319.847 539.514C321.731 538.139 324.143 537.482 326.526 538.012C328.581 538.464 330.281 539.973 332.142 540.888C333.885 541.724 335.831 542.06 337.757 541.857C344.701 541.193 348.527 533.813 355.361 533.034C356.328 532.909 357.31 532.983 358.246 533.253C359.183 533.522 360.052 533.981 360.8 534.599C362.351 535.83 363.692 537.07 365.523 537.893C367.499 538.778 369.368 538.624 371.234 537.581C373.004 536.585 374.496 535.211 376.606 535.001C379.898 534.676 382.988 536.878 385.903 538.048C386.141 538.152 386.396 538.245 386.652 538.326Z" fill="white"/>
<path d="M328.705 518.469C329.563 519.067 330.347 517.562 329.494 516.969C328.531 516.3 327.794 515.298 326.916 514.501C326.144 513.799 325.032 515.021 325.811 515.728C326.794 516.632 327.622 517.72 328.705 518.469Z" fill="white"/>
<path d="M336.848 516.761C337.829 516.03 338.847 515.363 339.897 514.766C340.636 514.343 339.986 513.092 339.249 513.513C338.2 514.111 337.182 514.777 336.2 515.508C335.514 516.015 336.154 517.271 336.848 516.761Z" fill="white"/>
<path d="M351.083 513.071C350.025 512.565 349.192 511.798 348.356 511.032C347.701 510.431 346.683 511.362 347.341 511.964C348.259 512.807 349.196 513.654 350.358 514.209C351.178 514.602 351.905 513.464 351.083 513.071Z" fill="white"/>
<path d="M360.072 516.851C361.526 516.435 362.766 515.564 364.056 514.785C364.829 514.314 364.13 513.062 363.356 513.53C362.172 514.249 361.038 515.071 359.705 515.453C358.843 515.698 359.208 517.101 360.072 516.851Z" fill="white"/>
<path d="M375.253 511.902C374.195 511.269 373.362 510.314 372.524 509.353C371.869 508.603 370.853 509.769 371.511 510.52C372.427 511.572 373.366 512.631 374.528 513.326C375.348 513.817 376.075 512.396 375.253 511.902Z" fill="white"/>
<path d="M383.71 515.803L384.057 515.457C384.181 515.326 384.249 515.152 384.247 514.972C384.245 514.792 384.172 514.62 384.045 514.493C383.917 514.365 383.745 514.293 383.565 514.291C383.385 514.288 383.211 514.357 383.081 514.481C382.964 514.596 382.849 514.71 382.735 514.827C382.668 514.891 382.615 514.967 382.578 515.051C382.541 515.136 382.522 515.226 382.521 515.318C382.519 515.411 382.537 515.502 382.571 515.587C382.606 515.672 382.658 515.75 382.723 515.815C382.788 515.88 382.865 515.931 382.95 515.966C383.036 516.001 383.127 516.018 383.219 516.017C383.311 516.016 383.402 515.996 383.486 515.96C383.571 515.923 383.647 515.87 383.71 515.803V515.803Z" fill="white"/>
<path d="M328.825 532.419C327.907 532.405 327.907 533.897 328.825 533.911C330.302 533.917 331.76 534.265 333.095 534.928C333.919 535.34 334.642 534.056 333.812 533.64C332.255 532.854 330.553 532.437 328.825 532.419V532.419Z" fill="white"/>
<path d="M344.083 528.216C342.645 528.917 341.295 529.702 339.795 530.336C338.791 530.759 339.699 531.888 340.707 531.461C342.207 530.829 343.557 530.044 344.994 529.342C345.948 528.874 345.051 527.743 344.083 528.216Z" fill="white"/>
<path d="M351.67 525.611C350.857 525.168 350.122 526.347 350.934 526.789C351.909 527.32 352.975 527.664 354.021 528.051C354.895 528.377 355.272 527.057 354.409 526.736C353.467 526.426 352.551 526.05 351.67 525.611V525.611Z" fill="white"/>
<path d="M365.594 528.237C364.712 527.671 363.892 529.038 364.766 529.6C365.399 530.034 366.085 530.392 366.809 530.665C367.019 530.719 367.242 530.692 367.432 530.589C367.621 530.485 367.76 530.315 367.82 530.114C367.873 529.912 367.843 529.698 367.736 529.517C367.629 529.336 367.454 529.202 367.246 529.142C366.659 528.906 366.105 528.602 365.594 528.237V528.237Z" fill="white"/>
<path d="M380.542 526.468C378.497 527.536 376.302 528.278 374.258 529.354C373.417 529.793 374.163 531.039 375.004 530.6C377.049 529.533 379.246 528.791 381.29 527.714C382.129 527.276 381.383 526.03 380.542 526.468Z" fill="white"/>
<path d="M380.283 472.891C378.911 471.487 376.781 471.43 374.944 471.602C373.204 471.767 371.495 472.167 369.866 472.792C371.971 471.019 373.796 468.802 374.649 466.298C375.226 464.602 375.221 462.791 374.42 461.168C373.672 459.646 372.288 458.194 370.468 458.171C367.156 458.131 364.52 461.739 362.846 464.13C361.787 465.63 360.817 467.183 359.872 468.752C361.188 465.173 362.142 461.075 361.08 457.315C360.424 454.985 357.848 451.779 355.158 453.477C353.008 454.832 352.205 458.16 351.615 460.413C351.119 462.375 350.774 464.371 350.581 466.384C350.463 466.03 350.345 465.676 350.226 465.322C349.43 462.961 348.442 460.671 347.038 458.593C345.926 456.95 344.407 455.037 342.38 454.497C340.452 453.987 338.467 455.175 337.87 457.029C337.234 459.002 337.819 461.346 338.302 463.29C339.112 466.567 340.64 469.626 342.515 472.456C341.399 471.552 340.267 470.672 339.098 469.861C335.596 467.434 331.019 464.489 326.551 465.882C324.905 466.395 323.781 467.705 323.82 469.432C323.866 471.424 325.531 473.323 326.988 474.524C328.729 475.96 330.877 476.904 332.936 477.805C335.483 478.952 338.1 479.944 340.77 480.776C341.015 480.851 341.26 480.919 341.504 480.982C339.674 481.05 337.867 481.224 336.051 481.434C333.023 481.765 327.702 482.192 327.517 486.148C327.428 488.059 328.349 489.644 330.321 490.019C332.183 490.371 334.379 489.725 336.17 489.264C341.28 487.95 345.766 484.915 350.942 483.807C353.568 483.244 356.302 483.913 358.948 484.033C361.851 484.157 364.795 484.003 367.693 483.854C369.775 483.748 371.87 483.617 373.945 483.403C375.743 483.224 377.534 482.879 379.142 482.048C380.704 481.23 381.509 479.803 381.628 478.098C381.747 476.394 381.537 474.174 380.283 472.891ZM368.748 460.316C370.422 459.293 371.762 459.984 372.753 461.515C373.771 463.096 373.499 464.997 372.764 466.614C371.11 470.24 367.604 472.652 364.23 474.558C362.192 475.709 360.206 476.942 358.205 478.153C357.173 478.776 356.146 479.451 355.064 479.995L354.552 480.25C357.137 476.863 359.241 473.119 361.414 469.464C363.34 466.237 365.415 462.353 368.748 460.316ZM352.909 462.062C353.205 460.642 353.613 459.246 354.129 457.889C354.529 456.859 355.044 455.649 355.922 454.929C356.748 454.251 357.507 454.8 358.209 455.464C359.564 456.764 359.877 458.808 359.904 460.581C359.952 463.791 358.9 467.072 357.631 469.992C356.826 471.85 355.826 473.634 354.858 475.411C354.291 476.457 353.74 477.527 353.17 478.584C352.994 476.777 352.774 474.985 352.452 473.198C352.294 472.327 352.095 471.467 351.873 470.611C351.974 467.737 352.321 464.878 352.909 462.062V462.062ZM339.354 460.043C339.238 459.065 339.157 458.04 339.583 457.128C339.806 456.685 340.183 456.337 340.645 456.147C341.108 455.957 341.624 455.939 342.099 456.096C343.138 456.448 343.991 457.322 344.668 458.142C346.29 460.106 347.413 462.36 348.284 464.729C349.012 466.693 349.693 468.709 350.222 470.749C350.084 472.844 350.032 475.005 350.485 477.035C350.627 477.665 350.794 478.29 350.942 478.92C350.027 478.184 348.945 477.599 348.076 476.875C347.207 476.15 346.498 475.111 345.821 474.176C345.032 473.083 344.199 472.027 343.46 470.898C341.991 468.646 340.857 466.198 340.091 463.629C339.743 462.456 339.496 461.257 339.354 460.043V460.043ZM334.894 476.87C332.7 475.942 330.42 475 328.489 473.609C327.181 472.67 324.9 470.484 325.552 468.653C326.238 466.743 329.372 467.05 330.877 467.402C333.238 467.955 335.418 469.319 337.401 470.649C339.654 472.157 341.722 473.959 343.847 475.637C344.952 476.511 346.029 477.419 347.136 478.293C348.193 479.126 349.403 479.907 350.359 480.864C347.95 480.379 345.475 480.268 343.076 479.717C340.255 479.072 337.552 477.995 334.894 476.87ZM336.227 487.557C334.455 488.086 332.08 488.786 330.227 488.318C329.301 488.092 329.161 487.02 329.157 486.234C329.157 485.311 329.738 484.701 330.529 484.299C332.188 483.45 334.189 483.26 336.005 483.055C338.434 482.754 340.878 482.59 343.325 482.563C345.08 482.563 346.832 482.696 348.586 482.732C346.865 483.283 345.178 483.933 343.533 484.678C341.125 485.719 338.743 486.819 336.227 487.557ZM378.867 480.271C377.495 481.352 375.502 481.589 373.814 481.77C371.742 481.996 369.644 482.1 367.565 482.222C364.642 482.38 361.645 482.558 358.717 482.391C357.448 482.319 356.174 482.152 354.9 482.054C359.424 479.796 363.914 477.471 368.432 475.195C370.575 474.099 372.912 473.421 375.315 473.198C376.248 473.11 377.245 473.101 378.142 473.413C379.1 473.745 379.501 474.474 379.768 475.384C380.24 476.985 380.299 479.155 378.867 480.271Z" fill="#282F39"/>
<path d="M608.807 466.904C607.819 455.289 602.734 443.73 590.796 438.638C572.762 430.823 554.241 436.158 536.487 437.186C522.922 438.045 497.689 433.158 491.929 449.993C488.534 460.202 490.573 472.569 490.961 483.66C491.485 498.667 493.082 513.747 496.23 528.517C498.394 538.815 500.561 550.253 508.369 556.717C515.944 562.922 525.356 560.544 533.727 559.55C545.685 558.163 557.738 558.397 569.726 559.362C583.327 560.429 596.207 558.746 599.345 541.704C601.407 530.737 602.309 519.586 604.236 508.649C606.274 497.284 608.283 485.926 608.922 474.353C609.056 471.871 609.018 469.382 608.807 466.904V466.904Z" fill="#EBA7BE"/>
<path d="M525.359 459.998C524.431 459.3 519.402 461.833 517.874 462.722C516.817 461.655 512.812 458.967 511.399 458.312C509.608 457.482 511.225 465.264 511.531 466.568C502.389 472.519 502.501 474.647 507.003 475.098C509.154 475.317 511.303 475.547 513.448 475.786C513.777 477.693 516.082 486.848 517.202 486.384C518.384 485.9 520.38 478.233 520.802 476.721C522.728 476.995 528.9 477.736 530.82 478.068C532.911 478.427 525.577 470.494 523.877 469.018C524.918 466.845 526.028 460.509 525.359 459.998Z" fill="white"/>
<path d="M587.707 523.133C587.581 521.885 581.887 519.747 580.063 519.181C580.135 517.561 579.332 512.413 578.818 510.813C578.159 508.784 573.173 515.753 572.367 516.965C560.949 514.07 559.342 515.72 562.279 519.619C563.685 521.483 565.078 523.357 566.459 525.241C565.181 526.887 559.599 535.42 560.797 535.98C562.049 536.563 569.594 532.525 571.102 531.758C572.297 533.487 576.23 538.924 577.359 540.689C578.607 542.612 579.523 530.987 579.454 528.557C581.953 527.799 587.795 524.032 587.707 523.133Z" fill="white"/>
<path d="M583.982 450.701C583.406 450.165 579.823 451.521 578.73 452.019C578.087 451.222 575.568 449.121 574.659 448.577C573.507 447.889 574.05 453.27 574.168 454.176C567.562 457.558 567.49 459.007 570.503 459.626C571.942 459.926 573.381 460.229 574.817 460.548C574.903 461.865 575.805 468.215 576.609 467.981C577.412 467.747 579.332 462.689 579.724 461.698C581.008 462.027 585.132 462.952 586.406 463.311C587.796 463.703 583.393 457.825 582.349 456.702C583.205 455.302 584.4 451.09 583.982 450.701Z" fill="white"/>
<path d="M528.748 518.14C528.168 517.604 524.589 518.96 523.479 519.458C522.84 518.661 520.321 516.563 519.412 516.016C518.256 515.328 518.802 520.709 518.918 521.615C512.315 524.997 512.239 526.446 515.256 527.068C516.694 527.365 518.131 527.671 519.567 527.987C519.652 529.304 520.554 535.654 521.361 535.42C522.168 535.186 524.081 530.128 524.477 529.136C525.761 529.466 529.881 530.391 531.155 530.75C532.549 531.142 528.145 525.264 527.098 524.144C527.968 522.751 529.166 518.522 528.748 518.14Z" fill="white"/>
<path d="M560.955 497.294C561.034 496.507 557.791 494.472 556.733 493.899C556.98 492.911 557.135 489.618 557.02 488.577C556.875 487.243 552.913 490.922 552.265 491.561C545.583 488.337 544.38 489.15 545.704 491.929C546.337 493.247 546.96 494.578 547.575 495.924C546.587 496.784 542.059 501.342 542.727 501.852C543.396 502.362 548.593 500.828 549.62 500.535C550.14 501.75 551.879 505.603 552.363 506.835C552.89 508.182 554.922 501.121 555.186 499.613C556.803 499.448 560.899 497.861 560.955 497.294Z" fill="white"/>
<path d="M575.505 484.381C572.903 484.381 572.903 488.422 575.505 488.422C578.107 488.422 578.11 484.381 575.505 484.381Z" fill="white"/>
<path d="M586.927 500.028C584.325 500.028 584.325 504.065 586.927 504.065C589.528 504.065 589.532 500.028 586.927 500.028Z" fill="white"/>
<path d="M594.243 468.287C591.642 468.287 591.642 472.325 594.243 472.325C596.845 472.325 596.848 468.287 594.243 468.287Z" fill="white"/>
<path d="M546.555 456.227C543.953 456.227 543.953 460.265 546.555 460.265C549.156 460.265 549.16 456.227 546.555 456.227Z" fill="white"/>
<path d="M508.721 488.676C506.116 488.676 506.116 492.713 508.721 492.713C511.326 492.713 511.31 488.676 508.721 488.676Z" fill="white"/>
<path d="M526.874 495.993C524.269 495.993 524.269 500.031 526.874 500.031C529.479 500.031 529.469 495.993 526.874 495.993Z" fill="white"/>
<path d="M506.436 509.871C503.831 509.871 503.831 513.909 506.436 513.909C509.041 513.909 509.051 509.871 506.436 509.871Z" fill="white"/>
<path d="M534.949 545.702C532.344 545.702 532.344 549.739 534.949 549.739C537.554 549.739 537.55 545.702 534.949 545.702Z" fill="white"/>
<path d="M545.293 521.226C542.688 521.226 542.688 525.264 545.293 525.264C547.898 525.264 547.911 521.226 545.293 521.226Z" fill="white"/>
<path d="M560.181 545.955C557.576 545.955 557.576 549.993 560.181 549.993C562.786 549.993 562.783 545.955 560.181 545.955Z" fill="white"/>
<path d="M504.012 451.334C501.407 451.334 501.407 455.371 504.012 455.371C506.617 455.371 506.617 451.334 504.012 451.334Z" fill="white"/>
<path d="M586.673 539.395C584.071 539.395 584.071 543.433 586.673 543.433C589.275 543.433 589.278 539.395 586.673 539.395Z" fill="white"/>
<path d="M605.214 419.883C604.186 415.88 602.374 412.122 599.882 408.825C594.883 402.179 586.963 397.713 578.476 398.586C570.77 399.379 565.063 404.919 560.475 410.708C557.548 414.403 554.659 418.164 551.89 421.978C550.368 424.076 548.909 426.229 547.589 428.462C547.995 427.019 548.554 425.624 549.255 424.299C550.645 421.517 552.315 418.885 553.757 416.132C555.101 413.573 556.303 410.847 556.517 407.929C556.724 405.077 555.499 402.445 553.408 400.545C551.636 398.935 548.557 396.758 546.163 398.391C544.111 399.781 543.693 402.712 543.416 404.978C543.107 407.504 543.146 410.059 543.176 412.599C543.206 414.993 543.057 417.384 542.985 419.775C542.264 417.512 541.509 415.256 540.742 413.01C539.175 408.429 537.666 403.789 535.723 399.363C534.208 395.902 532.269 392.51 529.417 389.974C524.707 385.778 517.37 384.672 511.804 387.781C507.019 390.451 504.21 395.665 502.349 400.624C500.291 406.108 499.267 411.973 498.687 417.782C498.447 420.173 498.309 422.577 498.276 424.981C498.23 428.202 498.131 431.584 499.007 434.713C499.896 437.897 502.106 440.275 504.816 442.06C508.712 444.642 513.388 445.78 518.035 445.277C522.662 444.797 527.013 443.018 531.248 441.187C533.553 440.199 535.822 439.211 538.163 438.371L540.36 437.588C541.066 437.627 541.775 437.608 542.478 437.532C541.905 439.399 541.088 441.181 540.047 442.834C538.401 445.617 536.543 448.254 535.302 451.258C532.091 459.04 535.733 467.424 536.619 475.272C536.691 475.911 537.103 476.451 537.798 476.451C538.384 476.451 539.046 475.911 538.974 475.272C538.124 467.645 534.436 459.251 537.656 451.732C539.83 446.641 544.049 442.343 545.066 436.873C545.168 436.83 545.264 436.781 545.362 436.738C545.703 439.565 546.47 442.325 547.638 444.922C549.262 448.636 551.201 452.167 552.216 456.119C554.393 464.586 552.766 473.477 553.787 482.083C553.862 482.722 554.267 483.262 554.966 483.262C555.549 483.262 556.217 482.722 556.141 482.083C555.117 473.438 556.579 464.629 554.63 456.086C553.727 452.114 551.87 448.495 550.167 444.826C549.027 442.448 548.234 439.918 547.813 437.314C548.134 437.48 548.464 437.628 548.801 437.759C550.648 438.49 552.67 438.783 554.623 439.093C556.635 439.422 558.611 439.817 560.607 440.229C570.697 442.3 581.407 442.834 591.623 441.342C594.814 440.874 598.068 439.906 600.719 438.012C603.158 436.283 604.907 433.747 605.659 430.853C606.551 427.28 606.09 423.404 605.214 419.883ZM539.948 435.23C537.926 435.039 535.871 434.38 534.116 433.817C532.288 433.231 530.494 432.556 528.672 431.966C527.062 431.446 525.405 431.067 523.775 430.616C520.67 429.756 517.373 428.712 515.108 426.295C512.592 423.608 512.509 419.554 513.724 416.271C514.913 413.046 518.006 409.684 521.658 409.533C524.836 409.404 527.553 412.388 529.417 414.594C531.62 417.199 533.395 420.157 535.104 423.101C536.027 424.743 536.84 426.445 537.538 428.195C538.299 430.02 539.128 431.818 540.502 433.267C540.953 433.735 541.466 434.139 542.026 434.469C541.339 434.726 540.642 434.979 539.935 435.23H539.948ZM543.469 432.595C541.766 431.696 540.834 429.849 540.074 428.172C539.257 426.361 538.631 424.467 537.643 422.738C535.986 419.752 534.124 416.883 532.071 414.153C529.957 411.42 527.398 408.65 524.032 407.527C520.479 406.338 516.698 408.33 514.317 410.912C511.594 413.876 510.154 418.059 510.721 422.05C511.195 425.416 513.059 428.126 515.888 429.954C518.667 431.755 522.01 432.589 525.172 433.415C528.623 434.331 531.926 435.668 535.358 436.636L535.74 436.741C533.823 437.486 531.939 438.302 530.049 439.126C525.6 441.052 520.927 442.906 516.02 443.018C513.73 443.055 511.455 442.637 509.328 441.789C507.2 440.941 505.261 439.68 503.624 438.078C501.391 435.849 500.812 432.849 500.66 429.809C500.426 424.431 500.713 419.044 501.516 413.722C502.363 408.041 503.723 402.248 506.417 397.137C508.686 392.856 512.272 388.904 517.284 388.377C520.557 388.044 523.843 388.867 526.571 390.705C529.644 392.783 531.626 396.169 533.174 399.455C535.18 403.704 536.589 408.245 538.114 412.681C538.992 415.236 539.847 417.8 540.68 420.371C541.493 422.916 542.402 425.495 542.985 428.106C543.341 429.697 543.551 431.301 544.045 432.845C543.844 432.775 543.648 432.694 543.456 432.602L543.469 432.595ZM545.293 421.108C545.323 417.973 545.547 414.851 545.511 411.709C545.484 409.154 545.468 406.549 545.903 404.02C546.04 402.939 546.381 401.894 546.907 400.941C547.054 400.684 547.261 400.467 547.51 400.308C547.727 400.191 547.975 400.14 548.221 400.16C549.492 400.344 550.777 401.355 551.742 402.205C552.717 403.026 553.454 404.094 553.876 405.297C554.643 407.646 553.876 410.267 552.888 412.503C551.662 415.342 550.013 417.98 548.508 420.674C547.398 422.65 546.278 424.734 545.577 426.931C545.31 425.004 545.21 423.058 545.277 421.115L545.293 421.108ZM548.587 433.293C555.427 429.137 561.187 423.229 568.639 420.12C571.33 418.991 574.972 418.003 577.531 420.041C579.421 421.553 579.724 424.079 578.694 426.236C577.047 429.664 573.042 431.61 569.558 432.542C565.277 433.689 560.726 433.488 556.336 433.333C554.149 433.257 551.959 433.168 549.769 433.254L548.587 433.293ZM601.476 434.09C599.622 436.396 596.882 437.66 594.089 438.418C589.742 439.593 585.03 439.676 580.557 439.735C575.25 439.813 569.946 439.426 564.707 438.576C562.372 438.197 560.077 437.621 557.752 437.202C555.776 436.85 553.8 436.61 551.85 436.178C551.173 436.036 550.505 435.856 549.848 435.638C550.902 435.595 551.946 435.546 552.94 435.566C557.37 435.648 561.799 436.007 566.219 435.506C572.805 434.762 582.645 430.672 581.522 422.475C581.167 419.863 579.155 417.864 576.767 416.988C573.345 415.714 569.617 417.054 566.492 418.493C560.235 421.375 555.14 426.124 549.456 429.941C550.872 427.517 552.456 425.189 554.106 422.913C556.892 419.08 559.784 415.283 562.761 411.597C565.161 408.633 567.819 405.765 571.043 403.694C574.168 401.658 577.858 400.666 581.582 400.861C590.009 401.276 596.842 407.175 600.62 414.393C602.479 417.921 603.552 421.809 603.765 425.791C603.877 428.709 603.324 431.775 601.453 434.1L601.476 434.09Z" fill="url(#paint0_radial_601_5)"/>
<path d="M324.807 470.904C323.819 459.289 318.734 447.73 306.796 442.638C288.762 434.823 270.241 440.158 252.487 441.186C238.922 442.045 213.689 437.158 207.929 453.993C204.534 464.202 206.573 476.569 206.961 487.66C207.485 502.667 209.082 517.747 212.23 532.517C214.394 542.815 216.561 554.253 224.369 560.717C231.944 566.922 241.356 564.544 249.727 563.55C261.685 562.163 273.738 562.397 285.726 563.362C299.327 564.429 312.207 562.746 315.345 545.704C317.407 534.737 318.309 523.586 320.236 512.649C322.274 501.284 324.283 489.926 324.922 478.353C325.056 475.871 325.018 473.382 324.807 470.904V470.904Z" fill="#4782AC"/>
<path d="M241.359 463.998C240.431 463.3 235.402 465.833 233.874 466.722C232.817 465.655 228.812 462.967 227.399 462.312C225.608 461.482 227.225 469.264 227.531 470.568C218.389 476.519 218.501 478.647 223.003 479.098C225.154 479.317 227.303 479.547 229.448 479.786C229.777 481.693 232.082 490.848 233.202 490.384C234.384 489.9 236.38 482.233 236.802 480.721C238.728 480.995 244.9 481.736 246.82 482.068C248.911 482.427 241.577 474.494 239.877 473.018C240.918 470.845 242.028 464.509 241.359 463.998Z" fill="white"/>
<path d="M303.707 527.133C303.581 525.885 297.887 523.747 296.063 523.181C296.135 521.561 295.332 516.413 294.818 514.813C294.159 512.784 289.173 519.753 288.367 520.965C276.949 518.07 275.342 519.72 278.279 523.619C279.685 525.483 281.078 527.357 282.459 529.241C281.181 530.887 275.599 539.42 276.797 539.98C278.049 540.563 285.594 536.525 287.102 535.758C288.297 537.487 292.23 542.924 293.359 544.689C294.607 546.612 295.523 534.987 295.454 532.557C297.953 531.799 303.795 528.032 303.707 527.133Z" fill="white"/>
<path d="M299.982 454.701C299.406 454.165 295.823 455.521 294.73 456.019C294.087 455.222 291.568 453.121 290.659 452.577C289.507 451.889 290.05 457.27 290.168 458.176C283.562 461.558 283.49 463.007 286.503 463.626C287.942 463.926 289.381 464.229 290.817 464.548C290.903 465.865 291.805 472.215 292.609 471.981C293.412 471.747 295.332 466.689 295.724 465.698C297.008 466.027 301.132 466.952 302.406 467.311C303.796 467.703 299.393 461.825 298.349 460.702C299.205 459.302 300.4 455.09 299.982 454.701Z" fill="white"/>
<path d="M244.748 522.14C244.168 521.604 240.589 522.96 239.479 523.458C238.84 522.661 236.321 520.563 235.412 520.016C234.256 519.328 234.802 524.709 234.918 525.615C228.315 528.997 228.239 530.446 231.256 531.068C232.694 531.365 234.131 531.671 235.567 531.987C235.652 533.304 236.554 539.654 237.361 539.42C238.168 539.186 240.081 534.128 240.477 533.136C241.761 533.466 245.881 534.391 247.155 534.75C248.549 535.142 244.145 529.264 243.098 528.144C243.968 526.751 245.166 522.522 244.748 522.14Z" fill="white"/>
<path d="M276.955 501.294C277.034 500.507 273.791 498.472 272.733 497.899C272.98 496.911 273.135 493.618 273.02 492.577C272.875 491.243 268.913 494.922 268.265 495.561C261.583 492.337 260.38 493.15 261.704 495.929C262.337 497.247 262.96 498.578 263.575 499.924C262.587 500.784 258.059 505.342 258.727 505.852C259.396 506.362 264.593 504.828 265.62 504.535C266.14 505.75 267.879 509.603 268.363 510.835C268.89 512.182 270.922 505.121 271.186 503.613C272.803 503.448 276.899 501.861 276.955 501.294Z" fill="white"/>
<path d="M291.505 488.381C288.903 488.381 288.903 492.422 291.505 492.422C294.107 492.422 294.11 488.381 291.505 488.381Z" fill="white"/>
<path d="M302.927 504.028C300.325 504.028 300.325 508.065 302.927 508.065C305.528 508.065 305.532 504.028 302.927 504.028Z" fill="white"/>
<path d="M310.243 472.287C307.642 472.287 307.642 476.325 310.243 476.325C312.845 476.325 312.848 472.287 310.243 472.287Z" fill="white"/>
<path d="M262.555 460.227C259.953 460.227 259.953 464.265 262.555 464.265C265.156 464.265 265.16 460.227 262.555 460.227Z" fill="white"/>
<path d="M224.721 492.676C222.116 492.676 222.116 496.713 224.721 496.713C227.326 496.713 227.31 492.676 224.721 492.676Z" fill="white"/>
<path d="M242.874 499.993C240.269 499.993 240.269 504.031 242.874 504.031C245.479 504.031 245.469 499.993 242.874 499.993Z" fill="white"/>
<path d="M222.436 513.871C219.831 513.871 219.831 517.909 222.436 517.909C225.041 517.909 225.051 513.871 222.436 513.871Z" fill="white"/>
<path d="M250.949 549.702C248.344 549.702 248.344 553.739 250.949 553.739C253.554 553.739 253.55 549.702 250.949 549.702Z" fill="white"/>
<path d="M261.293 525.226C258.688 525.226 258.688 529.264 261.293 529.264C263.898 529.264 263.911 525.226 261.293 525.226Z" fill="white"/>
<path d="M276.181 549.955C273.576 549.955 273.576 553.993 276.181 553.993C278.786 553.993 278.783 549.955 276.181 549.955Z" fill="white"/>
<path d="M220.012 455.334C217.407 455.334 217.407 459.371 220.012 459.371C222.617 459.371 222.617 455.334 220.012 455.334Z" fill="white"/>
<path d="M302.673 543.395C300.071 543.395 300.071 547.433 302.673 547.433C305.275 547.433 305.278 543.395 302.673 543.395Z" fill="white"/>
<path d="M321.214 423.883C320.186 419.88 318.374 416.122 315.882 412.825C310.883 406.179 302.963 401.713 294.476 402.586C286.77 403.379 281.063 408.919 276.475 414.708C273.548 418.403 270.659 422.164 267.89 425.978C266.368 428.076 264.909 430.229 263.589 432.462C263.995 431.019 264.554 429.624 265.255 428.299C266.645 425.517 268.315 422.885 269.757 420.132C271.101 417.573 272.303 414.847 272.517 411.929C272.724 409.077 271.499 406.445 269.408 404.545C267.636 402.935 264.557 400.758 262.163 402.391C260.111 403.781 259.693 406.712 259.416 408.978C259.107 411.504 259.146 414.059 259.176 416.599C259.206 418.993 259.057 421.384 258.985 423.775C258.264 421.512 257.509 419.256 256.742 417.01C255.175 412.429 253.666 407.789 251.723 403.363C250.208 399.902 248.269 396.51 245.417 393.974C240.707 389.778 233.37 388.672 227.804 391.781C223.019 394.451 220.21 399.665 218.349 404.624C216.291 410.108 215.267 415.973 214.687 421.782C214.447 424.173 214.309 426.577 214.276 428.981C214.23 432.202 214.131 435.584 215.007 438.713C215.896 441.897 218.106 444.275 220.816 446.06C224.712 448.642 229.388 449.78 234.035 449.277C238.662 448.797 243.013 447.018 247.248 445.187C249.553 444.199 251.822 443.211 254.163 442.371L256.36 441.588C257.066 441.627 257.775 441.608 258.478 441.532C257.905 443.399 257.088 445.181 256.047 446.834C254.401 449.617 252.543 452.254 251.302 455.258C248.091 463.04 251.733 471.424 252.619 479.272C252.691 479.911 253.103 480.451 253.798 480.451C254.384 480.451 255.046 479.911 254.974 479.272C254.124 471.645 250.436 463.251 253.656 455.732C255.83 450.641 260.049 446.343 261.066 440.873C261.168 440.83 261.264 440.781 261.362 440.738C261.703 443.565 262.47 446.325 263.638 448.922C265.262 452.636 267.201 456.167 268.216 460.119C270.393 468.586 268.766 477.477 269.787 486.083C269.862 486.722 270.267 487.262 270.966 487.262C271.549 487.262 272.217 486.722 272.141 486.083C271.117 477.438 272.579 468.629 270.63 460.086C269.727 456.114 267.87 452.495 266.167 448.826C265.027 446.448 264.234 443.918 263.813 441.314C264.134 441.48 264.464 441.628 264.801 441.759C266.648 442.49 268.67 442.783 270.623 443.093C272.635 443.422 274.611 443.817 276.607 444.229C286.697 446.3 297.407 446.834 307.623 445.342C310.814 444.874 314.068 443.906 316.719 442.012C319.158 440.283 320.907 437.747 321.659 434.853C322.551 431.28 322.09 427.404 321.214 423.883ZM255.948 439.23C253.926 439.039 251.871 438.38 250.116 437.817C248.288 437.231 246.494 436.556 244.672 435.966C243.062 435.446 241.405 435.067 239.775 434.616C236.67 433.756 233.373 432.712 231.108 430.295C228.592 427.608 228.509 423.554 229.724 420.271C230.913 417.046 234.006 413.684 237.658 413.533C240.836 413.404 243.553 416.388 245.417 418.594C247.62 421.199 249.395 424.157 251.104 427.101C252.027 428.743 252.84 430.445 253.538 432.195C254.299 434.02 255.128 435.818 256.502 437.267C256.953 437.735 257.466 438.139 258.026 438.469C257.339 438.726 256.642 438.979 255.935 439.23H255.948ZM259.469 436.595C257.766 435.696 256.834 433.849 256.074 432.172C255.257 430.361 254.631 428.467 253.643 426.738C251.986 423.752 250.124 420.883 248.071 418.153C245.957 415.42 243.398 412.65 240.032 411.527C236.479 410.338 232.698 412.33 230.317 414.912C227.594 417.876 226.154 422.059 226.721 426.05C227.195 429.416 229.059 432.126 231.888 433.954C234.667 435.755 238.01 436.589 241.172 437.415C244.623 438.331 247.926 439.668 251.358 440.636L251.74 440.741C249.823 441.486 247.939 442.302 246.049 443.126C241.6 445.052 236.927 446.906 232.02 447.018C229.73 447.055 227.455 446.637 225.328 445.789C223.2 444.941 221.261 443.68 219.624 442.078C217.391 439.849 216.812 436.849 216.66 433.809C216.426 428.431 216.713 423.044 217.516 417.722C218.363 412.041 219.723 406.248 222.417 401.137C224.686 396.856 228.272 392.904 233.284 392.377C236.557 392.044 239.843 392.867 242.571 394.705C245.644 396.783 247.626 400.169 249.174 403.455C251.18 407.704 252.589 412.245 254.114 416.681C254.992 419.236 255.847 421.8 256.68 424.371C257.493 426.916 258.402 429.495 258.985 432.106C259.341 433.697 259.551 435.301 260.045 436.845C259.844 436.775 259.648 436.694 259.456 436.602L259.469 436.595ZM261.293 425.108C261.323 421.973 261.547 418.851 261.511 415.709C261.484 413.154 261.468 410.549 261.903 408.02C262.04 406.939 262.381 405.894 262.907 404.941C263.054 404.684 263.261 404.467 263.51 404.308C263.727 404.191 263.975 404.14 264.221 404.16C265.492 404.344 266.777 405.355 267.742 406.205C268.717 407.026 269.454 408.094 269.876 409.297C270.643 411.646 269.876 414.267 268.888 416.503C267.662 419.342 266.013 421.98 264.508 424.674C263.398 426.65 262.278 428.734 261.577 430.931C261.31 429.004 261.21 427.058 261.277 425.115L261.293 425.108ZM264.587 437.293C271.427 433.137 277.187 427.229 284.639 424.12C287.33 422.991 290.972 422.003 293.531 424.041C295.421 425.553 295.724 428.079 294.694 430.236C293.047 433.664 289.042 435.61 285.558 436.542C281.277 437.689 276.726 437.488 272.336 437.333C270.149 437.257 267.959 437.168 265.769 437.254L264.587 437.293ZM317.476 438.09C315.622 440.396 312.882 441.66 310.089 442.418C305.742 443.593 301.03 443.676 296.557 443.735C291.25 443.813 285.946 443.426 280.707 442.576C278.372 442.197 276.077 441.621 273.752 441.202C271.776 440.85 269.8 440.61 267.85 440.178C267.173 440.036 266.505 439.856 265.848 439.638C266.902 439.595 267.946 439.546 268.94 439.566C273.37 439.648 277.799 440.007 282.219 439.506C288.805 438.762 298.645 434.672 297.522 426.475C297.167 423.863 295.155 421.864 292.767 420.988C289.345 419.714 285.617 421.054 282.492 422.493C276.235 425.375 271.14 430.124 265.456 433.941C266.872 431.517 268.456 429.189 270.106 426.913C272.892 423.08 275.784 419.283 278.761 415.597C281.161 412.633 283.819 409.765 287.043 407.694C290.168 405.658 293.858 404.666 297.582 404.861C306.009 405.276 312.842 411.175 316.62 418.393C318.479 421.921 319.552 425.809 319.765 429.791C319.877 432.709 319.324 435.775 317.453 438.1L317.476 438.09Z" fill="url(#paint1_radial_601_5)"/>
<path d="M421.013 504.669C420.286 498.651 417.443 492.933 411.179 491.056C401.771 488.239 392.171 492.077 382.915 493.638C375.817 494.837 362.67 493.922 359.339 502.152C357.34 507.093 358.172 512.795 358.172 517.975C358.156 524.98 358.726 532 360.159 538.86C361.163 543.667 362.156 549.031 366.421 552.048C370.584 554.996 375.91 553.86 380.626 553.374C387.35 552.685 394.121 552.787 400.849 553.255C408.503 553.792 415.72 552.914 417.196 544.028C418.148 538.282 418.452 532.448 419.309 526.687C420.206 520.676 421.073 514.649 421.198 508.564C421.228 507.263 421.166 505.962 421.013 504.669V504.669Z" fill="#DE6C92"/>
<path d="M358 514.007C358.016 514.507 358.035 515.005 358.051 515.502C358.699 515.039 359.339 514.562 359.983 514.115C361.201 513.269 362.488 512.516 363.946 512.2C365.619 511.837 367.252 512.368 368.646 513.289C370.134 514.27 371.416 515.476 373.202 515.89C374.871 516.282 376.376 516.086 377.74 515.019C379.361 513.748 380.811 512.437 382.696 511.548C384.582 510.66 386.948 510.277 388.748 511.505C390.157 512.468 391.041 514.011 392.595 514.805C393.875 515.484 395.34 515.724 396.768 515.488C399.333 515.027 401.113 512.702 403.122 511.248C404.227 510.448 405.451 509.904 406.831 509.885C408.156 509.865 409.218 510.911 410.048 511.819C410.979 512.837 411.824 513.905 412.942 514.729C413.567 515.18 414.274 515.502 415.023 515.678C415.772 515.853 416.548 515.878 417.307 515.751C418.734 515.525 419.952 514.89 421.086 514.099C421.132 513.576 421.171 513.052 421.205 512.529C419.526 513.826 417.721 514.858 415.611 514.525C412.763 514.073 411.484 511.003 409.312 509.461C406.948 507.781 404.041 508.955 401.988 510.542C400.053 512.041 398.201 514.377 395.546 514.338C393.848 514.315 392.443 513.34 391.297 512.18C390.028 510.893 388.873 509.802 387.016 509.541C384.965 509.253 382.933 509.971 381.151 510.938C380.294 511.413 379.479 511.961 378.716 512.576C377.984 513.165 377.329 513.834 376.548 514.342C375.025 515.347 372.952 514.689 371.537 513.803C370.026 512.855 368.773 511.635 367.028 511.111C363.979 510.191 361.186 511.721 358.767 513.446L358 514.007Z" fill="white"/>
<path d="M414.365 526.078C413.163 525.388 412.294 524.268 411.145 523.505C409.863 522.655 408.34 522.762 406.936 523.21C404.977 523.837 403.295 524.812 401.53 525.852C399.94 526.786 398.21 527.681 396.318 527.425C393.462 527.037 391.477 524.503 388.946 523.348C386.16 522.084 383.465 523.047 381.096 524.721C378.801 526.34 376.745 528.702 373.984 529.514C372.528 529.941 371.126 529.558 369.837 528.834C368.547 528.11 367.493 527.042 366.095 526.491C363.661 525.53 360.853 526.656 358.743 528.316C358.788 528.797 358.835 529.278 358.884 529.756C360.444 528.316 362.481 527.372 364.468 527.427C366.024 527.462 367.198 528.547 368.402 529.393C369.648 530.267 371.07 530.906 372.607 530.946C375.426 531.028 377.807 528.898 379.861 527.235C382.013 525.487 384.583 523.379 387.533 524.15C390.271 524.866 392.184 527.357 394.833 528.328C398.488 529.667 401.648 527.095 404.691 525.447C406.149 524.659 408.216 523.699 409.904 524.249C411.101 524.637 412.027 525.878 412.993 526.631C414.703 527.955 416.765 528.363 418.802 528.145C418.856 527.732 418.913 527.319 418.974 526.907C417.389 527.166 415.763 526.874 414.365 526.078Z" fill="white"/>
<path d="M418.071 540.499C418.126 540.081 418.179 539.663 418.23 539.244C417.896 539.121 417.568 538.991 417.247 538.855C414.689 537.759 412.145 536.131 409.247 536.413C407.495 536.586 406.14 537.526 404.705 538.448C404.013 538.892 403.275 539.324 402.439 539.421C401.402 539.532 400.357 539.049 399.474 538.567C398.059 537.798 397.002 536.534 395.655 535.664C394.256 534.761 392.575 534.541 390.942 534.728C385.004 535.403 381.695 541.758 375.776 542.316C373.968 542.487 372.331 542.005 370.779 541.114C369.226 540.223 367.778 539.168 365.956 538.913C363.952 538.659 361.922 539.12 360.23 540.213C360.325 540.649 360.427 541.087 360.526 541.522C362.149 540.337 364.227 539.771 366.279 540.228C368.05 540.618 369.513 541.917 371.117 542.705C372.618 543.426 374.294 543.715 375.953 543.54C381.935 542.968 385.23 536.611 391.117 535.94C391.95 535.832 392.796 535.896 393.603 536.129C394.409 536.361 395.158 536.756 395.802 537.289C397.138 538.349 398.293 539.417 399.871 540.125C401.573 540.888 403.182 540.756 404.79 539.857C406.315 538.999 407.6 537.816 409.418 537.635C412.253 537.355 414.915 539.252 417.426 540.26C417.63 540.349 417.851 540.429 418.071 540.499Z" fill="white"/>
<path d="M368.157 523.394C368.896 523.909 369.571 522.613 368.837 522.102C368.007 521.526 367.372 520.663 366.616 519.976C365.951 519.371 364.993 520.424 365.664 521.033C366.51 521.812 367.224 522.749 368.157 523.394Z" fill="white"/>
<path d="M375.171 521.923C376.016 521.293 376.893 520.719 377.797 520.204C378.433 519.84 377.873 518.762 377.239 519.125C376.335 519.64 375.458 520.214 374.613 520.843C374.021 521.28 374.573 522.362 375.171 521.923Z" fill="white"/>
<path d="M387.432 518.744C386.521 518.308 385.803 517.648 385.083 516.988C384.519 516.47 383.642 517.273 384.209 517.79C385 518.517 385.807 519.246 386.808 519.725C387.514 520.063 388.14 519.083 387.432 518.744Z" fill="white"/>
<path d="M395.176 522C396.428 521.642 397.496 520.892 398.608 520.221C399.273 519.815 398.671 518.737 398.004 519.14C396.985 519.759 396.008 520.467 394.859 520.796C394.117 521.008 394.432 522.215 395.176 522Z" fill="white"/>
<path d="M408.253 517.738C407.341 517.192 406.623 516.369 405.902 515.541C405.337 514.896 404.463 515.9 405.029 516.547C405.818 517.453 406.627 518.365 407.628 518.964C408.334 519.387 408.961 518.163 408.253 517.738Z" fill="white"/>
<path d="M415.538 521.098L415.836 520.799C415.943 520.687 416.002 520.537 416 520.382C415.998 520.227 415.935 520.079 415.826 519.969C415.716 519.859 415.568 519.797 415.413 519.795C415.257 519.793 415.108 519.852 414.995 519.959C414.895 520.058 414.796 520.156 414.697 520.257C414.64 520.312 414.594 520.377 414.562 520.45C414.531 520.523 414.514 520.601 414.513 520.68C414.512 520.76 414.527 520.838 414.557 520.912C414.586 520.985 414.631 521.052 414.687 521.108C414.743 521.164 414.81 521.208 414.883 521.238C414.956 521.268 415.035 521.283 415.114 521.282C415.194 521.281 415.272 521.264 415.345 521.232C415.417 521.201 415.483 521.155 415.538 521.098V521.098Z" fill="white"/>
<path d="M368.26 535.41C367.469 535.398 367.469 536.683 368.26 536.696C369.532 536.701 370.788 537 371.938 537.572C372.648 537.926 373.271 536.82 372.555 536.462C371.215 535.785 369.748 535.426 368.26 535.41V535.41Z" fill="white"/>
<path d="M381.403 531.79C380.164 532.394 379.001 533.07 377.709 533.616C376.844 533.981 377.626 534.953 378.494 534.585C379.786 534.041 380.949 533.364 382.188 532.76C383.009 532.357 382.237 531.383 381.403 531.79Z" fill="white"/>
<path d="M387.938 529.546C387.238 529.164 386.604 530.18 387.304 530.561C388.144 531.018 389.063 531.315 389.963 531.648C390.716 531.928 391.041 530.791 390.298 530.515C389.486 530.248 388.697 529.924 387.938 529.546V529.546Z" fill="white"/>
<path d="M399.933 531.808C399.173 531.321 398.466 532.498 399.219 532.982C399.764 533.356 400.355 533.664 400.979 533.9C401.16 533.946 401.352 533.923 401.515 533.834C401.678 533.745 401.798 533.598 401.849 533.425C401.896 533.251 401.87 533.067 401.778 532.911C401.686 532.755 401.534 532.639 401.355 532.588C400.85 532.384 400.372 532.123 399.933 531.808V531.808Z" fill="white"/>
<path d="M412.808 530.285C411.047 531.204 409.156 531.843 407.395 532.77C406.67 533.148 407.313 534.222 408.038 533.844C409.799 532.924 411.692 532.285 413.453 531.358C414.176 530.98 413.533 529.907 412.808 530.285Z" fill="white"/>
<path d="M412.585 484.134C411.403 482.924 409.569 482.876 407.986 483.024C406.488 483.165 405.016 483.51 403.612 484.049C405.425 482.522 406.997 480.612 407.732 478.455C408.229 476.994 408.225 475.434 407.535 474.035C406.891 472.724 405.699 471.474 404.13 471.454C401.277 471.419 399.008 474.528 397.565 476.587C396.653 477.879 395.818 479.217 395.004 480.569C396.137 477.486 396.958 473.956 396.044 470.717C395.479 468.71 393.26 465.948 390.943 467.411C389.091 468.578 388.399 471.445 387.891 473.386C387.464 475.076 387.166 476.795 387 478.529C386.899 478.224 386.797 477.919 386.695 477.614C386.009 475.58 385.158 473.608 383.948 471.818C382.991 470.402 381.682 468.755 379.937 468.29C378.276 467.85 376.565 468.873 376.051 470.47C375.503 472.17 376.008 474.189 376.423 475.864C377.121 478.686 378.437 481.322 380.053 483.759C379.091 482.981 378.116 482.222 377.109 481.524C374.092 479.433 370.15 476.897 366.302 478.097C364.883 478.538 363.916 479.666 363.949 481.154C363.988 482.87 365.423 484.506 366.678 485.54C368.177 486.777 370.028 487.591 371.801 488.367C373.996 489.355 376.249 490.209 378.549 490.926C378.76 490.99 378.971 491.049 379.182 491.103C377.606 491.162 376.049 491.311 374.485 491.492C371.876 491.778 367.293 492.146 367.133 495.554C367.056 497.199 367.85 498.564 369.549 498.887C371.153 499.191 373.044 498.634 374.587 498.238C378.989 497.106 382.853 494.492 387.312 493.536C389.574 493.052 391.928 493.628 394.208 493.731C396.708 493.838 399.244 493.706 401.74 493.577C403.533 493.486 405.338 493.373 407.125 493.188C408.674 493.035 410.217 492.737 411.602 492.021C412.948 491.317 413.641 490.088 413.744 488.619C413.846 487.151 413.665 485.239 412.585 484.134ZM402.649 473.302C404.091 472.421 405.246 473.016 406.099 474.335C406.976 475.697 406.741 477.334 406.109 478.727C404.684 481.851 401.664 483.928 398.757 485.57C397.002 486.562 395.292 487.624 393.567 488.666C392.679 489.203 391.794 489.785 390.862 490.253L390.421 490.473C392.647 487.555 394.46 484.331 396.332 481.182C397.991 478.402 399.778 475.057 402.649 473.302ZM389.006 474.806C389.261 473.582 389.612 472.381 390.056 471.211C390.401 470.324 390.844 469.282 391.601 468.661C392.312 468.078 392.966 468.55 393.571 469.122C394.738 470.243 395.008 472.003 395.031 473.53C395.073 476.296 394.166 479.122 393.073 481.637C392.379 483.237 391.518 484.774 390.685 486.305C390.196 487.205 389.721 488.127 389.231 489.038C389.079 487.482 388.89 485.937 388.612 484.399C388.476 483.648 388.305 482.907 388.114 482.17C388.2 479.695 388.499 477.231 389.006 474.806V474.806ZM377.33 473.067C377.229 472.225 377.16 471.342 377.527 470.556C377.719 470.174 378.044 469.874 378.442 469.711C378.84 469.548 379.285 469.532 379.694 469.667C380.589 469.97 381.324 470.723 381.907 471.429C383.304 473.121 384.271 475.062 385.022 477.103C385.649 478.795 386.236 480.532 386.691 482.288C386.573 484.093 386.527 485.955 386.918 487.703C387.04 488.246 387.184 488.785 387.312 489.327C386.523 488.693 385.591 488.19 384.843 487.565C384.094 486.941 383.483 486.046 382.9 485.241C382.22 484.299 381.503 483.389 380.867 482.417C379.601 480.477 378.624 478.369 377.964 476.156C377.665 475.146 377.452 474.112 377.33 473.067V473.067ZM373.488 487.561C371.598 486.762 369.634 485.951 367.971 484.753C366.844 483.944 364.879 482.061 365.441 480.483C366.032 478.838 368.731 479.102 370.028 479.406C372.061 479.882 373.939 481.057 375.647 482.203C377.588 483.502 379.369 485.054 381.2 486.499C382.151 487.252 383.079 488.034 384.033 488.787C384.943 489.504 385.986 490.177 386.809 491.002C384.734 490.584 382.602 490.489 380.536 490.014C378.106 489.458 375.777 488.53 373.488 487.561ZM374.636 496.767C373.109 497.222 371.064 497.825 369.468 497.423C368.67 497.228 368.55 496.304 368.546 495.627C368.546 494.832 369.046 494.307 369.728 493.961C371.157 493.229 372.881 493.066 374.445 492.889C376.537 492.63 378.642 492.488 380.75 492.465C382.262 492.465 383.771 492.58 385.282 492.611C383.799 493.085 382.346 493.645 380.93 494.287C378.855 495.184 376.804 496.131 374.636 496.767ZM411.366 490.491C410.183 491.422 408.467 491.626 407.013 491.782C405.228 491.977 403.421 492.066 401.63 492.171C399.112 492.307 396.531 492.461 394.009 492.317C392.915 492.255 391.818 492.111 390.72 492.027C394.618 490.082 398.485 488.079 402.377 486.118C404.223 485.174 406.236 484.591 408.306 484.399C409.11 484.323 409.969 484.315 410.741 484.583C411.567 484.869 411.911 485.498 412.142 486.282C412.548 487.661 412.599 489.53 411.366 490.491Z" fill="#282F39"/>
<path d="M503.476 532.511C503.174 519.972 508.424 495.809 491.176 491.624C484.785 490.074 478.057 490.85 471.57 490.901C461.305 490.98 449.187 487.496 439.928 493.723C430.932 499.772 431.79 513.146 431.742 522.667C431.707 530.041 430.145 537.355 431.661 544.683C434.035 556.166 444.572 557.725 454.408 557.481C464.577 557.228 474.356 557.358 484.531 557.95C490.085 558.275 496.695 557.078 500.306 552.462C504.431 547.184 503.659 539.18 503.484 532.901C503.482 532.776 503.478 532.644 503.476 532.511Z" fill="#7FB2E0"/>
<path d="M497.37 449.455C491.303 441.132 485.756 451.89 482.901 458.62C479.292 467.129 476.967 476.822 472.547 484.651C474.461 477.461 476.823 470.607 477.478 462.929C478.234 454.019 480.119 442.23 475.502 434.642C474.18 432.47 472.051 431.413 470.06 432.332C468.128 433.226 466.632 435.503 465.778 437.972C461.666 449.919 464.398 464.671 465.616 477.129C465.813 479.151 465.867 482.52 466.63 484.241C465.876 482.541 465.101 480.86 464.344 479.157C462.142 474.159 459.268 469.978 456.902 465.164C454.469 460.203 453.434 453.43 449.914 449.58C448.29 447.803 446.328 447.034 444.286 447.78C442.287 448.509 440.71 450.495 439.746 452.96C438.834 455.28 438.451 457.86 438.2 460.445C437.957 462.952 437.855 465.475 438.368 467.937C439.418 472.95 442.567 476.309 445.622 479.018C449.21 482.201 452.983 484.935 456.769 487.641C459.647 489.701 462.443 492.236 465.601 493.431C472.458 496.004 479.682 489.275 485.309 484.696C488.604 482.017 491.8 478.934 494.476 475.149C496.907 471.707 499.047 467.421 499.735 462.649C500.406 458.045 499.87 452.887 497.37 449.455ZM466.794 448.024C466.888 446.447 467.081 444.877 467.372 443.325C467.949 440.29 469.657 434.058 472.817 436.294C475.56 438.237 475.543 444.672 475.5 448.262C475.35 460.794 472.873 471.864 469.865 483.56C469.761 483.967 469.66 484.376 469.562 484.786C469.41 483.755 469.242 482.727 469.073 481.706C468.818 480.135 468.568 478.573 468.394 476.975C468.394 476.91 468.379 476.849 468.373 476.787C467.787 471.246 467.334 465.663 467.012 460.078C466.79 456.097 466.536 452.022 466.794 448.024V448.024ZM464.675 489.17C462.693 488.23 460.766 486.635 458.905 485.425C456.484 483.857 454.078 482.238 451.747 480.413C448.184 477.633 444.134 474.27 441.905 469.395C439.889 464.992 440.436 456.446 443.261 452.809C445.169 450.351 447.6 451.399 449.139 453.874L449.326 454.196C449.91 455.322 450.421 456.485 450.856 457.678C452.541 462.024 454.022 466.469 456.258 470.358C459.734 476.394 463.322 482.491 465.635 489.561C465.308 489.447 464.987 489.316 464.675 489.168V489.17ZM497.347 459.303C497.183 470.544 489.005 477.551 482.664 482.407C480.368 484.166 478.016 485.781 475.658 487.372C475.063 487.773 474.496 488.153 473.933 488.506C475.315 486.171 476.476 483.564 477.521 480.975C478.523 478.495 479.427 475.943 480.368 473.422C481.457 470.498 482.56 467.601 483.721 464.74C484.821 462.024 486.007 459.401 487.21 456.776C488.413 454.15 490.146 450.006 492.774 450.326C494.592 450.547 496.433 453.515 496.963 455.679C497.246 456.865 497.376 458.082 497.349 459.301L497.347 459.303Z" fill="url(#paint2_radial_601_5)"/>
<path d="M504.939 507.924C504.654 506.891 503.642 506.445 502.646 506.633C498.461 507.416 494.083 505.986 489.965 505.393C487.463 505.036 484.917 504.943 482.394 504.813C479.871 504.683 477.325 504.592 474.79 504.538C472.926 504.497 471.064 504.491 469.2 504.452C469.214 504.276 469.227 504.101 469.241 503.927C469.45 501.539 469.79 499.166 470.034 496.783C470.255 494.816 470.334 492.837 470.271 490.859C470.267 490.369 470.069 489.9 469.721 489.553C469.372 489.205 468.9 489.007 468.405 489C467.421 489 466.497 489.843 466.541 490.859C466.733 495.374 465.855 499.833 465.48 504.317C463.439 504.229 461.398 504.135 459.356 504.034C454.198 503.784 449.039 503.522 443.879 503.336C439.855 503.192 435.831 503.101 431.805 503.099C429.398 503.099 429.398 506.792 431.805 506.794C442.134 506.794 452.446 507.414 462.761 507.893C463.595 507.932 464.44 507.963 465.28 507.992C465.159 511.949 465.28 515.917 465.025 519.87C464.371 529.991 463.614 540.155 463.518 550.3C463.497 552.273 463.518 554.243 463.518 556.214C463.518 558.595 467.248 558.595 467.248 556.214C467.248 551.292 467.29 546.378 467.517 541.462C467.751 536.377 468.103 531.3 468.393 526.219C468.681 521.213 468.943 516.225 468.991 511.21C468.991 510.177 469.012 509.144 469.037 508.112C472.073 508.184 475.109 508.233 478.145 508.335C482.913 508.496 487.673 508.682 492.371 509.537C496.095 510.214 499.877 510.908 503.645 510.202C504.637 510.01 505.192 508.832 504.939 507.924Z" fill="url(#paint3_radial_601_5)"/>
<path d="M447.845 496.564C447.559 496.085 446.789 495.801 446.292 496.166C445.438 496.833 444.528 497.427 443.572 497.943C442.272 498.601 443.418 500.527 444.716 499.863C445.672 499.346 446.582 498.751 447.438 498.086C447.93 497.72 448.184 497.13 447.845 496.564Z" fill="white"/>
<path d="M457.817 496.107C457.136 495.147 456.668 494.053 456.444 492.897C456.109 491.328 453.698 491.987 454.032 493.569C454.304 494.939 454.858 496.237 455.659 497.38C456.057 497.931 456.737 498.2 457.368 497.828C457.913 497.494 458.217 496.66 457.817 496.107Z" fill="white"/>
<path d="M447.502 511C445.499 511 445.499 513 447.502 513C449.505 513 449.494 511 447.502 511Z" fill="white"/>
<path d="M443.849 513.577C443.575 513.089 442.839 512.795 442.362 513.17C441.239 514.054 440.399 515.135 439.549 516.298C438.791 517.332 437.971 518.334 436.754 518.741C435.428 519.198 435.996 521.399 437.337 520.937C438.698 520.464 439.767 519.591 440.679 518.444C441.59 517.298 442.331 516.023 443.465 515.129C443.941 514.764 444.174 514.16 443.849 513.577Z" fill="white"/>
<path d="M451.852 524.29C451.222 523.349 450.492 522.503 449.865 521.562C449.536 521.072 449.015 520.814 448.505 521.156C448.08 521.44 447.819 522.217 448.15 522.71C448.779 523.651 449.509 524.497 450.137 525.438C450.465 525.928 450.986 526.186 451.496 525.844C451.919 525.56 452.18 524.783 451.852 524.29Z" fill="white"/>
<path d="M457.523 514.234C456.22 515.41 454.933 516.635 453.493 517.493C452.99 517.794 452.876 518.769 453.132 519.352C453.433 520.044 454.008 520.139 454.511 519.838C455.953 518.978 457.238 517.753 458.543 516.576C459.614 515.609 458.607 513.254 457.523 514.234Z" fill="white"/>
<path d="M459.855 535.207C459.375 534.286 458.671 533.51 458.194 532.596C457.488 531.24 455.437 532.439 456.147 533.794C456.625 534.713 457.329 535.491 457.806 536.403C458.512 537.761 460.559 536.56 459.855 535.207Z" fill="white"/>
<path d="M441.452 530.741C440.74 532.475 439.5 533.963 438.237 535.439C437.273 536.572 439.5 537.648 440.453 536.526C441.852 534.886 443.131 533.233 443.921 531.314C444.472 529.997 441.989 529.437 441.452 530.741Z" fill="white"/>
<path d="M448.239 541.695C446.577 541.227 444.968 540.577 443.322 540.052C441.997 539.632 441.433 541.893 442.748 542.315C444.394 542.839 445.998 543.49 447.665 543.958C449.007 544.334 449.573 542.069 448.239 541.695Z" fill="white"/>
<path d="M450.627 533.283C450.332 533.052 450.009 532.849 449.662 532.677C449.516 532.602 449.37 532.528 449.228 532.45L449.125 532.391C449.203 532.434 449.017 532.312 448.994 532.29C448.775 532.104 448.478 532 448.168 532C447.858 532 447.561 532.104 447.342 532.29C447.123 532.476 447 532.728 447 532.991C447 533.254 447.123 533.507 447.342 533.692C447.637 533.923 447.961 534.126 448.307 534.299C448.453 534.373 448.599 534.448 448.741 534.526C448.777 534.543 448.81 534.565 448.844 534.584C448.768 534.542 448.952 534.664 448.977 534.683C449.084 534.781 449.213 534.859 449.356 534.914C449.499 534.968 449.654 534.997 449.811 535C449.968 535.002 450.124 534.978 450.269 534.928C450.415 534.878 450.547 534.804 450.658 534.71C450.769 534.616 450.857 534.503 450.915 534.38C450.974 534.256 451.003 534.124 451 533.991C450.997 533.858 450.962 533.726 450.898 533.605C450.834 533.483 450.742 533.374 450.627 533.283V533.283Z" fill="white"/>
<path d="M455.84 547.213C455.817 548.232 455.506 549.185 455.121 550.092C454.511 551.539 456.373 552.812 456.987 551.358C457.544 550.045 457.965 548.692 458 547.213C458.034 545.595 455.875 545.597 455.84 547.213Z" fill="white"/>
<path d="M443.08 549.688C441.962 549.27 440.861 548.833 439.88 548.171C439.326 547.797 438.49 548.081 438.17 548.589C437.802 549.178 438.068 549.813 438.617 550.185C439.768 550.967 441.102 551.439 442.416 551.938C443.051 552.177 443.788 551.686 443.953 551.123C444.148 550.459 443.71 549.926 443.08 549.688Z" fill="white"/>
<path d="M479.885 496.745C479.631 495.977 479.116 495.822 478.685 496.192C478.111 496.67 477.483 496.915 476.848 496.908C475.717 496.933 475.717 500.025 476.848 500C477.793 499.987 478.724 499.599 479.571 498.863C480.001 498.493 480.112 497.428 479.885 496.745Z" fill="white"/>
<path d="M453.821 499H450.174C448.609 499 448.609 502 450.174 502H453.821C455.393 502 455.393 499 453.821 499Z" fill="white"/>
<path d="M491.66 495.316C491.233 494.93 490.379 494.861 489.972 495.316C488.789 496.62 487.818 498.088 486.393 499.197C485.225 500.108 486.922 501.626 488.081 500.723C489.509 499.61 490.475 498.148 491.66 496.84C492.072 496.387 492.153 495.762 491.66 495.316Z" fill="white"/>
<path d="M497.233 500.718C496.288 500.321 495.3 500.233 494.316 500.026C493.757 499.909 493.198 500.189 493.034 500.831C492.892 501.401 493.204 502.133 493.761 502.251C494.747 502.457 495.734 502.546 496.679 502.942C497.21 503.167 497.82 502.701 497.961 502.137C498.122 501.487 497.764 500.94 497.233 500.718Z" fill="white"/>
<path d="M473 514.27V518.73C473 520.423 475 520.423 475 518.73V514.27C475 512.577 473 512.577 473 514.27Z" fill="white"/>
<path d="M486.584 517.069C484.548 517.761 482.825 519.078 480.795 519.765C479.395 520.24 479.997 522.411 481.416 521.931C483.455 521.242 485.178 519.922 487.216 519.235C488.602 518.757 487.999 516.587 486.584 517.069Z" fill="white"/>
<path d="M496.952 518.519C496.62 517.297 495.868 516.252 495.006 515.359C493.943 514.254 492.275 515.95 493.344 517.051C493.926 517.654 494.462 518.335 494.687 519.157C495.09 520.634 497.357 520.009 496.952 518.519Z" fill="white"/>
<path d="M481.304 511.568C481.127 511.52 480.956 511.465 480.793 511.405C480.671 511.347 480.553 511.288 480.438 511.226C480.17 511.081 479.807 511 479.428 511C479.049 511 478.686 511.081 478.418 511.226C478.15 511.37 478 511.567 478 511.771C478 511.975 478.15 512.172 478.418 512.316C478.837 512.549 479.321 512.746 479.851 512.899C480.179 512.999 480.566 513.026 480.931 512.974C481.295 512.923 481.608 512.797 481.804 512.624C481.995 512.447 482.049 512.238 481.955 512.04C481.861 511.843 481.627 511.673 481.304 511.568V511.568Z" fill="white"/>
<path d="M472 530.229V532.771C472 534.41 475 534.41 475 532.771V530.229C475 528.59 472 528.59 472 530.229Z" fill="white"/>
<path d="M488.4 530.862C486.256 529.761 483.743 529.109 482.056 527.365C480.995 526.266 479.274 527.897 480.331 528.992C482.18 530.909 484.822 531.645 487.169 532.851C488.542 533.556 489.774 531.571 488.4 530.862Z" fill="white"/>
<path d="M492.498 522.131C491.988 521.846 491.458 522.058 491.131 522.47C490.646 523.087 490.141 523.744 489.495 524.217C489.065 524.533 488.835 525.027 489.138 525.516C489.386 525.92 490.07 526.175 490.501 525.856C491.442 525.165 492.147 524.328 492.855 523.426C493.174 523.019 492.926 522.374 492.498 522.131Z" fill="white"/>
<path d="M502.275 530.763C501.758 529.415 499.557 530.001 500.08 531.369C500.507 532.5 500.724 533.699 500.721 534.907C500.74 536.363 503.016 536.365 503 534.907C503.008 533.494 502.762 532.091 502.275 530.763V530.763Z" fill="white"/>
<path d="M492.868 538.759C492.796 538.201 492.224 537.895 491.813 538.033C491.324 538.197 491.143 538.754 491.213 539.315C491.371 540.45 491.313 541.614 491.043 542.718C490.714 544.003 492.368 544.549 492.696 543.277C493.073 541.798 493.061 540.272 492.868 538.759Z" fill="white"/>
<path d="M483.845 540H477.157C475.614 540 475.614 543 477.157 543H483.845C485.385 543 485.385 540 483.845 540Z" fill="white"/>
<path d="M475.787 550.581C475.212 549.926 474.925 549.164 474.457 548.47C474.141 548 473.228 547.876 472.639 548.127C471.981 548.407 471.848 548.97 472.164 549.44C472.639 550.127 472.917 550.896 473.492 551.552C474.404 552.593 476.707 551.631 475.787 550.581Z" fill="white"/>
<path d="M487.966 550.576C486.376 550.562 484.85 550.322 483.329 550.031C481.989 549.777 481.434 551.154 482.754 551.404C484.456 551.725 486.186 551.985 487.962 552C489.346 552.011 489.344 550.588 487.966 550.576Z" fill="white"/>
<path d="M499.24 544.034C498.731 543.889 498.028 544.213 497.937 544.811C497.751 546.065 497.177 547.219 496.303 548.096C495.356 549.119 496.844 550.691 497.802 549.668C498.924 548.466 499.726 547.085 499.981 545.401C500.07 544.805 499.843 544.209 499.24 544.034Z" fill="white"/>
<path d="M499 522C497.667 522 497.667 524 499 524C500.333 524 500.333 522 499 522Z" fill="white"/>
<path d="M501.501 513C499.5 513 499.5 515 501.501 515C503.501 515 503.498 513 501.501 513Z" fill="white"/>
<path d="M460 499C458.667 499 458.667 502 460 502C461.333 502 461.333 499 460 499Z" fill="white"/>
<g clip-path="url(#clip0_601_5)">
<path d="M143.1 195.8C142.9 195.8 142.7 195.7 142.6 195.5L133.6 179.8C133.4 179.6 133.5 179.3 133.8 179.1C134 179 134.3 179.1 134.5 179.3L143.5 195C143.6 195.3 143.6 195.6 143.3 195.7C143.3 195.7 143.2 195.8 143.1 195.8Z" fill="white"/>
<path d="M147.6 187.9H129.5C129.2 187.9 129 187.7 129 187.4C129 187.1 129.2 186.9 129.5 186.9H147.6C147.9 186.9 148.1 187.1 148.1 187.4C148.1 187.7 147.9 187.9 147.6 187.9Z" fill="white"/>
<path d="M134 195.7C133.9 195.7 133.8 195.7 133.7 195.6C133.4 195.5 133.4 195.1 133.5 194.9L142.5 179.2C142.6 178.9 143 178.9 143.2 179C143.5 179.1 143.5 179.5 143.4 179.7L134.4 195.4C134.4 195.6 134.2 195.7 134 195.7Z" fill="white"/>
<path d="M144.8 191.4C144.7 191.4 144.7 191.4 144.6 191.3L132.2 184.2C132 184.1 131.9 183.8 132 183.6C132.1 183.4 132.4 183.3 132.6 183.4L145 190.6C145.2 190.7 145.3 191 145.2 191.2C145.1 191.3 144.9 191.4 144.8 191.4Z" fill="white"/>
<path d="M132.4 191.4C132.3 191.4 132.1 191.3 132 191.2C131.9 191 132 190.7 132.2 190.6L144.6 183.4C144.8 183.3 145.1 183.4 145.2 183.6C145.3 183.8 145.2 184.1 145 184.2L132.6 191.3C132.5 191.4 132.4 191.4 132.4 191.4Z" fill="white"/>
<path d="M138.6 194.9C138.4 194.9 138.2 194.7 138.2 194.5V180.2C138.2 180 138.4 179.8 138.6 179.8C138.8 179.8 139 180 139 180.2V194.5C139 194.8 138.8 194.9 138.6 194.9Z" fill="white"/>
</g>
<g clip-path="url(#clip1_601_5)">
<path d="M89.8996 389C85.9996 389 85.9996 395 89.8996 395C93.7996 395 93.7996 389 89.8996 389Z" fill="white"/>
</g>
<g clip-path="url(#clip2_601_5)">
<path d="M14.1001 325.8C13.9001 325.8 13.7001 325.7 13.6001 325.5L4.60015 309.8C4.40015 309.6 4.50015 309.3 4.80015 309.1C5.00015 309 5.30015 309.1 5.50015 309.3L14.5001 325C14.6001 325.3 14.6001 325.6 14.3001 325.7C14.3001 325.7 14.2001 325.8 14.1001 325.8Z" fill="white"/>
<path d="M18.6 317.9H0.5C0.2 317.9 0 317.7 0 317.4C0 317.1 0.2 316.9 0.5 316.9H18.6C18.9 316.9 19.1 317.1 19.1 317.4C19.1 317.7 18.9 317.9 18.6 317.9Z" fill="white"/>
<path d="M5.00024 325.7C4.90024 325.7 4.80024 325.7 4.70024 325.6C4.40024 325.5 4.40024 325.1 4.50024 324.9L13.5002 309.2C13.6002 308.9 14.0002 308.9 14.2002 309C14.5002 309.1 14.5002 309.5 14.4002 309.7L5.40024 325.4C5.40024 325.6 5.20024 325.7 5.00024 325.7Z" fill="white"/>
<path d="M15.8002 321.4C15.7002 321.4 15.7002 321.4 15.6002 321.3L3.20017 314.2C3.00017 314.1 2.90017 313.8 3.00017 313.6C3.10017 313.4 3.40017 313.3 3.60017 313.4L16.0002 320.6C16.2002 320.7 16.3002 321 16.2002 321.2C16.1002 321.3 15.9002 321.4 15.8002 321.4Z" fill="white"/>
<path d="M3.40017 321.4C3.30017 321.4 3.10017 321.3 3.00017 321.2C2.90017 321 3.00017 320.7 3.20017 320.6L15.6002 313.4C15.8002 313.3 16.1002 313.4 16.2002 313.6C16.3002 313.8 16.2002 314.1 16.0002 314.2L3.60017 321.3C3.50017 321.4 3.40017 321.4 3.40017 321.4Z" fill="white"/>
<path d="M9.6002 324.9C9.4002 324.9 9.2002 324.7 9.2002 324.5V310.2C9.2002 310 9.4002 309.8 9.6002 309.8C9.8002 309.8 10.0002 310 10.0002 310.2V324.5C10.0002 324.8 9.8002 324.9 9.6002 324.9Z" fill="white"/>
</g>
<g clip-path="url(#clip3_601_5)">
<path d="M183.869 324.114C182.915 322.881 180.72 322.589 179.225 322.273C177.03 321.981 174.905 321.36 172.711 321.069C172.927 319.223 172.68 317.108 172.564 315.192C172.475 313.969 172.463 311.56 171.64 310.526C171.377 310.127 170.747 309.822 170.346 310.081C169.009 310.658 168.46 312.434 167.718 313.48C166.602 315.48 165.45 317.644 164.334 319.643C162.174 319.187 159.979 318.895 157.785 318.603C156.455 318.322 154.129 317.831 152.924 318.608C149.072 321.233 158.144 326.76 159.666 327.77L159.833 327.805C158.017 329.828 156.63 332.286 155.111 334.544C154.134 335.885 153.322 337.261 154.041 338.789C155.285 341.115 162.781 336.852 165.961 334.945C168.264 338.011 173.665 344.482 175.744 342.858C177.019 341.752 176.668 340.13 176.316 338.508C175.674 335.794 175.199 333.114 174.191 330.494L174.357 330.529C176.061 329.857 186.365 327.908 183.869 324.114ZM173.553 323.654C173.387 323.619 173.221 323.584 173.054 323.548C172.39 323.408 171.988 323.667 171.752 323.961C171.621 323.761 171.524 323.397 171.393 323.197C171.559 323.233 171.559 323.233 171.76 323.103C172.757 323.314 173.955 323.395 174.952 323.605C174.418 323.665 174.086 323.594 173.553 323.654ZM163.383 321.677L163.217 321.642C163.051 321.607 162.885 321.572 162.684 321.702C162.186 321.596 161.853 321.526 161.39 321.256C162.054 321.397 162.719 321.537 163.383 321.677Z" fill="#4782AC"/>
<path d="M181.547 319.497C180.593 318.263 178.398 317.972 176.903 317.656C174.708 317.364 172.583 316.743 170.388 316.452C170.605 314.606 170.357 312.491 170.241 310.575C170.152 309.352 170.141 306.943 169.318 305.909C169.055 305.51 168.591 305.24 168.023 305.464C166.687 306.041 166.138 307.817 165.361 309.028C164.279 310.863 163.128 313.027 162.012 315.026C159.852 314.57 157.657 314.278 155.462 313.986C154.133 313.705 151.807 313.214 150.602 313.991C146.75 316.616 155.822 322.143 157.344 323.153L157.51 323.188C155.694 325.211 154.307 327.669 152.789 329.927C151.811 331.268 151 332.644 151.719 334.172C152.963 336.498 160.459 332.235 163.639 330.328C165.941 333.394 171.343 339.865 173.422 338.241C174.697 337.135 174.345 335.513 173.994 333.891C173.352 331.177 172.877 328.497 171.868 325.877L172.034 325.912C173.738 325.24 184.043 323.291 181.547 319.497ZM171.231 319.037C171.065 319.002 170.898 318.966 170.732 318.931C170.068 318.791 169.666 319.05 169.43 319.344C169.299 319.144 169.202 318.78 169.071 318.58C169.237 318.616 169.237 318.616 169.438 318.486C170.435 318.697 171.632 318.778 172.629 318.988C172.096 319.048 171.764 318.977 171.231 319.037ZM161.061 317.06L160.895 317.025C160.729 316.99 160.563 316.955 160.362 317.084C159.863 316.979 159.531 316.909 159.067 316.639C159.732 316.779 160.397 316.92 161.061 317.06Z" fill="white"/>
</g>
<defs>
<radialGradient id="paint0_radial_601_5" cx="0" cy="0" r="1" gradientUnits="userSpaceOnUse" gradientTransform="translate(552.176 434.62) scale(51.3614)">
<stop offset="0.57" stop-color="#130C0E"/>
<stop offset="0.8" stop-color="#130C0E"/>
<stop offset="1" stop-color="#130C0E"/>
</radialGradient>
<radialGradient id="paint1_radial_601_5" cx="0" cy="0" r="1" gradientUnits="userSpaceOnUse" gradientTransform="translate(268.176 438.62) scale(51.3614)">
<stop offset="0.57" stop-color="#130C0E"/>
<stop offset="0.8" stop-color="#130C0E"/>
<stop offset="1" stop-color="#130C0E"/>
</radialGradient>
<radialGradient id="paint2_radial_601_5" cx="0" cy="0" r="1" gradientUnits="userSpaceOnUse" gradientTransform="translate(238430 220414) scale(9226.22)">
<stop offset="0.57" stop-color="#130C0E"/>
<stop offset="0.8" stop-color="#130C0E"/>
<stop offset="1" stop-color="#130C0E"/>
</radialGradient>
<radialGradient id="paint3_radial_601_5" cx="0" cy="0" r="1" gradientUnits="userSpaceOnUse" gradientTransform="translate(287905 265637) scale(13016.3 11975)">
<stop offset="0.57" stop-color="#130C0E"/>
<stop offset="0.8" stop-color="#130C0E"/>
<stop offset="1" stop-color="#130C0E"/>
</radialGradient>
<clipPath id="clip0_601_5">
<rect width="19.1" height="16.8" fill="white" transform="translate(129 179)"/>
</clipPath>
<clipPath id="clip1_601_5">
<rect width="5.8" height="6" fill="white" transform="translate(87 389)"/>
</clipPath>
<clipPath id="clip2_601_5">
<rect width="19.1" height="16.8" fill="white" transform="translate(0 309)"/>
</clipPath>
<clipPath id="clip3_601_5">
<rect width="36" height="36" fill="white" transform="translate(152.44 302) rotate(11.9286)"/>
</clipPath>
</defs>
</svg>
