<svg width="192" height="347" viewBox="0 0 192 347" fill="none" xmlns="http://www.w3.org/2000/svg">
<g clip-path="url(#clip0_601_2)">
<path d="M186.1 279.8C185.9 279.8 185.7 279.7 185.6 279.5L176.6 263.8C176.4 263.6 176.5 263.3 176.8 263.1C177 263 177.3 263.1 177.5 263.3L186.5 279C186.6 279.3 186.6 279.6 186.3 279.7C186.3 279.7 186.2 279.8 186.1 279.8Z" fill="white"/>
<path d="M190.6 271.9H172.5C172.2 271.9 172 271.7 172 271.4C172 271.1 172.2 270.9 172.5 270.9H190.6C190.9 270.9 191.1 271.1 191.1 271.4C191.1 271.7 190.9 271.9 190.6 271.9Z" fill="white"/>
<path d="M177 279.7C176.9 279.7 176.8 279.7 176.7 279.6C176.4 279.5 176.4 279.1 176.5 278.9L185.5 263.2C185.6 262.9 186 262.9 186.2 263C186.5 263.1 186.5 263.5 186.4 263.7L177.4 279.4C177.4 279.6 177.2 279.7 177 279.7Z" fill="white"/>
<path d="M187.8 275.4C187.7 275.4 187.7 275.4 187.6 275.3L175.2 268.2C175 268.1 174.9 267.8 175 267.6C175.1 267.4 175.4 267.3 175.6 267.4L188 274.6C188.2 274.7 188.3 275 188.2 275.2C188.1 275.3 187.9 275.4 187.8 275.4Z" fill="white"/>
<path d="M175.4 275.4C175.3 275.4 175.1 275.3 175 275.2C174.9 275 175 274.7 175.2 274.6L187.6 267.4C187.8 267.3 188.1 267.4 188.2 267.6C188.3 267.8 188.2 268.1 188 268.2L175.6 275.3C175.5 275.4 175.4 275.4 175.4 275.4Z" fill="white"/>
<path d="M181.6 278.9C181.4 278.9 181.2 278.7 181.2 278.5V264.2C181.2 264 181.4 263.8 181.6 263.8C181.8 263.8 182 264 182 264.2V278.5C182 278.8 181.8 278.9 181.6 278.9Z" fill="white"/>
</g>
<g clip-path="url(#clip1_601_2)">
<path d="M98.1001 183.8C97.9001 183.8 97.7001 183.7 97.6001 183.5L88.6001 167.8C88.4001 167.6 88.5001 167.3 88.8001 167.1C89.0001 167 89.3001 167.1 89.5001 167.3L98.5001 183C98.6001 183.3 98.6001 183.6 98.3001 183.7C98.3001 183.7 98.2001 183.8 98.1001 183.8Z" fill="white"/>
<path d="M102.6 175.9H84.5C84.2 175.9 84 175.7 84 175.4C84 175.1 84.2 174.9 84.5 174.9H102.6C102.9 174.9 103.1 175.1 103.1 175.4C103.1 175.7 102.9 175.9 102.6 175.9Z" fill="white"/>
<path d="M89.0002 183.7C88.9002 183.7 88.8002 183.7 88.7002 183.6C88.4002 183.5 88.4002 183.1 88.5002 182.9L97.5002 167.2C97.6002 166.9 98.0002 166.9 98.2002 167C98.5002 167.1 98.5002 167.5 98.4002 167.7L89.4002 183.4C89.4002 183.6 89.2002 183.7 89.0002 183.7Z" fill="white"/>
<path d="M99.8002 179.4C99.7002 179.4 99.7002 179.4 99.6002 179.3L87.2002 172.2C87.0002 172.1 86.9002 171.8 87.0002 171.6C87.1002 171.4 87.4002 171.3 87.6002 171.4L100 178.6C100.2 178.7 100.3 179 100.2 179.2C100.1 179.3 99.9002 179.4 99.8002 179.4Z" fill="white"/>
<path d="M87.4002 179.4C87.3002 179.4 87.1002 179.3 87.0002 179.2C86.9002 179 87.0002 178.7 87.2002 178.6L99.6002 171.4C99.8002 171.3 100.1 171.4 100.2 171.6C100.3 171.8 100.2 172.1 100 172.2L87.6002 179.3C87.5002 179.4 87.4002 179.4 87.4002 179.4Z" fill="white"/>
<path d="M93.6002 182.9C93.4002 182.9 93.2002 182.7 93.2002 182.5V168.2C93.2002 168 93.4002 167.8 93.6002 167.8C93.8002 167.8 94.0002 168 94.0002 168.2V182.5C94.0002 182.8 93.8002 182.9 93.6002 182.9Z" fill="white"/>
</g>
<g clip-path="url(#clip2_601_2)">
<path d="M152.87 22.1138C151.916 20.8805 149.721 20.5888 148.226 20.273C146.031 19.9813 143.906 19.3604 141.712 19.0687C141.928 17.2231 141.681 15.1076 141.565 13.1918C141.476 11.9695 141.464 9.55988 140.641 8.52633C140.378 8.12694 139.748 7.82196 139.347 8.08094C138.01 8.65821 137.461 10.4336 136.719 11.4805C135.603 13.4798 134.451 15.6437 133.335 17.643C131.175 17.1867 128.98 16.895 126.786 16.6033C125.456 16.3225 123.13 15.8311 121.925 16.6081C118.073 19.233 127.145 24.7603 128.667 25.7696L128.834 25.8047C127.018 27.8282 125.631 30.2862 124.112 32.5445C123.135 33.8854 122.323 35.2614 123.042 36.7888C124.286 39.1149 131.782 34.8525 134.962 32.9452C137.265 36.0107 142.666 42.4819 144.745 40.8578C146.02 39.7517 145.668 38.13 145.317 36.5082C144.675 33.7937 144.2 31.1142 143.192 28.494L143.358 28.5291C145.062 27.8575 155.366 25.9079 152.87 22.1138ZM142.554 21.6538C142.388 21.6187 142.222 21.5836 142.055 21.5485C141.391 21.4081 140.989 21.6671 140.753 21.9612C140.622 21.7615 140.525 21.3972 140.394 21.1975C140.56 21.2326 140.56 21.2326 140.761 21.1031C141.758 21.3137 142.956 21.3948 143.953 21.6054C143.419 21.6647 143.087 21.5945 142.554 21.6538ZM132.384 19.6773L132.218 19.6422C132.052 19.6072 131.886 19.5721 131.685 19.7015C131.187 19.5962 130.854 19.5261 130.391 19.2562C131.055 19.3966 131.72 19.537 132.384 19.6773Z" fill="#4782AC"/>
<path d="M150.548 17.4967C149.594 16.2635 147.399 15.9718 145.904 15.6559C143.709 15.3642 141.584 14.7433 139.389 14.4516C139.606 12.606 139.358 10.4905 139.242 8.57471C139.153 7.35237 139.142 4.94279 138.319 3.90924C138.056 3.50986 137.592 3.23998 137.024 3.46386C135.688 4.04113 135.139 5.81654 134.362 7.02798C133.28 8.86268 132.129 11.0266 131.013 13.0259C128.853 12.5696 126.658 12.2779 124.463 11.9862C123.134 11.7054 120.808 11.214 119.603 11.991C115.751 14.616 124.823 20.1432 126.345 21.1525L126.511 21.1876C124.695 23.2111 123.308 25.6691 121.79 27.9274C120.812 29.2683 120.001 30.6444 120.72 32.1717C121.964 34.4978 129.46 30.2354 132.64 28.3281C134.942 31.3937 140.344 37.8648 142.423 36.2407C143.698 35.1346 143.346 33.5129 142.995 31.8912C142.353 29.1766 141.878 26.4971 140.869 23.877L141.035 23.912C142.739 23.2404 153.044 21.2908 150.548 17.4967ZM140.232 17.0367C140.065 17.0016 139.899 16.9665 139.733 16.9314C139.069 16.791 138.667 17.05 138.431 17.3441C138.3 17.1444 138.203 16.7801 138.072 16.5804C138.238 16.6155 138.238 16.6155 138.439 16.486C139.436 16.6966 140.633 16.7777 141.63 16.9883C141.097 17.0476 140.765 16.9774 140.232 17.0367ZM130.062 15.0603L129.896 15.0252C129.73 14.9901 129.564 14.955 129.363 15.0845C128.864 14.9792 128.532 14.909 128.068 14.6391C128.733 14.7795 129.397 14.9199 130.062 15.0603Z" fill="white"/>
</g>
<g clip-path="url(#clip3_601_2)">
<path d="M25.3002 305.7C26.1002 306.8 26.9002 308 27.6002 309.3C27.8002 309.7 28.1002 310.1 28.3002 310.5C28.7002 311.2 29.2002 312 29.6002 312.8C30.3002 314 31.0002 315.2 31.7002 316.5C32.3002 317.6 33.0002 318.8 33.7002 320.1C34.4002 321.3 35.1002 322.6 35.8002 323.8C36.5002 325 37.1002 326.2 37.8002 327.4C38.5002 328.7 39.2002 330 39.9002 331.2C40.6002 332.5 41.3002 333.7 41.9002 334.8C42.7002 336.3 43.4002 337.6 44.0002 338.6C44.7002 339.8 45.0002 340.5 45.1002 340.6C46.1002 342.4 45.5002 344.6 43.9002 345.8C43.8002 345.9 43.7002 345.9 43.5002 346C41.6002 347.1 39.1002 346.3 38.1002 344.4C38.1002 344.4 38.0002 344.3 37.9002 344C37.6002 343.4 36.8002 342.1 35.8002 340.2C35.2002 339.1 34.6002 337.9 33.8002 336.6C33.2002 335.4 32.5002 334.2 31.7002 332.8C31.1002 331.6 30.4002 330.4 29.7002 329.2C29.0002 328 28.3002 326.7 27.6002 325.4C26.9002 324.2 26.3002 323 25.6002 321.9C24.9002 320.6 24.2002 319.3 23.5002 318.2C22.8002 316.9 22.1002 315.7 21.5002 314.7C21.5002 314.6 21.4002 314.5 21.4002 314.5C20.8002 313.4 20.1002 312.3 19.3002 311.1C18.9002 310.6 18.6002 310 18.2002 309.5C17.1002 308.1 16.0002 307 14.9002 306.4C14.6002 306.3 14.4002 306.1 14.1002 306.1C14.0002 306 13.9002 306 13.8002 306C13.2002 305.9 11.9002 306 9.8002 307.2C9.6002 307.3 9.5002 307.4 9.3002 307.4C9.2002 307.5 9.1002 307.6 9.0002 307.7C8.5002 308.1 8.2002 308.6 8.1002 309.2C7.9002 310.3 8.1002 311.7 8.5002 313.2C8.6002 313.5 8.7002 313.8 8.8002 314.1C9.4002 315.7 10.2002 317.3 10.9002 318.5C11.1002 318.9 11.3002 319.2 11.5002 319.5C12.2002 320.6 12.4002 321.9 11.9002 323.1C11.6002 323.8 11.1002 324.5 10.4002 325C8.60019 326.2 6.1002 325.8 4.9002 323.9C4.8002 323.7 4.4002 323.1 3.9002 322.3C3.2002 321.2 2.4002 319.5 1.7002 317.6C1.2002 316.3 0.700195 314.8 0.500195 313.3C0.100195 311.4 0.100195 309.5 0.500195 307.6C0.700195 306.9 0.900195 306.2 1.2002 305.5C1.5002 304.1 2.3002 303 3.4002 302C3.9002 301.5 4.5002 301.1 5.2002 300.7C6.1002 300.2 7.0002 299.7 7.8002 299.3C9.2002 298.7 10.5002 298.3 11.8002 298.1C13.3002 297.9 14.7002 298 16.1002 298.3C16.7002 298.5 17.3002 298.7 17.9002 298.9C19.2002 299.5 20.4002 300.3 21.5002 301.3C22.9002 302.6 24.1002 304.1 25.3002 305.7Z" fill="white"/>
<path d="M8.6998 314.1C9.2998 315.7 10.0998 317.3 10.7998 318.5L1.4998 317.6C0.999805 316.3 0.499805 314.8 0.299805 313.3L8.6998 314.1Z" fill="#DE6C92"/>
<path d="M11.7998 323C11.4998 323.7 10.9998 324.4 10.2998 324.9C8.4998 326.1 5.9998 325.7 4.7998 323.8C4.6998 323.6 4.2998 323 3.7998 322.2L11.7998 323Z" fill="#DE6C92"/>
<path d="M8.99941 307.7C8.49941 308.1 8.19941 308.6 8.09941 309.2C7.89941 310.3 8.09941 311.7 8.49941 313.2L0.899414 305.5C1.49941 304.1 2.29941 303 3.39941 302L8.99941 307.7Z" fill="#DE6C92"/>
<path d="M11.7998 298.1L13.7998 306C13.1998 305.9 11.8998 306 9.7998 307.2L7.7998 299.3C9.0998 298.7 10.4998 298.3 11.7998 298.1Z" fill="#DE6C92"/>
<path d="M21.4994 301.3L18.1994 309.4C17.0994 308.1 15.9994 307 14.8994 306.4L17.8994 299C19.1994 299.6 20.3994 300.4 21.4994 301.3Z" fill="#DE6C92"/>
<path d="M25.2998 305.7C26.0998 306.8 26.8998 308 27.5998 309.3L21.4998 314.7C21.4998 314.6 21.3998 314.5 21.3998 314.5C20.7998 313.4 20.0998 312.3 19.2998 311.1L25.2998 305.7Z" fill="#DE6C92"/>
<path d="M29.6 312.8C30.3 314 31 315.2 31.7 316.5L25.6 321.9C24.9 320.6 24.2 319.3 23.5 318.2L29.6 312.8Z" fill="#DE6C92"/>
<path d="M33.6996 320.1C34.3996 321.3 35.0996 322.6 35.7996 323.8L29.6996 329.2C28.9996 328 28.2996 326.7 27.5996 325.4L33.6996 320.1Z" fill="#DE6C92"/>
<path d="M37.6996 327.4C38.3996 328.7 39.0996 330 39.7996 331.2L33.6996 336.6C33.0996 335.4 32.3996 334.2 31.5996 332.8L37.6996 327.4Z" fill="#DE6C92"/>
<path d="M41.8002 334.7C42.6002 336.2 43.3002 337.5 43.9002 338.5L37.8002 343.9C37.5002 343.3 36.7002 342 35.7002 340.1L41.8002 334.7Z" fill="#DE6C92"/>
</g>
<defs>
<clipPath id="clip0_601_2">
<rect width="19.1" height="16.8" fill="white" transform="translate(172 263)"/>
</clipPath>
<clipPath id="clip1_601_2">
<rect width="19.1" height="16.8" fill="white" transform="translate(84 167)"/>
</clipPath>
<clipPath id="clip2_601_2">
<rect width="36" height="36" fill="white" transform="translate(121.441) rotate(11.9286)"/>
</clipPath>
<clipPath id="clip3_601_2">
<rect width="45.4" height="48.4" fill="white" transform="translate(0 298)"/>
</clipPath>
</defs>
</svg>
