<svg width="325" height="186" viewBox="0 0 325 186" fill="none" xmlns="http://www.w3.org/2000/svg">
<path d="M2.67625 151.437V135.837L30.5163 106.437C33.3163 103.397 35.3563 100.957 36.6363 99.1173C37.9163 97.1973 38.5563 95.3173 38.5563 93.4773C38.5563 91.3973 37.8763 89.7173 36.5163 88.4373C35.2363 87.1573 33.4363 86.5173 31.1163 86.5173C26.1563 86.5173 22.3963 89.4373 19.8363 95.2773L1.35625 84.9573C4.07625 78.6373 8.07625 73.8373 13.3563 70.5573C18.6363 67.2773 24.4763 65.6373 30.8763 65.6373C38.8763 65.6373 45.7163 68.0373 51.3963 72.8373C57.1563 77.5573 60.0363 84.0373 60.0363 92.2773C60.0363 97.1573 58.8763 101.677 56.5563 105.837C54.3163 109.917 50.9963 114.237 46.5963 118.797L35.1963 130.677H61.4763V151.437H2.67625Z" fill="white"/>
<path d="M189.676 151.437V135.837L217.516 106.437C220.316 103.397 222.356 100.957 223.636 99.1172C224.916 97.1972 225.556 95.3172 225.556 93.4772C225.556 91.3972 224.876 89.7172 223.516 88.4372C222.236 87.1572 220.436 86.5172 218.116 86.5172C213.156 86.5172 209.396 89.4372 206.836 95.2772L188.356 84.9572C191.076 78.6372 195.076 73.8372 200.356 70.5572C205.636 67.2772 211.476 65.6372 217.876 65.6372C225.876 65.6372 232.716 68.0372 238.396 72.8372C244.156 77.5572 247.036 84.0372 247.036 92.2772C247.036 97.1572 245.876 101.677 243.556 105.837C241.316 109.917 237.996 114.237 233.596 118.797L222.196 130.677H248.476V151.437H189.676Z" fill="white"/>
<path d="M262.676 151.437V135.837L290.516 106.437C293.316 103.397 295.356 100.957 296.636 99.1173C297.916 97.1973 298.556 95.3173 298.556 93.4773C298.556 91.3973 297.876 89.7173 296.516 88.4373C295.236 87.1573 293.436 86.5173 291.116 86.5173C286.156 86.5173 282.396 89.4373 279.836 95.2773L261.356 84.9573C264.076 78.6373 268.076 73.8373 273.356 70.5573C278.636 67.2773 284.476 65.6373 290.876 65.6373C298.876 65.6373 305.716 68.0373 311.396 72.8373C317.156 77.5573 320.036 84.0373 320.036 92.2773C320.036 97.1573 318.876 101.677 316.556 105.837C314.316 109.917 310.996 114.237 306.596 118.797L295.196 130.677H321.476V151.437H262.676Z" fill="white"/>
<path d="M176.59 141.578C176.651 138.867 187.054 97.7898 192.741 71.7038C175.381 59.9051 157.362 54.6722 140.33 53.3132L147.698 144.351L107.289 144.451L111.293 54.4319C86.6114 58.1462 66.9862 67.7491 59.249 71.9857C66.0479 99.0286 78.9863 142.328 79.1841 145.874C79.428 150.213 78.0458 154.515 78.7292 158.848C79.3379 162.715 81.3662 166.451 83.7658 169.506C85.8467 172.145 88.5056 174.389 91.281 176.264C97.5788 180.509 104.758 182.675 112.168 184.064C119.205 185.361 126.382 185.741 133.518 185.196C141.888 184.576 150.196 182.231 157.973 179.159C164.649 176.524 172.443 172.08 176.297 165.746C177.754 163.342 178.359 160.668 178.495 157.924C178.532 157.233 178.541 156.541 178.528 155.844C178.447 153.587 178.227 151.337 177.869 149.107C177.539 146.717 176.539 143.971 176.59 141.578Z" fill="#4782AC"/>
<path d="M101.637 85.3186C96.6725 81.3338 89.593 80.6988 83.5273 81.3499C81.3864 81.5842 79.2653 81.9803 77.1813 82.5347C72.6321 83.7472 67.0038 85.9352 64.5273 90.3802C62.0508 94.8252 67.3695 97.632 70.6962 98.2417C76.874 99.376 82.4438 96.6312 88.4646 96.0307C91.1026 95.7661 93.7653 96.1457 96.4078 95.9732C98.7699 95.819 101.691 95.658 103.393 93.7208C105.764 91.0266 104.008 87.2167 101.637 85.3186Z" fill="white"/>
<path d="M81.3042 90.3166C81.3208 91.2333 81.0648 92.1343 80.5686 92.9058C80.0724 93.6772 79.3582 94.2845 78.5164 94.6507C77.6746 95.0169 76.7429 95.1256 75.8391 94.9632C74.9354 94.8008 74.1002 94.3745 73.4391 93.7381C72.778 93.1018 72.3208 92.2841 72.1251 91.3883C71.9295 90.4925 72.0043 89.5589 72.3401 88.7055C72.6758 87.8522 73.2575 87.1174 74.0115 86.594C74.7655 86.0707 75.6579 85.7824 76.5761 85.7655C77.8074 85.7434 78.9971 86.2104 79.8837 87.0638C80.7703 87.9172 81.2812 89.0872 81.3042 90.3166Z" fill="url(#paint0_radial_511_174)"/>
<path d="M150.086 84.5196C154.762 80.5169 161.605 79.6572 167.502 80.0594C169.587 80.2061 171.658 80.5097 173.698 80.9678C178.152 81.9668 183.686 83.8675 186.242 88.0403C188.798 92.2132 183.736 95.1129 180.53 95.8113C174.58 97.1219 169.081 94.6885 163.22 94.3283C160.653 94.1691 158.082 94.6289 155.516 94.5493C153.219 94.4874 150.382 94.4366 148.665 92.6375C146.274 90.1444 147.855 86.4291 150.086 84.5196Z" fill="white"/>
<path d="M154.437 88.1659C154.454 89.0827 154.742 89.974 155.266 90.7272C155.79 91.4803 156.526 92.0614 157.38 92.397C158.235 92.7326 159.17 92.8075 160.067 92.6125C160.965 92.4174 161.784 91.961 162.422 91.3011C163.059 90.6411 163.486 89.8072 163.649 88.9048C163.812 88.0024 163.703 87.072 163.337 86.2314C162.97 85.3907 162.362 84.6776 161.589 84.182C160.816 83.6865 159.914 83.4309 158.996 83.4475C157.764 83.4698 156.593 83.9794 155.738 84.8643C154.883 85.7491 154.415 86.9368 154.437 88.1659Z" fill="url(#paint1_radial_511_174)"/>
<path d="M155.6 113.315C155.694 118.754 163.047 123.021 172.021 122.847C180.995 122.672 188.197 118.129 188.1 112.686C188.003 107.243 180.653 102.982 171.681 103.154C162.708 103.327 155.507 107.879 155.6 113.315Z" fill="#EBA7BE"/>
<path d="M65.0546 115.07C65.1525 120.829 72.7677 125.345 82.0626 125.165C91.3574 124.985 98.8159 120.167 98.7158 114.406C98.6157 108.645 91.0049 104.131 81.7079 104.314C72.4109 104.496 64.9589 109.314 65.0546 115.07Z" fill="#EBA7BE"/>
<path d="M162.56 153.505C162.779 165.021 147.347 174.644 128.116 174.996C108.886 175.349 93.1224 166.298 92.9161 154.782C92.7098 143.266 108.126 133.643 127.359 133.293C146.592 132.942 162.349 141.989 162.56 153.505Z" fill="white"/>
<path d="M47.0658 71.7966C53.006 79.173 63.2744 81.0277 70.0054 75.9411C76.7363 70.8544 77.3737 60.7511 71.4313 53.3726C65.4889 45.9941 55.2227 44.1436 48.4939 49.2303C41.7651 54.317 41.1321 64.4308 47.0658 71.7966Z" fill="#4782AC"/>
<path d="M59.532 65.9386C59.6327 65.7071 59.7854 65.5024 59.9781 65.3406C60.1389 65.1734 60.3376 65.0481 60.5571 64.9753C60.7765 64.9024 61.0102 64.8843 61.2381 64.9225C62.2376 65.0357 63.1927 65.4014 64.0146 65.9858C65.2323 66.9098 65.3706 68.5891 64.474 69.5626C63.4705 70.6507 61.896 71.2262 60.4709 70.0392C59.9046 69.5435 59.5086 68.8796 59.3399 68.1429C59.1712 67.4061 59.2385 66.6344 59.532 65.9386Z" fill="url(#paint2_radial_511_174)"/>
<path d="M57.5731 61.823C57.6949 61.9129 57.8286 61.9871 57.9707 62.0437C58.3102 62.4088 58.7895 62.6625 59.2494 62.5635C60.3455 62.3572 61.5663 62.6645 62.6882 62.5243C63.4511 62.4273 64.2249 62.2149 64.6848 61.6023C65.1791 60.9422 65.1576 59.9831 64.7385 59.1848C64.2893 58.3288 63.6037 57.4192 62.6667 57.0459C62.2804 56.8823 61.8637 56.7953 61.4415 56.7904C61.0193 56.7854 60.6005 56.8625 60.2101 57.017C58.9206 57.5656 57.8954 58.6279 57.1518 59.783C56.9506 60.1138 56.8823 60.5038 56.9599 60.8796C57.0375 61.2553 57.2556 61.5908 57.5731 61.823Z" fill="url(#paint3_radial_511_174)"/>
<path d="M52.672 66.5339C52.3004 65.9227 52.1935 65.2169 52.3704 64.5435C52.5472 63.8702 52.9963 63.2736 53.6367 62.8611C53.9076 62.6985 54.2252 62.6038 54.5545 62.5876C54.8837 62.5713 55.2117 62.6341 55.5023 62.7689C56.3321 62.825 57.1233 63.0953 57.7734 63.5448C58.4235 63.9942 58.9024 64.6021 59.1481 65.2896C59.6438 66.7781 58.2793 67.9831 56.8455 68.285C55.1745 68.6444 53.5781 67.967 52.672 66.5339Z" fill="url(#paint4_radial_511_174)"/>
<path d="M204.165 69.0029C198.482 76.5539 188.248 78.763 181.294 73.9369C174.34 69.1108 173.324 59.0738 179.007 51.5291C184.689 43.9845 194.922 41.7691 201.867 46.5973C208.812 51.4255 209.847 61.4498 204.165 69.0029Z" fill="#4782AC"/>
<path d="M191.31 63.5563C191.222 63.3314 191.095 63.1342 190.937 62.9793C190.802 62.8204 190.639 62.7042 190.46 62.6406C190.282 62.577 190.094 62.5678 189.912 62.6139C189.112 62.7612 188.356 63.1592 187.714 63.7702C186.764 64.726 186.702 66.3946 187.451 67.3348C188.289 68.3774 189.568 68.8942 190.675 67.6622C191.118 67.15 191.417 66.4761 191.532 65.738C191.646 64.9999 191.568 64.2358 191.31 63.5563Z" fill="url(#paint5_radial_511_174)"/>
<path d="M194.775 57.3156C193.879 56.1873 192.676 55.1601 191.165 54.6589C190.713 54.5182 190.231 54.4559 189.749 54.4758C189.268 54.4956 188.795 54.5972 188.362 54.7744C187.308 55.1869 186.567 56.1151 186.09 56.9835C185.646 57.7982 185.663 58.7574 186.257 59.3988C186.805 59.9949 187.703 60.1805 188.575 60.2486C189.859 60.3497 191.237 59.9949 192.504 60.1702C193.032 60.2424 193.569 59.9805 193.94 59.603C194.101 59.5441 194.25 59.4647 194.382 59.3679C194.736 59.1259 194.972 58.7831 195.044 58.4046C195.116 58.0262 195.021 57.6385 194.775 57.3156Z" fill="url(#paint6_radial_511_174)"/>
<path d="M198.271 64.12C198.56 63.5025 198.624 62.7997 198.452 62.138C198.279 61.4764 197.882 60.8995 197.332 60.5114C197.1 60.358 196.831 60.2735 196.556 60.2674C196.28 60.2614 196.008 60.334 195.77 60.4771C195.078 60.5583 194.425 60.8507 193.897 61.3165C193.369 61.7823 192.99 62.3999 192.808 63.0893C192.447 64.5817 193.629 65.7312 194.838 65.9917C196.252 66.3002 197.561 65.5781 198.271 64.12Z" fill="url(#paint7_radial_511_174)"/>
<path d="M110.755 53.6498L106.845 143.714L146.312 143.613L139.116 52.5306C129.213 51.7174 119.643 52.2814 110.755 53.6498Z" fill="#75A9D9"/>
<path d="M132.461 154.41C132.153 154.619 131.988 155.095 131.879 155.611C131.753 156.185 131.7 156.811 131.586 157.169C131.292 158.105 130.609 158.646 129.718 159.055C128.986 159.389 128.205 159.609 127.404 159.707C127.381 156.733 127.522 153.745 127.1 150.79C126.999 150.087 126.531 149.496 125.729 149.509C125.064 149.509 124.311 150.13 124.411 150.844C124.834 153.785 124.694 156.759 124.715 159.721C124.518 159.701 124.322 159.674 124.126 159.645C123.216 159.519 122.339 159.231 121.537 158.795C120.64 158.266 119.582 156.975 120.091 155.903C120.822 154.374 118.396 153.253 117.665 154.79C116.42 157.398 118.47 159.845 120.704 160.962C123.04 162.128 125.855 162.579 128.429 162.016C130.282 161.614 132.123 160.731 133.329 159.271C134.026 158.424 134.675 157.269 134.7 156.156C134.716 155.118 133.702 153.578 132.461 154.41Z" fill="url(#paint8_radial_511_174)"/>
<path d="M143.977 146.062C146.768 144.515 147.287 141.946 144.269 138.039C141.362 134.422 134.912 129.462 126.342 129.825C117.768 129.785 111.498 134.983 108.722 138.706C105.846 142.724 106.462 145.267 109.298 146.715C112.451 148.194 115.643 149.956 118.35 151.493C121.141 152.998 123.446 154.283 126.776 154.133C130.107 154.157 132.357 152.788 135.101 151.179C137.752 149.54 140.877 147.659 143.977 146.062Z" fill="url(#paint9_radial_511_174)"/>
<path d="M143.377 152.986C141.055 153.026 141.121 156.512 143.442 156.462C145.763 156.412 145.698 152.946 143.377 152.986Z" fill="url(#paint10_radial_511_174)"/>
<path d="M151.504 149.509C149.181 149.536 149.249 151.862 151.57 151.826C153.891 151.791 153.823 149.48 151.504 149.509Z" fill="url(#paint11_radial_511_174)"/>
<path d="M150.341 156.463C148.022 156.503 148.084 159.989 150.407 159.939C152.729 159.889 152.661 156.423 150.341 156.463Z" fill="url(#paint12_radial_511_174)"/>
<path d="M105.071 149.509C102.75 149.552 102.815 153.036 105.136 152.985C107.457 152.935 107.392 149.469 105.071 149.509Z" fill="url(#paint13_radial_511_174)"/>
<path d="M109.715 156.463C107.392 156.49 107.457 158.814 109.778 158.78C112.098 158.747 112.036 156.436 109.715 156.463Z" fill="url(#paint14_radial_511_174)"/>
<path d="M100.426 159.94C98.1052 159.967 98.1704 162.291 100.492 162.257C102.813 162.224 102.748 159.913 100.426 159.94Z" fill="url(#paint15_radial_511_174)"/>
<path d="M183.893 150.181C178.23 149.505 172.419 149.144 166.754 150.051C165.512 150.251 166.04 151.88 167.27 151.682C172.58 150.829 178.097 151.185 183.411 151.817C184.644 151.964 185.141 150.328 183.893 150.181Z" fill="url(#paint16_radial_511_174)"/>
<path d="M184.017 155.872C178.48 154.23 172.754 152.908 166.91 152.989C165.629 153.008 165.835 154.857 167.104 154.842C172.577 154.765 178.023 156.033 183.211 157.573C184.412 157.928 185.236 156.233 184.017 155.872Z" fill="url(#paint17_radial_511_174)"/>
<path d="M182.998 161.592C177.969 158.794 172.694 156.306 167.05 155.32C165.815 155.103 165.668 157.147 166.892 157.362C172.182 158.287 177.193 160.664 181.908 163.287C182.998 163.894 184.105 162.208 182.998 161.592Z" fill="url(#paint18_radial_511_174)"/>
<path d="M70.3971 152.711C76.0388 151.964 81.8266 151.485 87.5337 152.126C88.7807 152.266 88.3273 153.704 87.0869 153.566C81.7394 152.965 76.2372 153.43 70.9552 154.132C69.7213 154.295 69.1524 152.876 70.3971 152.711Z" fill="url(#paint19_radial_511_174)"/>
<path d="M70.2768 158.008C75.7825 155.97 81.4904 154.277 87.3718 154.145C88.6565 154.117 88.5253 156.187 87.2473 156.215C81.7394 156.34 76.3115 157.959 71.1526 159.872C69.959 160.314 69.0654 158.459 70.2768 158.008Z" fill="url(#paint20_radial_511_174)"/>
<path d="M72.4288 163.818C77.0895 160.634 81.9894 157.772 87.288 156.487C88.4491 156.208 88.6535 158.377 87.5047 158.654C82.5373 159.856 77.8806 162.594 73.5163 165.576C72.5044 166.267 71.4026 164.518 72.4288 163.818Z" fill="url(#paint21_radial_511_174)"/>
<path d="M135.388 40.3657C135.943 40.1126 137.388 39.3597 136.938 38.247C136.716 37.7011 136.157 36.8875 135.619 37.1322C135.195 37.3267 134.941 37.9332 134.827 38.4728C134.655 39.1528 134.661 39.8891 134.843 40.5644C135.027 40.5115 135.209 40.4452 135.388 40.3657Z" fill="#00A0A9"/>
<path d="M123.586 35.9285C124.749 35.7158 125.81 35.2546 126.65 34.5977C127.287 34.0653 127.847 33.3011 127.72 32.5501C127.675 32.1862 127.446 31.8507 127.083 31.6162C126.721 31.3817 126.253 31.2671 125.782 31.2973C123.611 31.4703 122.883 33.2478 123.146 34.6889C123.224 35.1149 123.372 35.5315 123.586 35.9285Z" fill="#00A0A9"/>
<path d="M124.952 12.828C125.252 12.3281 125.797 10.895 125.009 10.5401C123.806 9.99855 123.102 11.5949 123.095 12.5881C123.088 13.0345 123.145 13.4794 123.264 13.9078C123.946 13.7578 124.584 13.4529 124.952 12.828Z" fill="#00A0A9"/>
<path d="M109.597 28.8409C110.788 28.4283 113.795 27.4491 113.808 25.575C113.824 23.6051 111.442 24.4129 110.571 25.1131C109.344 26.0778 109.07 27.5014 109.191 28.9746L109.597 28.8409Z" fill="#00A0A9"/>
<path d="M115.276 9.58897C115.947 9.07138 117.811 7.47993 117.149 6.45548C116.71 5.77682 115.757 5.55348 115.142 6.10759C114.031 7.10626 113.65 8.89954 113.863 10.4308C114.365 10.2059 114.839 9.92344 115.276 9.58897Z" fill="#00A0A9"/>
<path d="M107.999 47.0392C107.963 46.3503 107.665 45.3858 106.789 45.2247C105.959 45.0682 105.303 45.6918 104.973 46.3247C104.127 47.9594 104.558 49.594 105.559 50.9952C107.048 50.1779 108.096 48.8677 107.999 47.0392Z" fill="#00A0A9"/>
<path d="M122.454 55.4574C123.058 55.2316 123.688 54.9653 124.2 54.4439C124.742 53.8931 125.427 52.9676 125.416 51.9339C125.401 50.7375 124.349 49.4712 123.481 49.934C122.831 50.2816 122.435 51.3041 122.228 52.1911C121.972 53.2994 121.881 54.4709 121.963 55.6312C122.124 55.5725 122.293 55.5183 122.454 55.4574Z" fill="#00A0A9"/>
<path d="M114.445 11.1834C114.719 12.2621 115.343 13.2137 116.215 13.8825C117.363 14.7385 118.755 14.911 120.134 15.018C121.039 15.0994 121.949 15.0804 122.85 14.9613C123.866 17.2389 126.432 18.584 128.635 19.4335C131.112 20.3721 133.731 20.8555 136.372 20.8617C136.936 20.8617 137.553 20.8508 138.185 20.794L137.89 20.0101C136.627 20.0974 135.359 20.0711 134.101 19.9314C130.83 19.6301 127.081 18.5142 124.647 16.1667C124.237 15.7771 123.899 15.3147 123.65 14.8018C124.103 14.6903 124.542 14.5292 124.961 14.3214C126.548 13.52 128.08 10.3056 126.208 9.01935C125.207 8.33147 123.736 9.01933 123.089 9.87753C122.301 10.9301 122.276 12.3823 122.463 13.6357C122.493 13.8257 122.532 14.0135 122.579 14.1948C122.175 14.2384 121.778 14.2559 121.407 14.2647C118.905 14.3214 116.131 13.8934 115.239 11.1528C115.213 11.0764 115.192 10.9978 115.173 10.917C115.634 10.7251 116.079 10.492 116.501 10.2204C118.121 9.18094 120.824 5.8726 117.764 4.76108C115.907 4.08631 114.75 6.28967 114.393 7.79425C114.192 8.66206 114.156 9.56154 114.289 10.4431C112.72 10.9563 111.01 10.9235 109.379 10.5283L109.165 11.2882C110.903 11.7333 112.725 11.6971 114.445 11.1834ZM125.732 9.65479C126.799 10.1199 126.061 11.987 125.655 12.653C125.156 13.4719 124.291 13.8716 123.367 14.0681C123.205 13.5067 123.128 12.9236 123.138 12.3386C123.147 11.0371 124.101 8.94508 125.732 9.65479ZM116.302 5.76343C116.919 5.20003 117.873 5.42711 118.313 6.11717C118.977 7.1588 117.109 8.77696 116.437 9.30324C115.999 9.64333 115.524 9.93055 115.021 10.1592C114.818 8.60443 115.183 6.77886 116.302 5.76343Z" fill="#282F39"/>
<path d="M108.926 29.6004C109.098 30.3553 109.348 31.0899 109.673 31.7919C110.377 33.344 111.514 34.6567 112.944 35.5709C115.399 37.1627 118.79 37.4135 121.619 37.191C122.154 37.1524 122.685 37.0795 123.21 36.973C123.864 38.1362 124.822 39.097 125.979 39.751C128.196 40.9765 131.175 41.4148 133.73 40.9809C134.561 42.3176 136.252 43.1615 137.588 43.7873C138.56 44.246 139.575 44.6068 140.618 44.8645C141.982 45.1959 143.485 45.1894 144.875 45.2003C145.741 45.2003 146.607 45.1829 147.473 45.1371L147.174 44.3586L146.812 44.3761C144.695 44.4633 142.392 44.5396 140.333 43.9748C138.582 43.5127 136.933 42.7267 135.468 41.6569C135.14 41.4151 134.848 41.1264 134.602 40.7999C135.665 40.523 136.89 40.0498 137.579 39.1405C138.295 38.1941 137.843 37.1583 137.096 36.3973C136.23 35.525 134.992 35.4357 134.148 36.3406C133.34 37.1998 133.065 38.6695 133.271 39.8034C133.295 39.9513 133.33 40.0972 133.377 40.2395C132.699 40.3191 132.016 40.3417 131.335 40.3071C128.51 40.1915 125.408 39.2059 123.998 36.7854C125.923 36.225 127.679 35.0802 128.071 32.9564C128.138 32.6313 128.138 32.2959 128.072 31.9707C128.005 31.6456 127.874 31.3375 127.685 31.0653C127.496 30.7932 127.254 30.5627 126.974 30.3881C126.694 30.2134 126.381 30.0982 126.055 30.0496C124.65 29.8316 123.299 30.9218 122.782 32.1648C122.518 32.828 122.392 33.5382 122.409 34.2523C122.427 34.9664 122.588 35.6694 122.883 36.3188C121.151 36.6306 119.27 36.5107 117.781 36.3188C114.213 35.8827 111.111 34.0597 110.004 30.4443C109.9 30.1063 109.805 29.7552 109.732 29.3998C110.02 29.3213 110.299 29.2363 110.569 29.1447C111.979 28.6802 114.15 27.8145 114.263 26.0504C114.332 24.9601 113.397 24.3321 112.403 24.3387C110.985 24.3387 109.569 25.3592 109.037 26.6566C108.775 27.3514 108.692 28.1016 108.796 28.8372C107.086 29.2368 105.335 29.4315 103.579 29.4173L103.362 30.2044C105.235 30.2426 107.105 30.0396 108.926 29.6004ZM134.186 37.8866C134.349 37.324 134.695 36.6917 135.269 36.4889C136.003 36.2338 136.767 37.082 137.07 37.6511C137.685 38.8112 135.711 39.5962 134.953 39.8601C134.707 39.9469 134.456 40.0197 134.202 40.0781C133.952 39.3694 133.947 38.5967 134.186 37.8844V37.8866ZM125.613 30.8041C126.028 30.7695 126.44 30.9009 126.759 31.1699C127.079 31.4389 127.28 31.8238 127.319 32.2411C127.432 33.1134 126.938 33.9856 126.378 34.5896C125.638 35.3432 124.704 35.8721 123.68 36.116C123.491 35.6579 123.36 35.1771 123.293 34.6855C123.065 33.0392 123.702 31.0003 125.613 30.8019V30.8041ZM110.766 25.7103C111.496 25.1935 113.492 24.5785 113.479 26.057C113.468 27.4634 110.948 28.1983 109.95 28.5079L109.61 28.6082C109.509 27.5005 109.738 26.4321 110.766 25.7081V25.7103Z" fill="#282F39"/>
<path d="M152.115 40.3323C152.07 36.3666 151.001 32.3556 149.797 28.6164C147.286 20.8411 143.497 13.0506 136.8 8.17406C130.242 3.40317 121.029 -0.773882 112.782 0.121919C107.611 0.59772 102.703 2.65016 98.7004 6.01005C91.7115 11.9133 88.591 20.1365 84.8316 28.2541C84.4254 29.1298 84.0143 30.0054 83.6279 30.8962L89.2101 33.5132C89.2101 33.5132 95.1539 24.9125 105.947 17.0516C105.947 17.0516 105.253 23.0504 108.676 25.6925C108.676 25.6925 99.5523 27.1369 96.4912 44.0413L152.115 40.3323Z" fill="#EBA7BE"/>
<path d="M93.7935 42.0695C92.1943 45.0705 93.1807 48.8257 93.6142 52.0039C93.8383 53.6284 93.8732 55.3187 94.3465 56.8977C94.7321 58.1519 95.4803 59.2593 96.4937 60.0759C99.5875 62.3633 103.468 61.088 106.956 60.9261C110.603 60.7338 114.269 61.8876 117.916 61.0779C120.492 60.5009 123.097 59.7975 125.763 59.8987C128.538 60.005 131.158 61.1639 133.953 61.1032C139.025 60.9969 144.485 60.6882 149.397 59.3977C152.84 58.4918 157.498 61.3562 159.949 57.6365C161.573 55.177 161.1 51.351 161.274 48.4967C161.449 45.6424 161.678 42.3073 160.178 39.7061C157.847 35.6574 152.526 36.8113 148.775 36.7C144.46 36.5734 140.225 35.6878 135.896 35.9915C133.772 36.2073 131.639 36.312 129.504 36.3052C124.866 36.1332 120.885 37.2162 116.322 37.6767C112.247 38.0917 108.296 36.4267 104.231 36.7303C102.505 36.8685 100.809 37.2676 99.199 37.9146C97.1265 38.7597 94.8696 40.0452 93.7935 42.0695Z" fill="white"/>
<path d="M72.2552 35.6957C71.3832 39.6224 72.9607 43.9112 76.3314 45.9185C77.6348 46.5891 79.0248 47.0528 80.4565 47.2946C84.9834 48.2621 89.0742 46.0168 91.5385 41.9918C92.1215 41.0399 92.2587 40.1242 92.5624 39.0739C93.0458 37.3502 93.0288 35.513 92.5136 33.7995C91.9983 32.0861 91.0085 30.5751 89.6719 29.4616C86.7716 27.0042 82.6611 25.8402 79.0994 27.2939L78.7663 27.4388C77.1538 28.1953 75.7278 29.3335 74.5988 30.7653C73.4697 32.1971 72.6678 33.8841 72.2552 35.6957Z" fill="white"/>
<defs>
<radialGradient id="paint0_radial_511_174" cx="0" cy="0" r="1" gradientUnits="userSpaceOnUse" gradientTransform="translate(-78405.4 13452.3) rotate(-17.2447) scale(187.838 187.595)">
<stop offset="0.57" stop-color="#130C0E"/>
<stop offset="0.8" stop-color="#130C0E"/>
<stop offset="1" stop-color="#130C0E"/>
</radialGradient>
<radialGradient id="paint1_radial_511_174" cx="0" cy="0" r="1" gradientUnits="userSpaceOnUse" gradientTransform="translate(-74879.2 13313.7) rotate(-17.2446) scale(187.838 187.596)">
<stop offset="0.57" stop-color="#130C0E"/>
<stop offset="0.8" stop-color="#130C0E"/>
<stop offset="1" stop-color="#130C0E"/>
</radialGradient>
<radialGradient id="paint2_radial_511_174" cx="0" cy="0" r="1" gradientUnits="userSpaceOnUse" gradientTransform="translate(-48540 8095.72) rotate(-17.4009) scale(75.738 75.5118)">
<stop offset="0.57" stop-color="#130C0E"/>
<stop offset="0.8" stop-color="#130C0E"/>
<stop offset="1" stop-color="#130C0E"/>
</radialGradient>
<radialGradient id="paint3_radial_511_174" cx="0" cy="0" r="1" gradientUnits="userSpaceOnUse" gradientTransform="translate(-68201.5 12934.7) rotate(-16.6137) scale(135.71 97.4622)">
<stop offset="0.57" stop-color="#130C0E"/>
<stop offset="0.8" stop-color="#130C0E"/>
<stop offset="1" stop-color="#130C0E"/>
</radialGradient>
<radialGradient id="paint4_radial_511_174" cx="0" cy="0" r="1" gradientUnits="userSpaceOnUse" gradientTransform="translate(-58407.2 8499.45) rotate(-15.0446) scale(88.5648 75.366)">
<stop offset="0.57" stop-color="#130C0E"/>
<stop offset="0.8" stop-color="#130C0E"/>
<stop offset="1" stop-color="#130C0E"/>
</radialGradient>
<radialGradient id="paint5_radial_511_174" cx="0" cy="0" r="1" gradientUnits="userSpaceOnUse" gradientTransform="translate(-36029.1 7800.68) rotate(-21.1368) scale(60.9421 72.5641)">
<stop offset="0.57" stop-color="#130C0E"/>
<stop offset="0.8" stop-color="#130C0E"/>
<stop offset="1" stop-color="#130C0E"/>
</radialGradient>
<radialGradient id="paint6_radial_511_174" cx="0" cy="0" r="1" gradientUnits="userSpaceOnUse" gradientTransform="translate(-72495.9 12503.5) rotate(-14.6367) scale(155.533 99.6404)">
<stop offset="0.57" stop-color="#130C0E"/>
<stop offset="0.8" stop-color="#130C0E"/>
<stop offset="1" stop-color="#130C0E"/>
</radialGradient>
<radialGradient id="paint7_radial_511_174" cx="0" cy="0" r="1" gradientUnits="userSpaceOnUse" gradientTransform="translate(-44856.1 8165.68) rotate(-17.6693) scale(73.5816 73.1451)">
<stop offset="0.57" stop-color="#130C0E"/>
<stop offset="0.8" stop-color="#130C0E"/>
<stop offset="1" stop-color="#130C0E"/>
</radialGradient>
<radialGradient id="paint8_radial_511_174" cx="0" cy="0" r="1" gradientUnits="userSpaceOnUse" gradientTransform="translate(-144061 32942.3) rotate(-16.8452) scale(577.111 424.48)">
<stop offset="0.57" stop-color="#130C0E"/>
<stop offset="0.8" stop-color="#130C0E"/>
<stop offset="1" stop-color="#130C0E"/>
</radialGradient>
<radialGradient id="paint9_radial_511_174" cx="0" cy="0" r="1" gradientUnits="userSpaceOnUse" gradientTransform="translate(-327946 81803.3) rotate(-17.7556) scale(2946.99 1807.66)">
<stop offset="0.57" stop-color="#130C0E"/>
<stop offset="0.8" stop-color="#130C0E"/>
<stop offset="1" stop-color="#130C0E"/>
</radialGradient>
<radialGradient id="paint10_radial_511_174" cx="0" cy="0" r="1" gradientUnits="userSpaceOnUse" gradientTransform="translate(-26436.1 6168.14) rotate(-16.7132) scale(23.7142 23.8182)">
<stop offset="0.57" stop-color="#130C0E"/>
<stop offset="0.8" stop-color="#130C0E"/>
<stop offset="1" stop-color="#130C0E"/>
</radialGradient>
<radialGradient id="paint11_radial_511_174" cx="0" cy="0" r="1" gradientUnits="userSpaceOnUse" gradientTransform="translate(-26295.8 4122.95) rotate(-11.3274) scale(23.1636 16.2562)">
<stop offset="0.57" stop-color="#130C0E"/>
<stop offset="0.8" stop-color="#130C0E"/>
<stop offset="1" stop-color="#130C0E"/>
</radialGradient>
<radialGradient id="paint12_radial_511_174" cx="0" cy="0" r="1" gradientUnits="userSpaceOnUse" gradientTransform="translate(-26303.2 6229.9) rotate(-16.7043) scale(23.7131 23.8193)">
<stop offset="0.57" stop-color="#130C0E"/>
<stop offset="0.8" stop-color="#130C0E"/>
<stop offset="1" stop-color="#130C0E"/>
</radialGradient>
<radialGradient id="paint13_radial_511_174" cx="0" cy="0" r="1" gradientUnits="userSpaceOnUse" gradientTransform="translate(-27077.5 6122.51) rotate(-16.7132) scale(23.7142 23.8182)">
<stop offset="0.57" stop-color="#130C0E"/>
<stop offset="0.8" stop-color="#130C0E"/>
<stop offset="1" stop-color="#130C0E"/>
</radialGradient>
<radialGradient id="paint14_radial_511_174" cx="0" cy="0" r="1" gradientUnits="userSpaceOnUse" gradientTransform="translate(-27005.5 4200.1) rotate(-11.3103) scale(23.1623 16.2572)">
<stop offset="0.57" stop-color="#130C0E"/>
<stop offset="0.8" stop-color="#130C0E"/>
<stop offset="1" stop-color="#130C0E"/>
</radialGradient>
<radialGradient id="paint15_radial_511_174" cx="0" cy="0" r="1" gradientUnits="userSpaceOnUse" gradientTransform="translate(-27151.5 4243.06) rotate(-11.3197) scale(23.163 16.2566)">
<stop offset="0.57" stop-color="#130C0E"/>
<stop offset="0.8" stop-color="#130C0E"/>
<stop offset="1" stop-color="#130C0E"/>
</radialGradient>
<radialGradient id="paint16_radial_511_174" cx="0" cy="0" r="1" gradientUnits="userSpaceOnUse" gradientTransform="translate(-146930 38538.2) rotate(-15.042) scale(570.04 72.7648)">
<stop offset="0.57" stop-color="#130C0E"/>
<stop offset="0.8" stop-color="#130C0E"/>
<stop offset="1" stop-color="#130C0E"/>
</radialGradient>
<radialGradient id="paint17_radial_511_174" cx="0" cy="0" r="1" gradientUnits="userSpaceOnUse" gradientTransform="translate(-147564 40265.7) rotate(-16.2838) scale(578.134 145.813)">
<stop offset="0.57" stop-color="#130C0E"/>
<stop offset="0.8" stop-color="#130C0E"/>
<stop offset="1" stop-color="#130C0E"/>
</radialGradient>
<radialGradient id="paint18_radial_511_174" cx="0" cy="0" r="1" gradientUnits="userSpaceOnUse" gradientTransform="translate(-139082 40028.5) rotate(-18.1764) scale(550.207 253.782)">
<stop offset="0.57" stop-color="#130C0E"/>
<stop offset="0.8" stop-color="#130C0E"/>
<stop offset="1" stop-color="#130C0E"/>
</radialGradient>
<radialGradient id="paint19_radial_511_174" cx="0" cy="0" r="1" gradientUnits="userSpaceOnUse" gradientTransform="translate(-154708 35034.7) rotate(-13.2394) scale(563.352 73.0604)">
<stop offset="0.57" stop-color="#130C0E"/>
<stop offset="0.8" stop-color="#130C0E"/>
<stop offset="1" stop-color="#130C0E"/>
</radialGradient>
<radialGradient id="paint20_radial_511_174" cx="0" cy="0" r="1" gradientUnits="userSpaceOnUse" gradientTransform="translate(-155417 45810.1) rotate(-17.9278) scale(569.654 176.449)">
<stop offset="0.57" stop-color="#130C0E"/>
<stop offset="0.8" stop-color="#130C0E"/>
<stop offset="1" stop-color="#130C0E"/>
</radialGradient>
<radialGradient id="paint21_radial_511_174" cx="0" cy="0" r="1" gradientUnits="userSpaceOnUse" gradientTransform="translate(-136708 42842.3) rotate(-20.2983) scale(506.474 278.754)">
<stop offset="0.57" stop-color="#130C0E"/>
<stop offset="0.8" stop-color="#130C0E"/>
<stop offset="1" stop-color="#130C0E"/>
</radialGradient>
</defs>
</svg>
