<svg width="188" height="216" viewBox="0 0 188 216" fill="none" xmlns="http://www.w3.org/2000/svg">
<g clip-path="url(#clip0_642_2)">
<path d="M143.1 16.8C142.9 16.8 142.7 16.7 142.6 16.5L133.6 0.800022C133.4 0.600022 133.5 0.300021 133.8 0.100022C134 2.14987e-05 134.3 0.100022 134.5 0.300022L143.5 16C143.6 16.3 143.6 16.6 143.3 16.7C143.3 16.7 143.2 16.8 143.1 16.8Z" fill="white"/>
<path d="M147.6 8.8999H129.5C129.2 8.8999 129 8.6999 129 8.3999C129 8.0999 129.2 7.8999 129.5 7.8999H147.6C147.9 7.8999 148.1 8.0999 148.1 8.3999C148.1 8.6999 147.9 8.8999 147.6 8.8999Z" fill="white"/>
<path d="M133.999 16.7C133.899 16.7 133.799 16.7 133.699 16.6C133.399 16.5 133.399 16.1 133.499 15.9L142.499 0.199993C142.599 -0.100007 142.999 -0.100007 143.199 -6.82846e-06C143.499 0.0999932 143.499 0.499993 143.399 0.699993L134.399 16.4C134.399 16.6 134.199 16.7 133.999 16.7Z" fill="white"/>
<path d="M144.8 12.4001C144.7 12.4001 144.7 12.4001 144.6 12.3001L132.2 5.20007C132 5.10007 131.9 4.80007 132 4.60007C132.1 4.40007 132.4 4.30007 132.6 4.40007L145 11.6001C145.2 11.7001 145.3 12.0001 145.2 12.2001C145.1 12.3001 144.9 12.4001 144.8 12.4001Z" fill="white"/>
<path d="M132.4 12.4001C132.3 12.4001 132.1 12.3001 132 12.2001C131.9 12.0001 132 11.7001 132.2 11.6001L144.6 4.40007C144.8 4.30007 145.1 4.40007 145.2 4.60007C145.3 4.80007 145.2 5.10007 145 5.20007L132.6 12.3001C132.5 12.4001 132.4 12.4001 132.4 12.4001Z" fill="white"/>
<path d="M138.599 15.9C138.399 15.9 138.199 15.7 138.199 15.5V1.20005C138.199 1.00005 138.399 0.800049 138.599 0.800049C138.799 0.800049 138.999 1.00005 138.999 1.20005V15.5C138.999 15.8 138.799 15.9 138.599 15.9Z" fill="white"/>
</g>
<g clip-path="url(#clip1_642_2)">
<path d="M89.8996 210C85.9996 210 85.9996 216 89.8996 216C93.7996 216 93.7996 210 89.8996 210Z" fill="white"/>
</g>
<g clip-path="url(#clip2_642_2)">
<path d="M14.1001 146.8C13.9001 146.8 13.7001 146.7 13.6001 146.5L4.60015 130.8C4.40015 130.6 4.50015 130.3 4.80015 130.1C5.00015 130 5.30015 130.1 5.50015 130.3L14.5001 146C14.6001 146.3 14.6001 146.6 14.3001 146.7C14.3001 146.7 14.2001 146.8 14.1001 146.8Z" fill="white"/>
<path d="M18.6 138.9H0.5C0.2 138.9 0 138.7 0 138.4C0 138.1 0.2 137.9 0.5 137.9H18.6C18.9 137.9 19.1 138.1 19.1 138.4C19.1 138.7 18.9 138.9 18.6 138.9Z" fill="white"/>
<path d="M4.99926 146.7C4.89926 146.7 4.79926 146.7 4.69926 146.6C4.39926 146.5 4.39926 146.1 4.49926 145.9L13.4993 130.2C13.5993 129.9 13.9993 129.9 14.1993 130C14.4993 130.1 14.4993 130.5 14.3993 130.7L5.39926 146.4C5.39926 146.6 5.19926 146.7 4.99926 146.7Z" fill="white"/>
<path d="M15.8002 142.4C15.7002 142.4 15.7002 142.4 15.6002 142.3L3.20017 135.2C3.00017 135.1 2.90017 134.8 3.00017 134.6C3.10017 134.4 3.40017 134.3 3.60017 134.4L16.0002 141.6C16.2002 141.7 16.3002 142 16.2002 142.2C16.1002 142.3 15.9002 142.4 15.8002 142.4Z" fill="white"/>
<path d="M3.40017 142.4C3.30017 142.4 3.10017 142.3 3.00017 142.2C2.90017 142 3.00017 141.7 3.20017 141.6L15.6002 134.4C15.8002 134.3 16.1002 134.4 16.2002 134.6C16.3002 134.8 16.2002 135.1 16.0002 135.2L3.60017 142.3C3.50017 142.4 3.40017 142.4 3.40017 142.4Z" fill="white"/>
<path d="M9.59922 145.9C9.39922 145.9 9.19922 145.7 9.19922 145.5V131.2C9.19922 131 9.39922 130.8 9.59922 130.8C9.79922 130.8 9.99922 131 9.99922 131.2V145.5C9.99922 145.8 9.79922 145.9 9.59922 145.9Z" fill="white"/>
</g>
<g clip-path="url(#clip3_642_2)">
<path d="M183.869 145.114C182.915 143.881 180.72 143.589 179.225 143.273C177.03 142.981 174.905 142.36 172.711 142.069C172.927 140.223 172.68 138.108 172.564 136.192C172.475 134.97 172.463 132.56 171.64 131.526C171.377 131.127 170.747 130.822 170.346 131.081C169.009 131.658 168.46 133.434 167.718 134.481C166.602 136.48 165.45 138.644 164.334 140.643C162.174 140.187 159.979 139.895 157.785 139.603C156.455 139.323 154.129 138.831 152.924 139.608C149.072 142.233 158.144 147.76 159.666 148.77L159.833 148.805C158.017 150.828 156.63 153.286 155.111 155.545C154.134 156.886 153.322 158.262 154.041 159.789C155.285 162.115 162.781 157.853 165.961 155.945C168.264 159.011 173.665 165.482 175.744 163.858C177.019 162.752 176.668 161.13 176.316 159.508C175.674 156.794 175.199 154.114 174.191 151.494L174.357 151.529C176.061 150.858 186.365 148.908 183.869 145.114ZM173.553 144.654C173.387 144.619 173.221 144.584 173.054 144.549C172.39 144.408 171.988 144.667 171.752 144.961C171.621 144.762 171.524 144.397 171.393 144.198C171.559 144.233 171.559 144.233 171.76 144.103C172.757 144.314 173.955 144.395 174.952 144.605C174.418 144.665 174.086 144.595 173.553 144.654ZM163.383 142.677L163.217 142.642C163.051 142.607 162.885 142.572 162.684 142.702C162.186 142.596 161.853 142.526 161.39 142.256C162.054 142.397 162.719 142.537 163.383 142.677Z" fill="#4782AC"/>
<path d="M181.547 140.497C180.593 139.263 178.398 138.972 176.903 138.656C174.708 138.364 172.583 137.743 170.388 137.452C170.605 135.606 170.357 133.491 170.241 131.575C170.152 130.352 170.141 127.943 169.318 126.909C169.055 126.51 168.591 126.24 168.023 126.464C166.687 127.041 166.138 128.817 165.361 130.028C164.279 131.863 163.128 134.027 162.012 136.026C159.852 135.57 157.657 135.278 155.462 134.986C154.133 134.705 151.807 134.214 150.602 134.991C146.75 137.616 155.822 143.143 157.344 144.153L157.51 144.188C155.694 146.211 154.307 148.669 152.789 150.927C151.811 152.268 151 153.644 151.719 155.172C152.963 157.498 160.459 153.235 163.639 151.328C165.941 154.394 171.343 160.865 173.422 159.241C174.697 158.135 174.345 156.513 173.994 154.891C173.352 152.177 172.877 149.497 171.868 146.877L172.034 146.912C173.738 146.24 184.043 144.291 181.547 140.497ZM171.231 140.037C171.065 140.002 170.898 139.966 170.732 139.931C170.068 139.791 169.666 140.05 169.43 140.344C169.299 140.144 169.202 139.78 169.071 139.58C169.237 139.615 169.237 139.615 169.438 139.486C170.435 139.697 171.632 139.778 172.629 139.988C172.096 140.048 171.764 139.977 171.231 140.037ZM161.061 138.06L160.895 138.025C160.729 137.99 160.563 137.955 160.362 138.084C159.863 137.979 159.531 137.909 159.067 137.639C159.732 137.779 160.397 137.92 161.061 138.06Z" fill="white"/>
</g>
<defs>
<clipPath id="clip0_642_2">
<rect width="19.1" height="16.8" fill="white" transform="translate(129)"/>
</clipPath>
<clipPath id="clip1_642_2">
<rect width="5.8" height="6" fill="white" transform="translate(87 210)"/>
</clipPath>
<clipPath id="clip2_642_2">
<rect width="19.1" height="16.8" fill="white" transform="translate(0 130)"/>
</clipPath>
<clipPath id="clip3_642_2">
<rect width="36" height="36" fill="white" transform="translate(152.441 123) rotate(11.9286)"/>
</clipPath>
</defs>
</svg>
