<svg width="343" height="1050" viewBox="0 0 343 1050" fill="none" xmlns="http://www.w3.org/2000/svg">
<g clip-path="url(#clip0_622_3)">
<path d="M2.89961 1044C-1.00039 1044 -1.00039 1050 2.89961 1050C6.79961 1050 6.79961 1044 2.89961 1044Z" fill="white"/>
</g>
<g clip-path="url(#clip1_622_3)">
<path d="M298.1 152.8C297.9 152.8 297.7 152.7 297.6 152.5L288.6 136.8C288.4 136.6 288.5 136.3 288.8 136.1C289 136 289.3 136.1 289.5 136.3L298.5 152C298.6 152.3 298.6 152.6 298.3 152.7C298.3 152.7 298.2 152.8 298.1 152.8Z" fill="white"/>
<path d="M302.6 144.9H284.5C284.2 144.9 284 144.7 284 144.4C284 144.1 284.2 143.9 284.5 143.9H302.6C302.9 143.9 303.1 144.1 303.1 144.4C303.1 144.7 302.9 144.9 302.6 144.9Z" fill="white"/>
<path d="M288.999 152.7C288.899 152.7 288.799 152.7 288.699 152.6C288.399 152.5 288.399 152.1 288.499 151.9L297.499 136.2C297.599 135.9 297.999 135.9 298.199 136C298.499 136.1 298.499 136.5 298.399 136.7L289.399 152.4C289.399 152.6 289.199 152.7 288.999 152.7Z" fill="white"/>
<path d="M299.8 148.4C299.7 148.4 299.7 148.4 299.6 148.3L287.2 141.2C287 141.1 286.9 140.8 287 140.6C287.1 140.4 287.4 140.3 287.6 140.4L300 147.6C300.2 147.7 300.3 148 300.2 148.2C300.1 148.3 299.9 148.4 299.8 148.4Z" fill="white"/>
<path d="M287.4 148.4C287.3 148.4 287.1 148.3 287 148.2C286.9 148 287 147.7 287.2 147.6L299.6 140.4C299.8 140.3 300.1 140.4 300.2 140.6C300.3 140.8 300.2 141.1 300 141.2L287.6 148.3C287.5 148.4 287.4 148.4 287.4 148.4Z" fill="white"/>
<path d="M293.599 151.9C293.399 151.9 293.199 151.7 293.199 151.5V137.2C293.199 137 293.399 136.8 293.599 136.8C293.799 136.8 293.999 137 293.999 137.2V151.5C293.999 151.8 293.799 151.9 293.599 151.9Z" fill="white"/>
</g>
<g clip-path="url(#clip2_622_3)">
<path d="M37.1001 406.8C36.9001 406.8 36.7001 406.7 36.6001 406.5L27.6001 390.8C27.4001 390.6 27.5001 390.3 27.8001 390.1C28.0001 390 28.3001 390.1 28.5001 390.3L37.5001 406C37.6001 406.3 37.6001 406.6 37.3001 406.7C37.3001 406.7 37.2001 406.8 37.1001 406.8Z" fill="white"/>
<path d="M41.6 398.9H23.5C23.2 398.9 23 398.7 23 398.4C23 398.1 23.2 397.9 23.5 397.9H41.6C41.9 397.9 42.1 398.1 42.1 398.4C42.1 398.7 41.9 398.9 41.6 398.9Z" fill="white"/>
<path d="M28.0002 406.7C27.9002 406.7 27.8002 406.7 27.7002 406.6C27.4002 406.5 27.4002 406.1 27.5002 405.9L36.5002 390.2C36.6002 389.9 37.0002 389.9 37.2002 390C37.5002 390.1 37.5002 390.5 37.4002 390.7L28.4002 406.4C28.4002 406.6 28.2002 406.7 28.0002 406.7Z" fill="white"/>
<path d="M38.8002 402.4C38.7002 402.4 38.7002 402.4 38.6002 402.3L26.2002 395.2C26.0002 395.1 25.9002 394.8 26.0002 394.6C26.1002 394.4 26.4002 394.3 26.6002 394.4L39.0002 401.6C39.2002 401.7 39.3002 402 39.2002 402.2C39.1002 402.3 38.9002 402.4 38.8002 402.4Z" fill="white"/>
<path d="M26.4002 402.4C26.3002 402.4 26.1002 402.3 26.0002 402.2C25.9002 402 26.0002 401.7 26.2002 401.6L38.6002 394.4C38.8002 394.3 39.1002 394.4 39.2002 394.6C39.3002 394.8 39.2002 395.1 39.0002 395.2L26.6002 402.3C26.5002 402.4 26.4002 402.4 26.4002 402.4Z" fill="white"/>
<path d="M32.6002 405.9C32.4002 405.9 32.2002 405.7 32.2002 405.5V391.2C32.2002 391 32.4002 390.8 32.6002 390.8C32.8002 390.8 33.0002 391 33.0002 391.2V405.5C33.0002 405.8 32.8002 405.9 32.6002 405.9Z" fill="white"/>
</g>
<g clip-path="url(#clip3_622_3)">
<path d="M56.1001 850.8C55.9001 850.8 55.7001 850.7 55.6001 850.5L46.6001 834.8C46.4001 834.6 46.5001 834.3 46.8001 834.1C47.0001 834 47.3001 834.1 47.5001 834.3L56.5001 850C56.6001 850.3 56.6001 850.6 56.3001 850.7C56.3001 850.7 56.2001 850.8 56.1001 850.8Z" fill="white"/>
<path d="M60.6 842.9H42.5C42.2 842.9 42 842.7 42 842.4C42 842.1 42.2 841.9 42.5 841.9H60.6C60.9 841.9 61.1 842.1 61.1 842.4C61.1 842.7 60.9 842.9 60.6 842.9Z" fill="white"/>
<path d="M47.0002 850.7C46.9002 850.7 46.8002 850.7 46.7002 850.6C46.4002 850.5 46.4002 850.1 46.5002 849.9L55.5002 834.2C55.6002 833.9 56.0002 833.9 56.2002 834C56.5002 834.1 56.5002 834.5 56.4002 834.7L47.4002 850.4C47.4002 850.6 47.2002 850.7 47.0002 850.7Z" fill="white"/>
<path d="M57.8002 846.4C57.7002 846.4 57.7002 846.4 57.6002 846.3L45.2002 839.2C45.0002 839.1 44.9002 838.8 45.0002 838.6C45.1002 838.4 45.4002 838.3 45.6002 838.4L58.0002 845.6C58.2002 845.7 58.3002 846 58.2002 846.2C58.1002 846.3 57.9002 846.4 57.8002 846.4Z" fill="white"/>
<path d="M45.4002 846.4C45.3002 846.4 45.1002 846.3 45.0002 846.2C44.9002 846 45.0002 845.7 45.2002 845.6L57.6002 838.4C57.8002 838.3 58.1002 838.4 58.2002 838.6C58.3002 838.8 58.2002 839.1 58.0002 839.2L45.6002 846.3C45.5002 846.4 45.4002 846.4 45.4002 846.4Z" fill="white"/>
<path d="M51.6002 849.9C51.4002 849.9 51.2002 849.7 51.2002 849.5V835.2C51.2002 835 51.4002 834.8 51.6002 834.8C51.8002 834.8 52.0002 835 52.0002 835.2V849.5C52.0002 849.8 51.8002 849.9 51.6002 849.9Z" fill="white"/>
</g>
<g clip-path="url(#clip4_622_3)">
<path d="M244.9 346C241 346 241 352 244.9 352C248.8 352 248.8 346 244.9 346Z" fill="white"/>
</g>
<g clip-path="url(#clip5_622_3)">
<path d="M169.1 282.8C168.9 282.8 168.7 282.7 168.6 282.5L159.6 266.8C159.4 266.6 159.5 266.3 159.8 266.1C160 266 160.3 266.1 160.5 266.3L169.5 282C169.6 282.3 169.6 282.6 169.3 282.7C169.3 282.7 169.2 282.8 169.1 282.8Z" fill="white"/>
<path d="M173.6 274.9H155.5C155.2 274.9 155 274.7 155 274.4C155 274.1 155.2 273.9 155.5 273.9H173.6C173.9 273.9 174.1 274.1 174.1 274.4C174.1 274.7 173.9 274.9 173.6 274.9Z" fill="white"/>
<path d="M159.999 282.7C159.899 282.7 159.799 282.7 159.699 282.6C159.399 282.5 159.399 282.1 159.499 281.9L168.499 266.2C168.599 265.9 168.999 265.9 169.199 266C169.499 266.1 169.499 266.5 169.399 266.7L160.399 282.4C160.399 282.6 160.199 282.7 159.999 282.7Z" fill="white"/>
<path d="M170.8 278.4C170.7 278.4 170.7 278.4 170.6 278.3L158.2 271.2C158 271.1 157.9 270.8 158 270.6C158.1 270.4 158.4 270.3 158.6 270.4L171 277.6C171.2 277.7 171.3 278 171.2 278.2C171.1 278.3 170.9 278.4 170.8 278.4Z" fill="white"/>
<path d="M158.4 278.4C158.3 278.4 158.1 278.3 158 278.2C157.9 278 158 277.7 158.2 277.6L170.6 270.4C170.8 270.3 171.1 270.4 171.2 270.6C171.3 270.8 171.2 271.1 171 271.2L158.6 278.3C158.5 278.4 158.4 278.4 158.4 278.4Z" fill="white"/>
<path d="M164.599 281.9C164.399 281.9 164.199 281.7 164.199 281.5V267.2C164.199 267 164.399 266.8 164.599 266.8C164.799 266.8 164.999 267 164.999 267.2V281.5C164.999 281.8 164.799 281.9 164.599 281.9Z" fill="white"/>
</g>
<g clip-path="url(#clip6_622_3)">
<path d="M338.869 281.114C337.915 279.881 335.72 279.589 334.225 279.273C332.03 278.981 329.905 278.36 327.711 278.069C327.927 276.223 327.68 274.108 327.564 272.192C327.475 270.97 327.463 268.56 326.64 267.526C326.377 267.127 325.747 266.822 325.346 267.081C324.009 267.658 323.46 269.434 322.718 270.481C321.602 272.48 320.45 274.644 319.334 276.643C317.174 276.187 314.979 275.895 312.785 275.603C311.455 275.323 309.129 274.831 307.924 275.608C304.072 278.233 313.144 283.76 314.666 284.77L314.833 284.805C313.017 286.828 311.63 289.286 310.111 291.545C309.134 292.886 308.322 294.262 309.041 295.789C310.285 298.115 317.781 293.853 320.961 291.945C323.264 295.011 328.665 301.482 330.744 299.858C332.019 298.752 331.668 297.13 331.316 295.508C330.674 292.794 330.199 290.114 329.191 287.494L329.357 287.529C331.061 286.858 341.365 284.908 338.869 281.114ZM328.553 280.654C328.387 280.619 328.221 280.584 328.054 280.549C327.39 280.408 326.988 280.667 326.752 280.961C326.621 280.762 326.524 280.397 326.393 280.198C326.559 280.233 326.559 280.233 326.76 280.103C327.757 280.314 328.955 280.395 329.952 280.605C329.418 280.665 329.086 280.595 328.553 280.654ZM318.383 278.677L318.217 278.642C318.051 278.607 317.885 278.572 317.684 278.702C317.186 278.596 316.853 278.526 316.39 278.256C317.054 278.397 317.719 278.537 318.383 278.677Z" fill="#4782AC"/>
<path d="M336.547 276.497C335.593 275.263 333.398 274.972 331.903 274.656C329.708 274.364 327.583 273.743 325.388 273.452C325.605 271.606 325.357 269.491 325.241 267.575C325.152 266.352 325.141 263.943 324.318 262.909C324.055 262.51 323.591 262.24 323.023 262.464C321.687 263.041 321.138 264.817 320.361 266.028C319.279 267.863 318.128 270.027 317.012 272.026C314.852 271.57 312.657 271.278 310.462 270.986C309.133 270.705 306.807 270.214 305.602 270.991C301.75 273.616 310.822 279.143 312.344 280.153L312.51 280.188C310.694 282.211 309.307 284.669 307.789 286.927C306.811 288.268 306 289.644 306.719 291.172C307.963 293.498 315.459 289.235 318.639 287.328C320.941 290.394 326.343 296.865 328.422 295.241C329.697 294.135 329.345 292.513 328.994 290.891C328.352 288.177 327.877 285.497 326.868 282.877L327.034 282.912C328.738 282.24 339.043 280.291 336.547 276.497ZM326.231 276.037C326.065 276.002 325.898 275.966 325.732 275.931C325.068 275.791 324.666 276.05 324.43 276.344C324.299 276.144 324.202 275.78 324.071 275.58C324.237 275.615 324.237 275.615 324.438 275.486C325.435 275.697 326.632 275.778 327.629 275.988C327.096 276.048 326.764 275.977 326.231 276.037ZM316.061 274.06L315.895 274.025C315.729 273.99 315.563 273.955 315.362 274.084C314.863 273.979 314.531 273.909 314.067 273.639C314.732 273.779 315.397 273.92 316.061 274.06Z" fill="white"/>
</g>
<g clip-path="url(#clip7_622_3)">
<path d="M77.8703 535.114C76.9159 533.881 74.7212 533.589 73.2259 533.273C71.0313 532.981 68.9062 532.36 66.7115 532.069C66.9279 530.223 66.6805 528.108 66.5646 526.192C66.4757 524.97 66.464 522.56 65.641 521.526C65.3783 521.127 64.7485 520.822 64.3466 521.081C63.0098 521.658 62.4612 523.434 61.7193 524.481C60.6027 526.48 59.4514 528.644 58.3348 530.643C56.1749 530.187 53.9802 529.895 51.7856 529.603C50.4564 529.323 48.1304 528.831 46.9249 529.608C43.0728 532.233 52.1451 537.76 53.6675 538.77L53.8336 538.805C52.0177 540.828 50.6306 543.286 49.1122 545.545C48.1347 546.886 47.3233 548.262 48.042 549.789C49.2862 552.115 56.7819 547.853 59.9618 545.945C62.2647 549.011 67.6664 555.482 69.7451 553.858C71.0201 552.752 70.6685 551.13 70.3169 549.508C69.6754 546.794 69.2001 544.114 68.1916 541.494L68.3577 541.529C70.0616 540.858 80.3664 538.908 77.8703 535.114ZM67.5539 534.654C67.3878 534.619 67.2216 534.584 67.0555 534.549C66.3909 534.408 65.9891 534.667 65.7534 534.961C65.622 534.762 65.5254 534.397 65.394 534.198C65.5602 534.233 65.5602 534.233 65.7611 534.103C66.758 534.314 67.9557 534.395 68.9526 534.605C68.4194 534.665 68.0871 534.595 67.5539 534.654ZM57.3843 532.677L57.2182 532.642C57.052 532.607 56.8859 532.572 56.685 532.702C56.1865 532.596 55.8543 532.526 55.3906 532.256C56.0552 532.397 56.7197 532.537 57.3843 532.677Z" fill="#4782AC"/>
<path d="M75.548 530.497C74.5936 529.263 72.399 528.972 70.9037 528.656C68.709 528.364 66.5839 527.743 64.3893 527.452C64.6056 525.606 64.3583 523.491 64.2423 521.575C64.1534 520.352 64.1418 517.943 63.3188 516.909C63.056 516.51 62.5924 516.24 62.0244 516.464C60.6875 517.041 60.1389 518.817 59.3623 520.028C58.2805 521.863 57.1291 524.027 56.0125 526.026C53.8526 525.57 51.658 525.278 49.4633 524.986C48.1342 524.705 45.8082 524.214 44.6027 524.991C40.7505 527.616 49.8228 533.143 51.3452 534.153L51.5114 534.188C49.6954 536.211 48.3084 538.669 46.7899 540.927C45.8124 542.268 45.001 543.644 45.7197 545.172C46.9639 547.498 54.4596 543.235 57.6395 541.328C59.9424 544.394 65.3441 550.865 67.4228 549.241C68.6979 548.135 68.3462 546.513 67.9946 544.891C67.3531 542.177 66.8778 539.497 65.8693 536.877L66.0355 536.912C67.7394 536.24 78.0441 534.291 75.548 530.497ZM65.2316 530.037C65.0655 530.002 64.8993 529.966 64.7332 529.931C64.0686 529.791 63.6668 530.05 63.4311 530.344C63.2997 530.144 63.2031 529.78 63.0718 529.58C63.2379 529.615 63.2379 529.615 63.4388 529.486C64.4357 529.697 65.6335 529.778 66.6303 529.988C66.0971 530.048 65.7648 529.977 65.2316 530.037ZM55.0621 528.06L54.8959 528.025C54.7298 527.99 54.5636 527.955 54.3627 528.084C53.8643 527.979 53.532 527.909 53.0683 527.639C53.7329 527.779 54.3975 527.92 55.0621 528.06Z" fill="white"/>
</g>
<g clip-path="url(#clip8_622_3)">
<path d="M96.8703 979.114C95.9159 977.881 93.7212 977.589 92.2259 977.273C90.0313 976.981 87.9062 976.36 85.7115 976.069C85.9279 974.223 85.6805 972.108 85.5646 970.192C85.4757 968.97 85.464 966.56 84.641 965.526C84.3783 965.127 83.7485 964.822 83.3466 965.081C82.0098 965.658 81.4612 967.434 80.7193 968.481C79.6027 970.48 78.4514 972.644 77.3348 974.643C75.1749 974.187 72.9802 973.895 70.7856 973.603C69.4564 973.323 67.1304 972.831 65.9249 973.608C62.0728 976.233 71.1451 981.76 72.6675 982.77L72.8336 982.805C71.0177 984.828 69.6306 987.286 68.1122 989.545C67.1347 990.886 66.3233 992.262 67.042 993.789C68.2862 996.115 75.7819 991.853 78.9618 989.945C81.2647 993.011 86.6664 999.482 88.7451 997.858C90.0201 996.752 89.6685 995.13 89.3169 993.508C88.6754 990.794 88.2001 988.114 87.1916 985.494L87.3577 985.529C89.0616 984.858 99.3664 982.908 96.8703 979.114ZM86.5539 978.654C86.3878 978.619 86.2216 978.584 86.0555 978.549C85.3909 978.408 84.9891 978.667 84.7534 978.961C84.622 978.762 84.5254 978.397 84.394 978.198C84.5602 978.233 84.5602 978.233 84.7611 978.103C85.758 978.314 86.9557 978.395 87.9526 978.605C87.4194 978.665 87.0871 978.595 86.5539 978.654ZM76.3843 976.677L76.2182 976.642C76.052 976.607 75.8859 976.572 75.685 976.702C75.1865 976.596 74.8543 976.526 74.3906 976.256C75.0552 976.397 75.7197 976.537 76.3843 976.677Z" fill="#4782AC"/>
<path d="M94.548 974.497C93.5936 973.263 91.399 972.972 89.9037 972.656C87.709 972.364 85.5839 971.743 83.3893 971.452C83.6056 969.606 83.3583 967.491 83.2423 965.575C83.1534 964.352 83.1418 961.943 82.3188 960.909C82.056 960.51 81.5924 960.24 81.0244 960.464C79.6875 961.041 79.1389 962.817 78.3623 964.028C77.2805 965.863 76.1291 968.027 75.0125 970.026C72.8526 969.57 70.658 969.278 68.4633 968.986C67.1342 968.705 64.8082 968.214 63.6027 968.991C59.7505 971.616 68.8228 977.143 70.3452 978.153L70.5114 978.188C68.6954 980.211 67.3084 982.669 65.7899 984.927C64.8124 986.268 64.001 987.644 64.7197 989.172C65.9639 991.498 73.4596 987.235 76.6395 985.328C78.9424 988.394 84.3441 994.865 86.4228 993.241C87.6979 992.135 87.3462 990.513 86.9946 988.891C86.3531 986.177 85.8778 983.497 84.8693 980.877L85.0355 980.912C86.7394 980.24 97.0441 978.291 94.548 974.497ZM84.2316 974.037C84.0655 974.002 83.8993 973.966 83.7332 973.931C83.0686 973.791 82.6668 974.05 82.4311 974.344C82.2997 974.144 82.2031 973.78 82.0718 973.58C82.2379 973.615 82.2379 973.615 82.4388 973.486C83.4357 973.697 84.6335 973.778 85.6303 973.988C85.0971 974.048 84.7648 973.977 84.2316 974.037ZM74.0621 972.06L73.8959 972.025C73.7298 971.99 73.5636 971.955 73.3627 972.084C72.8643 971.979 72.532 971.909 72.0683 971.639C72.7329 971.779 73.3975 971.92 74.0621 972.06Z" fill="white"/>
</g>
<g clip-path="url(#clip9_622_3)">
<path d="M113.3 7.6999C114.1 8.7999 114.9 9.9999 115.6 11.2999C115.8 11.6999 116.1 12.0999 116.3 12.4999C116.7 13.1999 117.2 13.9999 117.6 14.7999C118.3 15.9999 119 17.1999 119.7 18.4999C120.3 19.5999 121 20.7999 121.7 22.0999C122.4 23.2999 123.1 24.5999 123.8 25.7999C124.5 26.9999 125.1 28.1999 125.8 29.3999C126.5 30.6999 127.2 31.9999 127.9 33.1999C128.6 34.4999 129.3 35.6999 129.9 36.7999C130.7 38.2999 131.4 39.5999 132 40.5999C132.7 41.7999 133 42.4999 133.1 42.5999C134.1 44.3999 133.5 46.5999 131.9 47.7999C131.8 47.8999 131.7 47.8999 131.5 47.9999C129.6 49.0999 127.1 48.2999 126.1 46.3999C126.1 46.3999 126 46.2999 125.9 45.9999C125.6 45.3999 124.8 44.0999 123.8 42.1999C123.2 41.0999 122.6 39.8999 121.8 38.5999C121.2 37.3999 120.5 36.1999 119.7 34.7999C119.1 33.5999 118.4 32.3999 117.7 31.1999C117 29.9999 116.3 28.6999 115.6 27.3999C114.9 26.1999 114.3 24.9999 113.6 23.8999C112.9 22.5999 112.2 21.2999 111.5 20.1999C110.8 18.8999 110.1 17.6999 109.5 16.6999C109.5 16.5999 109.4 16.4999 109.4 16.4999C108.8 15.3999 108.1 14.2999 107.3 13.0999C106.9 12.5999 106.6 11.9999 106.2 11.4999C105.1 10.0999 104 8.9999 102.9 8.3999C102.6 8.2999 102.4 8.0999 102.1 8.0999C102 7.9999 101.9 7.9999 101.8 7.9999C101.2 7.8999 99.9002 7.9999 97.8002 9.1999C97.6002 9.2999 97.5002 9.3999 97.3002 9.3999C97.2002 9.4999 97.1002 9.5999 97.0002 9.6999C96.5002 10.0999 96.2002 10.5999 96.1002 11.1999C95.9002 12.2999 96.1002 13.6999 96.5002 15.1999C96.6002 15.4999 96.7002 15.7999 96.8002 16.0999C97.4002 17.6999 98.2002 19.2999 98.9002 20.4999C99.1002 20.8999 99.3002 21.1999 99.5002 21.4999C100.2 22.5999 100.4 23.8999 99.9002 25.0999C99.6002 25.7999 99.1002 26.4999 98.4002 26.9999C96.6002 28.1999 94.1002 27.7999 92.9002 25.8999C92.8002 25.6999 92.4002 25.0999 91.9002 24.2999C91.2002 23.1999 90.4002 21.4999 89.7002 19.5999C89.2002 18.2999 88.7002 16.7999 88.5002 15.2999C88.1002 13.3999 88.1002 11.4999 88.5002 9.5999C88.7002 8.8999 88.9002 8.1999 89.2002 7.4999C89.5002 6.0999 90.3002 4.9999 91.4002 3.9999C91.9002 3.4999 92.5002 3.0999 93.2002 2.6999C94.1002 2.1999 95.0002 1.6999 95.8002 1.2999C97.2002 0.699901 98.5002 0.299901 99.8002 0.0999014C101.3 -0.100099 102.7 -9.85563e-05 104.1 0.299901C104.7 0.499901 105.3 0.699901 105.9 0.899901C107.2 1.4999 108.4 2.2999 109.5 3.2999C110.9 4.5999 112.1 6.0999 113.3 7.6999Z" fill="white"/>
<path d="M96.6998 16.0998C97.2998 17.6998 98.0998 19.2998 98.7998 20.4998L89.4998 19.5998C88.9998 18.2998 88.4998 16.7998 88.2998 15.2998L96.6998 16.0998Z" fill="#DE6C92"/>
<path d="M99.7998 25C99.4998 25.7 98.9998 26.4 98.2998 26.9C96.4998 28.1 93.9998 27.6999 92.7998 25.7999C92.6998 25.5999 92.2998 25 91.7998 24.2L99.7998 25Z" fill="#DE6C92"/>
<path d="M96.9994 9.69976C96.4994 10.0998 96.1994 10.5998 96.0994 11.1998C95.8994 12.2998 96.0994 13.6998 96.4994 15.1998L88.8994 7.49976C89.4994 6.09976 90.2994 4.99976 91.3994 3.99976L96.9994 9.69976Z" fill="#DE6C92"/>
<path d="M99.7998 0.0998535L101.8 7.99985C101.2 7.89985 99.8998 7.99985 97.7998 9.19985L95.7998 1.29985C97.0998 0.699853 98.4998 0.299854 99.7998 0.0998535Z" fill="#DE6C92"/>
<path d="M109.499 3.29976L106.199 11.3998C105.099 10.0998 103.999 8.99976 102.899 8.39976L105.899 0.999756C107.199 1.59976 108.399 2.39976 109.499 3.29976Z" fill="#DE6C92"/>
<path d="M113.3 7.69995C114.1 8.79995 114.9 9.99995 115.6 11.3L109.5 16.7C109.5 16.6 109.4 16.5 109.4 16.5C108.8 15.4 108.1 14.3 107.3 13.1L113.3 7.69995Z" fill="#DE6C92"/>
<path d="M117.6 14.7998C118.3 15.9998 119 17.1998 119.7 18.4998L113.6 23.8998C112.9 22.5998 112.2 21.2998 111.5 20.1998L117.6 14.7998Z" fill="#DE6C92"/>
<path d="M121.7 22.0999C122.4 23.2999 123.1 24.5999 123.8 25.7999L117.7 31.1999C117 29.9999 116.3 28.6999 115.6 27.3999L121.7 22.0999Z" fill="#DE6C92"/>
<path d="M125.7 29.3999C126.4 30.6999 127.1 31.9999 127.8 33.1999L121.7 38.5999C121.1 37.3999 120.4 36.1999 119.6 34.7999L125.7 29.3999Z" fill="#DE6C92"/>
<path d="M129.799 36.7C130.599 38.2 131.299 39.5 131.899 40.5L125.799 45.9C125.499 45.3 124.699 43.9999 123.699 42.0999L129.799 36.7Z" fill="#DE6C92"/>
</g>
<defs>
<clipPath id="clip0_622_3">
<rect width="5.8" height="6" fill="white" transform="translate(0 1044)"/>
</clipPath>
<clipPath id="clip1_622_3">
<rect width="19.1" height="16.8" fill="white" transform="translate(284 136)"/>
</clipPath>
<clipPath id="clip2_622_3">
<rect width="19.1" height="16.8" fill="white" transform="translate(23 390)"/>
</clipPath>
<clipPath id="clip3_622_3">
<rect width="19.1" height="16.8" fill="white" transform="translate(42 834)"/>
</clipPath>
<clipPath id="clip4_622_3">
<rect width="5.8" height="6" fill="white" transform="translate(242 346)"/>
</clipPath>
<clipPath id="clip5_622_3">
<rect width="19.1" height="16.8" fill="white" transform="translate(155 266)"/>
</clipPath>
<clipPath id="clip6_622_3">
<rect width="36" height="36" fill="white" transform="translate(307.441 259) rotate(11.9286)"/>
</clipPath>
<clipPath id="clip7_622_3">
<rect width="36" height="36" fill="white" transform="translate(46.4414 513) rotate(11.9286)"/>
</clipPath>
<clipPath id="clip8_622_3">
<rect width="36" height="36" fill="white" transform="translate(65.4414 957) rotate(11.9286)"/>
</clipPath>
<clipPath id="clip9_622_3">
<rect width="45.4" height="48.4" fill="white" transform="translate(88)"/>
</clipPath>
</defs>
</svg>
