<svg width="275" height="1226" viewBox="0 0 275 1226" fill="none" xmlns="http://www.w3.org/2000/svg">
<g clip-path="url(#clip0_622_8)">
<path d="M92.1001 1156.8C91.9001 1156.8 91.7001 1156.7 91.6001 1156.5L82.6001 1140.8C82.4001 1140.6 82.5001 1140.3 82.8001 1140.1C83.0001 1140 83.3001 1140.1 83.5001 1140.3L92.5001 1156C92.6001 1156.3 92.6001 1156.6 92.3001 1156.7C92.3001 1156.7 92.2001 1156.8 92.1001 1156.8Z" fill="white"/>
<path d="M96.6 1148.9H78.5C78.2 1148.9 78 1148.7 78 1148.4C78 1148.1 78.2 1147.9 78.5 1147.9H96.6C96.9 1147.9 97.1 1148.1 97.1 1148.4C97.1 1148.7 96.9 1148.9 96.6 1148.9Z" fill="white"/>
<path d="M82.9993 1156.7C82.8993 1156.7 82.7993 1156.7 82.6993 1156.6C82.3993 1156.5 82.3993 1156.1 82.4993 1155.9L91.4993 1140.2C91.5993 1139.9 91.9993 1139.9 92.1993 1140C92.4993 1140.1 92.4993 1140.5 92.3993 1140.7L83.3993 1156.4C83.3993 1156.6 83.1993 1156.7 82.9993 1156.7Z" fill="white"/>
<path d="M93.8002 1152.4C93.7002 1152.4 93.7002 1152.4 93.6002 1152.3L81.2002 1145.2C81.0002 1145.1 80.9002 1144.8 81.0002 1144.6C81.1002 1144.4 81.4002 1144.3 81.6002 1144.4L94.0002 1151.6C94.2002 1151.7 94.3002 1152 94.2002 1152.2C94.1002 1152.3 93.9002 1152.4 93.8002 1152.4Z" fill="white"/>
<path d="M81.4002 1152.4C81.3002 1152.4 81.1002 1152.3 81.0002 1152.2C80.9002 1152 81.0002 1151.7 81.2002 1151.6L93.6002 1144.4C93.8002 1144.3 94.1002 1144.4 94.2002 1144.6C94.3002 1144.8 94.2002 1145.1 94.0002 1145.2L81.6002 1152.3C81.5002 1152.4 81.4002 1152.4 81.4002 1152.4Z" fill="white"/>
<path d="M87.5992 1155.9C87.3992 1155.9 87.1992 1155.7 87.1992 1155.5V1141.2C87.1992 1141 87.3992 1140.8 87.5992 1140.8C87.7992 1140.8 87.9992 1141 87.9992 1141.2V1155.5C87.9992 1155.8 87.7992 1155.9 87.5992 1155.9Z" fill="white"/>
</g>
<g clip-path="url(#clip1_622_8)">
<path d="M221.1 1026.8C220.9 1026.8 220.7 1026.7 220.6 1026.5L211.6 1010.8C211.4 1010.6 211.5 1010.3 211.8 1010.1C212 1010 212.3 1010.1 212.5 1010.3L221.5 1026C221.6 1026.3 221.6 1026.6 221.3 1026.7C221.3 1026.7 221.2 1026.8 221.1 1026.8Z" fill="white"/>
<path d="M225.6 1018.9H207.5C207.2 1018.9 207 1018.7 207 1018.4C207 1018.1 207.2 1017.9 207.5 1017.9H225.6C225.9 1017.9 226.1 1018.1 226.1 1018.4C226.1 1018.7 225.9 1018.9 225.6 1018.9Z" fill="white"/>
<path d="M211.999 1026.7C211.899 1026.7 211.799 1026.7 211.699 1026.6C211.399 1026.5 211.399 1026.1 211.499 1025.9L220.499 1010.2C220.599 1009.9 220.999 1009.9 221.199 1010C221.499 1010.1 221.499 1010.5 221.399 1010.7L212.399 1026.4C212.399 1026.6 212.199 1026.7 211.999 1026.7Z" fill="white"/>
<path d="M222.8 1022.4C222.7 1022.4 222.7 1022.4 222.6 1022.3L210.2 1015.2C210 1015.1 209.9 1014.8 210 1014.6C210.1 1014.4 210.4 1014.3 210.6 1014.4L223 1021.6C223.2 1021.7 223.3 1022 223.2 1022.2C223.1 1022.3 222.9 1022.4 222.8 1022.4Z" fill="white"/>
<path d="M210.4 1022.4C210.3 1022.4 210.1 1022.3 210 1022.2C209.9 1022 210 1021.7 210.2 1021.6L222.6 1014.4C222.8 1014.3 223.1 1014.4 223.2 1014.6C223.3 1014.8 223.2 1015.1 223 1015.2L210.6 1022.3C210.5 1022.4 210.4 1022.4 210.4 1022.4Z" fill="white"/>
<path d="M216.599 1025.9C216.399 1025.9 216.199 1025.7 216.199 1025.5V1011.2C216.199 1011 216.399 1010.8 216.599 1010.8C216.799 1010.8 216.999 1011 216.999 1011.2V1025.5C216.999 1025.8 216.799 1025.9 216.599 1025.9Z" fill="white"/>
</g>
<g clip-path="url(#clip2_622_8)">
<path d="M167.9 1220C164 1220 164 1226 167.9 1226C171.8 1226 171.8 1220 167.9 1220Z" fill="white"/>
</g>
<g clip-path="url(#clip3_622_8)">
<path d="M89.8996 210C85.9996 210 85.9996 216 89.8996 216C93.7996 216 93.7996 210 89.8996 210Z" fill="white"/>
</g>
<g clip-path="url(#clip4_622_8)">
<path d="M176.9 706C173 706 173 712 176.9 712C180.8 712 180.8 706 176.9 706Z" fill="white"/>
</g>
<g clip-path="url(#clip5_622_8)">
<path d="M101.1 642.8C100.9 642.8 100.7 642.7 100.6 642.5L91.6001 626.8C91.4001 626.6 91.5001 626.3 91.8001 626.1C92.0001 626 92.3001 626.1 92.5001 626.3L101.5 642C101.6 642.3 101.6 642.6 101.3 642.7C101.3 642.7 101.2 642.8 101.1 642.8Z" fill="white"/>
<path d="M105.6 634.9H87.5C87.2 634.9 87 634.7 87 634.4C87 634.1 87.2 633.9 87.5 633.9H105.6C105.9 633.9 106.1 634.1 106.1 634.4C106.1 634.7 105.9 634.9 105.6 634.9Z" fill="white"/>
<path d="M91.9993 642.7C91.8993 642.7 91.7993 642.7 91.6993 642.6C91.3993 642.5 91.3993 642.1 91.4993 641.9L100.499 626.2C100.599 625.9 100.999 625.9 101.199 626C101.499 626.1 101.499 626.5 101.399 626.7L92.3993 642.4C92.3993 642.6 92.1993 642.7 91.9993 642.7Z" fill="white"/>
<path d="M102.8 638.4C102.7 638.4 102.7 638.4 102.6 638.3L90.2002 631.2C90.0002 631.1 89.9002 630.8 90.0002 630.6C90.1002 630.4 90.4002 630.3 90.6002 630.4L103 637.6C103.2 637.7 103.3 638 103.2 638.2C103.1 638.3 102.9 638.4 102.8 638.4Z" fill="white"/>
<path d="M90.4002 638.4C90.3002 638.4 90.1002 638.3 90.0002 638.2C89.9002 638 90.0002 637.7 90.2002 637.6L102.6 630.4C102.8 630.3 103.1 630.4 103.2 630.6C103.3 630.8 103.2 631.1 103 631.2L90.6002 638.3C90.5002 638.4 90.4002 638.4 90.4002 638.4Z" fill="white"/>
<path d="M96.5992 641.9C96.3992 641.9 96.1992 641.7 96.1992 641.5V627.2C96.1992 627 96.3992 626.8 96.5992 626.8C96.7992 626.8 96.9992 627 96.9992 627.2V641.5C96.9992 641.8 96.7992 641.9 96.5992 641.9Z" fill="white"/>
</g>
<g clip-path="url(#clip6_622_8)">
<path d="M143.1 16.8C142.9 16.8 142.7 16.7 142.6 16.5L133.6 0.800022C133.4 0.600022 133.5 0.300021 133.8 0.100022C134 2.14987e-05 134.3 0.100022 134.5 0.300022L143.5 16C143.6 16.3 143.6 16.6 143.3 16.7C143.3 16.7 143.2 16.8 143.1 16.8Z" fill="white"/>
<path d="M147.6 8.8999H129.5C129.2 8.8999 129 8.6999 129 8.3999C129 8.0999 129.2 7.8999 129.5 7.8999H147.6C147.9 7.8999 148.1 8.0999 148.1 8.3999C148.1 8.6999 147.9 8.8999 147.6 8.8999Z" fill="white"/>
<path d="M133.999 16.7C133.899 16.7 133.799 16.7 133.699 16.6C133.399 16.5 133.399 16.1 133.499 15.9L142.499 0.199993C142.599 -0.100007 142.999 -0.100007 143.199 -6.82846e-06C143.499 0.0999932 143.499 0.499993 143.399 0.699993L134.399 16.4C134.399 16.6 134.199 16.7 133.999 16.7Z" fill="white"/>
<path d="M144.8 12.4001C144.7 12.4001 144.7 12.4001 144.6 12.3001L132.2 5.20007C132 5.10007 131.9 4.80007 132 4.60007C132.1 4.40007 132.4 4.30007 132.6 4.40007L145 11.6001C145.2 11.7001 145.3 12.0001 145.2 12.2001C145.1 12.3001 144.9 12.4001 144.8 12.4001Z" fill="white"/>
<path d="M132.4 12.4001C132.3 12.4001 132.1 12.3001 132 12.2001C131.9 12.0001 132 11.7001 132.2 11.6001L144.6 4.40007C144.8 4.30007 145.1 4.40007 145.2 4.60007C145.3 4.80007 145.2 5.10007 145 5.20007L132.6 12.3001C132.5 12.4001 132.4 12.4001 132.4 12.4001Z" fill="white"/>
<path d="M138.599 15.9C138.399 15.9 138.199 15.7 138.199 15.5V1.20005C138.199 1.00005 138.399 0.800049 138.599 0.800049C138.799 0.800049 138.999 1.00005 138.999 1.20005V15.5C138.999 15.8 138.799 15.9 138.599 15.9Z" fill="white"/>
</g>
<g clip-path="url(#clip7_622_8)">
<path d="M230.1 512.8C229.9 512.8 229.7 512.7 229.6 512.5L220.6 496.8C220.4 496.6 220.5 496.3 220.8 496.1C221 496 221.3 496.1 221.5 496.3L230.5 512C230.6 512.3 230.6 512.6 230.3 512.7C230.3 512.7 230.2 512.8 230.1 512.8Z" fill="white"/>
<path d="M234.6 504.9H216.5C216.2 504.9 216 504.7 216 504.4C216 504.1 216.2 503.9 216.5 503.9H234.6C234.9 503.9 235.1 504.1 235.1 504.4C235.1 504.7 234.9 504.9 234.6 504.9Z" fill="white"/>
<path d="M220.999 512.7C220.899 512.7 220.799 512.7 220.699 512.6C220.399 512.5 220.399 512.1 220.499 511.9L229.499 496.2C229.599 495.9 229.999 495.9 230.199 496C230.499 496.1 230.499 496.5 230.399 496.7L221.399 512.4C221.399 512.6 221.199 512.7 220.999 512.7Z" fill="white"/>
<path d="M231.8 508.4C231.7 508.4 231.7 508.4 231.6 508.3L219.2 501.2C219 501.1 218.9 500.8 219 500.6C219.1 500.4 219.4 500.3 219.6 500.4L232 507.6C232.2 507.7 232.3 508 232.2 508.2C232.1 508.3 231.9 508.4 231.8 508.4Z" fill="white"/>
<path d="M219.4 508.4C219.3 508.4 219.1 508.3 219 508.2C218.9 508 219 507.7 219.2 507.6L231.6 500.4C231.8 500.3 232.1 500.4 232.2 500.6C232.3 500.8 232.2 501.1 232 501.2L219.6 508.3C219.5 508.4 219.4 508.4 219.4 508.4Z" fill="white"/>
<path d="M225.599 511.9C225.399 511.9 225.199 511.7 225.199 511.5V497.2C225.199 497 225.399 496.8 225.599 496.8C225.799 496.8 225.999 497 225.999 497.2V511.5C225.999 511.8 225.799 511.9 225.599 511.9Z" fill="white"/>
</g>
<g clip-path="url(#clip8_622_8)">
<path d="M14.1001 146.8C13.9001 146.8 13.7001 146.7 13.6001 146.5L4.60015 130.8C4.40015 130.6 4.50015 130.3 4.80015 130.1C5.00015 130 5.30015 130.1 5.50015 130.3L14.5001 146C14.6001 146.3 14.6001 146.6 14.3001 146.7C14.3001 146.7 14.2001 146.8 14.1001 146.8Z" fill="white"/>
<path d="M18.6 138.9H0.5C0.2 138.9 0 138.7 0 138.4C0 138.1 0.2 137.9 0.5 137.9H18.6C18.9 137.9 19.1 138.1 19.1 138.4C19.1 138.7 18.9 138.9 18.6 138.9Z" fill="white"/>
<path d="M4.99926 146.7C4.89926 146.7 4.79926 146.7 4.69926 146.6C4.39926 146.5 4.39926 146.1 4.49926 145.9L13.4993 130.2C13.5993 129.9 13.9993 129.9 14.1993 130C14.4993 130.1 14.4993 130.5 14.3993 130.7L5.39926 146.4C5.39926 146.6 5.19926 146.7 4.99926 146.7Z" fill="white"/>
<path d="M15.8002 142.4C15.7002 142.4 15.7002 142.4 15.6002 142.3L3.20017 135.2C3.00017 135.1 2.90017 134.8 3.00017 134.6C3.10017 134.4 3.40017 134.3 3.60017 134.4L16.0002 141.6C16.2002 141.7 16.3002 142 16.2002 142.2C16.1002 142.3 15.9002 142.4 15.8002 142.4Z" fill="white"/>
<path d="M3.40017 142.4C3.30017 142.4 3.10017 142.3 3.00017 142.2C2.90017 142 3.00017 141.7 3.20017 141.6L15.6002 134.4C15.8002 134.3 16.1002 134.4 16.2002 134.6C16.3002 134.8 16.2002 135.1 16.0002 135.2L3.60017 142.3C3.50017 142.4 3.40017 142.4 3.40017 142.4Z" fill="white"/>
<path d="M9.59922 145.9C9.39922 145.9 9.19922 145.7 9.19922 145.5V131.2C9.19922 131 9.39922 130.8 9.59922 130.8C9.79922 130.8 9.99922 131 9.99922 131.2V145.5C9.99922 145.8 9.79922 145.9 9.59922 145.9Z" fill="white"/>
</g>
<g clip-path="url(#clip9_622_8)">
<path d="M183.869 145.114C182.915 143.881 180.72 143.589 179.225 143.273C177.03 142.981 174.905 142.36 172.711 142.069C172.927 140.223 172.68 138.108 172.564 136.192C172.475 134.97 172.463 132.56 171.64 131.526C171.377 131.127 170.747 130.822 170.346 131.081C169.009 131.658 168.46 133.434 167.718 134.481C166.602 136.48 165.45 138.644 164.334 140.643C162.174 140.187 159.979 139.895 157.785 139.603C156.455 139.323 154.129 138.831 152.924 139.608C149.072 142.233 158.144 147.76 159.666 148.77L159.833 148.805C158.017 150.828 156.63 153.286 155.111 155.545C154.134 156.886 153.322 158.262 154.041 159.789C155.285 162.115 162.781 157.853 165.961 155.945C168.264 159.011 173.665 165.482 175.744 163.858C177.019 162.752 176.668 161.13 176.316 159.508C175.674 156.794 175.199 154.114 174.191 151.494L174.357 151.529C176.061 150.858 186.365 148.908 183.869 145.114ZM173.553 144.654C173.387 144.619 173.221 144.584 173.054 144.549C172.39 144.408 171.988 144.667 171.752 144.961C171.621 144.762 171.524 144.397 171.393 144.198C171.559 144.233 171.559 144.233 171.76 144.103C172.757 144.314 173.955 144.395 174.952 144.605C174.418 144.665 174.086 144.595 173.553 144.654ZM163.383 142.677L163.217 142.642C163.051 142.607 162.885 142.572 162.684 142.702C162.186 142.596 161.853 142.526 161.39 142.256C162.054 142.397 162.719 142.537 163.383 142.677Z" fill="#4782AC"/>
<path d="M181.547 140.497C180.593 139.263 178.398 138.972 176.903 138.656C174.708 138.364 172.583 137.743 170.388 137.452C170.605 135.606 170.357 133.491 170.241 131.575C170.152 130.352 170.141 127.943 169.318 126.909C169.055 126.51 168.591 126.24 168.023 126.464C166.687 127.041 166.138 128.817 165.361 130.028C164.279 131.863 163.128 134.027 162.012 136.026C159.852 135.57 157.657 135.278 155.462 134.986C154.133 134.705 151.807 134.214 150.602 134.991C146.75 137.616 155.822 143.143 157.344 144.153L157.51 144.188C155.694 146.211 154.307 148.669 152.789 150.927C151.811 152.268 151 153.644 151.719 155.172C152.963 157.498 160.459 153.235 163.639 151.328C165.941 154.394 171.343 160.865 173.422 159.241C174.697 158.135 174.345 156.513 173.994 154.891C173.352 152.177 172.877 149.497 171.868 146.877L172.034 146.912C173.738 146.24 184.043 144.291 181.547 140.497ZM171.231 140.037C171.065 140.002 170.898 139.966 170.732 139.931C170.068 139.791 169.666 140.05 169.43 140.344C169.299 140.144 169.202 139.78 169.071 139.58C169.237 139.615 169.237 139.615 169.438 139.486C170.435 139.697 171.632 139.778 172.629 139.988C172.096 140.048 171.764 139.977 171.231 140.037ZM161.061 138.06L160.895 138.025C160.729 137.99 160.563 137.955 160.362 138.084C159.863 137.979 159.531 137.909 159.067 137.639C159.732 137.779 160.397 137.92 161.061 138.06Z" fill="white"/>
</g>
<g clip-path="url(#clip10_622_8)">
<path d="M270.869 641.114C269.915 639.881 267.72 639.589 266.225 639.273C264.03 638.981 261.905 638.36 259.711 638.069C259.927 636.223 259.68 634.108 259.564 632.192C259.475 630.97 259.463 628.56 258.64 627.526C258.377 627.127 257.747 626.822 257.346 627.081C256.009 627.658 255.46 629.434 254.718 630.481C253.602 632.48 252.45 634.644 251.334 636.643C249.174 636.187 246.979 635.895 244.785 635.603C243.455 635.323 241.129 634.831 239.924 635.608C236.072 638.233 245.144 643.76 246.666 644.77L246.833 644.805C245.017 646.828 243.63 649.286 242.111 651.545C241.134 652.886 240.322 654.262 241.041 655.789C242.285 658.115 249.781 653.853 252.961 651.945C255.264 655.011 260.665 661.482 262.744 659.858C264.019 658.752 263.668 657.13 263.316 655.508C262.674 652.794 262.199 650.114 261.191 647.494L261.357 647.529C263.061 646.858 273.365 644.908 270.869 641.114ZM260.553 640.654C260.387 640.619 260.221 640.584 260.054 640.549C259.39 640.408 258.988 640.667 258.752 640.961C258.621 640.762 258.524 640.397 258.393 640.198C258.559 640.233 258.559 640.233 258.76 640.103C259.757 640.314 260.955 640.395 261.952 640.605C261.418 640.665 261.086 640.595 260.553 640.654ZM250.383 638.677L250.217 638.642C250.051 638.607 249.885 638.572 249.684 638.702C249.186 638.596 248.853 638.526 248.39 638.256C249.054 638.397 249.719 638.537 250.383 638.677Z" fill="#4782AC"/>
<path d="M268.547 636.497C267.593 635.263 265.398 634.972 263.903 634.656C261.708 634.364 259.583 633.743 257.388 633.452C257.605 631.606 257.357 629.491 257.241 627.575C257.152 626.352 257.141 623.943 256.318 622.909C256.055 622.51 255.591 622.24 255.023 622.464C253.687 623.041 253.138 624.817 252.361 626.028C251.279 627.863 250.128 630.027 249.012 632.026C246.852 631.57 244.657 631.278 242.462 630.986C241.133 630.705 238.807 630.214 237.602 630.991C233.75 633.616 242.822 639.143 244.344 640.153L244.51 640.188C242.694 642.211 241.307 644.669 239.789 646.927C238.811 648.268 238 649.644 238.719 651.172C239.963 653.498 247.459 649.235 250.639 647.328C252.941 650.394 258.343 656.865 260.422 655.241C261.697 654.135 261.345 652.513 260.994 650.891C260.352 648.177 259.877 645.497 258.868 642.877L259.034 642.912C260.738 642.24 271.043 640.291 268.547 636.497ZM258.231 636.037C258.065 636.002 257.898 635.966 257.732 635.931C257.068 635.791 256.666 636.05 256.43 636.344C256.299 636.144 256.202 635.78 256.071 635.58C256.237 635.615 256.237 635.615 256.438 635.486C257.435 635.697 258.632 635.778 259.629 635.988C259.096 636.048 258.764 635.977 258.231 636.037ZM248.061 634.06L247.895 634.025C247.729 633.99 247.563 633.955 247.362 634.084C246.863 633.979 246.531 633.909 246.067 633.639C246.732 633.779 247.397 633.92 248.061 634.06Z" fill="white"/>
</g>
<g clip-path="url(#clip11_622_8)">
<path d="M261.869 1155.11C260.915 1153.88 258.72 1153.59 257.225 1153.27C255.03 1152.98 252.905 1152.36 250.711 1152.07C250.927 1150.22 250.68 1148.11 250.564 1146.19C250.475 1144.97 250.463 1142.56 249.64 1141.53C249.377 1141.13 248.747 1140.82 248.346 1141.08C247.009 1141.66 246.46 1143.43 245.718 1144.48C244.602 1146.48 243.45 1148.64 242.334 1150.64C240.174 1150.19 237.979 1149.9 235.785 1149.6C234.455 1149.32 232.129 1148.83 230.924 1149.61C227.072 1152.23 236.144 1157.76 237.666 1158.77L237.833 1158.8C236.017 1160.83 234.63 1163.29 233.111 1165.54C232.134 1166.89 231.322 1168.26 232.041 1169.79C233.285 1172.11 240.781 1167.85 243.961 1165.95C246.264 1169.01 251.665 1175.48 253.744 1173.86C255.019 1172.75 254.668 1171.13 254.316 1169.51C253.674 1166.79 253.199 1164.11 252.191 1161.49L252.357 1161.53C254.061 1160.86 264.365 1158.91 261.869 1155.11ZM251.553 1154.65C251.387 1154.62 251.221 1154.58 251.054 1154.55C250.39 1154.41 249.988 1154.67 249.752 1154.96C249.621 1154.76 249.524 1154.4 249.393 1154.2C249.559 1154.23 249.559 1154.23 249.76 1154.1C250.757 1154.31 251.955 1154.39 252.952 1154.61C252.418 1154.66 252.086 1154.59 251.553 1154.65ZM241.383 1152.68L241.217 1152.64C241.051 1152.61 240.885 1152.57 240.684 1152.7C240.186 1152.6 239.853 1152.53 239.39 1152.26C240.054 1152.4 240.719 1152.54 241.383 1152.68Z" fill="#4782AC"/>
<path d="M259.547 1150.5C258.593 1149.26 256.398 1148.97 254.903 1148.66C252.708 1148.36 250.583 1147.74 248.388 1147.45C248.605 1145.61 248.357 1143.49 248.241 1141.57C248.152 1140.35 248.141 1137.94 247.318 1136.91C247.055 1136.51 246.591 1136.24 246.023 1136.46C244.687 1137.04 244.138 1138.82 243.361 1140.03C242.279 1141.86 241.128 1144.03 240.012 1146.03C237.852 1145.57 235.657 1145.28 233.462 1144.99C232.133 1144.71 229.807 1144.21 228.602 1144.99C224.75 1147.62 233.822 1153.14 235.344 1154.15L235.51 1154.19C233.694 1156.21 232.307 1158.67 230.789 1160.93C229.811 1162.27 229 1163.64 229.719 1165.17C230.963 1167.5 238.459 1163.24 241.639 1161.33C243.941 1164.39 249.343 1170.86 251.422 1169.24C252.697 1168.13 252.345 1166.51 251.994 1164.89C251.352 1162.18 250.877 1159.5 249.868 1156.88L250.034 1156.91C251.738 1156.24 262.043 1154.29 259.547 1150.5ZM249.231 1150.04C249.065 1150 248.898 1149.97 248.732 1149.93C248.068 1149.79 247.666 1150.05 247.43 1150.34C247.299 1150.14 247.202 1149.78 247.071 1149.58C247.237 1149.62 247.237 1149.62 247.438 1149.49C248.435 1149.7 249.632 1149.78 250.629 1149.99C250.096 1150.05 249.764 1149.98 249.231 1150.04ZM239.061 1148.06L238.895 1148.03C238.729 1147.99 238.563 1147.95 238.362 1148.08C237.863 1147.98 237.531 1147.91 237.067 1147.64C237.732 1147.78 238.397 1147.92 239.061 1148.06Z" fill="white"/>
</g>
<g clip-path="url(#clip12_622_8)">
<path d="M112.299 872.7C113.099 873.8 113.899 875 114.599 876.3C114.799 876.7 115.099 877.1 115.299 877.5C115.699 878.2 116.199 879 116.599 879.8C117.299 881 117.999 882.2 118.699 883.5C119.299 884.6 119.999 885.8 120.699 887.1C121.399 888.3 122.099 889.6 122.799 890.8C123.499 892 124.099 893.2 124.799 894.4C125.499 895.7 126.199 897 126.899 898.2C127.599 899.5 128.299 900.7 128.899 901.8C129.699 903.3 130.399 904.6 130.999 905.6C131.699 906.8 131.999 907.5 132.099 907.6C133.099 909.4 132.499 911.6 130.899 912.8C130.799 912.9 130.699 912.9 130.499 913C128.599 914.1 126.099 913.3 125.099 911.4C125.099 911.4 124.999 911.3 124.899 911C124.599 910.4 123.799 909.1 122.799 907.2C122.199 906.1 121.599 904.9 120.799 903.6C120.199 902.4 119.499 901.2 118.699 899.8C118.099 898.6 117.399 897.4 116.699 896.2C115.999 895 115.299 893.7 114.599 892.4C113.899 891.2 113.299 890 112.599 888.9C111.899 887.6 111.199 886.3 110.499 885.2C109.799 883.9 109.099 882.7 108.499 881.7C108.499 881.6 108.399 881.5 108.399 881.5C107.799 880.4 107.099 879.3 106.299 878.1C105.899 877.6 105.599 877 105.199 876.5C104.099 875.1 102.999 874 101.899 873.4C101.599 873.3 101.399 873.1 101.099 873.1C100.999 873 100.899 873 100.799 873C100.199 872.9 98.8992 873 96.7992 874.2C96.5992 874.3 96.4992 874.4 96.2992 874.4C96.1992 874.5 96.0992 874.6 95.9992 874.7C95.4992 875.1 95.1992 875.6 95.0992 876.2C94.8992 877.3 95.0992 878.7 95.4992 880.2C95.5992 880.5 95.6992 880.8 95.7992 881.1C96.3992 882.7 97.1992 884.3 97.8992 885.5C98.0992 885.9 98.2992 886.2 98.4992 886.5C99.1992 887.6 99.3992 888.9 98.8992 890.1C98.5992 890.8 98.0992 891.5 97.3992 892C95.5992 893.2 93.0992 892.8 91.8992 890.9C91.7992 890.7 91.3992 890.1 90.8992 889.3C90.1992 888.2 89.3992 886.5 88.6992 884.6C88.1992 883.3 87.6992 881.8 87.4992 880.3C87.0992 878.4 87.0992 876.5 87.4992 874.6C87.6992 873.9 87.8992 873.2 88.1992 872.5C88.4992 871.1 89.2992 870 90.3992 869C90.8992 868.5 91.4992 868.1 92.1992 867.7C93.0992 867.2 93.9992 866.7 94.7992 866.3C96.1992 865.7 97.4992 865.3 98.7992 865.1C100.299 864.9 101.699 865 103.099 865.3C103.699 865.5 104.299 865.7 104.899 865.9C106.199 866.5 107.399 867.3 108.499 868.3C109.899 869.6 111.099 871.1 112.299 872.7Z" fill="white"/>
<path d="M95.6988 881.1C96.2988 882.7 97.0988 884.3 97.7988 885.5L88.4988 884.6C87.9988 883.3 87.4988 881.8 87.2988 880.3L95.6988 881.1Z" fill="#DE6C92"/>
<path d="M98.7988 890C98.4988 890.7 97.9988 891.4 97.2988 891.9C95.4988 893.1 92.9988 892.7 91.7988 890.8C91.6988 890.6 91.2988 890 90.7988 889.2L98.7988 890Z" fill="#DE6C92"/>
<path d="M95.9984 874.7C95.4984 875.1 95.1984 875.6 95.0984 876.2C94.8984 877.3 95.0984 878.7 95.4984 880.2L87.8984 872.5C88.4984 871.1 89.2984 870 90.3984 869L95.9984 874.7Z" fill="#DE6C92"/>
<path d="M98.7988 865.1L100.799 873C100.199 872.9 98.8988 873 96.7988 874.2L94.7988 866.3C96.0988 865.7 97.4988 865.3 98.7988 865.1Z" fill="#DE6C92"/>
<path d="M108.498 868.3L105.198 876.4C104.098 875.1 102.998 874 101.898 873.4L104.898 866C106.198 866.6 107.398 867.4 108.498 868.3Z" fill="#DE6C92"/>
<path d="M112.299 872.7C113.099 873.8 113.899 875 114.599 876.3L108.499 881.7C108.499 881.6 108.399 881.5 108.399 881.5C107.799 880.4 107.099 879.3 106.299 878.1L112.299 872.7Z" fill="#DE6C92"/>
<path d="M116.598 879.8C117.298 881 117.998 882.2 118.698 883.5L112.598 888.9C111.898 887.6 111.198 886.3 110.498 885.2L116.598 879.8Z" fill="#DE6C92"/>
<path d="M120.7 887.1C121.4 888.3 122.1 889.6 122.8 890.8L116.7 896.2C116 895 115.3 893.7 114.6 892.4L120.7 887.1Z" fill="#DE6C92"/>
<path d="M124.7 894.4C125.4 895.7 126.1 897 126.8 898.2L120.7 903.6C120.1 902.4 119.4 901.2 118.6 899.8L124.7 894.4Z" fill="#DE6C92"/>
<path d="M128.799 901.7C129.599 903.2 130.299 904.5 130.899 905.5L124.799 910.9C124.499 910.3 123.699 909 122.699 907.1L128.799 901.7Z" fill="#DE6C92"/>
</g>
<defs>
<clipPath id="clip0_622_8">
<rect width="19.1" height="16.8" fill="white" transform="translate(78 1140)"/>
</clipPath>
<clipPath id="clip1_622_8">
<rect width="19.1" height="16.8" fill="white" transform="translate(207 1010)"/>
</clipPath>
<clipPath id="clip2_622_8">
<rect width="5.8" height="6" fill="white" transform="translate(165 1220)"/>
</clipPath>
<clipPath id="clip3_622_8">
<rect width="5.8" height="6" fill="white" transform="translate(87 210)"/>
</clipPath>
<clipPath id="clip4_622_8">
<rect width="5.8" height="6" fill="white" transform="translate(174 706)"/>
</clipPath>
<clipPath id="clip5_622_8">
<rect width="19.1" height="16.8" fill="white" transform="translate(87 626)"/>
</clipPath>
<clipPath id="clip6_622_8">
<rect width="19.1" height="16.8" fill="white" transform="translate(129)"/>
</clipPath>
<clipPath id="clip7_622_8">
<rect width="19.1" height="16.8" fill="white" transform="translate(216 496)"/>
</clipPath>
<clipPath id="clip8_622_8">
<rect width="19.1" height="16.8" fill="white" transform="translate(0 130)"/>
</clipPath>
<clipPath id="clip9_622_8">
<rect width="36" height="36" fill="white" transform="translate(152.441 123) rotate(11.9286)"/>
</clipPath>
<clipPath id="clip10_622_8">
<rect width="36" height="36" fill="white" transform="translate(239.441 619) rotate(11.9286)"/>
</clipPath>
<clipPath id="clip11_622_8">
<rect width="36" height="36" fill="white" transform="translate(230.441 1133) rotate(11.9286)"/>
</clipPath>
<clipPath id="clip12_622_8">
<rect width="45.4" height="48.4" fill="white" transform="translate(87 865)"/>
</clipPath>
</defs>
</svg>
