<svg width="28" height="29" viewBox="0 0 28 29" fill="none" xmlns="http://www.w3.org/2000/svg">
<path d="M16.1752 0.857747C16.5077 1.73111 17.6102 1.99312 18.3102 1.39923C19.1852 0.665608 20.5152 1.25949 20.5502 2.39487C20.5677 3.32063 21.4952 3.94945 22.3702 3.63504C23.4377 3.23329 24.4877 4.26386 24.1202 5.32936C23.8227 6.20273 24.4877 7.12849 25.4152 7.11102C26.5527 7.11102 27.2002 8.42107 26.4827 9.3119C25.9052 10.0455 26.2027 11.111 27.0777 11.4254C28.1452 11.8097 28.3027 13.2595 27.3227 13.8534C26.5352 14.3425 26.4477 15.4604 27.1652 16.0543C28.0402 16.7879 27.6902 18.2027 26.5702 18.4298C25.6602 18.6045 25.1877 19.635 25.6602 20.4385C26.2377 21.4167 25.4152 22.6394 24.2777 22.4647C23.3502 22.325 22.5802 23.1285 22.7377 24.0368C22.9477 25.1547 21.7577 26.0106 20.7602 25.4691C19.9377 25.015 18.9227 25.504 18.7652 26.4298C18.5727 27.5477 17.1727 27.9495 16.4202 27.0936C15.8077 26.3949 14.6877 26.5171 14.2327 27.3206C13.6727 28.3163 12.2027 28.2115 11.8002 27.146C11.4677 26.2726 10.3652 26.0106 9.6652 26.6045C8.7902 27.3381 7.4602 26.7442 7.4252 25.6088C7.4077 24.6831 6.4802 24.0543 5.6052 24.3687C4.5377 24.7704 3.4877 23.7398 3.8552 22.6743C4.1527 21.801 3.4877 20.8752 2.5602 20.8927C1.4227 20.8927 0.775204 19.5826 1.4927 18.6918C2.0702 17.9582 1.7727 16.8927 0.897704 16.5783C-0.169796 16.194 -0.327296 14.7442 0.652704 14.1503C1.4402 13.6612 1.5277 12.5433 0.810204 11.9495C-0.0647965 11.2158 0.285204 9.80098 1.4052 9.5739C2.3152 9.39923 2.7877 8.36866 2.3152 7.56517C1.7377 6.58701 2.5602 5.3643 3.6977 5.53897C4.6252 5.67871 5.3952 4.87521 5.2377 3.96692C5.0277 2.84901 6.2177 1.99312 7.2152 2.5346C8.0377 2.98875 9.0527 2.49967 9.2102 1.5739C9.4027 0.456001 10.8027 0.054254 11.5552 0.910149C12.1677 1.60884 13.2877 1.48657 13.7427 0.683075C14.3027 -0.312558 15.7552 -0.190287 16.1752 0.857747Z" fill="#DE6C92"/>
<path d="M8.72492 17V12.122H10.4709V10.997H5.68292V12.122H7.43792V17H8.72492ZM13.9145 17.108C15.7325 17.108 17.0555 15.812 17.0555 14.003C17.0555 12.194 15.7325 10.898 13.9145 10.898C12.1055 10.898 10.7825 12.194 10.7825 14.003C10.7825 15.812 12.1055 17.108 13.9145 17.108ZM13.9145 15.974C12.8075 15.974 12.0965 15.119 12.0965 14.003C12.0965 12.878 12.8075 12.032 13.9145 12.032C15.0215 12.032 15.7415 12.878 15.7415 14.003C15.7415 15.119 15.0215 15.974 13.9145 15.974ZM19.2303 17V14.867H20.7603C22.0563 14.867 22.7763 13.976 22.7763 12.932C22.7763 11.879 22.0653 10.997 20.7603 10.997H17.9523V17H19.2303ZM20.5893 13.742H19.2303V12.122H20.5893C21.0933 12.122 21.4713 12.428 21.4713 12.932C21.4713 13.427 21.0933 13.742 20.5893 13.742Z" fill="white"/>
</svg>
